<svg xmlns="http://www.w3.org/2000/svg" width="65" height="65" viewBox="0 0 65 65" fill="none">
  <path d="M42.3855 11.8501C43.9948 11.5205 45.5861 12.4868 46.0359 14.0667L47.6832 19.8534C47.8889 20.5759 48.3468 21.2007 48.9737 21.6145L53.9952 24.9287C55.3662 25.8335 55.8082 27.6421 55.009 29.0772L52.0821 34.3339C51.7167 34.9902 51.5986 35.7558 51.7493 36.4917L52.9565 42.3859C53.2861 43.9951 52.3198 45.5865 50.74 46.0362L44.9533 47.6836C44.2308 47.8893 43.606 48.3471 43.1922 48.9741L39.878 53.9956C38.9731 55.3665 37.1646 55.8085 35.7294 55.0094L30.4728 52.0824C29.8165 51.717 29.0509 51.5989 28.315 51.7497L22.4208 52.9569C20.8115 53.2865 19.2202 52.3202 18.7704 50.7403L17.1231 44.9536C16.9174 44.2312 16.4596 43.6063 15.8326 43.1926L10.8111 39.8783C9.44014 38.9735 8.99817 37.165 9.79728 35.7298L12.7242 30.4731C13.0897 29.8168 13.2077 29.0513 13.057 28.3154L11.8498 22.4211C11.5202 20.8119 12.4865 19.2205 14.0664 18.7708L19.853 17.1234C20.5755 16.9178 21.2003 16.4599 21.6141 15.833L24.9283 10.8115C25.8332 9.4405 27.6417 8.99852 29.0769 9.79764L34.3335 12.7246C34.9898 13.09 35.7554 13.2081 36.4913 13.0574L42.3855 11.8501Z" fill="#FF5751"/>
  <path d="M41.408 13.8638C42.8595 13.5665 44.295 14.4381 44.7007 15.8632L46.1866 21.0829C46.3721 21.7346 46.7851 22.2982 47.3506 22.6714L51.8801 25.6609C53.1168 26.4771 53.5154 28.1084 52.7946 29.403L50.1545 34.1446C49.8248 34.7366 49.7183 35.4272 49.8543 36.091L50.9432 41.4077C51.2405 42.8592 50.3689 44.2947 48.9438 44.7004L43.7241 46.1863C43.0724 46.3718 42.5088 46.7848 42.1356 47.3503L39.1461 51.8798C38.3299 53.1165 36.6986 53.5152 35.404 52.7943L30.6624 50.1542C30.0704 49.8245 29.3799 49.718 28.7161 49.854L23.3993 50.943C21.9478 51.2403 20.5123 50.3686 20.1066 48.9435L18.6207 43.7238C18.4352 43.0721 18.0222 42.5085 17.4567 42.1353L12.9272 39.1458C11.6905 38.3296 11.2919 36.6983 12.0127 35.4037L14.6528 30.6621C14.9825 30.0701 15.089 29.3796 14.953 28.7158L13.8641 23.399C13.5668 21.9475 14.4384 20.512 15.8635 20.1063L21.0832 18.6204C21.7349 18.4349 22.2985 18.0219 22.6717 17.4564L25.6612 12.9269C26.4774 11.6902 28.1087 11.2916 29.4033 12.0124L34.1449 14.6526C34.7369 14.9822 35.4274 15.0887 36.0912 14.9527L41.408 13.8638Z" stroke="#FFD215" stroke-width="0.5"/>
</svg>