<svg width="156" height="46" viewBox="0 0 156 46" fill="none" xmlns="http://www.w3.org/2000/svg">
<mask id="mask0_889_59" style="mask-type:alpha" maskUnits="userSpaceOnUse" x="0" y="0" width="156" height="46">
<rect width="156" height="46" fill="#D9D9D9"/>
</mask>
<g mask="url(#mask0_889_59)">
<path d="M11.7775 5.33345C11.6508 5.26007 11.4943 5.2606 11.3681 5.33483L5.25963 8.92627C5.13551 8.99925 5.05929 9.13247 5.05929 9.27646V12.5407C5.05929 12.6849 5.1357 12.8182 5.26007 12.8912L7.68366 14.312C7.9524 14.4696 7.9511 14.8585 7.68132 15.0143L5.4704 16.2907C5.34388 16.3638 5.18787 16.3633 5.06184 16.2894L2.953 15.053C2.37969 14.7169 2.02747 14.1022 2.02747 13.4376V8.38088C2.02747 7.71716 2.37881 7.10302 2.95097 6.76663L10.6188 2.25834C11.2008 1.91616 11.9219 1.91375 12.5062 2.25202L29.8745 12.3078C30.4528 12.6426 30.8088 13.2602 30.8088 13.9284V22.6372C30.8088 23.3021 30.4562 23.9171 29.8824 24.2531L18.9912 30.6305C18.4129 30.9691 17.6977 30.9729 17.1159 30.6404L12.4694 27.9853C12.1972 27.8298 12.1963 27.4376 12.4678 27.2808L14.693 25.9961C14.8181 25.9239 14.9722 25.9236 15.0976 25.9952L17.8338 27.5588C17.96 27.6309 18.1152 27.6301 18.2406 27.5566L27.576 22.0903C27.7005 22.0174 27.777 21.884 27.777 21.7397V14.8309C27.777 14.686 27.6998 14.552 27.5743 14.4794L11.7775 5.33345Z" fill="white"/>
<path d="M20.693 18.8253C20.9645 18.6685 20.9636 18.2761 20.6912 18.1207L15.7147 15.2802C15.1335 14.9484 14.4193 14.952 13.8415 15.2897L2.92771 21.6683C2.35317 22.0041 2 22.6196 2 23.285L2 31.9857C2 32.6517 2.35376 33.2676 2.92906 33.6032L20.3151 43.7449C20.896 44.0837 21.6139 44.0851 22.1961 43.7485L29.8804 39.305C30.4591 38.9703 30.8156 38.3525 30.8156 37.6839V32.5356C30.8156 31.8683 30.4604 31.2513 29.8833 30.9162L27.6896 29.6425C27.5638 29.5695 27.4085 29.5693 27.2825 29.642L25.0663 30.9215C24.7959 31.0777 24.7954 31.4678 25.0655 31.6246L27.5815 33.0856C27.7067 33.1583 27.7837 33.2921 27.7837 33.4369V36.7808C27.7837 36.9258 27.7064 37.0599 27.5809 37.1325L21.4654 40.6687C21.3392 40.7418 21.1834 40.7415 21.0574 40.668L5.23337 31.4374C5.10857 31.3646 5.03182 31.231 5.03182 31.0865L5.03182 24.1833C5.03182 24.0389 5.10844 23.9054 5.23307 23.8326L14.5907 18.3636C14.7161 18.2903 14.871 18.2895 14.9971 18.3615L18.0627 20.1113C18.1881 20.1829 18.3421 20.1825 18.4672 20.1103L20.693 18.8253Z" fill="white"/>
<path fill-rule="evenodd" clip-rule="evenodd" d="M140.762 14.6921C140.538 14.6921 140.356 14.874 140.356 15.0983L140.356 21.0131L140.356 25.119C140.356 26.3424 139.364 27.3341 138.141 27.3341C138.13 27.3341 138.122 27.3256 138.122 27.315L138.122 13.8762C138.122 12.9107 138.804 12.1279 139.645 12.1279H152.93C153.771 12.1279 154.453 12.9107 154.453 13.8762V19.383C154.453 20.3204 153.81 21.0855 153.003 21.1293L154.313 23.2685C154.493 23.5629 154.59 23.914 154.59 24.2738V26.9584C154.59 27.1828 154.408 27.3647 154.184 27.3647H152.762C152.538 27.3647 152.356 27.1828 152.356 26.9584V24.6464C152.356 24.5715 152.335 24.4981 152.296 24.4342L150.28 21.1424C150.278 21.1387 150.275 21.135 150.273 21.1313H142.112C141.888 21.1313 141.706 20.9494 141.706 20.7251V18.9734C141.706 18.749 141.888 18.5671 142.112 18.5671H151.813C152.037 18.5671 152.219 18.3853 152.219 18.1609L152.219 15.0983C152.219 14.874 152.037 14.6921 151.813 14.6921H140.762ZM80.1886 13.9905C80.1886 13.019 80.8788 12.2338 81.7253 12.2422L95.1868 12.3769C96.0229 12.3853 96.6969 13.1655 96.6969 14.1251V20.5572C96.6969 21.5227 96.0149 22.3055 95.1735 22.3055H84.1142C83.8898 22.3055 83.7079 22.1236 83.7079 21.8992V20.1475C83.7079 19.9232 83.8898 19.7413 84.1142 19.7413L94.0564 19.7413C94.2808 19.7413 94.4626 19.5594 94.4626 19.3351V15.3361C94.4626 15.1133 94.2832 14.9321 94.0605 14.9299L82.5117 14.8144C82.4628 14.8139 82.4229 14.8534 82.4229 14.9023V25.3461C82.4229 26.5715 81.4295 27.5649 80.2041 27.5649C80.1955 27.5649 80.1886 27.558 80.1886 27.5495V13.9905ZM60.7323 17.7147L60.7323 12.4357C60.7323 12.4164 60.7479 12.4008 60.7672 12.4008C61.9818 12.4008 62.9665 13.3855 62.9665 14.6001L62.9665 17.1738C62.9665 17.2006 62.9807 17.2254 63.0037 17.2391L68.97 20.7642L74.7914 17.2998C74.9145 17.2266 74.9899 17.0939 74.9899 16.9507V12.9291C74.9899 12.7048 75.1718 12.5229 75.3961 12.5229H76.8179C77.0423 12.5229 77.2241 12.7048 77.2241 12.9291V17.665C77.2241 18.3037 76.9207 18.8915 76.4327 19.1983L70.1047 22.9759C70.0791 22.9911 70.0525 23.0033 70.0255 23.0124V27.1464C70.0255 27.3708 69.8436 27.5527 69.6192 27.5527H68.1974C67.9731 27.5527 67.7912 27.3708 67.7912 27.1464V23.1836C67.7912 23.0399 67.7153 22.9069 67.5916 22.8338L61.5583 19.2691C61.0511 18.9694 60.7323 18.3695 60.7323 17.7147ZM55.7271 15.3111C55.7271 15.1495 55.5961 15.0184 55.4345 15.0184L44.1921 15.0184C42.8054 15.0184 41.6812 13.8944 41.681 12.5077C41.681 12.4782 41.705 12.4543 41.7345 12.4543L56.4424 12.4543C57.2995 12.4543 57.9613 13.2552 57.9614 14.2025L57.9614 16.8021C57.9614 18.2817 57.0633 19.5615 55.8037 19.8768L44.0967 22.8075C43.8635 22.8659 43.6971 23.1029 43.6971 23.3769V24.7894C43.6971 25.0138 43.879 25.1957 44.1034 25.1957H57.4835C57.6416 25.1957 57.7697 25.3238 57.7697 25.4819V27.3536C57.7697 27.578 57.5879 27.7598 57.3635 27.7598H42.9862C42.1449 27.7598 41.4629 26.9771 41.4629 26.0115V23.3769C41.4629 21.8973 42.361 20.6176 43.6206 20.3022L55.3276 17.3716C55.5608 17.3132 55.7271 17.0762 55.7271 16.8022L55.7271 15.3111ZM99.5228 12.5502V18.8781V20.0941V27.1468C99.5228 27.3711 99.7047 27.553 99.929 27.553H101.351C101.575 27.553 101.757 27.3711 101.757 27.1468V21.8424H113.742V27.1458C113.742 27.3701 113.924 27.552 114.148 27.552H115.57C115.794 27.552 115.976 27.3701 115.976 27.1458V18.8304L115.976 18.8178V12.9291C115.976 12.7048 115.794 12.5229 115.57 12.5229H114.148C113.924 12.5229 113.742 12.7048 113.742 12.9291V18.872C113.742 19.0964 113.56 19.2783 113.335 19.2783H101.839C101.794 19.2783 101.757 19.2414 101.757 19.1959V18.8781V14.7299C101.757 13.511 100.769 12.5229 99.5501 12.5229C99.535 12.5229 99.5228 12.5351 99.5228 12.5502ZM118.807 14.0537C118.807 13.0881 119.489 12.3054 120.33 12.3054H135.044C135.059 12.3054 135.072 12.318 135.072 12.3336C135.072 13.7341 133.937 14.8695 132.536 14.8695H121.196C121.11 14.8695 121.041 14.9386 121.041 15.0237V18.718L133.37 18.718C133.595 18.718 133.777 18.8998 133.777 19.1242V20.8759C133.777 21.1002 133.595 21.2821 133.37 21.2821L121.041 21.2821V24.9733C121.041 25.0603 121.112 25.1309 121.199 25.1309H132.537C133.937 25.1309 135.072 26.266 135.072 27.6663C135.072 27.6822 135.059 27.6951 135.043 27.6951H120.33C119.489 27.6951 118.807 26.9124 118.807 25.9468V14.0537Z" fill="white"/>
<path d="M45.9736 35.273C45.8852 35.273 45.808 35.2154 45.7751 35.1333C45.7259 35.0105 45.6663 34.8976 45.5962 34.7946C45.5023 34.6518 45.3898 34.5305 45.2587 34.4307C45.1276 34.3289 44.9779 34.2516 44.8097 34.1988C44.6433 34.146 44.4604 34.1196 44.2608 34.1196C43.9223 34.1196 43.617 34.2066 43.3451 34.3808C43.0731 34.5549 42.8578 34.8103 42.6993 35.1468C42.5428 35.4814 42.4645 35.8914 42.4645 36.3766C42.4645 36.8638 42.5438 37.2757 42.7023 37.6123C42.8608 37.9488 43.078 38.2042 43.3539 38.3783C43.6298 38.5525 43.9438 38.6395 44.296 38.6395C44.6228 38.6395 44.9075 38.573 45.1501 38.44C45.3947 38.3069 45.5835 38.1191 45.7166 37.8764C45.8483 37.6378 45.9158 37.3582 45.919 37.0376C45.9191 37.0251 45.9305 37.0157 45.9428 37.018C45.9666 37.0224 45.9633 37.0576 45.9391 37.0576H44.5802C44.4994 37.0576 44.434 36.9921 44.434 36.9113V36.5122C44.434 36.4 44.5249 36.3091 44.6371 36.3091H46.5936C46.7057 36.3091 46.7967 36.4 46.7967 36.5122V36.993C46.7967 37.4978 46.6891 37.9361 46.4738 38.3079C46.2605 38.6777 45.9651 38.9634 45.5874 39.1649C45.2118 39.3665 44.7813 39.4672 44.296 39.4672C43.7521 39.4672 43.2746 39.342 42.8637 39.0915C42.4548 38.8411 42.1358 38.4859 41.9069 38.0261C41.6779 37.5643 41.5635 37.0165 41.5635 36.3825C41.5635 35.9031 41.63 35.4726 41.7631 35.0911C41.8961 34.7095 42.083 34.3857 42.3237 34.1196C42.5663 33.8515 42.851 33.647 43.1778 33.5061C43.5065 33.3633 43.8655 33.2919 44.2549 33.2919C44.5797 33.2919 44.882 33.3398 45.1619 33.4357C45.4436 33.5316 45.6941 33.6676 45.9132 33.8437C46.1343 34.0198 46.3173 34.2291 46.4621 34.4718C46.5672 34.6464 46.6475 34.835 46.7032 35.0375C46.7365 35.1591 46.6403 35.273 46.5142 35.273H45.9736Z" fill="white"/>
<path d="M69.3935 39.2484C69.3651 39.3302 69.2881 39.3851 69.2015 39.3851H68.6724C68.5317 39.3851 68.4337 39.2455 68.4813 39.1132L70.4983 33.5084C70.5273 33.4278 70.6037 33.3741 70.6894 33.3741H71.4516C71.5373 33.3741 71.6138 33.4278 71.6428 33.5084L73.6597 39.1132C73.7073 39.2455 73.6093 39.3851 73.4686 39.3851H72.9396C72.853 39.3851 72.7759 39.3301 72.7476 39.2483L71.1031 34.4881C71.0985 34.4748 71.086 34.4659 71.072 34.4659C71.0579 34.4659 71.0454 34.4748 71.0408 34.4881L69.3935 39.2484ZM69.5076 37.2342C69.5076 37.1221 69.5985 37.0311 69.7107 37.0311H72.4274C72.5396 37.0311 72.6305 37.1221 72.6305 37.2342V37.5911C72.6305 37.7033 72.5396 37.7943 72.4274 37.7943H69.7107C69.5985 37.7943 69.5076 37.7033 69.5076 37.5911V37.2342Z" fill="white"/>
<path d="M95.7017 33.5772C95.7017 33.465 95.7926 33.3741 95.9048 33.3741H96.666C96.7485 33.3741 96.8227 33.4239 96.854 33.5002L98.7026 38.0141C98.7107 38.0338 98.7299 38.0467 98.7512 38.0467C98.7725 38.0467 98.7917 38.0338 98.7998 38.0141L100.648 33.5002C100.68 33.4239 100.754 33.3741 100.836 33.3741H101.598C101.71 33.3741 101.801 33.465 101.801 33.5772V39.1819C101.801 39.2941 101.71 39.3851 101.598 39.3851H101.141C101.029 39.3851 100.938 39.2941 100.938 39.1819V35.0687C100.938 35.0502 100.923 35.0353 100.904 35.0353C100.891 35.0353 100.879 35.0435 100.874 35.056L99.1609 39.2499C99.1297 39.3263 99.0553 39.3762 98.9728 39.3762H98.5296C98.4471 39.3762 98.3727 39.3263 98.3415 39.2499L96.6288 35.0531C96.6237 35.0406 96.6115 35.0324 96.5979 35.0324C96.5795 35.0324 96.5646 35.0473 96.5646 35.0657V39.1819C96.5646 39.2941 96.4736 39.3851 96.3615 39.3851H95.9048C95.7926 39.3851 95.7017 39.2941 95.7017 39.1819V33.5772Z" fill="white"/>
<path d="M124.398 39.3851C124.286 39.3851 124.195 39.2941 124.195 39.1819V33.5772C124.195 33.465 124.286 33.3741 124.398 33.3741H127.761C127.873 33.3741 127.964 33.465 127.964 33.5772V33.9517C127.964 34.0638 127.873 34.1548 127.761 34.1548H125.305C125.193 34.1548 125.102 34.2457 125.102 34.3579V35.7831C125.102 35.8953 125.193 35.9863 125.305 35.9863H127.564C127.676 35.9863 127.767 36.0772 127.767 36.1894V36.5609C127.767 36.6731 127.676 36.764 127.564 36.764H125.305C125.193 36.764 125.102 36.855 125.102 36.9672V38.4012C125.102 38.5134 125.193 38.6043 125.305 38.6043H127.796C127.908 38.6043 127.999 38.6953 127.999 38.8074V39.1819C127.999 39.2941 127.908 39.3851 127.796 39.3851H124.398Z" fill="white"/>
<path d="M153.711 34.9531C153.608 34.9531 153.524 34.8744 153.494 34.7754C153.436 34.5818 153.319 34.4258 153.143 34.3074C152.916 34.1528 152.63 34.0755 152.285 34.0755C152.039 34.0755 151.826 34.1147 151.646 34.1929C151.466 34.2692 151.326 34.3749 151.226 34.5099C151.128 34.643 151.079 34.7946 151.079 34.9649C151.079 35.1077 151.112 35.231 151.179 35.3347C151.247 35.4384 151.336 35.5254 151.446 35.5959C151.558 35.6644 151.677 35.7221 151.804 35.7691C151.931 35.8141 152.054 35.8512 152.171 35.8806L152.758 36.0332C152.95 36.0802 153.146 36.1438 153.348 36.224C153.55 36.3042 153.736 36.4099 153.909 36.541C154.081 36.6721 154.22 36.8345 154.325 37.0282C154.433 37.2219 154.487 37.4538 154.487 37.7238C154.487 38.0643 154.399 38.3666 154.223 38.6307C154.048 38.8949 153.795 39.1033 153.462 39.2559C153.132 39.4085 152.732 39.4848 152.262 39.4848C151.812 39.4848 151.423 39.4134 151.094 39.2706C150.765 39.1277 150.508 38.9252 150.322 38.663C150.174 38.4522 150.078 38.2102 150.036 37.937C150.018 37.8219 150.112 37.7238 150.228 37.7238H150.736C150.842 37.7238 150.928 37.8059 150.953 37.9085C150.988 38.0458 151.048 38.1652 151.135 38.2668C151.26 38.4096 151.42 38.5163 151.613 38.5867C151.809 38.6552 152.023 38.6894 152.256 38.6894C152.512 38.6894 152.74 38.6493 152.94 38.5691C153.142 38.4869 153.3 38.3734 153.415 38.2286C153.531 38.0819 153.589 37.9107 153.589 37.715C153.589 37.5369 153.538 37.3912 153.436 37.2777C153.336 37.1642 153.2 37.0703 153.028 36.9959C152.858 36.9216 152.665 36.856 152.45 36.7993L151.74 36.6056C151.258 36.4745 150.877 36.2817 150.595 36.0273C150.315 35.773 150.175 35.4364 150.175 35.0177C150.175 34.6713 150.269 34.369 150.457 34.1108C150.645 33.8525 150.899 33.6519 151.22 33.5091C151.541 33.3643 151.903 33.2919 152.306 33.2919C152.713 33.2919 153.072 33.3633 153.383 33.5061C153.696 33.649 153.943 33.8456 154.123 34.0961C154.263 34.29 154.351 34.5066 154.387 34.7459C154.404 34.8588 154.311 34.9531 154.197 34.9531H153.711Z" fill="white"/>
</g>
</svg>
