<svg width="26" height="21" viewBox="0 0 26 21" fill="none" xmlns="http://www.w3.org/2000/svg">
<mask id="path-1-outside-1_1234_1367" maskUnits="userSpaceOnUse" x="0.500004" y="0" width="25" height="21" fill="black">
<rect fill="white" x="0.500004" width="25" height="21"/>
<path fill-rule="evenodd" clip-rule="evenodd" d="M1.51314 5.39059C1.51288 5.40491 1.51319 5.41945 1.51409 5.4342C1.71902 8.79419 2.32804 11.3108 2.9408 12.9946C2.97521 13.0892 3.02352 13.1764 3.08327 13.2542C3.4281 14.1303 3.76401 14.7413 4.01898 15.089C3.89243 15.0612 3.78077 15.0354 3.68437 15.0124C3.45968 14.9589 3.23913 15.1292 3.23913 15.3602V17.7136L3.84931 17.7069C3.45478 17.8706 3.23911 18.0477 3.23911 18.2326C3.23911 19.0632 7.5898 19.7366 12.9567 19.7366C18.3235 19.7366 22.6742 19.0632 22.6742 18.2326C22.6742 17.9719 22.2456 17.7267 21.4914 17.513L22.6742 17.4999V15.3358C22.6742 15.1124 22.4662 14.9453 22.2472 14.9899C22.1303 15.0137 21.9903 15.0414 21.8287 15.072C22.1701 14.6098 22.4707 14.0462 22.7348 13.4173C22.8038 13.3358 22.8596 13.2425 22.8987 13.1397C23.8121 10.7382 24.2449 7.56007 24.3991 5.39347C24.4019 5.35396 24.4004 5.31597 24.3952 5.27973L24.396 5.26846C24.3983 5.2364 24.3978 5.20535 24.3947 5.17543C24.4038 5.174 24.4117 5.17006 24.4121 5.16403C24.4434 4.7295 23.9531 4.47238 23.6044 4.73354L19.8573 7.53994C19.6965 7.66037 19.4807 7.67742 19.303 7.58373L17.9562 6.87374C17.8479 6.81664 17.7632 6.72316 17.7171 6.60976L15.6974 1.648C15.5379 1.2562 15.157 1.00001 14.734 1.00001H14.5575L14.5523 1H11.2825L11.2774 1.00001H11.1492C10.7262 1.00001 10.3453 1.2562 10.1858 1.648L8.17077 6.59837C8.12181 6.71864 8.02963 6.81625 7.91235 6.872L6.3838 7.59857C6.20526 7.68344 5.99404 7.65975 5.83874 7.53743L2.32638 4.77097C1.97958 4.49781 1.47482 4.75423 1.50098 5.19492C1.50488 5.26051 1.50893 5.32574 1.51314 5.39059Z"/>
</mask>
<path fill-rule="evenodd" clip-rule="evenodd" d="M1.51314 5.39059C1.51288 5.40491 1.51319 5.41945 1.51409 5.4342C1.71902 8.79419 2.32804 11.3108 2.9408 12.9946C2.97521 13.0892 3.02352 13.1764 3.08327 13.2542C3.4281 14.1303 3.76401 14.7413 4.01898 15.089C3.89243 15.0612 3.78077 15.0354 3.68437 15.0124C3.45968 14.9589 3.23913 15.1292 3.23913 15.3602V17.7136L3.84931 17.7069C3.45478 17.8706 3.23911 18.0477 3.23911 18.2326C3.23911 19.0632 7.5898 19.7366 12.9567 19.7366C18.3235 19.7366 22.6742 19.0632 22.6742 18.2326C22.6742 17.9719 22.2456 17.7267 21.4914 17.513L22.6742 17.4999V15.3358C22.6742 15.1124 22.4662 14.9453 22.2472 14.9899C22.1303 15.0137 21.9903 15.0414 21.8287 15.072C22.1701 14.6098 22.4707 14.0462 22.7348 13.4173C22.8038 13.3358 22.8596 13.2425 22.8987 13.1397C23.8121 10.7382 24.2449 7.56007 24.3991 5.39347C24.4019 5.35396 24.4004 5.31597 24.3952 5.27973L24.396 5.26846C24.3983 5.2364 24.3978 5.20535 24.3947 5.17543C24.4038 5.174 24.4117 5.17006 24.4121 5.16403C24.4434 4.7295 23.9531 4.47238 23.6044 4.73354L19.8573 7.53994C19.6965 7.66037 19.4807 7.67742 19.303 7.58373L17.9562 6.87374C17.8479 6.81664 17.7632 6.72316 17.7171 6.60976L15.6974 1.648C15.5379 1.2562 15.157 1.00001 14.734 1.00001H14.5575L14.5523 1H11.2825L11.2774 1.00001H11.1492C10.7262 1.00001 10.3453 1.2562 10.1858 1.648L8.17077 6.59837C8.12181 6.71864 8.02963 6.81625 7.91235 6.872L6.3838 7.59857C6.20526 7.68344 5.99404 7.65975 5.83874 7.53743L2.32638 4.77097C1.97958 4.49781 1.47482 4.75423 1.50098 5.19492C1.50488 5.26051 1.50893 5.32574 1.51314 5.39059Z" fill="#523100"/>
<path d="M1.51409 5.4342L0.865298 5.47377L1.51409 5.4342ZM1.51314 5.39059L2.16303 5.40212L2.16351 5.37529L2.16177 5.34852L1.51314 5.39059ZM2.9408 12.9946L2.32999 13.2169L2.32999 13.2169L2.9408 12.9946ZM3.08327 13.2542L3.68811 13.0161L3.65454 12.9308L3.59871 12.8582L3.08327 13.2542ZM4.01898 15.089L3.87913 15.7238L5.56219 16.0946L4.5432 14.7047L4.01898 15.089ZM3.68437 15.0124L3.53368 15.6447L3.68437 15.0124ZM3.23913 17.7136H2.58913V18.3708L3.24627 18.3636L3.23913 17.7136ZM3.84931 17.7069L4.09834 18.3073L3.84217 17.057L3.84931 17.7069ZM21.4914 17.513L21.4843 16.863L21.3142 18.1383L21.4914 17.513ZM22.6742 17.4999L22.6814 18.1499L23.3242 18.1428V17.4999H22.6742ZM22.2472 14.9899L22.3769 15.6268L22.3769 15.6268L22.2472 14.9899ZM21.8287 15.072L21.3059 14.6858L20.3213 16.0189L21.9496 15.7106L21.8287 15.072ZM22.7348 13.4173L22.2388 12.9972L22.1742 13.0735L22.1355 13.1656L22.7348 13.4173ZM22.8987 13.1397L23.5063 13.3707V13.3707L22.8987 13.1397ZM24.3991 5.39347L25.0474 5.43961V5.4396L24.3991 5.39347ZM24.3952 5.27973L23.7469 5.23344L23.7419 5.3032L23.7519 5.37242L24.3952 5.27973ZM24.396 5.26846L25.0444 5.31475L25.0444 5.3146L24.396 5.26846ZM24.3947 5.17543L24.2942 4.53324L23.6853 4.62856L23.7481 5.2417L24.3947 5.17543ZM24.4121 5.16403L23.7638 5.11745L23.7638 5.1175L24.4121 5.16403ZM23.6044 4.73354L23.994 5.2538L23.6044 4.73354ZM19.8573 7.53994L19.4676 7.01968L19.4676 7.01968L19.8573 7.53994ZM19.303 7.58373L18.9999 8.15872L19.303 7.58373ZM17.9562 6.87374L18.2593 6.29875L18.2593 6.29874L17.9562 6.87374ZM17.7171 6.60976L17.115 6.85482L17.115 6.85482L17.7171 6.60976ZM15.6974 1.648L16.2994 1.40294V1.40294L15.6974 1.648ZM14.5575 1.00001L14.5558 1.65001H14.5575V1.00001ZM14.5523 1L14.5539 0.35H14.5523V1ZM11.2825 1V0.349998L11.2809 0.350002L11.2825 1ZM11.2774 1.00001V1.65001L11.279 1.65001L11.2774 1.00001ZM10.1858 1.648L9.58381 1.40294V1.40294L10.1858 1.648ZM8.17077 6.59837L8.7728 6.84343L8.17077 6.59837ZM7.91235 6.872L8.1914 7.45905L8.1914 7.45905L7.91235 6.872ZM6.3838 7.59857L6.10475 7.01152V7.01152L6.3838 7.59857ZM5.83874 7.53743L5.43655 8.04806L5.43655 8.04806L5.83874 7.53743ZM2.32638 4.77097L2.72857 4.26034H2.72857L2.32638 4.77097ZM1.50098 5.19492L2.14984 5.15639V5.15639L1.50098 5.19492ZM2.16289 5.39463C2.16302 5.39673 2.16309 5.39923 2.16303 5.40212L0.863239 5.37907C0.86268 5.41058 0.863371 5.44216 0.865298 5.47377L2.16289 5.39463ZM3.55161 12.7723C2.96189 11.1518 2.36431 8.69722 2.16289 5.39463L0.865298 5.47377C1.07373 8.89116 1.69419 11.4698 2.32999 13.2169L3.55161 12.7723ZM3.59871 12.8582C3.57899 12.8325 3.56305 12.8037 3.55161 12.7723L2.32999 13.2169C2.38738 13.3746 2.46805 13.5203 2.56784 13.6502L3.59871 12.8582ZM4.5432 14.7047C4.33267 14.4176 4.02099 13.8619 3.68811 13.0161L2.47844 13.4923C2.83522 14.3987 3.19535 15.0649 3.49477 15.4734L4.5432 14.7047ZM3.53368 15.6447C3.63363 15.6685 3.74891 15.6951 3.87913 15.7238L4.15884 14.4543C4.03596 14.4272 3.92791 14.4023 3.83506 14.3801L3.53368 15.6447ZM3.88913 15.3602C3.88913 15.5591 3.70764 15.6862 3.53368 15.6447L3.83506 14.3801C3.21172 14.2316 2.58913 14.6992 2.58913 15.3602H3.88913ZM3.88913 17.7136V15.3602H2.58913V17.7136H3.88913ZM3.84217 17.057L3.23198 17.0637L3.24627 18.3636L3.85646 18.3569L3.84217 17.057ZM3.88911 18.2326C3.88911 18.3185 3.86284 18.3846 3.84024 18.4233C3.82001 18.458 3.80485 18.4676 3.81753 18.4568C3.8293 18.4468 3.85633 18.4266 3.90578 18.3989C3.9544 18.3716 4.01788 18.3407 4.09834 18.3073L3.60028 17.1065C3.37445 17.2002 3.15185 17.3163 2.975 17.4668C2.80341 17.6128 2.58911 17.8678 2.58911 18.2326H3.88911ZM12.9567 19.0866C10.2959 19.0866 7.90129 18.9194 6.18473 18.6537C5.32136 18.5201 4.65865 18.3659 4.22612 18.2076C4.00609 18.1271 3.88382 18.059 3.82863 18.0173C3.75891 17.9646 3.88911 18.0316 3.88911 18.2326H2.58911C2.58911 18.6413 2.85527 18.9111 3.04445 19.0541C3.24815 19.2082 3.50771 19.329 3.77941 19.4284C4.33035 19.63 5.09074 19.7999 5.9859 19.9384C7.78639 20.2171 10.2506 20.3866 12.9567 20.3866V19.0866ZM22.0242 18.2326C22.0242 18.0316 22.1544 17.9646 22.0847 18.0173C22.0295 18.059 21.9072 18.1271 21.6872 18.2076C21.2547 18.3659 20.5919 18.5201 19.7286 18.6537C18.012 18.9194 15.6174 19.0866 12.9567 19.0866V20.3866C15.6627 20.3866 18.1269 20.2171 19.9274 19.9384C20.8226 19.7999 21.583 19.63 22.1339 19.4284C22.4056 19.329 22.6651 19.2082 22.8689 19.0541C23.058 18.9111 23.3242 18.6413 23.3242 18.2326H22.0242ZM21.3142 18.1383C21.6701 18.2392 21.9023 18.3354 22.0317 18.4129C22.0961 18.4514 22.106 18.4684 22.094 18.4539C22.0782 18.4347 22.0242 18.3575 22.0242 18.2326H23.3242C23.3242 17.7277 22.9261 17.4332 22.6995 17.2975C22.426 17.1338 22.0669 17.0005 21.6687 16.8876L21.3142 18.1383ZM22.6671 16.85L21.4843 16.863L21.4986 18.1629L22.6814 18.1499L22.6671 16.85ZM22.0242 15.3358V17.4999H23.3242V15.3358H22.0242ZM22.3769 15.6268C22.2004 15.6628 22.0242 15.5309 22.0242 15.3358H23.3242C23.3242 14.6938 22.7321 14.2279 22.1176 14.353L22.3769 15.6268ZM21.9496 15.7106C22.1142 15.6795 22.2571 15.6512 22.3769 15.6268L22.1176 14.353C22.0034 14.3762 21.8664 14.4033 21.7078 14.4333L21.9496 15.7106ZM22.1355 13.1656C21.8847 13.763 21.6076 14.2774 21.3059 14.6858L22.3516 15.4581C22.7326 14.9423 23.0568 14.3294 23.3341 13.6689L22.1355 13.1656ZM22.2912 12.9086C22.2788 12.9411 22.2612 12.9708 22.2388 12.9972L23.2309 13.8373C23.3465 13.7008 23.4404 13.5438 23.5063 13.3707L22.2912 12.9086ZM23.7507 5.34733C23.5981 7.49266 23.1708 10.596 22.2912 12.9086L23.5063 13.3707C24.4535 10.8804 24.8918 7.62748 25.0474 5.43961L23.7507 5.34733ZM23.7519 5.37242C23.7503 5.36183 23.7503 5.35326 23.7507 5.34734L25.0474 5.4396C25.0535 5.35465 25.0505 5.2701 25.0386 5.18704L23.7519 5.37242ZM23.7477 5.22217L23.7469 5.23344L25.0436 5.32602L25.0444 5.31475L23.7477 5.22217ZM23.7481 5.2417C23.7473 5.23362 23.7473 5.22705 23.7477 5.22232L25.0444 5.3146C25.0493 5.24575 25.0483 5.17708 25.0413 5.10916L23.7481 5.2417ZM23.7638 5.1175C23.7851 4.82154 23.9853 4.66672 24.07 4.61543C24.1624 4.55952 24.2469 4.54065 24.2942 4.53324L24.4952 5.81761C24.5517 5.80878 24.6447 5.78722 24.7433 5.72748C24.8344 5.67236 25.0388 5.51256 25.0605 5.21057L23.7638 5.1175ZM23.994 5.2538C23.9789 5.26511 23.9532 5.27637 23.9221 5.27829C23.8937 5.28004 23.8679 5.27365 23.8465 5.26229C23.8249 5.2509 23.8026 5.23166 23.7858 5.20268C23.7674 5.17104 23.7623 5.13879 23.7638 5.11745L25.0605 5.21062C25.1335 4.19398 23.988 3.63408 23.2147 4.21328L23.994 5.2538ZM20.2469 8.0602L23.994 5.2538L23.2147 4.21328L19.4676 7.01968L20.2469 8.0602ZM18.9999 8.15872C19.3997 8.3695 19.8852 8.33115 20.2469 8.0602L19.4676 7.01968C19.5078 6.98959 19.5617 6.98533 19.6061 7.00874L18.9999 8.15872ZM17.6531 7.44873L18.9999 8.15872L19.6061 7.00874L18.2593 6.29875L17.6531 7.44873ZM17.115 6.85482C17.2189 7.10995 17.4094 7.32027 17.6531 7.44873L18.2593 6.29874C18.2864 6.31301 18.3076 6.33636 18.3191 6.36469L17.115 6.85482ZM15.0953 1.89306L17.115 6.85482L18.3191 6.3647L16.2994 1.40294L15.0953 1.89306ZM14.734 1.65001C14.8926 1.65001 15.0355 1.7461 15.0953 1.89306L16.2994 1.40294C16.0402 0.766296 15.4213 0.350013 14.734 0.350013V1.65001ZM14.5575 1.65001H14.734V0.350013H14.5575V1.65001ZM14.5507 1.65L14.5558 1.65001L14.5591 0.350015L14.5539 0.350002L14.5507 1.65ZM11.2825 1.65H14.5523V0.35H11.2825V1.65ZM11.279 1.65001L11.2842 1.65L11.2809 0.350002L11.2758 0.350015L11.279 1.65001ZM11.1492 1.65001H11.2774V0.350013H11.1492V1.65001ZM10.7879 1.89306C10.8477 1.7461 10.9906 1.65001 11.1492 1.65001V0.350013C10.4619 0.350013 9.84296 0.766294 9.58381 1.40294L10.7879 1.89306ZM8.7728 6.84343L10.7879 1.89306L9.58381 1.40294L7.56874 6.35331L8.7728 6.84343ZM8.1914 7.45905C8.45526 7.33362 8.66266 7.11403 8.7728 6.84343L7.56874 6.35331C7.58097 6.32326 7.604 6.29887 7.6333 6.28494L8.1914 7.45905ZM6.66285 8.18563L8.1914 7.45905L7.6333 6.28494L6.10475 7.01152L6.66285 8.18563ZM5.43655 8.04806C5.78595 8.32325 6.26116 8.37657 6.66285 8.18563L6.10475 7.01152C6.14936 6.99032 6.20213 6.99624 6.24093 7.0268L5.43655 8.04806ZM1.92419 5.28159L5.43655 8.04806L6.24093 7.0268L2.72857 4.26034L1.92419 5.28159ZM2.14984 5.15639C2.1511 5.17759 2.14546 5.20886 2.12747 5.23884C2.11111 5.26609 2.08986 5.28369 2.06982 5.29394C2.04981 5.30418 2.02498 5.31023 1.99672 5.30802C1.96555 5.30558 1.93952 5.29367 1.92419 5.28159L2.72857 4.26034C1.95565 3.65155 0.791634 4.21468 0.852124 5.23344L2.14984 5.15639ZM2.16177 5.34852C2.15764 5.28485 2.15366 5.22081 2.14984 5.15639L0.852124 5.23344C0.856089 5.30022 0.860216 5.36663 0.8645 5.43267L2.16177 5.34852Z" fill="#523100" mask="url(#path-1-outside-1_1234_1367)"/>
<path d="M1.55438 5.30918C1.89554 10.9028 3.3566 14.1589 4.09045 15.1268C10.9983 16.7298 18.7958 15.7947 21.8311 15.1268C23.5254 12.8944 24.2327 8.17269 24.4394 5.26846C24.4713 4.81975 23.9534 4.56723 23.6096 4.85738L19.8914 7.99567C19.7343 8.12823 19.5139 8.15586 19.329 8.06617L17.8574 7.35244C17.7375 7.29429 17.6445 7.19232 17.5976 7.06758L15.5692 1.674C15.4167 1.26851 15.0288 1 14.5956 1L11.3259 1C10.8927 1 10.5048 1.26851 10.3523 1.674L8.32707 7.05921C8.27829 7.18891 8.17976 7.29379 8.05334 7.35056L6.43806 8.07595C6.25142 8.15977 6.03298 8.12637 5.87991 7.99061L2.40074 4.90478C2.05973 4.60232 1.52663 4.85421 1.55438 5.30918Z" fill="url(#paint0_radial_1234_1367)"/>
<g filter="url(#filter0_i_1234_1367)">
<path fill-rule="evenodd" clip-rule="evenodd" d="M3.72772 15.0124C3.50302 14.9589 3.28248 15.1292 3.28248 15.3602V18.151H3.29653C3.28719 18.178 3.28246 18.2052 3.28246 18.2326C3.28246 19.0632 7.63315 19.7366 13 19.7366C18.3668 19.7366 22.7175 19.0632 22.7175 18.2326C22.7175 18.2052 22.7128 18.178 22.7035 18.151H22.7176V15.3358C22.7176 15.1124 22.5096 14.9453 22.2906 14.9899C21.0645 15.2395 17.3156 15.9134 12.5836 15.9134C7.98755 15.9134 4.84052 15.2776 3.72772 15.0124Z" fill="url(#paint1_linear_1234_1367)"/>
</g>
<mask id="mask0_1234_1367" style="mask-type:alpha" maskUnits="userSpaceOnUse" x="1" y="1" width="24" height="16">
<path fill-rule="evenodd" clip-rule="evenodd" d="M1.54432 5.1949C1.5486 5.26685 1.55306 5.33834 1.5577 5.40939C1.55749 5.39695 1.5577 5.38466 1.55832 5.37255C1.90657 10.9275 3.3594 14.1628 4.09048 15.127C10.9983 16.73 18.7958 15.7949 21.8311 15.127C23.5255 12.8947 24.2327 8.17293 24.4394 5.2687C24.4417 5.23657 24.4412 5.20544 24.4381 5.17544C24.4472 5.174 24.4551 5.17006 24.4555 5.16402C24.4867 4.72949 23.9964 4.47237 23.6477 4.73352L19.9006 7.53993C19.7398 7.66036 19.5241 7.67741 19.3463 7.58372L17.9996 6.87372C17.8913 6.81663 17.8066 6.72315 17.7604 6.60975L15.7407 1.64799C15.5812 1.25619 15.2003 1 14.7773 1L11.1926 1C10.7696 1 10.3887 1.25619 10.2292 1.64799L8.21411 6.59835C8.16515 6.71863 8.07297 6.81624 7.95569 6.87198L6.42715 7.59856C6.2486 7.68343 6.03738 7.65973 5.88208 7.53741L2.36972 4.77095C2.02292 4.4978 1.51816 4.75422 1.54432 5.1949Z" fill="url(#paint2_linear_1234_1367)"/>
</mask>
<g mask="url(#mask0_1234_1367)">
<g filter="url(#filter1_di_1234_1367)">
<path fill-rule="evenodd" clip-rule="evenodd" d="M1.55771 5.40948C1.55306 5.3384 1.5486 5.26688 1.54433 5.1949C1.51816 4.75422 2.02292 4.4978 2.36973 4.77095L5.88208 7.53741C6.03738 7.65973 6.24861 7.68343 6.42715 7.59856L7.95569 6.87198C8.07298 6.81624 8.16516 6.71863 8.21412 6.59835L10.2292 1.64799C10.3887 1.25619 10.7696 1 11.1926 1L14.7773 1C15.2003 1 15.5812 1.25619 15.7407 1.64799L17.7604 6.60975C17.8066 6.72315 17.8913 6.81663 17.9996 6.87372L19.3463 7.58372C19.5241 7.67741 19.7398 7.66036 19.9006 7.53993L23.6477 4.73352C23.9964 4.47237 24.4867 4.72949 24.4555 5.16402C24.4545 5.17769 24.4152 5.18062 24.4102 5.16788C24.2914 4.86985 23.8946 4.74499 23.6139 4.98189L19.8957 8.12018C19.7386 8.25274 19.5182 8.28037 19.3333 8.19068L17.8617 7.47696C17.7418 7.4188 17.6488 7.31683 17.6019 7.19209L15.5735 1.79851C15.421 1.39302 15.0331 1.12451 14.5999 1.12451L11.3302 1.12451C10.897 1.12451 10.5091 1.39302 10.3566 1.79851L8.33136 7.18372C8.28258 7.31343 8.18405 7.4183 8.05763 7.47507L6.44235 8.20047C6.25571 8.28428 6.03727 8.25088 5.8842 8.11512L2.40503 5.0293C2.07011 4.73224 1.54993 4.96989 1.55771 5.40948Z" fill="url(#paint3_linear_1234_1367)"/>
<path fill-rule="evenodd" clip-rule="evenodd" d="M2.98415 12.9946C3.08744 13.2784 3.31603 13.4965 3.6033 13.5898C5.3254 14.1493 8.17758 14.8477 12.8692 14.8477C16.8546 14.8477 20.0599 14.243 22.2376 13.7436C22.5584 13.67 22.8251 13.4473 22.9421 13.1396C23.8555 10.7382 24.2883 7.56006 24.4424 5.39346C24.4744 4.94475 23.9565 4.69223 23.6127 4.98238L19.8945 8.12067C19.7374 8.25323 19.517 8.28086 19.3321 8.19117L17.8605 7.47744C17.7406 7.41929 17.6476 7.31732 17.6006 7.19258L15.5722 1.799C15.4197 1.39351 15.0319 1.125 14.5987 1.125L11.329 1.125C10.8957 1.125 10.5079 1.39351 10.3554 1.799L8.33013 7.18421C8.28135 7.31391 8.18282 7.41879 8.0564 7.47556L6.44112 8.20095C6.25448 8.28477 6.03604 8.25137 5.88297 8.11561L2.4038 5.02978C2.06278 4.72732 1.52969 4.97921 1.55744 5.43418C1.76237 8.79418 2.37139 11.3108 2.98415 12.9946Z" fill="#DE8A1B"/>
<path fill-rule="evenodd" clip-rule="evenodd" d="M2.98415 12.9946C3.08744 13.2784 3.31603 13.4965 3.6033 13.5898C5.3254 14.1493 8.17758 14.8477 12.8692 14.8477C16.8546 14.8477 20.0599 14.243 22.2376 13.7436C22.5584 13.67 22.8251 13.4473 22.9421 13.1396C23.8555 10.7382 24.2883 7.56006 24.4424 5.39346C24.4744 4.94475 23.9565 4.69223 23.6127 4.98238L19.8945 8.12067C19.7374 8.25323 19.517 8.28086 19.3321 8.19117L17.8605 7.47744C17.7406 7.41929 17.6476 7.31732 17.6006 7.19258L15.5722 1.799C15.4197 1.39351 15.0319 1.125 14.5987 1.125L11.329 1.125C10.8957 1.125 10.5079 1.39351 10.3554 1.799L8.33013 7.18421C8.28135 7.31391 8.18282 7.41879 8.0564 7.47556L6.44112 8.20095C6.25448 8.28477 6.03604 8.25137 5.88297 8.11561L2.4038 5.02978C2.06278 4.72732 1.52969 4.97921 1.55744 5.43418C1.76237 8.79418 2.37139 11.3108 2.98415 12.9946Z" fill="url(#paint4_radial_1234_1367)"/>
<mask id="mask1_1234_1367" style="mask-type:alpha" maskUnits="userSpaceOnUse" x="1" y="1" width="24" height="14">
<path fill-rule="evenodd" clip-rule="evenodd" d="M2.95712 12.9198C3.07607 13.2515 3.34351 13.5066 3.67905 13.6143C5.40863 14.1694 8.24572 14.8477 12.8692 14.8477C16.8029 14.8477 19.9767 14.2586 22.1523 13.7631C22.5268 13.6778 22.8385 13.4181 22.9727 13.0583C23.8652 10.6668 24.29 7.5357 24.4424 5.39346C24.4744 4.94475 23.9565 4.69223 23.6127 4.98238L19.8945 8.12067C19.7374 8.25323 19.517 8.28086 19.3321 8.19117L17.8605 7.47744C17.7406 7.41929 17.6476 7.31732 17.6006 7.19258L15.5722 1.799C15.4197 1.39351 15.0319 1.125 14.5987 1.125L11.329 1.125C10.8957 1.125 10.5079 1.39351 10.3554 1.799L8.33013 7.18421C8.28135 7.31391 8.18282 7.41879 8.0564 7.47556L6.44112 8.20095C6.25448 8.28477 6.03604 8.25137 5.88297 8.11561L2.4038 5.02978C2.06278 4.72732 1.52969 4.97921 1.55744 5.43418C1.75935 8.74477 2.35357 11.2366 2.95712 12.9198Z" fill="url(#paint5_radial_1234_1367)"/>
</mask>
<g mask="url(#mask1_1234_1367)">
<g filter="url(#filter2_f_1234_1367)">
<path d="M3.93877 15.1271C2.76447 12.805 2.84444 6.56204 3.03121 3.73079L0.829967 3.16455L0.0361968 14.4554L3.93877 15.1271Z" fill="#FFEF62"/>
</g>
<g filter="url(#filter3_f_1234_1367)">
<path d="M21.2899 2.45284C22.6765 4.57566 22.3868 11.4084 22.4708 14.2477L25.514 13.8449L25.2275 2.51457L21.2899 2.45284Z" fill="#FFEF62"/>
</g>
<g filter="url(#filter4_f_1234_1367)">
<path d="M3.33302 15.1271C2.15872 12.805 2.23869 6.56204 2.42546 3.73079L0.22422 3.16455L-0.56955 14.4554L3.33302 15.1271Z" fill="#FFEF62"/>
</g>
<g filter="url(#filter5_f_1234_1367)">
<path d="M21.2899 2.45284C22.6764 4.57566 22.3867 11.4084 22.4708 14.2477L25.514 13.8449L25.2275 2.51457L21.2899 2.45284Z" fill="#FFEF62"/>
</g>
<g filter="url(#filter6_f_1234_1367)">
<path d="M21.2899 2.45284C22.6764 4.57566 22.3867 11.4084 22.4708 14.2477L25.514 13.8449L25.2275 2.51457L21.2899 2.45284Z" fill="#FFEF62"/>
</g>
<g filter="url(#filter7_f_1234_1367)">
<path d="M21.2899 2.45284C22.6764 4.57566 22.3867 11.4084 22.4708 14.2477L25.514 13.8449L25.2275 2.51457L21.2899 2.45284Z" fill="#FFEF62"/>
</g>
</g>
</g>
</g>
<g filter="url(#filter8_f_1234_1367)">
<path d="M8.35238 15.8188C9.19185 15.9034 11.2938 16.0473 12.9856 15.9457C12.1189 16.1089 9.97885 16.3119 8.35238 15.8188Z" fill="white"/>
</g>
<defs>
<filter id="filter0_i_1234_1367" x="3.28246" y="14.9827" width="19.4351" height="4.75391" filterUnits="userSpaceOnUse" color-interpolation-filters="sRGB">
<feFlood flood-opacity="0" result="BackgroundImageFix"/>
<feBlend mode="normal" in="SourceGraphic" in2="BackgroundImageFix" result="shape"/>
<feColorMatrix in="SourceAlpha" type="matrix" values="0 0 0 0 0 0 0 0 0 0 0 0 0 0 0 0 0 0 127 0" result="hardAlpha"/>
<feOffset/>
<feGaussianBlur stdDeviation="0.346712"/>
<feComposite in2="hardAlpha" operator="arithmetic" k2="-1" k3="1"/>
<feColorMatrix type="matrix" values="0 0 0 0 1 0 0 0 0 0.9735 0 0 0 0 0.3375 0 0 0 1 0"/>
<feBlend mode="normal" in2="shape" result="effect1_innerShadow_1234_1367"/>
</filter>
<filter id="filter1_di_1234_1367" x="1.19664" y="0.826644" width="23.607" height="14.5411" filterUnits="userSpaceOnUse" color-interpolation-filters="sRGB">
<feFlood flood-opacity="0" result="BackgroundImageFix"/>
<feColorMatrix in="SourceAlpha" type="matrix" values="0 0 0 0 0 0 0 0 0 0 0 0 0 0 0 0 0 0 127 0" result="hardAlpha"/>
<feOffset dy="0.173356"/>
<feGaussianBlur stdDeviation="0.173356"/>
<feComposite in2="hardAlpha" operator="out"/>
<feColorMatrix type="matrix" values="0 0 0 0 0.5 0 0 0 0 0.256333 0 0 0 0 0.00416666 0 0 0 0.4 0"/>
<feBlend mode="normal" in2="BackgroundImageFix" result="effect1_dropShadow_1234_1367"/>
<feBlend mode="normal" in="SourceGraphic" in2="effect1_dropShadow_1234_1367" result="shape"/>
<feColorMatrix in="SourceAlpha" type="matrix" values="0 0 0 0 0 0 0 0 0 0 0 0 0 0 0 0 0 0 127 0" result="hardAlpha"/>
<feOffset dy="-0.0866781"/>
<feGaussianBlur stdDeviation="0.0866781"/>
<feComposite in2="hardAlpha" operator="arithmetic" k2="-1" k3="1"/>
<feColorMatrix type="matrix" values="0 0 0 0 0.992157 0 0 0 0 0.968627 0 0 0 0 0.294118 0 0 0 0.2 0"/>
<feBlend mode="normal" in2="shape" result="effect2_innerShadow_1234_1367"/>
</filter>
<filter id="filter2_f_1234_1367" x="-3.08421" y="0.0441391" width="10.1434" height="18.2035" filterUnits="userSpaceOnUse" color-interpolation-filters="sRGB">
<feFlood flood-opacity="0" result="BackgroundImageFix"/>
<feBlend mode="normal" in="SourceGraphic" in2="BackgroundImageFix" result="shape"/>
<feGaussianBlur stdDeviation="1.56021" result="effect1_foregroundBlur_1234_1367"/>
</filter>
<filter id="filter3_f_1234_1367" x="18.1695" y="-0.667531" width="10.4649" height="18.0355" filterUnits="userSpaceOnUse" color-interpolation-filters="sRGB">
<feFlood flood-opacity="0" result="BackgroundImageFix"/>
<feBlend mode="normal" in="SourceGraphic" in2="BackgroundImageFix" result="shape"/>
<feGaussianBlur stdDeviation="1.56021" result="effect1_foregroundBlur_1234_1367"/>
</filter>
<filter id="filter4_f_1234_1367" x="-3.68996" y="0.0441391" width="10.1434" height="18.2035" filterUnits="userSpaceOnUse" color-interpolation-filters="sRGB">
<feFlood flood-opacity="0" result="BackgroundImageFix"/>
<feBlend mode="normal" in="SourceGraphic" in2="BackgroundImageFix" result="shape"/>
<feGaussianBlur stdDeviation="1.56021" result="effect1_foregroundBlur_1234_1367"/>
</filter>
<filter id="filter5_f_1234_1367" x="18.1695" y="-0.667531" width="10.4649" height="18.0355" filterUnits="userSpaceOnUse" color-interpolation-filters="sRGB">
<feFlood flood-opacity="0" result="BackgroundImageFix"/>
<feBlend mode="normal" in="SourceGraphic" in2="BackgroundImageFix" result="shape"/>
<feGaussianBlur stdDeviation="1.56021" result="effect1_foregroundBlur_1234_1367"/>
</filter>
<filter id="filter6_f_1234_1367" x="18.1695" y="-0.667531" width="10.4649" height="18.0355" filterUnits="userSpaceOnUse" color-interpolation-filters="sRGB">
<feFlood flood-opacity="0" result="BackgroundImageFix"/>
<feBlend mode="normal" in="SourceGraphic" in2="BackgroundImageFix" result="shape"/>
<feGaussianBlur stdDeviation="1.56021" result="effect1_foregroundBlur_1234_1367"/>
</filter>
<filter id="filter7_f_1234_1367" x="18.1695" y="-0.667531" width="10.4649" height="18.0355" filterUnits="userSpaceOnUse" color-interpolation-filters="sRGB">
<feFlood flood-opacity="0" result="BackgroundImageFix"/>
<feBlend mode="normal" in="SourceGraphic" in2="BackgroundImageFix" result="shape"/>
<feGaussianBlur stdDeviation="1.56021" result="effect1_foregroundBlur_1234_1367"/>
</filter>
<filter id="filter8_f_1234_1367" x="8.17902" y="15.6455" width="4.97995" height="0.657015" filterUnits="userSpaceOnUse" color-interpolation-filters="sRGB">
<feFlood flood-opacity="0" result="BackgroundImageFix"/>
<feBlend mode="normal" in="SourceGraphic" in2="BackgroundImageFix" result="shape"/>
<feGaussianBlur stdDeviation="0.0866781" result="effect1_foregroundBlur_1234_1367"/>
</filter>
<radialGradient id="paint0_radial_1234_1367" cx="0" cy="0" r="1" gradientUnits="userSpaceOnUse" gradientTransform="translate(13 14.3175) rotate(90) scale(7.84523 11.9365)">
<stop stop-color="#E1951D"/>
<stop offset="0.434817" stop-color="#CB6715"/>
<stop offset="0.66745" stop-color="#C05211"/>
<stop offset="0.811229" stop-color="#D98715"/>
<stop offset="0.914634" stop-color="#EDB219"/>
</radialGradient>
<linearGradient id="paint1_linear_1234_1367" x1="2.92798" y1="16.4299" x2="22.9783" y2="15.892" gradientUnits="userSpaceOnUse">
<stop stop-color="#FFEE58"/>
<stop offset="0.0388061" stop-color="#ED9C1A"/>
<stop offset="0.313873" stop-color="#F4BD22"/>
<stop offset="0.451487" stop-color="#F6C524"/>
<stop offset="0.648311" stop-color="#F3AF23"/>
<stop offset="0.816899" stop-color="#E19421"/>
<stop offset="0.912219" stop-color="#E29520"/>
<stop offset="0.975568" stop-color="#E8A830"/>
<stop offset="1" stop-color="#FFE15B"/>
</linearGradient>
<linearGradient id="paint2_linear_1234_1367" x1="24.4569" y1="5.72715" x2="2.8823" y2="6.35615" gradientUnits="userSpaceOnUse">
<stop offset="0.034513" stop-color="#FFE766"/>
<stop offset="0.161109" stop-color="#FFF066"/>
<stop offset="0.320674" stop-color="#E29015"/>
<stop offset="0.396528" stop-color="#F1C83C"/>
<stop offset="0.509338" stop-color="#FFD363"/>
<stop offset="0.631666" stop-color="#F3D241"/>
<stop offset="0.6875" stop-color="#E4A21C"/>
<stop offset="0.718795" stop-color="#DC8707"/>
<stop offset="0.90049" stop-color="#FFE660"/>
<stop offset="0.986134" stop-color="#FFDC60"/>
</linearGradient>
<linearGradient id="paint3_linear_1234_1367" x1="24.4569" y1="5.71136" x2="2.88242" y2="6.34246" gradientUnits="userSpaceOnUse">
<stop offset="0.034513" stop-color="#FFE766"/>
<stop offset="0.161109" stop-color="#FFF066"/>
<stop offset="0.320674" stop-color="#E29015"/>
<stop offset="0.396528" stop-color="#F1C83C"/>
<stop offset="0.509338" stop-color="#FFD363"/>
<stop offset="0.631666" stop-color="#F3D241"/>
<stop offset="0.6875" stop-color="#E4A21C"/>
<stop offset="0.718795" stop-color="#DC8707"/>
<stop offset="0.90049" stop-color="#FFE660"/>
<stop offset="0.986134" stop-color="#FFDC60"/>
</linearGradient>
<radialGradient id="paint4_radial_1234_1367" cx="0" cy="0" r="1" gradientUnits="userSpaceOnUse" gradientTransform="translate(13.0001 3.30295) rotate(90) scale(19.3361 9.90108)">
<stop stop-color="#FFFE4E"/>
<stop offset="0.251515" stop-color="#FEF347" stop-opacity="0.679577"/>
<stop offset="1" stop-color="#FBDD37" stop-opacity="0"/>
</radialGradient>
<radialGradient id="paint5_radial_1234_1367" cx="0" cy="0" r="1" gradientUnits="userSpaceOnUse" gradientTransform="translate(13.8889 10.945) rotate(-179.401) scale(13.1584 35.7523)">
<stop stop-color="#DE8A1B"/>
<stop offset="0.150004" stop-color="#DE8A1B"/>
<stop offset="0.511589" stop-color="#DE8A1B" stop-opacity="0"/>
<stop offset="0.876419" stop-color="#DE8A1B"/>
<stop offset="1" stop-color="#DE8A1B"/>
</radialGradient>
</defs>
</svg>
