<svg width="442" height="159" viewBox="0 0 442 159" fill="none" xmlns="http://www.w3.org/2000/svg">
<g filter="url(#filter0_di_652_23)">
<path d="M14 25C14 15.6112 21.6112 8 31 8H411C420.389 8 428 15.6112 428 25V90.5645C428 98.8899 421.971 105.99 413.755 107.34L223.755 138.547C221.931 138.847 220.069 138.847 218.245 138.547L28.2446 107.34C20.0293 105.99 14 98.8899 14 90.5645V25Z" fill="url(#paint0_linear_652_23)"/>
</g>
<g filter="url(#filter1_i_652_23)">
<path d="M16.5 25C16.5 16.9919 22.9919 10.5 31 10.5H411C419.008 10.5 425.5 16.9919 425.5 25V90.5645C425.5 97.6655 420.357 103.722 413.35 104.873L223.35 136.08C221.794 136.336 220.206 136.336 218.65 136.08L28.6498 104.873C21.6427 103.722 16.5 97.6655 16.5 90.5645V25Z" stroke="url(#paint1_linear_652_23)" stroke-width="5"/>
</g>
<g filter="url(#filter2_d_652_23)">
<path d="M172.27 79.05C172.07 80.25 171.97 81.1667 171.97 81.8C171.97 85.0333 172.47 87.45 173.47 89.05C171.47 90.55 169.387 91.3 167.22 91.3C165.053 91.3 163.503 90.6833 162.57 89.45C161.637 88.1833 161.17 86.3167 161.17 83.85C161.17 81.35 162.22 74.3 164.32 62.7L161.67 57.35C165.437 54.9167 168.87 53.7 171.97 53.7C172.837 53.7 173.787 53.8667 174.82 54.2C175.853 54.5 176.587 54.85 177.02 55.25C179.487 54.2833 181.77 53.8 183.87 53.8C187.003 53.8 189.47 54.9 191.27 57.1C193.103 59.2667 194.02 61.9 194.02 65C194.02 68.7333 192.67 72.0667 189.97 75C188.67 76.4333 186.92 77.5833 184.72 78.45C182.52 79.3167 180.27 79.75 177.97 79.75C175.703 79.75 173.803 79.5167 172.27 79.05ZM173.22 73.35C173.687 73.45 174.17 73.5 174.67 73.5C176.803 73.5 178.703 72.75 180.37 71.25C182.037 69.75 182.87 67.9 182.87 65.7C182.87 64.1667 182.42 62.8667 181.52 61.8C180.653 60.7333 179.42 60.2 177.82 60.2C177.153 60.2 176.387 60.3333 175.52 60.6C174.853 65.1667 174.087 69.4167 173.22 73.35ZM201.46 58.9L198.66 54.9C202.826 52.4667 206.11 51.25 208.51 51.25C209.876 51.25 210.843 51.5333 211.41 52.1C211.976 52.6333 212.26 53.6667 212.26 55.2C212.26 56.7 211.51 60.9667 210.01 68C208.543 75.0333 207.81 79.9667 207.81 82.8C207.81 85.6333 208.326 87.6333 209.36 88.8C207.026 90.4333 204.91 91.25 203.01 91.25C201.11 91.25 199.71 90.6333 198.81 89.4C197.943 88.1333 197.51 86.4 197.51 84.2C197.51 82 198.126 77.5 199.36 70.7C200.593 63.9 201.293 59.9667 201.46 58.9ZM234.598 83.85L234.098 83.6C233.198 86 231.898 87.8833 230.198 89.25C228.531 90.5833 226.665 91.25 224.598 91.25C221.765 91.25 219.498 90.1833 217.798 88.05C216.098 85.9167 215.248 83.0667 215.248 79.5C215.248 73.9667 217.098 69.3333 220.798 65.6C224.531 61.8667 229.165 60 234.698 60C236.131 60 237.448 60.1333 238.648 60.4C238.848 61.3333 238.965 62.15 238.998 62.85C240.665 61.7833 242.381 61.25 244.148 61.25C246.581 61.25 247.798 62.5667 247.798 65.2C247.798 66.1333 247.265 68.95 246.198 73.65C245.165 78.35 244.648 81.8333 244.648 84.1C244.648 86.3667 245.165 87.9333 246.198 88.8C244.331 90.4333 242.381 91.25 240.348 91.25C238.348 91.25 236.881 90.65 235.948 89.45C235.048 88.25 234.598 86.3833 234.598 83.85ZM224.648 77.05C224.648 78.6833 224.981 79.95 225.648 80.85C226.348 81.7167 227.331 82.15 228.598 82.15C229.865 82.15 231.115 81.6833 232.348 80.75C233.581 79.8167 234.615 78.5333 235.448 76.9C235.748 73.5333 236.398 69.55 237.398 64.95C234.031 64.95 231.065 66.1667 228.498 68.6C225.931 71.0333 224.648 73.85 224.648 77.05ZM266.664 89C265.098 89.5667 263.531 89.85 261.964 89.85C260.398 89.85 259.081 89.3833 258.014 88.45C256.948 87.5167 256.331 86.25 256.164 84.65C255.998 83.05 255.848 80.7333 255.714 77.7C255.581 74.6333 255.448 72.4667 255.314 71.2C254.881 66.9667 253.548 63.95 251.314 62.15C252.881 60.7167 254.848 60 257.214 60C258.514 60 259.648 60.35 260.614 61.05C261.581 61.7167 262.348 62.6167 262.914 63.75C263.514 64.85 263.998 66.2833 264.364 68.05C264.931 70.9833 265.214 74.95 265.214 79.95C265.214 81.1833 265.164 82.6333 265.064 84.3H267.964C271.398 75.0333 273.114 68.7167 273.114 65.35C273.114 64.2167 272.864 63.15 272.364 62.15C274.698 60.7167 276.731 60 278.464 60C281.698 60 283.314 61.8667 283.314 65.6C283.314 68.5667 281.948 73.7833 279.214 81.25C278.714 82.6167 278.431 83.4167 278.364 83.65C274.131 95.7167 268.114 101.75 260.314 101.75C257.948 101.75 255.998 101.233 254.464 100.2C252.931 99.2 252.164 97.8667 252.164 96.2C252.164 94.5667 252.781 92.85 254.014 91.05C255.614 93.3167 257.614 94.45 260.014 94.45C261.381 94.45 262.648 94 263.814 93.1C265.014 92.2 265.964 90.8333 266.664 89Z" fill="#FFF5E1"/>
<path d="M172.27 79.05L172.416 78.5717C172.278 78.5298 172.129 78.5492 172.006 78.6251C171.884 78.7009 171.8 78.8258 171.777 78.9678L172.27 79.05ZM173.47 89.05L173.77 89.45C173.978 89.2942 174.032 89.0052 173.894 88.785L173.47 89.05ZM162.57 89.45L162.167 89.7466L162.171 89.7517L162.57 89.45ZM164.32 62.7L164.812 62.7891C164.831 62.6834 164.816 62.5743 164.768 62.4781L164.32 62.7ZM161.67 57.35L161.399 56.93C161.185 57.0679 161.109 57.3441 161.222 57.5719L161.67 57.35ZM174.82 54.2L174.666 54.6759C174.671 54.6774 174.676 54.6788 174.681 54.6802L174.82 54.2ZM177.02 55.25L176.681 55.6174C176.822 55.7473 177.024 55.7854 177.202 55.7155L177.02 55.25ZM191.27 57.1L190.883 57.4167L190.888 57.423L191.27 57.1ZM189.97 75L189.602 74.6614L189.6 74.6641L189.97 75ZM184.72 78.45L184.537 77.9848L184.72 78.45ZM173.22 73.35L172.732 73.2424C172.703 73.3724 172.727 73.5084 172.799 73.6204C172.871 73.7324 172.985 73.811 173.115 73.8389L173.22 73.35ZM180.37 71.25L180.035 70.8784L180.37 71.25ZM181.52 61.8L181.132 62.1154L181.138 62.1224L181.52 61.8ZM175.52 60.6L175.373 60.1221C175.188 60.1789 175.053 60.3368 175.025 60.5278L175.52 60.6ZM171.777 78.9678C171.576 80.175 171.47 81.1244 171.47 81.8H172.47C172.47 81.2089 172.564 80.325 172.763 79.1322L171.777 78.9678ZM171.47 81.8C171.47 85.068 171.972 87.5971 173.046 89.315L173.894 88.785C172.968 87.3029 172.47 84.9986 172.47 81.8H171.47ZM173.17 88.65C171.243 90.0955 169.262 90.8 167.22 90.8V91.8C169.511 91.8 171.697 91.0045 173.77 89.45L173.17 88.65ZM167.22 90.8C165.143 90.8 163.773 90.2117 162.969 89.1483L162.171 89.7517C163.233 91.155 164.963 91.8 167.22 91.8V90.8ZM162.972 89.1534C162.129 88.0091 161.67 86.2664 161.67 83.85H160.67C160.67 86.3669 161.144 88.3576 162.167 89.7466L162.972 89.1534ZM161.67 83.85C161.67 82.6427 161.926 80.2909 162.452 76.7612C162.976 73.2435 163.762 68.5868 164.812 62.7891L163.828 62.6109C162.778 68.4132 161.989 73.0815 161.463 76.6138C160.939 80.1341 160.67 82.5573 160.67 83.85H161.67ZM164.768 62.4781L162.118 57.1281L161.222 57.5719L163.872 62.9219L164.768 62.4781ZM161.941 57.77C165.661 55.3668 169 54.2 171.97 54.2V53.2C168.74 53.2 165.212 54.4666 161.399 56.93L161.941 57.77ZM171.97 54.2C172.773 54.2 173.671 54.3547 174.666 54.6759L174.973 53.7241C173.902 53.3787 172.9 53.2 171.97 53.2V54.2ZM174.681 54.6802C175.691 54.9736 176.334 55.2972 176.681 55.6174L177.359 54.8826C176.839 54.4028 176.015 54.0264 174.959 53.7198L174.681 54.6802ZM177.202 55.7155C179.625 54.7659 181.846 54.3 183.87 54.3V53.3C181.694 53.3 179.348 53.8007 176.837 54.7845L177.202 55.7155ZM183.87 54.3C186.871 54.3 189.188 55.3455 190.883 57.4166L191.657 56.7834C189.751 54.4545 187.136 53.3 183.87 53.3V54.3ZM190.888 57.423C192.638 59.4908 193.52 62.0065 193.52 65H194.52C194.52 61.7935 193.569 59.0425 191.652 56.777L190.888 57.423ZM193.52 65C193.52 68.5989 192.223 71.8135 189.602 74.6614L190.338 75.3386C193.116 72.3198 194.52 68.8678 194.52 65H193.52ZM189.6 74.6641C188.361 76.0293 186.681 77.1401 184.537 77.9848L184.903 78.9152C187.159 78.0265 188.978 76.8374 190.34 75.3359L189.6 74.6641ZM184.537 77.9848C182.393 78.8291 180.205 79.25 177.97 79.25V80.25C180.334 80.25 182.646 79.8042 184.903 78.9152L184.537 77.9848ZM177.97 79.25C175.734 79.25 173.887 79.0194 172.416 78.5717L172.124 79.5283C173.72 80.0139 175.673 80.25 177.97 80.25V79.25ZM173.115 73.8389C173.618 73.9466 174.136 74 174.67 74V73C174.203 73 173.755 72.9534 173.325 72.8611L173.115 73.8389ZM174.67 74C176.934 74 178.951 73.1997 180.704 71.6216L180.035 70.8784C178.455 72.3003 176.673 73 174.67 73V74ZM180.704 71.6216C182.474 70.0289 183.37 68.0448 183.37 65.7H182.37C182.37 67.7552 181.599 69.4711 180.035 70.8784L180.704 71.6216ZM183.37 65.7C183.37 64.0611 182.886 62.6435 181.902 61.4776L181.138 62.1224C181.954 63.0898 182.37 64.2722 182.37 65.7H183.37ZM181.908 61.4847C180.93 60.2813 179.543 59.7 177.82 59.7V60.7C179.297 60.7 180.376 61.1854 181.132 62.1153L181.908 61.4847ZM177.82 59.7C177.089 59.7 176.271 59.8457 175.373 60.1221L175.667 61.0779C176.502 60.821 177.217 60.7 177.82 60.7V59.7ZM175.025 60.5278C174.36 65.0842 173.595 69.3223 172.732 73.2424L173.708 73.4576C174.578 69.511 175.347 65.2491 176.015 60.6722L175.025 60.5278ZM201.46 58.9L201.954 58.9772C201.974 58.8495 201.943 58.7191 201.869 58.6133L201.46 58.9ZM198.66 54.9L198.408 54.4682C198.287 54.5387 198.201 54.6565 198.171 54.793C198.141 54.9295 198.17 55.0723 198.25 55.1867L198.66 54.9ZM211.41 52.1L211.056 52.4536C211.06 52.4571 211.063 52.4606 211.067 52.4641L211.41 52.1ZM210.01 68L209.521 67.8957L209.52 67.8979L210.01 68ZM209.36 88.8L209.646 89.2096C209.763 89.1279 209.84 89.0002 209.856 88.8587C209.873 88.7171 209.829 88.5752 209.734 88.4685L209.36 88.8ZM198.81 89.4L198.397 89.6823C198.4 89.6865 198.403 89.6906 198.406 89.6947L198.81 89.4ZM199.36 70.7L199.852 70.7892L199.36 70.7ZM201.869 58.6133L199.069 54.6133L198.25 55.1867L201.05 59.1867L201.869 58.6133ZM198.912 55.3318C203.065 52.9063 206.25 51.75 208.51 51.75V50.75C205.969 50.75 202.588 52.027 198.408 54.4682L198.912 55.3318ZM208.51 51.75C209.831 51.75 210.631 52.0283 211.056 52.4536L211.763 51.7464C211.055 51.0383 209.921 50.75 208.51 50.75V51.75ZM211.067 52.4641C211.471 52.8447 211.76 53.6865 211.76 55.2H212.76C212.76 53.6468 212.481 52.422 211.752 51.7359L211.067 52.4641ZM211.76 55.2C211.76 55.8995 211.581 57.299 211.205 59.4384C210.831 61.5633 210.27 64.3816 209.521 67.8957L210.499 68.1043C211.249 64.585 211.813 61.7534 212.19 59.6116C212.564 57.4843 212.76 56.0005 212.76 55.2H211.76ZM209.52 67.8979C208.054 74.9291 207.31 79.9089 207.31 82.8H208.31C208.31 80.0244 209.032 75.1376 210.499 68.1021L209.52 67.8979ZM207.31 82.8C207.31 85.6662 207.827 87.8235 208.985 89.1315L209.734 88.4685C208.826 87.4432 208.31 85.6005 208.31 82.8H207.31ZM209.073 88.3904C206.784 89.9926 204.768 90.75 203.01 90.75V91.75C205.052 91.75 207.269 90.8741 209.646 89.2096L209.073 88.3904ZM203.01 90.75C201.226 90.75 199.996 90.178 199.214 89.1053L198.406 89.6947C199.423 91.0886 200.994 91.75 203.01 91.75V90.75ZM199.222 89.1177C198.432 87.963 198.01 86.341 198.01 84.2H197.01C197.01 86.459 197.454 88.3036 198.397 89.6823L199.222 89.1177ZM198.01 84.2C198.01 82.053 198.617 77.5983 199.852 70.7892L198.868 70.6108C197.636 77.4017 197.01 81.947 197.01 84.2H198.01ZM199.852 70.7892C201.084 63.9932 201.786 60.0516 201.954 58.9772L200.966 58.8228C200.8 59.8817 200.102 63.8068 198.868 70.6108L199.852 70.7892ZM234.598 83.85H235.098C235.098 83.6606 234.991 83.4875 234.822 83.4028L234.598 83.85ZM234.098 83.6L234.322 83.1528C234.195 83.0894 234.047 83.0828 233.915 83.1346C233.783 83.1864 233.68 83.2917 233.63 83.4244L234.098 83.6ZM230.198 89.25L230.51 89.6404L230.511 89.6397L230.198 89.25ZM217.798 88.05L217.407 88.3616L217.798 88.05ZM220.798 65.6L220.444 65.2464L220.443 65.248L220.798 65.6ZM238.648 60.4L239.137 60.2952C239.096 60.1041 238.947 59.9543 238.757 59.9119L238.648 60.4ZM238.998 62.85L238.499 62.8738C238.507 63.052 238.61 63.2123 238.769 63.2942C238.927 63.3761 239.117 63.3673 239.268 63.2711L238.998 62.85ZM246.198 73.65L245.71 73.5393L245.71 73.5426L246.198 73.65ZM246.198 88.8L246.527 89.1763C246.637 89.0801 246.7 88.9408 246.698 88.7948C246.696 88.6488 246.631 88.5107 246.519 88.4169L246.198 88.8ZM235.948 89.45L235.548 89.75L235.553 89.757L235.948 89.45ZM225.648 80.85L225.246 81.1476C225.25 81.1532 225.255 81.1587 225.259 81.1642L225.648 80.85ZM232.348 80.75L232.65 81.1487L232.348 80.75ZM235.448 76.9L235.893 77.1272C235.923 77.0702 235.94 77.0081 235.946 76.9444L235.448 76.9ZM237.398 64.95L237.887 65.0562C237.919 64.9084 237.882 64.754 237.787 64.6362C237.692 64.5185 237.549 64.45 237.398 64.45V64.95ZM228.498 68.6L228.154 68.2371L228.498 68.6ZM234.822 83.4028L234.322 83.1528L233.874 84.0472L234.374 84.2972L234.822 83.4028ZM233.63 83.4244C232.756 85.7553 231.503 87.559 229.885 88.8603L230.511 89.6397C232.293 88.2077 233.64 86.2447 234.566 83.7756L233.63 83.4244ZM229.886 88.8596C228.305 90.1245 226.547 90.75 224.598 90.75V91.75C226.782 91.75 228.758 91.0422 230.51 89.6404L229.886 88.8596ZM224.598 90.75C221.91 90.75 219.79 89.7474 218.189 87.7384L217.407 88.3616C219.206 90.6192 221.619 91.75 224.598 91.75V90.75ZM218.189 87.7384C216.579 85.7176 215.748 82.9885 215.748 79.5H214.748C214.748 83.1448 215.617 86.1157 217.407 88.3616L218.189 87.7384ZM215.748 79.5C215.748 74.0908 217.551 69.5863 221.153 65.952L220.443 65.248C216.645 69.0803 214.748 73.8426 214.748 79.5H215.748ZM221.152 65.9536C224.786 62.3189 229.29 60.5 234.698 60.5V59.5C229.039 59.5 224.276 61.4144 220.444 65.2464L221.152 65.9536ZM234.698 60.5C236.101 60.5 237.38 60.6305 238.54 60.8881L238.757 59.9119C237.516 59.6361 236.162 59.5 234.698 59.5V60.5ZM238.159 60.5048C238.355 61.4203 238.467 62.2088 238.499 62.8738L239.497 62.8262C239.462 62.0912 239.341 61.2464 239.137 60.2952L238.159 60.5048ZM239.268 63.2711C240.864 62.2496 242.488 61.75 244.148 61.75V60.75C242.275 60.75 240.466 61.3171 238.729 62.4289L239.268 63.2711ZM244.148 61.75C245.277 61.75 246.035 62.0536 246.518 62.5768C247.009 63.1075 247.298 63.951 247.298 65.2H248.298C248.298 63.8156 247.979 62.6842 247.253 61.8982C246.52 61.1047 245.452 60.75 244.148 60.75V61.75ZM247.298 65.2C247.298 65.6116 247.175 66.5025 246.907 67.9195C246.642 69.3193 246.243 71.1918 245.71 73.5393L246.686 73.7607C247.22 71.4082 247.621 69.5224 247.889 68.1055C248.154 66.7059 248.298 65.7217 248.298 65.2H247.298ZM245.71 73.5426C244.675 78.2477 244.148 81.7758 244.148 84.1H245.148C245.148 81.8909 245.654 78.4523 246.686 73.7574L245.71 73.5426ZM244.148 84.1C244.148 86.417 244.672 88.1729 245.877 89.1831L246.519 88.4169C245.657 87.6938 245.148 86.3163 245.148 84.1H244.148ZM245.869 88.4237C244.072 89.9956 242.235 90.75 240.348 90.75V91.75C242.528 91.75 244.59 90.8711 246.527 89.1763L245.869 88.4237ZM240.348 90.75C238.45 90.75 237.153 90.1849 236.343 89.143L235.553 89.757C236.61 91.1151 238.246 91.75 240.348 91.75V90.75ZM236.348 89.15C235.544 88.0783 235.098 86.3426 235.098 83.85H234.098C234.098 86.4241 234.552 88.4217 235.548 89.75L236.348 89.15ZM224.148 77.05C224.148 78.7434 224.493 80.1301 225.246 81.1476L226.05 80.5524C225.47 79.7699 225.148 78.6233 225.148 77.05H224.148ZM225.259 81.1642C226.068 82.1654 227.204 82.65 228.598 82.65V81.65C227.459 81.65 226.628 81.2679 226.037 80.5358L225.259 81.1642ZM228.598 82.65C229.996 82.65 231.349 82.1329 232.65 81.1487L232.046 80.3513C230.88 81.2338 229.733 81.65 228.598 81.65V82.65ZM232.65 81.1487C233.953 80.1621 235.032 78.8155 235.893 77.1272L235.003 76.6728C234.197 78.2512 233.209 79.4712 232.046 80.3513L232.65 81.1487ZM235.946 76.9444C236.244 73.6048 236.889 69.6431 237.887 65.0562L236.909 64.8438C235.907 69.4569 235.252 73.4619 234.95 76.8556L235.946 76.9444ZM237.398 64.45C233.896 64.45 230.808 65.7207 228.154 68.2371L228.842 68.9629C231.321 66.6127 234.166 65.45 237.398 65.45V64.45ZM228.154 68.2371C225.499 70.7539 224.148 73.6976 224.148 77.05H225.148C225.148 74.0024 226.363 71.3128 228.842 68.9629L228.154 68.2371ZM266.664 89L267.132 89.1784C267.201 88.9957 267.158 88.7891 267.021 88.6496C266.884 88.5101 266.678 88.4633 266.494 88.5298L266.664 89ZM258.014 88.45L257.685 88.8263L258.014 88.45ZM256.164 84.65L256.662 84.5982L256.164 84.65ZM255.714 77.7L255.215 77.7217L255.215 77.722L255.714 77.7ZM255.314 71.2L254.817 71.2509L254.817 71.2523L255.314 71.2ZM251.314 62.15L250.977 61.7811C250.869 61.8795 250.81 62.0199 250.815 62.1656C250.819 62.3114 250.887 62.4478 251.001 62.5393L251.314 62.15ZM260.614 61.05L260.321 61.4551L260.331 61.4616L260.614 61.05ZM262.914 63.75L262.467 63.9736C262.47 63.9789 262.473 63.9842 262.476 63.9894L262.914 63.75ZM264.364 68.05L264.855 67.9552L264.854 67.9484L264.364 68.05ZM265.064 84.3L264.565 84.2701C264.557 84.4076 264.606 84.5425 264.7 84.6428C264.795 84.7431 264.927 84.8 265.064 84.8V84.3ZM267.964 84.3V84.8C268.174 84.8 268.361 84.6698 268.433 84.4737L267.964 84.3ZM272.364 62.15L272.103 61.724C271.882 61.8597 271.801 62.1417 271.917 62.3736L272.364 62.15ZM279.214 81.25L278.745 81.0781L278.745 81.0782L279.214 81.25ZM278.364 83.65L278.836 83.8155C278.84 83.8062 278.843 83.7968 278.845 83.7874L278.364 83.65ZM254.464 100.2L254.744 99.7853L254.738 99.7812L254.464 100.2ZM254.014 91.05L254.423 90.7617C254.329 90.6279 254.175 90.5489 254.011 90.55C253.847 90.5512 253.695 90.6323 253.602 90.7674L254.014 91.05ZM263.814 93.1L263.514 92.7L263.509 92.7041L263.814 93.1ZM266.494 88.5298C264.979 89.078 263.47 89.35 261.964 89.35V90.35C263.593 90.35 265.217 90.0553 266.835 89.4702L266.494 88.5298ZM261.964 89.35C260.505 89.35 259.309 88.9187 258.344 88.0737L257.685 88.8263C258.853 89.848 260.29 90.35 261.964 90.35V89.35ZM258.344 88.0737C257.385 87.2348 256.817 86.0909 256.662 84.5982L255.667 84.7018C255.845 86.4091 256.511 87.7985 257.685 88.8263L258.344 88.0737ZM256.662 84.5982C256.497 83.0133 256.347 80.7085 256.214 77.678L255.215 77.722C255.348 80.7582 255.499 83.0867 255.667 84.7018L256.662 84.5982ZM256.214 77.6783C256.081 74.6116 255.947 72.4312 255.812 71.1477L254.817 71.2523C254.949 72.5021 255.082 74.6551 255.215 77.7217L256.214 77.6783ZM255.812 71.1491C255.371 66.8468 254.007 63.6776 251.628 61.7607L251.001 62.5393C253.089 64.2224 254.391 67.0865 254.817 71.2509L255.812 71.1491ZM251.652 62.5189C253.116 61.1798 254.957 60.5 257.214 60.5V59.5C254.738 59.5 252.647 60.2536 250.977 61.7811L251.652 62.5189ZM257.214 60.5C258.419 60.5 259.448 60.8223 260.321 61.455L260.908 60.645C259.848 59.8777 258.61 59.5 257.214 59.5V60.5ZM260.331 61.4616C261.222 62.0766 261.935 62.9096 262.467 63.9736L263.362 63.5264C262.76 62.3238 261.94 61.3567 260.898 60.6384L260.331 61.4616ZM262.476 63.9894C263.044 65.0318 263.514 66.4139 263.875 68.1516L264.854 67.9484C264.481 66.1528 263.985 64.6682 263.353 63.5106L262.476 63.9894ZM263.874 68.1448C264.431 71.0331 264.714 74.9636 264.714 79.95H265.714C265.714 74.9363 265.431 70.9336 264.855 67.9552L263.874 68.1448ZM264.714 79.95C264.714 81.1706 264.665 82.6101 264.565 84.2701L265.564 84.3299C265.664 82.6565 265.714 81.1961 265.714 79.95H264.714ZM265.064 84.8H267.964V83.8H265.064V84.8ZM268.433 84.4737C270.153 79.8327 271.446 75.9216 272.309 72.7436C273.171 69.5748 273.614 67.1018 273.614 65.35H272.614C272.614 66.9649 272.2 69.3336 271.344 72.4814C270.491 75.6201 269.209 79.5007 267.496 84.1263L268.433 84.4737ZM273.614 65.35C273.614 64.1401 273.347 62.9968 272.812 61.9264L271.917 62.3736C272.382 63.3032 272.614 64.2932 272.614 65.35H273.614ZM272.626 62.576C274.922 61.1655 276.863 60.5 278.464 60.5V59.5C276.6 59.5 274.473 60.2678 272.103 61.724L272.626 62.576ZM278.464 60.5C279.984 60.5 281.038 60.9352 281.724 61.7273C282.422 62.5332 282.814 63.7942 282.814 65.6H283.814C283.814 63.6725 283.399 62.1335 282.48 61.0727C281.549 59.9981 280.178 59.5 278.464 59.5V60.5ZM282.814 65.6C282.814 68.4659 281.481 73.6035 278.745 81.0781L279.684 81.4219C282.414 73.9631 283.814 68.6675 283.814 65.6H282.814ZM278.745 81.0782C278.249 82.4342 277.957 83.257 277.884 83.5126L278.845 83.7874C278.906 83.5763 279.18 82.7991 279.684 81.4218L278.745 81.0782ZM277.893 83.4845C273.678 95.497 267.78 101.25 260.314 101.25V102.25C268.448 102.25 274.584 95.9363 278.836 83.8155L277.893 83.4845ZM260.314 101.25C258.02 101.25 256.174 100.749 254.744 99.7854L254.185 100.615C255.821 101.717 257.876 102.25 260.314 102.25V101.25ZM254.738 99.7812C253.329 98.8627 252.664 97.6789 252.664 96.2H251.664C251.664 98.0544 252.533 99.5373 254.191 100.619L254.738 99.7812ZM252.664 96.2C252.664 94.6964 253.232 93.0769 254.427 91.3326L253.602 90.7674C252.33 92.6231 251.664 94.437 251.664 96.2H252.664ZM253.606 91.3383C255.283 93.7139 257.425 94.95 260.014 94.95V93.95C257.804 93.95 255.946 92.9194 254.423 90.7617L253.606 91.3383ZM260.014 94.95C261.5 94.95 262.873 94.4578 264.12 93.4959L263.509 92.7041C262.423 93.5422 261.262 93.95 260.014 93.95V94.95ZM264.114 93.5C265.41 92.5284 266.408 91.0732 267.132 89.1784L266.197 88.8216C265.521 90.5935 264.619 91.8716 263.514 92.7L264.114 93.5Z" fill="#208001"/>
</g>
<defs>
<filter id="filter0_di_652_23" x="0" y="0" width="442" height="158.772" filterUnits="userSpaceOnUse" color-interpolation-filters="sRGB">
<feFlood flood-opacity="0" result="BackgroundImageFix"/>
<feColorMatrix in="SourceAlpha" type="matrix" values="0 0 0 0 0 0 0 0 0 0 0 0 0 0 0 0 0 0 127 0" result="hardAlpha"/>
<feOffset dy="6"/>
<feGaussianBlur stdDeviation="7"/>
<feComposite in2="hardAlpha" operator="out"/>
<feColorMatrix type="matrix" values="0 0 0 0 0.0801667 0 0 0 0 0.308333 0 0 0 0 0 0 0 0 0.4 0"/>
<feBlend mode="normal" in2="BackgroundImageFix" result="effect1_dropShadow_652_23"/>
<feBlend mode="normal" in="SourceGraphic" in2="effect1_dropShadow_652_23" result="shape"/>
<feColorMatrix in="SourceAlpha" type="matrix" values="0 0 0 0 0 0 0 0 0 0 0 0 0 0 0 0 0 0 127 0" result="hardAlpha"/>
<feOffset dy="18"/>
<feGaussianBlur stdDeviation="3"/>
<feComposite in2="hardAlpha" operator="arithmetic" k2="-1" k3="1"/>
<feColorMatrix type="matrix" values="0 0 0 0 0.795833 0 0 0 0 0.636447 0 0 0 0 0.547135 0 0 0 1 0"/>
<feBlend mode="multiply" in2="shape" result="effect2_innerShadow_652_23"/>
</filter>
<filter id="filter1_i_652_23" x="14" y="7.9" width="414" height="130.872" filterUnits="userSpaceOnUse" color-interpolation-filters="sRGB">
<feFlood flood-opacity="0" result="BackgroundImageFix"/>
<feBlend mode="normal" in="SourceGraphic" in2="BackgroundImageFix" result="shape"/>
<feColorMatrix in="SourceAlpha" type="matrix" values="0 0 0 0 0 0 0 0 0 0 0 0 0 0 0 0 0 0 127 0" result="hardAlpha"/>
<feOffset dy="-0.1"/>
<feGaussianBlur stdDeviation="0.5"/>
<feComposite in2="hardAlpha" operator="arithmetic" k2="-1" k3="1"/>
<feColorMatrix type="matrix" values="0 0 0 0 0.816667 0 0 0 0 0.585886 0 0 0 0 0.156528 0 0 0 1 0"/>
<feBlend mode="multiply" in2="shape" result="effect1_innerShadow_652_23"/>
</filter>
<filter id="filter2_d_652_23" x="160.17" y="49.75" width="123.145" height="52" filterUnits="userSpaceOnUse" color-interpolation-filters="sRGB">
<feFlood flood-opacity="0" result="BackgroundImageFix"/>
<feColorMatrix in="SourceAlpha" type="matrix" values="0 0 0 0 0 0 0 0 0 0 0 0 0 0 0 0 0 0 127 0" result="hardAlpha"/>
<feOffset dx="-1" dy="-1.5"/>
<feComposite in2="hardAlpha" operator="out"/>
<feColorMatrix type="matrix" values="0 0 0 0 0.12549 0 0 0 0 0.501961 0 0 0 0 0.00392157 0 0 0 1 0"/>
<feBlend mode="normal" in2="BackgroundImageFix" result="effect1_dropShadow_652_23"/>
<feBlend mode="normal" in="SourceGraphic" in2="effect1_dropShadow_652_23" result="shape"/>
</filter>
<linearGradient id="paint0_linear_652_23" x1="221" y1="8" x2="221" y2="139" gradientUnits="userSpaceOnUse">
<stop offset="0.00814924" stop-color="#5FC10E"/>
<stop offset="0.106993" stop-color="#4FCE2F"/>
<stop offset="0.275536" stop-color="#47B21C"/>
<stop offset="0.363058" stop-color="#41AB14"/>
<stop offset="0.978334" stop-color="#39A209"/>
</linearGradient>
<linearGradient id="paint1_linear_652_23" x1="221" y1="8" x2="221" y2="139" gradientUnits="userSpaceOnUse">
<stop stop-color="#FFD798"/>
<stop offset="1" stop-color="#FFE9B0"/>
</linearGradient>
</defs>
</svg>
