<svg width="114" height="81" viewBox="0 0 114 81" fill="none" xmlns="http://www.w3.org/2000/svg">
<g filter="url(#filter0_d_392_5080)">
<rect x="7" y="3" width="100" height="67" rx="33.5" fill="url(#paint0_linear_392_5080)"/>
<g filter="url(#filter1_f_392_5080)">
<rect x="12" y="8" width="90" height="57" rx="28.5" fill="url(#paint1_linear_392_5080)"/>
</g>
<g filter="url(#filter2_d_392_5080)">
<mask id="path-3-outside-1_392_5080" maskUnits="userSpaceOnUse" x="39" y="20" width="34" height="18" fill="black">
<rect fill="white" x="39" y="20" width="34" height="18"/>
<path fill-rule="evenodd" clip-rule="evenodd" d="M71.9563 31.4593L71.957 31.4591C71.0315 25.5553 65.0574 21 57.8256 21C50.6584 21 45.5835 24.7046 44.0523 29.7619L42.3636 29.4416C40.5276 29.0932 39.2703 31.2425 40.4737 32.6722L43.9341 36.7831C44.3727 37.3042 45.1171 37.4454 45.7162 37.1212L50.4417 34.5633C52.0852 33.6738 51.7025 31.2134 49.8664 30.865L48.5285 30.6112C50.097 28.4719 52.5596 27.0936 55.3286 27.0936C59.1523 27.0936 62.3917 29.7219 63.4994 33.3527C63.5076 33.3878 63.5163 33.4228 63.5257 33.4578C64.0693 35.4866 66.3847 36.6289 68.6973 36.0093C70.9167 35.4146 72.327 33.413 71.9563 31.4593Z"/>
</mask>
<path fill-rule="evenodd" clip-rule="evenodd" d="M71.9563 31.4593L71.957 31.4591C71.0315 25.5553 65.0574 21 57.8256 21C50.6584 21 45.5835 24.7046 44.0523 29.7619L42.3636 29.4416C40.5276 29.0932 39.2703 31.2425 40.4737 32.6722L43.9341 36.7831C44.3727 37.3042 45.1171 37.4454 45.7162 37.1212L50.4417 34.5633C52.0852 33.6738 51.7025 31.2134 49.8664 30.865L48.5285 30.6112C50.097 28.4719 52.5596 27.0936 55.3286 27.0936C59.1523 27.0936 62.3917 29.7219 63.4994 33.3527C63.5076 33.3878 63.5163 33.4228 63.5257 33.4578C64.0693 35.4866 66.3847 36.6289 68.6973 36.0093C70.9167 35.4146 72.327 33.413 71.9563 31.4593Z" fill="#FFF5E1"/>
<path d="M71.957 31.4591L72.081 31.9434C72.3307 31.8795 72.4909 31.6363 72.451 31.3816L71.957 31.4591ZM71.9563 31.4593L71.8322 30.9749C71.5766 31.0403 71.4158 31.2932 71.465 31.5525L71.9563 31.4593ZM44.0523 29.7619L43.9591 30.2532C44.2102 30.3008 44.4568 30.1514 44.5308 29.9068L44.0523 29.7619ZM42.3636 29.4416L42.2704 29.9328H42.2704L42.3636 29.4416ZM40.4737 32.6722L40.8563 32.3502L40.4737 32.6722ZM43.9341 36.7831L43.5516 37.1051L43.9341 36.7831ZM45.7162 37.1212L45.4782 36.6815H45.4782L45.7162 37.1212ZM50.4417 34.5633L50.2037 34.1236L50.4417 34.5633ZM49.8664 30.865L49.9596 30.3738H49.9596L49.8664 30.865ZM48.5285 30.6112L48.1252 30.3155C48.0237 30.4539 48.0003 30.6348 48.0633 30.7945C48.1262 30.9542 48.2666 31.0704 48.4353 31.1024L48.5285 30.6112ZM63.4994 33.3527L63.9862 33.2388C63.9837 33.228 63.9808 33.2174 63.9776 33.2068L63.4994 33.3527ZM63.5257 33.4578L64.0087 33.3284L64.0087 33.3284L63.5257 33.4578ZM68.6973 36.0093L68.5678 35.5263L68.6973 36.0093ZM71.833 30.9747L71.8322 30.9749L72.0803 31.9436L72.081 31.9434L71.833 30.9747ZM57.8256 21.5C64.8715 21.5 70.5843 25.9312 71.463 31.5365L72.451 31.3816C71.4787 25.1795 65.2434 20.5 57.8256 20.5V21.5ZM44.5308 29.9068C45.9857 25.1017 50.8323 21.5 57.8256 21.5V20.5C50.4846 20.5 45.1813 24.3075 43.5738 29.6171L44.5308 29.9068ZM44.1455 29.2707L42.4568 28.9503L42.2704 29.9328L43.9591 30.2532L44.1455 29.2707ZM42.4568 28.9503C40.1586 28.5143 38.5848 31.2046 40.0912 32.9942L40.8563 32.3502C39.9557 31.2804 40.8965 29.6721 42.2704 29.9328L42.4568 28.9503ZM40.0912 32.9942L43.5516 37.1051L44.3166 36.4611L40.8563 32.3502L40.0912 32.9942ZM43.5516 37.1051C44.143 37.8077 45.1466 37.9981 45.9542 37.5609L45.4782 36.6815C45.0877 36.8928 44.6025 36.8008 44.3166 36.4611L43.5516 37.1051ZM45.9542 37.5609L50.6797 35.0031L50.2037 34.1236L45.4782 36.6815L45.9542 37.5609ZM50.6797 35.0031C52.7369 33.8895 52.2579 30.8098 49.9596 30.3738L49.7733 31.3563C51.1471 31.6169 51.4335 33.458 50.2037 34.1236L50.6797 35.0031ZM49.9596 30.3738L48.6217 30.1199L48.4353 31.1024L49.7733 31.3563L49.9596 30.3738ZM55.3286 26.5936C52.3877 26.5936 49.7802 28.0583 48.1252 30.3155L48.9317 30.9068C50.4137 28.8855 52.7315 27.5936 55.3286 27.5936V26.5936ZM63.9776 33.2068C62.8118 29.3853 59.3921 26.5936 55.3286 26.5936V27.5936C58.9124 27.5936 61.9716 30.0585 63.0211 33.4986L63.9776 33.2068ZM63.0125 33.4667C63.0219 33.5069 63.032 33.5471 63.0428 33.5872L64.0087 33.3284C64.0007 33.2985 63.9932 33.2687 63.9862 33.2388L63.0125 33.4667ZM63.0428 33.5872C63.6732 35.9402 66.3087 37.1669 68.8267 36.4922L68.5678 35.5263C66.4607 36.0909 64.4654 35.033 64.0087 33.3284L63.0428 33.5872ZM68.8267 36.4922C71.246 35.844 72.8766 33.6275 72.4475 31.3661L71.465 31.5525C71.7773 33.1985 70.5874 34.9852 68.5678 35.5263L68.8267 36.4922Z" fill="#892702" mask="url(#path-3-outside-1_392_5080)"/>
<mask id="path-5-outside-2_392_5080" maskUnits="userSpaceOnUse" x="41.3601" y="36.5879" width="34" height="18" fill="black">
<rect fill="white" x="41.3601" y="36.5879" width="34" height="18"/>
<path fill-rule="evenodd" clip-rule="evenodd" d="M42.4038 43.1287L42.4031 43.1288C43.3286 49.0326 49.3027 53.5879 56.5345 53.5879C63.7017 53.5879 68.7766 49.8833 70.3078 44.8259L71.9965 45.1463C73.8326 45.4947 75.0898 43.3454 73.8864 41.9157L70.426 37.8048C69.9874 37.2837 69.243 37.1424 68.6439 37.4667L63.9184 40.0246C62.2749 40.9141 62.6576 43.3745 64.4937 43.7229L65.8318 43.9767C64.2633 46.116 61.8007 47.4943 59.0317 47.4943C55.2073 47.4943 51.9674 44.8651 50.8603 41.2333C50.8522 41.1989 50.8436 41.1645 50.8344 41.1301C50.2908 39.1013 47.9754 37.959 45.6629 38.5786C43.4434 39.1733 42.0331 41.1749 42.4038 43.1287Z"/>
</mask>
<path fill-rule="evenodd" clip-rule="evenodd" d="M42.4038 43.1287L42.4031 43.1288C43.3286 49.0326 49.3027 53.5879 56.5345 53.5879C63.7017 53.5879 68.7766 49.8833 70.3078 44.8259L71.9965 45.1463C73.8326 45.4947 75.0898 43.3454 73.8864 41.9157L70.426 37.8048C69.9874 37.2837 69.243 37.1424 68.6439 37.4667L63.9184 40.0246C62.2749 40.9141 62.6576 43.3745 64.4937 43.7229L65.8318 43.9767C64.2633 46.116 61.8007 47.4943 59.0317 47.4943C55.2073 47.4943 51.9674 44.8651 50.8603 41.2333C50.8522 41.1989 50.8436 41.1645 50.8344 41.1301C50.2908 39.1013 47.9754 37.959 45.6629 38.5786C43.4434 39.1733 42.0331 41.1749 42.4038 43.1287Z" fill="#FFF5E1"/>
<path d="M42.4031 43.1288L42.2791 42.6445C42.0294 42.7084 41.8692 42.9517 41.9092 43.2063L42.4031 43.1288ZM42.4038 43.1287L42.5279 43.613C42.7835 43.5476 42.9443 43.2947 42.8951 43.0355L42.4038 43.1287ZM70.3078 44.8259L70.401 44.3347C70.1499 44.2871 69.9033 44.4365 69.8293 44.6811L70.3078 44.8259ZM71.9965 45.1463L72.0897 44.6551H72.0897L71.9965 45.1463ZM73.8864 41.9157L73.5038 42.2377L73.8864 41.9157ZM70.426 37.8048L70.8085 37.4828L70.426 37.8048ZM68.6439 37.4667L68.8819 37.9064H68.8819L68.6439 37.4667ZM63.9184 40.0246L64.1564 40.4643L63.9184 40.0246ZM64.4937 43.7229L64.4005 44.2141H64.4005L64.4937 43.7229ZM65.8318 43.9767L66.235 44.2724C66.3365 44.134 66.3599 43.9532 66.297 43.7935C66.234 43.6338 66.0936 43.5175 65.925 43.4855L65.8318 43.9767ZM50.8603 41.2333L50.3735 41.3475C50.376 41.3581 50.3789 41.3687 50.382 41.3791L50.8603 41.2333ZM50.8344 41.1301L51.3174 41.0007L51.3173 41.0007L50.8344 41.1301ZM45.6629 38.5786L45.7923 39.0616L45.6629 38.5786ZM42.5272 43.6132L42.5279 43.613L42.2798 42.6443L42.2791 42.6445L42.5272 43.6132ZM56.5345 53.0879C49.4887 53.0879 43.7758 48.6567 42.8971 43.0514L41.9092 43.2063C42.8815 49.4084 49.1168 54.0879 56.5345 54.0879V53.0879ZM69.8293 44.6811C68.3744 49.4861 63.5278 53.0879 56.5345 53.0879V54.0879C63.8755 54.0879 69.1788 50.2804 70.7864 44.9708L69.8293 44.6811ZM70.2146 45.3172L71.9033 45.6376L72.0897 44.6551L70.401 44.3347L70.2146 45.3172ZM71.9033 45.6376C74.2015 46.0736 75.7753 43.3833 74.2689 41.5937L73.5038 42.2377C74.4044 43.3075 73.4636 44.9157 72.0897 44.6551L71.9033 45.6376ZM74.2689 41.5937L70.8085 37.4828L70.0435 38.1268L73.5038 42.2377L74.2689 41.5937ZM70.8085 37.4828C70.2172 36.7802 69.2135 36.5898 68.4059 37.027L68.8819 37.9064C69.2724 37.6951 69.7576 37.7871 70.0435 38.1268L70.8085 37.4828ZM68.4059 37.027L63.6804 39.5848L64.1564 40.4643L68.8819 37.9064L68.4059 37.027ZM63.6804 39.5848C61.6232 40.6984 62.1022 43.7781 64.4005 44.2141L64.5869 43.2316C63.213 42.971 62.9266 41.1299 64.1564 40.4643L63.6804 39.5848ZM64.4005 44.2141L65.7386 44.468L65.925 43.4855L64.5869 43.2316L64.4005 44.2141ZM59.0317 47.9943C61.9726 47.9943 64.58 46.5296 66.235 44.2724L65.4285 43.6811C63.9465 45.7024 61.6288 46.9943 59.0317 46.9943V47.9943ZM50.382 41.3791C51.5473 45.2016 54.9674 47.9943 59.0317 47.9943V46.9943C55.4472 46.9943 52.3876 44.5285 51.3386 41.0875L50.382 41.3791ZM51.3471 41.1191C51.3378 41.0795 51.3279 41.0401 51.3174 41.0007L50.3514 41.2595C50.3593 41.2889 50.3667 41.3182 50.3735 41.3475L51.3471 41.1191ZM51.3173 41.0007C50.6869 38.6477 48.0514 37.421 45.5334 38.0957L45.7923 39.0616C47.8994 38.497 49.8947 39.5549 50.3514 41.2595L51.3173 41.0007ZM45.5334 38.0957C43.1141 38.7439 41.4835 40.9604 41.9126 43.2219L42.8951 43.0355C42.5828 41.3894 43.7727 39.6027 45.7923 39.0616L45.5334 38.0957Z" fill="#892702" mask="url(#path-5-outside-2_392_5080)"/>
</g>
<path d="M40.715 10.3378C41.5531 12.3825 38.9571 13.3097 35.3718 14.7735C31.7865 16.2372 28.5696 17.6833 27.7315 15.6387C26.8934 13.594 29.0373 10.0417 32.6226 8.57792C36.2078 7.11414 39.8769 8.29318 40.715 10.3378Z" fill="white"/>
<ellipse cx="2.00116" cy="2.50353" rx="2.00116" ry="2.50353" transform="matrix(0.540087 0.841609 -0.842584 0.538564 24.219 15.3965)" fill="white"/>
</g>
<defs>
<filter id="filter0_d_392_5080" x="0" y="0" width="114" height="81" filterUnits="userSpaceOnUse" color-interpolation-filters="sRGB">
<feFlood flood-opacity="0" result="BackgroundImageFix"/>
<feColorMatrix in="SourceAlpha" type="matrix" values="0 0 0 0 0 0 0 0 0 0 0 0 0 0 0 0 0 0 127 0" result="hardAlpha"/>
<feOffset dy="4"/>
<feGaussianBlur stdDeviation="3.5"/>
<feComposite in2="hardAlpha" operator="out"/>
<feColorMatrix type="matrix" values="0 0 0 0 0.9875 0 0 0 0 0.842902 0 0 0 0 0.650104 0 0 0 1 0"/>
<feBlend mode="normal" in2="BackgroundImageFix" result="effect1_dropShadow_392_5080"/>
<feBlend mode="normal" in="SourceGraphic" in2="effect1_dropShadow_392_5080" result="shape"/>
</filter>
<filter id="filter1_f_392_5080" x="10" y="6" width="94" height="61" filterUnits="userSpaceOnUse" color-interpolation-filters="sRGB">
<feFlood flood-opacity="0" result="BackgroundImageFix"/>
<feBlend mode="normal" in="SourceGraphic" in2="BackgroundImageFix" result="shape"/>
<feGaussianBlur stdDeviation="1" result="effect1_foregroundBlur_392_5080"/>
</filter>
<filter id="filter2_d_392_5080" x="38.4983" y="19" width="36.3635" height="35.0879" filterUnits="userSpaceOnUse" color-interpolation-filters="sRGB">
<feFlood flood-opacity="0" result="BackgroundImageFix"/>
<feColorMatrix in="SourceAlpha" type="matrix" values="0 0 0 0 0 0 0 0 0 0 0 0 0 0 0 0 0 0 127 0" result="hardAlpha"/>
<feOffset dx="-1" dy="-1.5"/>
<feComposite in2="hardAlpha" operator="out"/>
<feColorMatrix type="matrix" values="0 0 0 0 0.537255 0 0 0 0 0.152941 0 0 0 0 0.00784314 0 0 0 1 0"/>
<feBlend mode="normal" in2="BackgroundImageFix" result="effect1_dropShadow_392_5080"/>
<feBlend mode="normal" in="SourceGraphic" in2="effect1_dropShadow_392_5080" result="shape"/>
</filter>
<linearGradient id="paint0_linear_392_5080" x1="57" y1="3" x2="57" y2="70" gradientUnits="userSpaceOnUse">
<stop stop-color="#FFC978"/>
<stop offset="0.458333" stop-color="#FF7E3C"/>
<stop offset="1" stop-color="#C53213"/>
</linearGradient>
<linearGradient id="paint1_linear_392_5080" x1="57" y1="8" x2="57" y2="65" gradientUnits="userSpaceOnUse">
<stop stop-color="#FDAF53"/>
<stop offset="1" stop-color="#DC4F26"/>
</linearGradient>
</defs>
</svg>
