<svg width="24" height="25" viewBox="0 0 24 25" fill="none" xmlns="http://www.w3.org/2000/svg">
<mask id="path-1-outside-1_925_1026" maskUnits="userSpaceOnUse" x="0.357178" y="0.119873" width="24" height="25" fill="black">
<rect fill="white" x="0.357178" y="0.119873" width="24" height="25"/>
<path fill-rule="evenodd" clip-rule="evenodd" d="M1.53908 13.8473C1.41963 13.2057 1.35718 12.5441 1.35718 11.8678C1.35718 5.9319 6.1692 1.11987 12.1051 1.11987C17.401 1.11987 21.8023 4.9501 22.6899 9.99146L22.9574 11.2777L22.9569 11.2778C23.0922 11.9589 23.1632 12.6633 23.1632 13.3842C23.1632 19.3201 18.3512 24.1321 12.4153 24.1321C7.15248 24.1321 2.77316 20.3496 1.84757 15.3549L1.60036 14.1518C1.58462 14.0791 1.56962 14.0061 1.55537 13.9329L1.53784 13.8476L1.53908 13.8473Z"/>
</mask>
<path fill-rule="evenodd" clip-rule="evenodd" d="M1.53908 13.8473C1.41963 13.2057 1.35718 12.5441 1.35718 11.8678C1.35718 5.9319 6.1692 1.11987 12.1051 1.11987C17.401 1.11987 21.8023 4.9501 22.6899 9.99146L22.9574 11.2777L22.9569 11.2778C23.0922 11.9589 23.1632 12.6633 23.1632 13.3842C23.1632 19.3201 18.3512 24.1321 12.4153 24.1321C7.15248 24.1321 2.77316 20.3496 1.84757 15.3549L1.60036 14.1518C1.58462 14.0791 1.56962 14.0061 1.55537 13.9329L1.53784 13.8476L1.53908 13.8473Z" fill="url(#paint0_linear_925_1026)"/>
<path d="M1.53908 13.8473L1.65746 14.4879L2.29886 14.3694L2.17947 13.7281L1.53908 13.8473ZM22.6899 9.99146L22.0483 10.1044L22.0501 10.1143L22.0521 10.1241L22.6899 9.99146ZM22.9574 11.2777L23.09 11.9154L23.7278 11.7828L23.5952 11.145L22.9574 11.2777ZM22.9569 11.2778L22.8243 10.64L22.1922 10.7714L22.318 11.4047L22.9569 11.2778ZM1.84757 15.3549L2.48818 15.2362L2.48563 15.2238L1.84757 15.3549ZM1.60036 14.1518L2.23846 14.0207L2.23701 14.0141L1.60036 14.1518ZM1.55537 13.9329L2.1948 13.8084L2.19343 13.8018L1.55537 13.9329ZM1.53784 13.8476L1.41947 13.207L0.766032 13.3278L0.89978 13.9787L1.53784 13.8476ZM0.705786 11.8678C0.705786 12.5843 0.771959 13.2858 0.898697 13.9666L2.17947 13.7281C2.0673 13.1256 2.00857 12.5039 2.00857 11.8678H0.705786ZM12.1051 0.468481C5.80945 0.468481 0.705786 5.57214 0.705786 11.8678H2.00857C2.00857 6.29165 6.52896 1.77126 12.1051 1.77126V0.468481ZM23.3314 9.87851C22.3899 4.53116 17.7226 0.468481 12.1051 0.468481V1.77126C17.0794 1.77126 21.2146 5.36903 22.0483 10.1044L23.3314 9.87851ZM23.5952 11.145L23.3276 9.8588L22.0521 10.1241L22.3197 11.4103L23.5952 11.145ZM23.0895 11.9155L23.09 11.9154L22.8248 10.6399L22.8243 10.64L23.0895 11.9155ZM23.8146 13.3842C23.8146 12.6204 23.7394 11.8736 23.5958 11.1508L22.318 11.4047C22.4451 12.0443 22.5118 12.7061 22.5118 13.3842H23.8146ZM12.4153 24.7835C18.7109 24.7835 23.8146 19.6798 23.8146 13.3842H22.5118C22.5118 18.9603 17.9914 23.4807 12.4153 23.4807V24.7835ZM1.20708 15.4736C2.18884 20.7714 6.83282 24.7835 12.4153 24.7835V23.4807C7.47214 23.4807 3.35748 19.9278 2.48806 15.2362L1.20708 15.4736ZM0.9623 14.2829L1.20951 15.486L2.48563 15.2238L2.23842 14.0207L0.9623 14.2829ZM0.915972 14.0573C0.931096 14.135 0.94701 14.2125 0.963706 14.2896L2.23701 14.0141C2.22224 13.9458 2.20815 13.8772 2.19476 13.8084L0.915972 14.0573ZM0.89978 13.9787L0.917308 14.064L2.19343 13.8018L2.1759 13.7165L0.89978 13.9787ZM1.42071 13.2068L1.41947 13.207L1.65621 14.4881L1.65746 14.4879L1.42071 13.2068Z" fill="#80190F" mask="url(#path-1-outside-1_925_1026)"/>
<path fill-rule="evenodd" clip-rule="evenodd" d="M12.4153 24.1322C18.3512 24.1322 23.1632 19.3201 23.1632 13.3842C23.1632 12.6633 23.0922 11.959 22.9569 11.2778L22.9574 11.2777L22.6801 9.94438L22.6056 9.95813C21.1753 5.70205 17.1533 2.63623 12.4153 2.63623C6.47932 2.63623 1.66729 7.44826 1.66729 13.3842C1.66729 13.5309 1.67023 13.6768 1.67605 13.8221L1.53784 13.8476L1.84757 15.3549C2.77316 20.3497 7.15248 24.1322 12.4153 24.1322Z" fill="url(#paint1_linear_925_1026)"/>
<circle cx="12.1051" cy="11.8678" r="10.748" fill="url(#paint2_linear_925_1026)"/>
<circle cx="12.1051" cy="11.8678" r="10.748" fill="url(#paint3_linear_925_1026)"/>
<g filter="url(#filter0_f_925_1026)">
<circle cx="12.1052" cy="11.8678" r="9.70225" fill="url(#paint4_linear_925_1026)"/>
</g>
<g filter="url(#filter1_d_925_1026)">
<path d="M9.80527 7.19731C9.88738 6.69821 10.4822 6.47904 10.8685 6.80554L12.98 8.5902C13.1237 8.71157 13.3127 8.76497 13.4986 8.73666L16.2318 8.32047C16.7318 8.24433 17.1241 8.7423 16.9329 9.2106L15.8881 11.7703C15.8171 11.9444 15.8247 12.1407 15.9091 12.3087L17.1495 14.7795C17.3764 15.2316 17.024 15.7585 16.5196 15.7214L13.7623 15.5187C13.5748 15.5049 13.3905 15.5729 13.2567 15.705L11.2902 17.6483C10.9304 18.0038 10.3203 17.8315 10.1997 17.3403L9.54043 14.6553C9.4956 14.4727 9.37404 14.3184 9.20702 14.232L6.75118 12.9622C6.30188 12.7299 6.27725 12.0965 6.70715 11.8299L9.05696 10.3732C9.21677 10.2742 9.32597 10.1109 9.3565 9.92534L9.80527 7.19731Z" fill="#F6A120"/>
<g filter="url(#filter2_i_925_1026)">
<path d="M9.66477 6.88359C9.74688 6.38449 10.3417 6.16532 10.728 6.49182L12.8395 8.27647C12.9831 8.39785 13.1722 8.45125 13.3581 8.42294L16.0913 8.00675C16.5913 7.9306 16.9836 8.42858 16.7924 8.89688L15.7476 11.4566C15.6766 11.6306 15.6842 11.8269 15.7686 11.995L17.009 14.4658C17.2359 14.9178 16.8835 15.4448 16.3791 15.4077L13.6218 15.205C13.4343 15.1912 13.25 15.2591 13.1162 15.3913L11.1497 17.3345C10.7899 17.6901 10.1798 17.5177 10.0592 17.0265L9.39993 14.3416C9.35509 14.159 9.23354 14.0047 9.06651 13.9183L6.61068 12.6485C6.16138 12.4162 6.13675 11.7827 6.56665 11.5162L8.91646 10.0595C9.07627 9.96045 9.18547 9.79715 9.21599 9.61162L9.66477 6.88359Z" fill="url(#paint5_linear_925_1026)"/>
</g>
</g>
<defs>
<filter id="filter0_f_925_1026" x="2.07726" y="1.83983" width="20.0559" height="20.0559" filterUnits="userSpaceOnUse" color-interpolation-filters="sRGB">
<feFlood flood-opacity="0" result="BackgroundImageFix"/>
<feBlend mode="normal" in="SourceGraphic" in2="BackgroundImageFix" result="shape"/>
<feGaussianBlur stdDeviation="0.162848" result="effect1_foregroundBlur_925_1026"/>
</filter>
<filter id="filter1_d_925_1026" x="5.60703" y="6.33716" width="12.2641" height="12.8023" filterUnits="userSpaceOnUse" color-interpolation-filters="sRGB">
<feFlood flood-opacity="0" result="BackgroundImageFix"/>
<feColorMatrix in="SourceAlpha" type="matrix" values="0 0 0 0 0 0 0 0 0 0 0 0 0 0 0 0 0 0 127 0" result="hardAlpha"/>
<feOffset dy="0.651392"/>
<feGaussianBlur stdDeviation="0.325696"/>
<feComposite in2="hardAlpha" operator="out"/>
<feColorMatrix type="matrix" values="0 0 0 0 0.905882 0 0 0 0 0.180392 0 0 0 0 0.054902 0 0 0 1 0"/>
<feBlend mode="normal" in2="BackgroundImageFix" result="effect1_dropShadow_925_1026"/>
<feBlend mode="normal" in="SourceGraphic" in2="effect1_dropShadow_925_1026" result="shape"/>
</filter>
<filter id="filter2_i_925_1026" x="6.25842" y="6.33716" width="10.8208" height="11.1858" filterUnits="userSpaceOnUse" color-interpolation-filters="sRGB">
<feFlood flood-opacity="0" result="BackgroundImageFix"/>
<feBlend mode="normal" in="SourceGraphic" in2="BackgroundImageFix" result="shape"/>
<feColorMatrix in="SourceAlpha" type="matrix" values="0 0 0 0 0 0 0 0 0 0 0 0 0 0 0 0 0 0 127 0" result="hardAlpha"/>
<feOffset dy="0.325696"/>
<feComposite in2="hardAlpha" operator="arithmetic" k2="-1" k3="1"/>
<feColorMatrix type="matrix" values="0 0 0 0 1 0 0 0 0 1 0 0 0 0 1 0 0 0 1 0"/>
<feBlend mode="normal" in2="shape" result="effect1_innerShadow_925_1026"/>
</filter>
<linearGradient id="paint0_linear_925_1026" x1="12.1051" y1="5.54848" x2="10.7731" y2="18.1149" gradientUnits="userSpaceOnUse">
<stop stop-color="#FFFDBF"/>
<stop offset="1" stop-color="#FFE745"/>
</linearGradient>
<linearGradient id="paint1_linear_925_1026" x1="1.53784" y1="17.2463" x2="23.1632" y2="13.3842" gradientUnits="userSpaceOnUse">
<stop stop-color="#B30B22"/>
<stop offset="0.25036" stop-color="#E02B36"/>
<stop offset="0.579699" stop-color="#EE353C"/>
<stop offset="0.836781" stop-color="#E22C37"/>
<stop offset="1" stop-color="#B60E24"/>
</linearGradient>
<linearGradient id="paint2_linear_925_1026" x1="5.86439" y1="2.50671" x2="16.2656" y2="22.6158" gradientUnits="userSpaceOnUse">
<stop stop-color="#FFC979"/>
<stop offset="1" stop-color="#FC532D"/>
</linearGradient>
<linearGradient id="paint3_linear_925_1026" x1="12.1051" y1="1.11987" x2="16.2656" y2="22.6158" gradientUnits="userSpaceOnUse">
<stop stop-color="#FFD494"/>
<stop offset="1" stop-color="#FC532D"/>
</linearGradient>
<linearGradient id="paint4_linear_925_1026" x1="6.47164" y1="3.41743" x2="15.8609" y2="21.57" gradientUnits="userSpaceOnUse">
<stop stop-color="#FE8332"/>
<stop offset="1" stop-color="#F32E2D"/>
</linearGradient>
<linearGradient id="paint5_linear_925_1026" x1="12.1051" y1="5.54847" x2="10.7731" y2="18.1149" gradientUnits="userSpaceOnUse">
<stop stop-color="#FFFDBF"/>
<stop offset="1" stop-color="#FFE745"/>
</linearGradient>
</defs>
</svg>
