<svg width="156" height="46" viewBox="0 0 156 46" fill="none" xmlns="http://www.w3.org/2000/svg">
<mask id="mask0_889_58" style="mask-type:alpha" maskUnits="userSpaceOnUse" x="0" y="0" width="156" height="46">
<rect width="156" height="46" fill="#D9D9D9"/>
</mask>
<g mask="url(#mask0_889_58)">
<path d="M11.7775 5.33345C11.6508 5.26007 11.4943 5.2606 11.3681 5.33483L5.25963 8.92627C5.13551 8.99925 5.05929 9.13247 5.05929 9.27646V12.5407C5.05929 12.6849 5.1357 12.8182 5.26007 12.8912L7.68366 14.312C7.9524 14.4696 7.9511 14.8585 7.68132 15.0143L5.4704 16.2907C5.34388 16.3638 5.18787 16.3633 5.06184 16.2894L2.953 15.053C2.37969 14.7169 2.02747 14.1022 2.02747 13.4376V8.38088C2.02747 7.71716 2.37881 7.10302 2.95097 6.76663L10.6188 2.25834C11.2008 1.91616 11.9219 1.91375 12.5062 2.25202L29.8745 12.3078C30.4528 12.6426 30.8088 13.2602 30.8088 13.9284V22.6372C30.8088 23.3021 30.4562 23.9171 29.8824 24.2531L18.9912 30.6305C18.4129 30.9691 17.6977 30.9729 17.1159 30.6404L12.4694 27.9853C12.1972 27.8298 12.1963 27.4376 12.4678 27.2808L14.693 25.9961C14.8181 25.9239 14.9722 25.9236 15.0976 25.9952L17.8338 27.5588C17.96 27.6309 18.1152 27.6301 18.2406 27.5566L27.576 22.0903C27.7005 22.0174 27.777 21.884 27.777 21.7397V14.8309C27.777 14.686 27.6998 14.552 27.5743 14.4794L11.7775 5.33345Z" fill="white"/>
<path d="M20.693 18.8253C20.9645 18.6685 20.9636 18.2761 20.6912 18.1207L15.7147 15.2802C15.1335 14.9484 14.4193 14.952 13.8415 15.2897L2.92771 21.6683C2.35317 22.0041 2 22.6196 2 23.285L2 31.9857C2 32.6517 2.35376 33.2676 2.92906 33.6032L20.3151 43.7449C20.896 44.0837 21.6139 44.0851 22.1961 43.7485L29.8804 39.305C30.4591 38.9703 30.8156 38.3525 30.8156 37.6839V32.5356C30.8156 31.8683 30.4604 31.2513 29.8833 30.9162L27.6896 29.6425C27.5638 29.5695 27.4085 29.5693 27.2825 29.642L25.0663 30.9215C24.7959 31.0777 24.7954 31.4678 25.0655 31.6246L27.5815 33.0856C27.7067 33.1583 27.7837 33.2921 27.7837 33.4369V36.7808C27.7837 36.9258 27.7064 37.0599 27.5809 37.1325L21.4654 40.6687C21.3392 40.7418 21.1834 40.7415 21.0574 40.668L5.23337 31.4374C5.10857 31.3646 5.03182 31.231 5.03182 31.0865L5.03182 24.1833C5.03182 24.0389 5.10844 23.9054 5.23307 23.8326L14.5907 18.3636C14.7161 18.2903 14.871 18.2895 14.9971 18.3615L18.0627 20.1113C18.1881 20.1829 18.3421 20.1825 18.4672 20.1103L20.693 18.8253Z" fill="white"/>
<path fill-rule="evenodd" clip-rule="evenodd" d="M140.763 14.6921C140.538 14.6921 140.356 14.874 140.356 15.0983L140.356 21.0131L140.356 25.119C140.356 26.3424 139.365 27.3341 138.141 27.3341C138.131 27.3341 138.122 27.3256 138.122 27.315L138.122 13.8762C138.122 12.9107 138.804 12.1279 139.645 12.1279H152.93C153.771 12.1279 154.453 12.9107 154.453 13.8762V19.383C154.453 20.3204 153.811 21.0855 153.003 21.1293L154.313 23.2685C154.494 23.5629 154.59 23.914 154.59 24.2738V26.9584C154.59 27.1828 154.408 27.3647 154.184 27.3647H152.762C152.538 27.3647 152.356 27.1828 152.356 26.9584V24.6464C152.356 24.5715 152.335 24.4981 152.296 24.4342L150.28 21.1424C150.278 21.1387 150.276 21.135 150.274 21.1313H142.113C141.888 21.1313 141.706 20.9494 141.706 20.7251V18.9734C141.706 18.749 141.888 18.5671 142.113 18.5671H151.813C152.037 18.5671 152.219 18.3853 152.219 18.1609L152.219 15.0983C152.219 14.874 152.037 14.6921 151.813 14.6921H140.763ZM80.1891 13.9905C80.1891 13.019 80.8792 12.2338 81.7257 12.2422L95.1872 12.3769C96.0233 12.3853 96.6973 13.1655 96.6973 14.1251V20.5572C96.6973 21.5227 96.0153 22.3055 95.174 22.3055H84.1146C83.8902 22.3055 83.7084 22.1236 83.7084 21.8992V20.1475C83.7084 19.9232 83.8902 19.7413 84.1146 19.7413L94.0568 19.7413C94.2812 19.7413 94.4631 19.5594 94.4631 19.3351V15.3361C94.4631 15.1133 94.2836 14.9321 94.0609 14.9299L82.5121 14.8144C82.4632 14.8139 82.4233 14.8534 82.4233 14.9023V25.3461C82.4233 26.5715 81.4299 27.5649 80.2045 27.5649C80.196 27.5649 80.1891 27.558 80.1891 27.5495V13.9905ZM60.7327 17.7147L60.7327 12.4357C60.7327 12.4164 60.7483 12.4008 60.7676 12.4008C61.9823 12.4008 62.9669 13.3855 62.9669 14.6001L62.9669 17.1738C62.9669 17.2006 62.9811 17.2254 63.0042 17.2391L68.9704 20.7642L74.7918 17.2998C74.9149 17.2266 74.9903 17.0939 74.9903 16.9507V12.9291C74.9903 12.7048 75.1722 12.5229 75.3965 12.5229H76.8183C77.0427 12.5229 77.2246 12.7048 77.2246 12.9291V17.665C77.2246 18.3037 76.9211 18.8915 76.4331 19.1983L70.1051 22.9759C70.0795 22.9911 70.053 23.0033 70.0259 23.0124V27.1464C70.0259 27.3708 69.844 27.5527 69.6197 27.5527H68.1979C67.9735 27.5527 67.7916 27.3708 67.7916 27.1464V23.1836C67.7916 23.0399 67.7157 22.9069 67.592 22.8338L61.5588 19.2691C61.0515 18.9694 60.7327 18.3695 60.7327 17.7147ZM55.7275 15.3111C55.7275 15.1495 55.5965 15.0184 55.4349 15.0184L44.1925 15.0184C42.8058 15.0184 41.6816 13.8944 41.6815 12.5077C41.6815 12.4782 41.7054 12.4543 41.7349 12.4543L56.4428 12.4543C57.2999 12.4543 57.9618 13.2552 57.9618 14.2025L57.9618 16.8021C57.9618 18.2817 57.0637 19.5615 55.8041 19.8768L44.0971 22.8075C43.8639 22.8659 43.6976 23.1029 43.6976 23.3769V24.7894C43.6976 25.0138 43.8794 25.1957 44.1038 25.1957H57.4839C57.642 25.1957 57.7702 25.3238 57.7702 25.4819V27.3536C57.7702 27.578 57.5883 27.7598 57.3639 27.7598H42.9867C42.1453 27.7598 41.4633 26.9771 41.4633 26.0115V23.3769C41.4633 21.8973 42.3614 20.6176 43.621 20.3022L55.328 17.3716C55.5612 17.3132 55.7276 17.0762 55.7276 16.8022L55.7275 15.3111ZM99.5232 12.5502V18.8781V20.0941V27.1468C99.5232 27.3711 99.7051 27.553 99.9295 27.553H101.351C101.576 27.553 101.757 27.3711 101.757 27.1468V21.8424H113.742V27.1458C113.742 27.3701 113.924 27.552 114.149 27.552H115.57C115.795 27.552 115.977 27.3701 115.977 27.1458V18.8304L115.976 18.8178V12.9291C115.976 12.7048 115.795 12.5229 115.57 12.5229H114.148C113.924 12.5229 113.742 12.7048 113.742 12.9291V18.872C113.742 19.0964 113.56 19.2783 113.336 19.2783H101.84C101.794 19.2783 101.757 19.2414 101.757 19.1959V18.8781V14.7299C101.757 13.511 100.769 12.5229 99.5505 12.5229C99.5354 12.5229 99.5232 12.5351 99.5232 12.5502ZM118.808 14.0537C118.808 13.0881 119.49 12.3054 120.331 12.3054H135.044C135.06 12.3054 135.072 12.318 135.072 12.3336C135.072 13.7341 133.937 14.8695 132.536 14.8695H121.196C121.111 14.8695 121.042 14.9386 121.042 15.0237V18.718L133.371 18.718C133.595 18.718 133.777 18.8998 133.777 19.1242V20.8759C133.777 21.1002 133.595 21.2821 133.371 21.2821L121.042 21.2821V24.9733C121.042 25.0603 121.112 25.1309 121.199 25.1309H132.537C133.937 25.1309 135.072 26.266 135.072 27.6663C135.072 27.6822 135.06 27.6951 135.044 27.6951H120.331C119.49 27.6951 118.808 26.9124 118.808 25.9468V14.0537Z" fill="white"/>
<path d="M45.9744 35.273C45.886 35.273 45.8088 35.2154 45.7759 35.1333C45.7267 35.0105 45.6671 34.8976 45.597 34.7946C45.5031 34.6518 45.3906 34.5305 45.2595 34.4307C45.1284 34.3289 44.9787 34.2516 44.8104 34.1988C44.6441 34.146 44.4612 34.1196 44.2616 34.1196C43.9231 34.1196 43.6178 34.2066 43.3459 34.3808C43.0739 34.5549 42.8586 34.8103 42.7001 35.1468C42.5436 35.4814 42.4653 35.8914 42.4653 36.3766C42.4653 36.8638 42.5446 37.2757 42.7031 37.6123C42.8616 37.9488 43.0788 38.2042 43.3547 38.3783C43.6306 38.5525 43.9446 38.6395 44.2968 38.6395C44.6236 38.6395 44.9083 38.573 45.1509 38.44C45.3955 38.3069 45.5843 38.1191 45.7174 37.8764C45.8491 37.6378 45.9166 37.3582 45.9198 37.0376C45.9199 37.0251 45.9313 37.0157 45.9435 37.018C45.9674 37.0224 45.9641 37.0576 45.9399 37.0576H44.581C44.5002 37.0576 44.4348 36.9921 44.4348 36.9113V36.5122C44.4348 36.4 44.5257 36.3091 44.6379 36.3091H46.5944C46.7065 36.3091 46.7975 36.4 46.7975 36.5122V36.993C46.7975 37.4978 46.6899 37.9361 46.4746 38.3079C46.2613 38.6777 45.9659 38.9634 45.5882 39.1649C45.2125 39.3665 44.7821 39.4672 44.2968 39.4672C43.7528 39.4672 43.2754 39.342 42.8645 39.0915C42.4555 38.8411 42.1366 38.4859 41.9077 38.0261C41.6787 37.5643 41.5643 37.0165 41.5643 36.3825C41.5643 35.9031 41.6308 35.4726 41.7639 35.0911C41.8969 34.7095 42.0838 34.3857 42.3245 34.1196C42.5671 33.8515 42.8518 33.647 43.1786 33.5061C43.5073 33.3633 43.8663 33.2919 44.2557 33.2919C44.5805 33.2919 44.8828 33.3398 45.1627 33.4357C45.4444 33.5316 45.6949 33.6676 45.914 33.8437C46.1351 34.0198 46.3181 34.2291 46.4629 34.4718C46.568 34.6464 46.6483 34.835 46.7039 35.0375C46.7373 35.1591 46.6411 35.273 46.515 35.273H45.9744Z" fill="white"/>
<path d="M69.3943 39.2484C69.3659 39.3302 69.2889 39.3851 69.2023 39.3851H68.6732C68.5325 39.3851 68.4345 39.2455 68.4821 39.1132L70.499 33.5084C70.528 33.4278 70.6045 33.3741 70.6902 33.3741H71.4524C71.5381 33.3741 71.6145 33.4278 71.6435 33.5084L73.6605 39.1132C73.7081 39.2455 73.6101 39.3851 73.4694 39.3851H72.9404C72.8538 39.3851 72.7767 39.3301 72.7484 39.2483L71.1039 34.4881C71.0993 34.4748 71.0868 34.4659 71.0728 34.4659C71.0587 34.4659 71.0462 34.4748 71.0416 34.4881L69.3943 39.2484ZM69.5084 37.2342C69.5084 37.1221 69.5993 37.0311 69.7115 37.0311H72.4282C72.5403 37.0311 72.6313 37.1221 72.6313 37.2342V37.5911C72.6313 37.7033 72.5403 37.7943 72.4282 37.7943H69.7115C69.5993 37.7943 69.5084 37.7033 69.5084 37.5911V37.2342Z" fill="white"/>
<path d="M95.7025 33.5772C95.7025 33.465 95.7934 33.3741 95.9056 33.3741H96.6668C96.7492 33.3741 96.8235 33.4239 96.8548 33.5002L98.7034 38.0141C98.7115 38.0338 98.7307 38.0467 98.752 38.0467C98.7733 38.0467 98.7925 38.0338 98.8005 38.0141L100.649 33.5002C100.68 33.4239 100.755 33.3741 100.837 33.3741H101.598C101.711 33.3741 101.802 33.465 101.802 33.5772V39.1819C101.802 39.2941 101.711 39.3851 101.598 39.3851H101.142C101.03 39.3851 100.939 39.2941 100.939 39.1819V35.0687C100.939 35.0502 100.924 35.0353 100.905 35.0353C100.892 35.0353 100.879 35.0435 100.874 35.056L99.1616 39.2499C99.1304 39.3263 99.0561 39.3762 98.9736 39.3762H98.5304C98.4478 39.3762 98.3735 39.3263 98.3423 39.2499L96.6296 35.0531C96.6245 35.0406 96.6123 35.0324 96.5987 35.0324C96.5803 35.0324 96.5654 35.0473 96.5654 35.0657V39.1819C96.5654 39.2941 96.4744 39.3851 96.3622 39.3851H95.9056C95.7934 39.3851 95.7025 39.2941 95.7025 39.1819V33.5772Z" fill="white"/>
<path d="M124.399 39.3851C124.287 39.3851 124.196 39.2941 124.196 39.1819V33.5772C124.196 33.465 124.287 33.3741 124.399 33.3741H127.762C127.874 33.3741 127.965 33.465 127.965 33.5772V33.9517C127.965 34.0638 127.874 34.1548 127.762 34.1548H125.306C125.194 34.1548 125.103 34.2457 125.103 34.3579V35.7831C125.103 35.8953 125.194 35.9863 125.306 35.9863H127.565C127.677 35.9863 127.768 36.0772 127.768 36.1894V36.5609C127.768 36.6731 127.677 36.764 127.565 36.764H125.306C125.194 36.764 125.103 36.855 125.103 36.9672V38.4012C125.103 38.5134 125.194 38.6043 125.306 38.6043H127.797C127.909 38.6043 128 38.6953 128 38.8074V39.1819C128 39.2941 127.909 39.3851 127.797 39.3851H124.399Z" fill="white"/>
<path d="M153.712 34.9531C153.609 34.9531 153.525 34.8744 153.495 34.7754C153.437 34.5818 153.319 34.4258 153.143 34.3074C152.916 34.1528 152.631 34.0755 152.286 34.0755C152.04 34.0755 151.826 34.1147 151.646 34.1929C151.466 34.2692 151.327 34.3749 151.227 34.5099C151.129 34.643 151.08 34.7946 151.08 34.9649C151.08 35.1077 151.113 35.231 151.18 35.3347C151.248 35.4384 151.337 35.5254 151.447 35.5959C151.558 35.6644 151.678 35.7221 151.805 35.7691C151.932 35.8141 152.054 35.8512 152.172 35.8806L152.759 36.0332C152.951 36.0802 153.147 36.1438 153.349 36.224C153.55 36.3042 153.737 36.4099 153.909 36.541C154.082 36.6721 154.22 36.8345 154.326 37.0282C154.434 37.2219 154.488 37.4538 154.488 37.7238C154.488 38.0643 154.4 38.3666 154.223 38.6307C154.049 38.8949 153.796 39.1033 153.463 39.2559C153.133 39.4085 152.732 39.4848 152.263 39.4848C151.813 39.4848 151.423 39.4134 151.095 39.2706C150.766 39.1277 150.509 38.9252 150.323 38.663C150.174 38.4522 150.079 38.2102 150.037 37.937C150.019 37.8219 150.112 37.7238 150.229 37.7238H150.737C150.843 37.7238 150.928 37.8059 150.954 37.9085C150.989 38.0458 151.049 38.1652 151.136 38.2668C151.261 38.4096 151.42 38.5163 151.614 38.5867C151.81 38.6552 152.024 38.6894 152.257 38.6894C152.513 38.6894 152.741 38.6493 152.941 38.5691C153.142 38.4869 153.301 38.3734 153.416 38.2286C153.532 38.0819 153.589 37.9107 153.589 37.715C153.589 37.5369 153.539 37.3912 153.437 37.2777C153.337 37.1642 153.201 37.0703 153.029 36.9959C152.859 36.9216 152.666 36.856 152.451 36.7993L151.74 36.6056C151.259 36.4745 150.877 36.2817 150.596 36.0273C150.316 35.773 150.176 35.4364 150.176 35.0177C150.176 34.6713 150.27 34.369 150.458 34.1108C150.646 33.8525 150.9 33.6519 151.221 33.5091C151.542 33.3643 151.904 33.2919 152.307 33.2919C152.714 33.2919 153.073 33.3633 153.384 33.5061C153.697 33.649 153.944 33.8456 154.124 34.0961C154.264 34.29 154.352 34.5066 154.388 34.7459C154.405 34.8588 154.311 34.9531 154.197 34.9531H153.712Z" fill="white"/>
</g>
</svg>
