<svg xmlns="http://www.w3.org/2000/svg" width="74" height="74" viewBox="0 0 74 74" fill="none">
  <g filter="url(#filter0_d_4683_11421)">
    <g filter="url(#filter1_i_4683_11421)">
      <rect x="16" y="16" width="42" height="42" rx="21" fill="url(#paint0_linear_4683_11421)"/>
    </g>
    <g filter="url(#filter2_iii_4683_11421)">
      <rect x="20" y="20" width="34" height="34" rx="17" fill="#613C17"/>
    </g>
  </g>
  <g filter="url(#filter3_d_4683_11421)">
    <path d="M37 29V45C33.85 45 31.5093 40.9285 31.5093 40.9285H28.9C28.4029 40.9285 28 40.5305 28 40.0396V33.8937C28 33.4028 28.4029 33.0048 28.9 33.0048H31.5093C31.5093 33.0048 33.85 29 37 29Z" fill="#FFF5E1"/>
    <path d="M37 29V45C33.85 45 31.5093 40.9285 31.5093 40.9285H28.9C28.4029 40.9285 28 40.5305 28 40.0396V33.8937C28 33.4028 28.4029 33.0048 28.9 33.0048H31.5093C31.5093 33.0048 33.85 29 37 29Z" stroke="#FFF5E1" stroke-width="2" stroke-linejoin="round"/>
  </g>
  <g filter="url(#filter4_d_4683_11421)">
    <path fill-rule="evenodd" clip-rule="evenodd" d="M47.182 34.182C46.7915 33.7915 46.1583 33.7915 45.7678 34.182L44 35.9497L42.2322 34.182C41.8417 33.7915 41.2085 33.7915 40.818 34.182C40.4275 34.5725 40.4275 35.2057 40.818 35.5962L42.5858 37.364L40.818 39.1317C40.4275 39.5223 40.4275 40.1554 40.818 40.5459C41.2085 40.9365 41.8417 40.9365 42.2322 40.5459L44 38.7782L45.7678 40.5459C46.1583 40.9365 46.7915 40.9365 47.182 40.5459C47.5725 40.1554 47.5725 39.5223 47.182 39.1317L45.4142 37.364L47.182 35.5962C47.5725 35.2057 47.5725 34.5725 47.182 34.182Z" fill="#FFF5E1"/>
  </g>
  <defs>
    <filter id="filter0_d_4683_11421" x="0" y="0" width="74" height="74" filterUnits="userSpaceOnUse" color-interpolation-filters="sRGB">
      <feFlood flood-opacity="0" result="BackgroundImageFix"/>
      <feColorMatrix in="SourceAlpha" type="matrix" values="0 0 0 0 0 0 0 0 0 0 0 0 0 0 0 0 0 0 127 0" result="hardAlpha"/>
      <feOffset/>
      <feGaussianBlur stdDeviation="8"/>
      <feComposite in2="hardAlpha" operator="out"/>
      <feColorMatrix type="matrix" values="0 0 0 0 0 0 0 0 0 0 0 0 0 0 0 0 0 0 0.24 0"/>
      <feBlend mode="normal" in2="BackgroundImageFix" result="effect1_dropShadow_4683_11421"/>
      <feBlend mode="normal" in="SourceGraphic" in2="effect1_dropShadow_4683_11421" result="shape"/>
    </filter>
    <filter id="filter1_i_4683_11421" x="16" y="16" width="42" height="42.6789" filterUnits="userSpaceOnUse" color-interpolation-filters="sRGB">
      <feFlood flood-opacity="0" result="BackgroundImageFix"/>
      <feBlend mode="normal" in="SourceGraphic" in2="BackgroundImageFix" result="shape"/>
      <feColorMatrix in="SourceAlpha" type="matrix" values="0 0 0 0 0 0 0 0 0 0 0 0 0 0 0 0 0 0 127 0" result="hardAlpha"/>
      <feOffset dy="0.678919"/>
      <feGaussianBlur stdDeviation="0.33946"/>
      <feComposite in2="hardAlpha" operator="arithmetic" k2="-1" k3="1"/>
      <feColorMatrix type="matrix" values="0 0 0 0 1 0 0 0 0 1 0 0 0 0 1 0 0 0 0.75 0"/>
      <feBlend mode="normal" in2="shape" result="effect1_innerShadow_4683_11421"/>
    </filter>
    <filter id="filter2_iii_4683_11421" x="20" y="20" width="34" height="34" filterUnits="userSpaceOnUse" color-interpolation-filters="sRGB">
      <feFlood flood-opacity="0" result="BackgroundImageFix"/>
      <feBlend mode="normal" in="SourceGraphic" in2="BackgroundImageFix" result="shape"/>
      <feColorMatrix in="SourceAlpha" type="matrix" values="0 0 0 0 0 0 0 0 0 0 0 0 0 0 0 0 0 0 127 0" result="hardAlpha"/>
      <feOffset dy="1.35784"/>
      <feComposite in2="hardAlpha" operator="arithmetic" k2="-1" k3="1"/>
      <feColorMatrix type="matrix" values="0 0 0 0 0 0 0 0 0 0 0 0 0 0 0 0 0 0 0.25 0"/>
      <feBlend mode="normal" in2="shape" result="effect1_innerShadow_4683_11421"/>
      <feColorMatrix in="SourceAlpha" type="matrix" values="0 0 0 0 0 0 0 0 0 0 0 0 0 0 0 0 0 0 127 0" result="hardAlpha"/>
      <feOffset dy="0.4"/>
      <feComposite in2="hardAlpha" operator="arithmetic" k2="-1" k3="1"/>
      <feColorMatrix type="matrix" values="0 0 0 0 0.960784 0 0 0 0 0.796078 0 0 0 0 0.537255 0 0 0 1 0"/>
      <feBlend mode="normal" in2="effect1_innerShadow_4683_11421" result="effect2_innerShadow_4683_11421"/>
      <feColorMatrix in="SourceAlpha" type="matrix" values="0 0 0 0 0 0 0 0 0 0 0 0 0 0 0 0 0 0 127 0" result="hardAlpha"/>
      <feOffset dy="-0.4"/>
      <feComposite in2="hardAlpha" operator="arithmetic" k2="-1" k3="1"/>
      <feColorMatrix type="matrix" values="0 0 0 0 1 0 0 0 0 0.936195 0 0 0 0 0.829167 0 0 0 1 0"/>
      <feBlend mode="normal" in2="effect2_innerShadow_4683_11421" result="effect3_innerShadow_4683_11421"/>
    </filter>
    <filter id="filter3_d_4683_11421" x="26" y="26.5" width="12" height="19.5" filterUnits="userSpaceOnUse" color-interpolation-filters="sRGB">
      <feFlood flood-opacity="0" result="BackgroundImageFix"/>
      <feColorMatrix in="SourceAlpha" type="matrix" values="0 0 0 0 0 0 0 0 0 0 0 0 0 0 0 0 0 0 127 0" result="hardAlpha"/>
      <feOffset dx="-1" dy="-1.5"/>
      <feComposite in2="hardAlpha" operator="out"/>
      <feColorMatrix type="matrix" values="0 0 0 0 0.219608 0 0 0 0 0.117647 0 0 0 0 0.0196078 0 0 0 1 0"/>
      <feBlend mode="normal" in2="BackgroundImageFix" result="effect1_dropShadow_4683_11421"/>
      <feBlend mode="normal" in="SourceGraphic" in2="effect1_dropShadow_4683_11421" result="shape"/>
    </filter>
    <filter id="filter4_d_4683_11421" x="39.5251" y="32.3891" width="7.94971" height="8.44971" filterUnits="userSpaceOnUse" color-interpolation-filters="sRGB">
      <feFlood flood-opacity="0" result="BackgroundImageFix"/>
      <feColorMatrix in="SourceAlpha" type="matrix" values="0 0 0 0 0 0 0 0 0 0 0 0 0 0 0 0 0 0 127 0" result="hardAlpha"/>
      <feOffset dx="-1" dy="-1.5"/>
      <feComposite in2="hardAlpha" operator="out"/>
      <feColorMatrix type="matrix" values="0 0 0 0 0.219608 0 0 0 0 0.117647 0 0 0 0 0.0196078 0 0 0 1 0"/>
      <feBlend mode="normal" in2="BackgroundImageFix" result="effect1_dropShadow_4683_11421"/>
      <feBlend mode="normal" in="SourceGraphic" in2="effect1_dropShadow_4683_11421" result="shape"/>
    </filter>
    <linearGradient id="paint0_linear_4683_11421" x1="37" y1="16" x2="37" y2="58" gradientUnits="userSpaceOnUse">
      <stop stop-color="#FFF6C5"/>
      <stop offset="1" stop-color="#FFD690"/>
    </linearGradient>
  </defs>
</svg>