<svg xmlns="http://www.w3.org/2000/svg" width="32" height="32" viewBox="0 0 32 32" fill="none">
  <g filter="url(#filter0_i_7032_2701)">
    <rect width="32" height="32" rx="16" fill="url(#paint0_linear_7032_2701)"/>
  </g>
  <g filter="url(#filter1_iii_7032_2701)">
    <rect x="3.04736" y="3.04785" width="25.9048" height="25.9048" rx="12.9524" fill="#613C17"/>
  </g>
  <g filter="url(#filter2_d_7032_2701)">
    <path d="M15.9997 9.90527V22.0958C13.5997 22.0958 11.8163 18.9936 11.8163 18.9936H9.82829C9.44958 18.9936 9.14258 18.6904 9.14258 18.3164V13.6338C9.14258 13.2598 9.44958 12.9565 9.82829 12.9565H11.8163C11.8163 12.9565 13.5997 9.90527 15.9997 9.90527Z" fill="#FFF5E1"/>
    <path d="M15.9997 9.90527V22.0958C13.5997 22.0958 11.8163 18.9936 11.8163 18.9936H9.82829C9.44958 18.9936 9.14258 18.6904 9.14258 18.3164V13.6338C9.14258 13.2598 9.44958 12.9565 9.82829 12.9565H11.8163C11.8163 12.9565 13.5997 9.90527 15.9997 9.90527Z" stroke="#FFF5E1" stroke-width="1.52381" stroke-linejoin="round"/>
  </g>
  <g filter="url(#filter3_d_7032_2701)">
    <path fill-rule="evenodd" clip-rule="evenodd" d="M23.758 13.8518C23.4605 13.5542 22.9781 13.5542 22.6805 13.8518L21.3329 15.1993L19.9864 13.8528C19.6888 13.5553 19.2064 13.5553 18.9089 13.8528C18.6114 14.1504 18.6114 14.6328 18.9089 14.9303L20.2554 16.2768L18.9093 17.623C18.6117 17.9205 18.6117 18.4029 18.9093 18.7005C19.2068 18.998 19.6892 18.998 19.9868 18.7005L21.3329 17.3543L22.6801 18.7016C22.9777 18.9991 23.4601 18.9991 23.7576 18.7016C24.0552 18.404 24.0552 17.9216 23.7576 17.6241L22.4104 16.2768L23.758 14.9293C24.0555 14.6317 24.0555 14.1493 23.758 13.8518Z" fill="#FFF5E1"/>
  </g>
  <defs>
    <filter id="filter0_i_7032_2701" x="0" y="0" width="32" height="32.5173" filterUnits="userSpaceOnUse" color-interpolation-filters="sRGB">
      <feFlood flood-opacity="0" result="BackgroundImageFix"/>
      <feBlend mode="normal" in="SourceGraphic" in2="BackgroundImageFix" result="shape"/>
      <feColorMatrix in="SourceAlpha" type="matrix" values="0 0 0 0 0 0 0 0 0 0 0 0 0 0 0 0 0 0 127 0" result="hardAlpha"/>
      <feOffset dy="0.517272"/>
      <feGaussianBlur stdDeviation="0.258636"/>
      <feComposite in2="hardAlpha" operator="arithmetic" k2="-1" k3="1"/>
      <feColorMatrix type="matrix" values="0 0 0 0 1 0 0 0 0 1 0 0 0 0 1 0 0 0 0.75 0"/>
      <feBlend mode="normal" in2="shape" result="effect1_innerShadow_7032_2701"/>
    </filter>
    <filter id="filter1_iii_7032_2701" x="3.04736" y="3.04785" width="25.9048" height="25.9043" filterUnits="userSpaceOnUse" color-interpolation-filters="sRGB">
      <feFlood flood-opacity="0" result="BackgroundImageFix"/>
      <feBlend mode="normal" in="SourceGraphic" in2="BackgroundImageFix" result="shape"/>
      <feColorMatrix in="SourceAlpha" type="matrix" values="0 0 0 0 0 0 0 0 0 0 0 0 0 0 0 0 0 0 127 0" result="hardAlpha"/>
      <feOffset dy="1.03454"/>
      <feComposite in2="hardAlpha" operator="arithmetic" k2="-1" k3="1"/>
      <feColorMatrix type="matrix" values="0 0 0 0 0 0 0 0 0 0 0 0 0 0 0 0 0 0 0.25 0"/>
      <feBlend mode="normal" in2="shape" result="effect1_innerShadow_7032_2701"/>
      <feColorMatrix in="SourceAlpha" type="matrix" values="0 0 0 0 0 0 0 0 0 0 0 0 0 0 0 0 0 0 127 0" result="hardAlpha"/>
      <feOffset dy="0.304762"/>
      <feComposite in2="hardAlpha" operator="arithmetic" k2="-1" k3="1"/>
      <feColorMatrix type="matrix" values="0 0 0 0 0.960784 0 0 0 0 0.796078 0 0 0 0 0.537255 0 0 0 1 0"/>
      <feBlend mode="normal" in2="effect1_innerShadow_7032_2701" result="effect2_innerShadow_7032_2701"/>
      <feColorMatrix in="SourceAlpha" type="matrix" values="0 0 0 0 0 0 0 0 0 0 0 0 0 0 0 0 0 0 127 0" result="hardAlpha"/>
      <feOffset dy="-0.304762"/>
      <feComposite in2="hardAlpha" operator="arithmetic" k2="-1" k3="1"/>
      <feColorMatrix type="matrix" values="0 0 0 0 1 0 0 0 0 0.936195 0 0 0 0 0.829167 0 0 0 1 0"/>
      <feBlend mode="normal" in2="effect2_innerShadow_7032_2701" result="effect3_innerShadow_7032_2701"/>
    </filter>
    <filter id="filter2_d_7032_2701" x="7.61895" y="8.0007" width="9.14276" height="14.8567" filterUnits="userSpaceOnUse" color-interpolation-filters="sRGB">
      <feFlood flood-opacity="0" result="BackgroundImageFix"/>
      <feColorMatrix in="SourceAlpha" type="matrix" values="0 0 0 0 0 0 0 0 0 0 0 0 0 0 0 0 0 0 127 0" result="hardAlpha"/>
      <feOffset dx="-0.761905" dy="-1.14286"/>
      <feComposite in2="hardAlpha" operator="out"/>
      <feColorMatrix type="matrix" values="0 0 0 0 0.219608 0 0 0 0 0.117647 0 0 0 0 0.0196078 0 0 0 1 0"/>
      <feBlend mode="normal" in2="BackgroundImageFix" result="effect1_dropShadow_7032_2701"/>
      <feBlend mode="normal" in="SourceGraphic" in2="effect1_dropShadow_7032_2701" result="shape"/>
    </filter>
    <filter id="filter3_d_7032_2701" x="17.9236" y="12.486" width="6.05731" height="6.43876" filterUnits="userSpaceOnUse" color-interpolation-filters="sRGB">
      <feFlood flood-opacity="0" result="BackgroundImageFix"/>
      <feColorMatrix in="SourceAlpha" type="matrix" values="0 0 0 0 0 0 0 0 0 0 0 0 0 0 0 0 0 0 127 0" result="hardAlpha"/>
      <feOffset dx="-0.761905" dy="-1.14286"/>
      <feComposite in2="hardAlpha" operator="out"/>
      <feColorMatrix type="matrix" values="0 0 0 0 0.219608 0 0 0 0 0.117647 0 0 0 0 0.0196078 0 0 0 1 0"/>
      <feBlend mode="normal" in2="BackgroundImageFix" result="effect1_dropShadow_7032_2701"/>
      <feBlend mode="normal" in="SourceGraphic" in2="effect1_dropShadow_7032_2701" result="shape"/>
    </filter>
    <linearGradient id="paint0_linear_7032_2701" x1="16" y1="0" x2="16" y2="32" gradientUnits="userSpaceOnUse">
      <stop stop-color="#FFF6C5"/>
      <stop offset="1" stop-color="#FFD690"/>
    </linearGradient>
  </defs>
</svg>