<svg width="30" height="31" viewBox="0 0 30 31" fill="none" xmlns="http://www.w3.org/2000/svg">
<g id="Group 3539">
<g id="Group 3537">
<g id="Group 2384">
<g id="Group 3081">
<g id="Union">
<mask id="path-1-outside-1_4289_1940" maskUnits="userSpaceOnUse" x="1.47949" y="5.9209" width="25" height="21" fill="black">
<rect fill="white" x="1.47949" y="5.9209" width="25" height="21"/>
<path fill-rule="evenodd" clip-rule="evenodd" d="M2.50375 11.1001C2.69974 14.7175 3.36387 17.3812 4.01503 19.1041C4.04147 19.1741 4.08071 19.2371 4.12996 19.2906C4.4583 20.1045 4.77558 20.6768 5.01913 21.0092C4.79938 20.9608 4.62454 20.9188 4.49658 20.8867C4.36733 20.8542 4.23955 20.9518 4.23955 21.085V23.6339L4.85027 23.6272C4.45541 23.7909 4.23955 23.9681 4.23955 24.1531C4.23955 24.9837 8.59024 25.657 13.9571 25.657C19.3239 25.657 23.6746 24.9837 23.6746 24.1531C23.6746 23.8923 23.2457 23.647 22.4911 23.4332L23.6746 23.4202V21.071C23.6746 20.9421 23.5571 20.8454 23.4309 20.8721C23.2889 20.9022 23.0868 20.9434 22.83 20.9921C23.1456 20.5646 23.4264 20.0503 23.6757 19.4779C23.7393 19.4204 23.7901 19.3487 23.8229 19.2665C24.8656 16.6575 25.3113 13.0324 25.4348 10.8215C25.4366 10.789 25.4335 10.7583 25.4262 10.7297L25.4281 10.6963C25.4291 10.6772 25.4285 10.6588 25.4263 10.641C25.4366 10.6383 25.4449 10.6339 25.4452 10.6286C25.4592 10.3776 25.1749 10.2307 24.9737 10.3813L20.7496 13.545C20.6569 13.6145 20.5324 13.6243 20.4299 13.5702L18.889 12.7579C18.8265 12.725 18.7777 12.6711 18.751 12.6056L16.5895 7.29546C16.4975 7.06942 16.2778 6.92162 16.0337 6.92162H15.8871C15.8773 6.92114 15.8675 6.9209 15.8576 6.9209H11.9786C11.9687 6.9209 11.9588 6.92114 11.949 6.92162H11.857C11.6129 6.92162 11.3932 7.06942 11.3012 7.29546L9.14231 12.5991C9.11406 12.6685 9.06088 12.7248 8.99322 12.7569L7.26421 13.5788C7.16121 13.6278 7.03935 13.6141 6.94975 13.5435L2.96003 10.4011C2.75995 10.2435 2.468 10.3919 2.47984 10.6463C2.48697 10.7995 2.49495 10.9508 2.50375 11.1001Z"/>
</mask>
<path fill-rule="evenodd" clip-rule="evenodd" d="M2.50375 11.1001C2.69974 14.7175 3.36387 17.3812 4.01503 19.1041C4.04147 19.1741 4.08071 19.2371 4.12996 19.2906C4.4583 20.1045 4.77558 20.6768 5.01913 21.0092C4.79938 20.9608 4.62454 20.9188 4.49658 20.8867C4.36733 20.8542 4.23955 20.9518 4.23955 21.085V23.6339L4.85027 23.6272C4.45541 23.7909 4.23955 23.9681 4.23955 24.1531C4.23955 24.9837 8.59024 25.657 13.9571 25.657C19.3239 25.657 23.6746 24.9837 23.6746 24.1531C23.6746 23.8923 23.2457 23.647 22.4911 23.4332L23.6746 23.4202V21.071C23.6746 20.9421 23.5571 20.8454 23.4309 20.8721C23.2889 20.9022 23.0868 20.9434 22.83 20.9921C23.1456 20.5646 23.4264 20.0503 23.6757 19.4779C23.7393 19.4204 23.7901 19.3487 23.8229 19.2665C24.8656 16.6575 25.3113 13.0324 25.4348 10.8215C25.4366 10.789 25.4335 10.7583 25.4262 10.7297L25.4281 10.6963C25.4291 10.6772 25.4285 10.6588 25.4263 10.641C25.4366 10.6383 25.4449 10.6339 25.4452 10.6286C25.4592 10.3776 25.1749 10.2307 24.9737 10.3813L20.7496 13.545C20.6569 13.6145 20.5324 13.6243 20.4299 13.5702L18.889 12.7579C18.8265 12.725 18.7777 12.6711 18.751 12.6056L16.5895 7.29546C16.4975 7.06942 16.2778 6.92162 16.0337 6.92162H15.8871C15.8773 6.92114 15.8675 6.9209 15.8576 6.9209H11.9786C11.9687 6.9209 11.9588 6.92114 11.949 6.92162H11.857C11.6129 6.92162 11.3932 7.06942 11.3012 7.29546L9.14231 12.5991C9.11406 12.6685 9.06088 12.7248 8.99322 12.7569L7.26421 13.5788C7.16121 13.6278 7.03935 13.6141 6.94975 13.5435L2.96003 10.4011C2.75995 10.2435 2.468 10.3919 2.47984 10.6463C2.48697 10.7995 2.49495 10.9508 2.50375 11.1001Z" fill="#565656"/>
<path d="M4.01503 19.1041L3.66424 19.2367H3.66424L4.01503 19.1041ZM2.50375 11.1001L2.87821 11.0798L2.8781 11.0781L2.50375 11.1001ZM4.12996 19.2906L4.47772 19.1503L4.45213 19.0868L4.40579 19.0365L4.12996 19.2906ZM5.01913 21.0092L4.93844 21.3754L5.90903 21.5893L5.32162 20.7876L5.01913 21.0092ZM4.49658 20.8867L4.58798 20.523L4.58798 20.523L4.49658 20.8867ZM4.23955 23.6339H3.86455V24.013L4.24367 24.0089L4.23955 23.6339ZM4.85027 23.6272L4.99388 23.9736L4.84615 23.2522L4.85027 23.6272ZM22.4911 23.4332L22.487 23.0582L22.3889 23.794L22.4911 23.4332ZM23.6746 23.4202L23.6787 23.7952L24.0496 23.7911V23.4202H23.6746ZM23.4309 20.8721L23.5086 21.239H23.5086L23.4309 20.8721ZM22.83 20.9921L22.5283 20.7693L21.9606 21.5383L22.8997 21.3605L22.83 20.9921ZM23.6757 19.4779L23.4241 19.1999L23.3642 19.2541L23.3319 19.3282L23.6757 19.4779ZM23.8229 19.2665L23.4747 19.1273L23.4747 19.1273L23.8229 19.2665ZM25.4348 10.8215L25.0604 10.8006V10.8006L25.4348 10.8215ZM25.4262 10.7297L25.0518 10.7086L25.0485 10.7665L25.0629 10.8226L25.4262 10.7297ZM25.4281 10.6963L25.8025 10.7174L25.8025 10.7172L25.4281 10.6963ZM25.4263 10.641L25.3314 10.2782L25.0141 10.3612L25.0541 10.6868L25.4263 10.641ZM25.4452 10.6286L25.0707 10.6076L25.0707 10.6077L25.4452 10.6286ZM24.9737 10.3813L24.7489 10.0812V10.0812L24.9737 10.3813ZM20.7496 13.545L20.5248 13.2448V13.2448L20.7496 13.545ZM20.4299 13.5702L20.255 13.902L20.4299 13.5702ZM18.889 12.7579L19.0639 12.4262L19.0639 12.4262L18.889 12.7579ZM18.751 12.6056L18.4037 12.747L18.4037 12.747L18.751 12.6056ZM16.5895 7.29546L16.2422 7.43684V7.43684L16.5895 7.29546ZM15.8871 6.92162L15.8688 7.29617L15.8779 7.29662H15.8871V6.92162ZM11.949 6.92162V7.29662H11.9582L11.9674 7.29617L11.949 6.92162ZM11.3012 7.29546L10.9539 7.15408V7.15408L11.3012 7.29546ZM9.14231 12.5991L9.48964 12.7405L9.48964 12.7405L9.14231 12.5991ZM8.99322 12.7569L9.15421 13.0956L9.15421 13.0956L8.99322 12.7569ZM7.26421 13.5788L7.10322 13.2401L7.26421 13.5788ZM6.94975 13.5435L6.71772 13.8381L6.71772 13.8381L6.94975 13.5435ZM2.96003 10.4011L2.728 10.6957H2.728L2.96003 10.4011ZM2.47984 10.6463L2.85444 10.6289L2.47984 10.6463ZM4.36581 18.9716C3.72941 17.2877 3.07229 14.6622 2.8782 11.0798L2.1293 11.1204C2.32719 14.7728 2.99833 17.4748 3.66424 19.2367L4.36581 18.9716ZM4.40579 19.0365C4.38879 19.0181 4.37513 18.9962 4.36581 18.9716L3.66424 19.2367C3.70781 19.352 3.77263 19.4561 3.85412 19.5446L4.40579 19.0365ZM5.32162 20.7876C5.10275 20.4889 4.79918 19.9472 4.47772 19.1503L3.78219 19.4309C4.11741 20.2619 4.44842 20.8648 4.71664 21.2309L5.32162 20.7876ZM4.40517 21.2503C4.53659 21.2834 4.71501 21.3262 4.93844 21.3754L5.09982 20.643C4.88375 20.5954 4.71248 20.5543 4.58798 20.523L4.40517 21.2503ZM4.61455 21.085C4.61455 21.2013 4.5075 21.2761 4.40518 21.2503L4.58798 20.523C4.22716 20.4323 3.86455 20.7023 3.86455 21.085H4.61455ZM4.61455 23.6339V21.085H3.86455V23.6339H4.61455ZM4.84615 23.2522L4.23543 23.2589L4.24367 24.0089L4.85439 24.0022L4.84615 23.2522ZM4.61455 24.1531C4.61455 24.2178 4.57591 24.2221 4.63981 24.1678C4.70066 24.116 4.81293 24.0486 4.99388 23.9736L4.70666 23.2808C4.49275 23.3694 4.29966 23.4725 4.15386 23.5965C4.01112 23.7179 3.86455 23.9034 3.86455 24.1531H4.61455ZM13.9571 25.282C11.2867 25.282 8.87742 25.1143 7.1431 24.8459C6.27301 24.7113 5.58964 24.5538 5.13206 24.3863C4.9011 24.3018 4.74979 24.2226 4.66318 24.1571C4.5682 24.0853 4.61455 24.081 4.61455 24.1531H3.86455C3.86455 24.4328 4.04686 24.6313 4.21077 24.7553C4.38306 24.8856 4.61357 24.9952 4.87434 25.0907C5.40024 25.2831 6.13996 25.4496 7.0284 25.5871C8.81114 25.863 11.2606 26.032 13.9571 26.032V25.282ZM23.2996 24.1531C23.2996 24.081 23.346 24.0853 23.251 24.1571C23.1644 24.2226 23.0131 24.3018 22.7821 24.3863C22.3245 24.5538 21.6412 24.7113 20.7711 24.8459C19.0368 25.1143 16.6275 25.282 13.9571 25.282V26.032C16.6536 26.032 19.103 25.863 20.8858 25.5871C21.7742 25.4496 22.5139 25.2831 23.0398 25.0907C23.3006 24.9952 23.5311 24.8856 23.7034 24.7553C23.8673 24.6313 24.0496 24.4328 24.0496 24.1531H23.2996ZM22.3889 23.794C22.754 23.8975 23.0133 24.0015 23.1732 24.0973C23.3603 24.2093 23.2996 24.2389 23.2996 24.1531H24.0496C24.0496 23.8065 23.7745 23.5831 23.5585 23.4538C23.3153 23.3082 22.9829 23.1828 22.5934 23.0724L22.3889 23.794ZM23.6705 23.0452L22.487 23.0582L22.4953 23.8082L23.6787 23.7952L23.6705 23.0452ZM23.2996 21.071V23.4202H24.0496V21.071H23.2996ZM23.5086 21.239C23.398 21.2624 23.2996 21.1768 23.2996 21.071H24.0496C24.0496 20.7074 23.7162 20.4285 23.3533 20.5053L23.5086 21.239ZM22.8997 21.3605C23.1593 21.3114 23.364 21.2696 23.5086 21.239L23.3533 20.5053C23.2138 20.5348 23.0143 20.5755 22.7602 20.6236L22.8997 21.3605ZM23.3319 19.3282C23.0903 19.8829 22.8226 20.3707 22.5283 20.7693L23.1317 21.2148C23.4686 20.7585 23.7625 20.2178 24.0195 19.6277L23.3319 19.3282ZM23.4747 19.1273C23.4635 19.1553 23.4462 19.1799 23.4241 19.1999L23.9274 19.756C24.0324 19.6609 24.1166 19.542 24.1711 19.4056L23.4747 19.1273ZM25.0604 10.8006C24.9376 12.9995 24.4944 16.5758 23.4747 19.1273L24.1711 19.4056C25.2367 16.7393 25.6851 13.0653 25.8092 10.8424L25.0604 10.8006ZM25.0629 10.8226C25.0605 10.8133 25.0601 10.8056 25.0604 10.8006L25.8092 10.8424C25.8132 10.7723 25.8065 10.7032 25.7895 10.6368L25.0629 10.8226ZM25.0537 10.6752L25.0518 10.7086L25.8006 10.7508L25.8025 10.7174L25.0537 10.6752ZM25.0541 10.6868C25.0535 10.682 25.0535 10.6782 25.0537 10.6754L25.8025 10.7172C25.8048 10.6762 25.8035 10.6355 25.7985 10.5953L25.0541 10.6868ZM25.0707 10.6077C25.0761 10.5111 25.1172 10.4395 25.1522 10.3963C25.1857 10.3549 25.2207 10.3302 25.2414 10.3174C25.282 10.2921 25.3169 10.282 25.3314 10.2782L25.5212 11.0038C25.546 10.9973 25.5902 10.9837 25.6376 10.9542C25.6653 10.9369 25.8087 10.8444 25.8196 10.6495L25.0707 10.6077ZM25.1985 10.6815C25.1898 10.688 25.1753 10.6943 25.1581 10.6954C25.1423 10.6964 25.1283 10.6929 25.1167 10.6868C25.1051 10.6808 25.0929 10.6705 25.0835 10.6548C25.0733 10.6376 25.0701 10.6198 25.0707 10.6076L25.8196 10.6495C25.8521 10.0673 25.1945 9.74744 24.7489 10.0812L25.1985 10.6815ZM20.9744 13.8451L25.1985 10.6815L24.7489 10.0812L20.5248 13.2448L20.9744 13.8451ZM20.255 13.902C20.4856 14.0236 20.7657 14.0014 20.9744 13.8451L20.5248 13.2448C20.548 13.2275 20.5791 13.225 20.6047 13.2385L20.255 13.902ZM18.7141 13.0897L20.255 13.902L20.6047 13.2385L19.0639 12.4262L18.7141 13.0897ZM18.4037 12.747C18.4636 12.8942 18.5736 13.0156 18.7141 13.0897L19.0639 12.4262C19.0795 12.4344 19.0917 12.4479 19.0984 12.4643L18.4037 12.747ZM16.2422 7.43684L18.4037 12.747L19.0984 12.4643L16.9368 7.15408L16.2422 7.43684ZM16.0337 7.29662C16.1252 7.29662 16.2077 7.35206 16.2422 7.43684L16.9368 7.15408C16.7873 6.78678 16.4303 6.54662 16.0337 6.54662V7.29662ZM15.8871 7.29662H16.0337V6.54662H15.8871V7.29662ZM15.8576 7.2959C15.8613 7.2959 15.8651 7.29599 15.8688 7.29617L15.9055 6.54707C15.8896 6.54629 15.8736 6.5459 15.8576 6.5459V7.2959ZM11.9786 7.2959H15.8576V6.5459H11.9786V7.2959ZM11.9674 7.29617C11.9711 7.29599 11.9748 7.2959 11.9786 7.2959V6.5459C11.9625 6.5459 11.9466 6.54629 11.9307 6.54707L11.9674 7.29617ZM11.857 7.29662H11.949V6.54662H11.857V7.29662ZM11.6485 7.43684C11.683 7.35206 11.7654 7.29662 11.857 7.29662V6.54662C11.4604 6.54662 11.1034 6.78678 10.9539 7.15408L11.6485 7.43684ZM9.48964 12.7405L11.6485 7.43684L10.9539 7.15408L8.79498 12.4577L9.48964 12.7405ZM9.15421 13.0956C9.30644 13.0233 9.42609 12.8966 9.48964 12.7405L8.79498 12.4577C8.80204 12.4404 8.81533 12.4263 8.83223 12.4183L9.15421 13.0956ZM7.4252 13.9175L9.15421 13.0956L8.83223 12.4183L7.10322 13.2401L7.4252 13.9175ZM6.71772 13.8381C6.91929 13.9969 7.19346 14.0276 7.4252 13.9175L7.10322 13.2401C7.12896 13.2279 7.1594 13.2313 7.18178 13.2489L6.71772 13.8381ZM2.728 10.6957L6.71772 13.8381L7.18178 13.2489L3.19207 10.1065L2.728 10.6957ZM2.85444 10.6289C2.85773 10.6997 2.77693 10.7342 2.728 10.6957L3.19207 10.1065C2.74298 9.75277 2.07827 10.0841 2.10525 10.6638L2.85444 10.6289ZM2.8781 11.0781C2.86939 10.9303 2.86149 10.7806 2.85444 10.6289L2.10525 10.6638C2.11245 10.8185 2.12051 10.9713 2.1294 11.1222L2.8781 11.0781Z" fill="#565656" mask="url(#path-1-outside-1_4289_1940)"/>
</g>
<g id="Group 3071">
<path id="Vector 87" d="M2.52683 10.722C2.80751 16.6269 4.33465 20.0509 5.09044 21.0477C11.9983 22.6507 19.7958 21.7156 22.8311 21.0477C24.6252 18.6839 25.3125 13.5291 25.4708 10.6963C25.4852 10.4372 25.1847 10.2929 24.9863 10.4603L20.7821 14.0088C20.6915 14.0853 20.5643 14.1012 20.4577 14.0495L18.7784 13.235C18.7092 13.2015 18.6556 13.1426 18.6285 13.0707L16.4619 7.30974C16.374 7.07581 16.1502 6.9209 15.9003 6.9209H12.0212C11.7713 6.9209 11.5475 7.07581 11.4596 7.30974L9.29482 13.0658C9.26668 13.1407 9.20984 13.2012 9.1369 13.2339L7.30832 14.0551C7.20064 14.1035 7.07462 14.0842 6.98631 14.0059L3.01966 10.4877C2.82292 10.3132 2.51434 10.4594 2.52683 10.722Z" fill="url(#paint0_radial_4289_1940)"/>
<g id="Union_2" filter="url(#filter0_i_4289_1940)">
<path fill-rule="evenodd" clip-rule="evenodd" d="M4.53828 20.8876C4.40903 20.8551 4.28125 20.9528 4.28125 21.086V24.0722H4.2954C4.28601 24.0993 4.28125 24.1266 4.28125 24.1541C4.28125 24.9847 8.63194 25.658 13.9988 25.658C19.3656 25.658 23.7163 24.9847 23.7163 24.1541C23.7163 24.1266 23.7116 24.0993 23.7022 24.0722H23.7163V21.072C23.7163 20.9431 23.5988 20.8464 23.4726 20.8731C22.4835 21.0824 18.5816 21.8346 13.5824 21.8346C8.69271 21.8346 5.44312 21.115 4.53828 20.8876Z" fill="url(#paint1_linear_4289_1940)"/>
</g>
<g id="Mask group">
<mask id="mask0_4289_1940" style="mask-type:alpha" maskUnits="userSpaceOnUse" x="2" y="6" width="24" height="16">
<path id="Union_3" fill-rule="evenodd" clip-rule="evenodd" d="M2.51793 10.6461C2.53141 10.9358 2.54794 11.2186 2.56728 11.4945C2.55355 11.2824 2.54143 11.0669 2.53102 10.848C2.53042 10.8353 2.53057 10.8229 2.53142 10.8108C2.82303 16.6615 4.33872 20.0563 5.09074 21.0481C11.9986 22.6512 19.7961 21.7161 22.8314 21.0481C24.6255 18.6844 25.3128 13.5296 25.471 10.6968C25.4722 10.677 25.4714 10.6579 25.469 10.6395C25.4771 10.6368 25.483 10.6329 25.4832 10.6283C25.4973 10.3774 25.2129 10.2304 25.0118 10.3811L20.7877 13.5447C20.695 13.6142 20.5705 13.6241 20.4679 13.57L18.9271 12.7577C18.8646 12.7248 18.8158 12.6708 18.7891 12.6054L16.6276 7.29523C16.5356 7.06919 16.3158 6.92139 16.0718 6.92139H15.9006H12.0215H11.8951C11.651 6.92139 11.4313 7.06919 11.3393 7.29522L9.1804 12.5988C9.15215 12.6682 9.09897 12.7245 9.03131 12.7567L7.3023 13.5786C7.19929 13.6275 7.07743 13.6139 6.98784 13.5433L2.99812 10.4008C2.79804 10.2433 2.50609 10.3917 2.51793 10.6461Z" fill="url(#paint2_linear_4289_1940)"/>
</mask>
<g mask="url(#mask0_4289_1940)">
<g id="Mask group_2">
<g id="Group 2927" filter="url(#filter1_di_4289_1940)">
<path id="Subtract" fill-rule="evenodd" clip-rule="evenodd" d="M2.56769 11.5004C2.54818 11.2226 2.5315 10.9379 2.51793 10.6461C2.50609 10.3917 2.79804 10.2433 2.99812 10.4008L6.98784 13.5433C7.07743 13.6139 7.19929 13.6275 7.3023 13.5786L9.03131 12.7567C9.09897 12.7245 9.15215 12.6682 9.1804 12.5988L11.3393 7.29522C11.4313 7.06919 11.651 6.92139 11.8951 6.92139L16.0718 6.92139C16.3158 6.92139 16.5356 7.06919 16.6276 7.29523L18.7891 12.6054C18.8158 12.6708 18.8646 12.7248 18.9271 12.7577L20.4679 13.57C20.5705 13.6241 20.695 13.6142 20.7877 13.5447L25.0118 10.3811C25.2129 10.2304 25.4973 10.3774 25.4832 10.6283C25.4825 10.6417 25.432 10.6495 25.4243 10.6385C25.3322 10.507 25.1344 10.4644 24.9905 10.5858L20.7863 14.1343C20.6957 14.2108 20.5685 14.2267 20.4619 14.175L18.7826 13.3605C18.7134 13.327 18.6598 13.2681 18.6327 13.1962L16.4661 7.43523C16.3782 7.2013 16.1544 7.04639 15.9045 7.04639L12.0254 7.04639C11.7755 7.04639 11.5517 7.2013 11.4638 7.43523L9.29902 13.1913C9.27088 13.2662 9.21403 13.3267 9.1411 13.3594L7.31251 14.1806C7.20484 14.229 7.07881 14.2097 6.99051 14.1314L3.02385 10.6132C2.82711 10.4387 2.51854 10.5849 2.53102 10.8475C2.54153 11.0686 2.55379 11.2862 2.56769 11.5004Z" fill="url(#paint3_linear_4289_1940)"/>
<path id="Intersect" fill-rule="evenodd" clip-rule="evenodd" d="M4.05288 19.1046C4.11449 19.2676 4.24551 19.3926 4.41078 19.4479C6.1103 20.0164 8.99821 20.7687 13.8675 20.7687C17.9871 20.7687 21.2731 20.1227 23.4523 19.6145C23.6372 19.5714 23.7902 19.4432 23.8607 19.2668C24.9033 16.6579 25.3491 13.0327 25.4726 10.8218C25.4871 10.5627 25.1865 10.4184 24.9882 10.5858L20.784 14.1343C20.6934 14.2108 20.5662 14.2267 20.4595 14.175L18.7803 13.3605C18.7111 13.327 18.6574 13.2681 18.6304 13.1962L16.4638 7.43523C16.3758 7.2013 16.1521 7.04639 15.9021 7.04639L12.0231 7.04639C11.7732 7.04639 11.5494 7.2013 11.4614 7.43523L9.29668 13.1913C9.26854 13.2662 9.2117 13.3267 9.13876 13.3594L7.31018 14.1806C7.2025 14.229 7.07648 14.2097 6.98817 14.1314L3.02152 10.6132C2.82478 10.4387 2.5162 10.5849 2.52869 10.8475C2.70677 14.594 3.38662 17.3417 4.05288 19.1046Z" fill="#D1D1D1"/>
<path id="Intersect_2" fill-rule="evenodd" clip-rule="evenodd" d="M4.05288 19.1046C4.11449 19.2676 4.24551 19.3926 4.41078 19.4479C6.1103 20.0164 8.99821 20.7687 13.8675 20.7687C17.9871 20.7687 21.2731 20.1227 23.4523 19.6145C23.6372 19.5714 23.7902 19.4432 23.8607 19.2668C24.9033 16.6579 25.3491 13.0327 25.4726 10.8218C25.4871 10.5627 25.1865 10.4184 24.9882 10.5858L20.784 14.1343C20.6934 14.2108 20.5662 14.2267 20.4595 14.175L18.7803 13.3605C18.7111 13.327 18.6574 13.2681 18.6304 13.1962L16.4638 7.43523C16.3758 7.2013 16.1521 7.04639 15.9021 7.04639L12.0231 7.04639C11.7732 7.04639 11.5494 7.2013 11.4614 7.43523L9.29668 13.1913C9.26854 13.2662 9.2117 13.3267 9.13876 13.3594L7.31018 14.1806C7.2025 14.229 7.07648 14.2097 6.98817 14.1314L3.02152 10.6132C2.82478 10.4387 2.5162 10.5849 2.52869 10.8475C2.70677 14.594 3.38662 17.3417 4.05288 19.1046Z" fill="url(#paint4_radial_4289_1940)"/>
<g id="Mask group_3">
<mask id="mask1_4289_1940" style="mask-type:alpha" maskUnits="userSpaceOnUse" x="2" y="7" width="24" height="14">
<path id="Intersect_3" fill-rule="evenodd" clip-rule="evenodd" d="M4.03473 19.0615C4.10607 19.2519 4.2597 19.3984 4.45264 19.4625C6.15783 20.0292 9.03786 20.7687 13.8657 20.7687C17.9544 20.7687 21.222 20.1323 23.4013 19.626C23.6171 19.5758 23.7958 19.4264 23.8772 19.2203C24.9067 16.615 25.3479 13.0196 25.4707 10.8218C25.4851 10.5627 25.1846 10.4184 24.9862 10.5858L20.782 14.1343C20.6914 14.2108 20.5643 14.2267 20.4576 14.175L18.7783 13.3605C18.7091 13.327 18.6555 13.2681 18.6284 13.1962L16.4618 7.43523C16.3739 7.2013 16.1501 7.04639 15.9002 7.04639L12.0211 7.04639C11.7712 7.04639 11.5475 7.2013 11.4595 7.43523L9.29473 13.1913C9.26659 13.2662 9.20974 13.3267 9.13681 13.3594L7.30822 14.1806C7.20055 14.229 7.07452 14.2097 6.98622 14.1314L3.01956 10.6132C2.82282 10.4387 2.51425 10.5849 2.52673 10.8475C2.70338 14.5636 3.37369 17.2972 4.03473 19.0615Z" fill="url(#paint5_radial_4289_1940)"/>
</mask>
<g mask="url(#mask1_4289_1940)">
<g id="Group 2926">
<g id="Vector 92" filter="url(#filter2_f_4289_1940)">
<path d="M4.93595 21.0475C3.76165 18.7255 3.84162 12.4824 4.02839 9.6512L1.82715 9.08496L1.03338 20.3759L4.93595 21.0475Z" fill="#FCFCFC"/>
</g>
<g id="Vector 93" filter="url(#filter3_f_4289_1940)">
<path d="M22.288 8.37398C23.6745 10.4968 23.3848 17.3296 23.4688 20.1688L26.512 19.7661L26.2256 8.43571L22.288 8.37398Z" fill="#FCFCFC"/>
</g>
<g id="Vector 94" filter="url(#filter4_f_4289_1940)">
<path d="M4.33048 21.0475C3.15618 18.7255 3.23615 12.4824 3.42292 9.6512L1.22168 9.08496L0.427909 20.3759L4.33048 21.0475Z" fill="#FCFCFC"/>
</g>
<g id="Vector 95" filter="url(#filter5_f_4289_1940)">
<path d="M22.288 8.37398C23.6745 10.4968 23.3848 17.3296 23.4688 20.1688L26.512 19.7661L26.2256 8.43571L22.288 8.37398Z" fill="#FCFCFC"/>
</g>
<g id="Vector 96" filter="url(#filter6_f_4289_1940)">
<path d="M22.288 8.37398C23.6745 10.4968 23.3848 17.3296 23.4688 20.1688L26.512 19.7661L26.2256 8.43571L22.288 8.37398Z" fill="#FCFCFC"/>
</g>
<g id="Vector 97" filter="url(#filter7_f_4289_1940)">
<path d="M22.288 8.37398C23.6745 10.4968 23.3848 17.3296 23.4688 20.1688L26.512 19.7661L26.2256 8.43571L22.288 8.37398Z" fill="#FCFCFC"/>
</g>
</g>
</g>
</g>
</g>
</g>
</g>
</g>
<g id="Vector 98" filter="url(#filter8_f_4289_1940)">
<path d="M9.35254 21.7402C10.192 21.8248 12.2939 21.9687 13.9858 21.8671C13.1191 22.0303 10.979 22.2333 9.35254 21.7402Z" fill="white"/>
</g>
</g>
</g>
</g>
</g>
<path id="2" d="M11.3578 22.066L11.3577 22.066L11.3586 22.0703C11.4153 22.3619 11.4988 22.6132 11.625 22.7984C11.758 22.9935 11.9526 23.1313 12.2058 23.1313H16.0281C16.3703 23.1313 16.6319 22.9512 16.7978 22.6552C16.9503 22.3832 17.0189 22.0641 17.0189 21.7109C17.0189 21.3834 16.999 21.0012 16.9601 20.5655L16.9357 20.2914L16.6608 20.3029L15.0983 20.3683C15.5055 19.9409 15.8737 19.4659 16.203 18.9436L16.2038 18.9424C16.6866 18.1683 16.9383 17.3898 16.9383 16.6111C16.9383 15.7544 16.7094 15.0602 16.2026 14.5842C15.6991 14.1114 14.9707 13.9005 14.0709 13.9005C13.4707 13.9005 12.8962 13.9992 12.3492 14.1977L12.3492 14.1977L12.3479 14.1982C12.0827 14.2959 11.8596 14.4024 11.6893 14.5217C11.5254 14.6363 11.3806 14.7837 11.3216 14.9749C11.2728 15.1121 11.2496 15.2566 11.2496 15.4061C11.2496 15.5514 11.274 15.7034 11.3175 15.86C11.4439 16.3227 11.6701 16.7583 11.9904 17.1665L12.1726 17.3986L12.4006 17.2112C12.5088 17.1222 12.6682 17.0301 12.8893 16.9395C13.1042 16.8545 13.3095 16.8143 13.5068 16.8143C13.7174 16.8143 13.7982 16.8642 13.8268 16.8945L13.8267 16.8946L13.8338 16.9016C13.8749 16.9422 13.9206 17.0257 13.9206 17.2075C13.9206 17.3192 13.8836 17.483 13.784 17.7087C13.6858 17.9312 13.5344 18.1967 13.3252 18.5067C12.9071 19.1264 12.2735 19.9011 11.4187 20.8331C11.347 20.9099 11.3141 21.003 11.2971 21.078C11.2791 21.1571 11.2727 21.2442 11.2727 21.3336C11.2727 21.5142 11.3033 21.7619 11.3578 22.066Z" fill="white" stroke="#565656" stroke-width="0.576923"/>
</g>
<defs>
<filter id="filter0_i_4289_1940" x="4.28125" y="20.8687" width="19.4355" height="4.78955" filterUnits="userSpaceOnUse" color-interpolation-filters="sRGB">
<feFlood flood-opacity="0" result="BackgroundImageFix"/>
<feBlend mode="normal" in="SourceGraphic" in2="BackgroundImageFix" result="shape"/>
<feColorMatrix in="SourceAlpha" type="matrix" values="0 0 0 0 0 0 0 0 0 0 0 0 0 0 0 0 0 0 127 0" result="hardAlpha"/>
<feOffset/>
<feGaussianBlur stdDeviation="0.200026"/>
<feComposite in2="hardAlpha" operator="arithmetic" k2="-1" k3="1"/>
<feColorMatrix type="matrix" values="0 0 0 0 0.8375 0 0 0 0 0.8375 0 0 0 0 0.8375 0 0 0 1 0"/>
<feBlend mode="normal" in2="shape" result="effect1_innerShadow_4289_1940"/>
</filter>
<filter id="filter1_di_4289_1940" x="2.31755" y="6.82137" width="23.3659" height="14.2472" filterUnits="userSpaceOnUse" color-interpolation-filters="sRGB">
<feFlood flood-opacity="0" result="BackgroundImageFix"/>
<feColorMatrix in="SourceAlpha" type="matrix" values="0 0 0 0 0 0 0 0 0 0 0 0 0 0 0 0 0 0 127 0" result="hardAlpha"/>
<feOffset dy="0.100013"/>
<feGaussianBlur stdDeviation="0.100013"/>
<feComposite in2="hardAlpha" operator="out"/>
<feColorMatrix type="matrix" values="0 0 0 0 0.4125 0 0 0 0 0.4125 0 0 0 0 0.4125 0 0 0 0.4 0"/>
<feBlend mode="normal" in2="BackgroundImageFix" result="effect1_dropShadow_4289_1940"/>
<feBlend mode="normal" in="SourceGraphic" in2="effect1_dropShadow_4289_1940" result="shape"/>
<feColorMatrix in="SourceAlpha" type="matrix" values="0 0 0 0 0 0 0 0 0 0 0 0 0 0 0 0 0 0 127 0" result="hardAlpha"/>
<feOffset dy="-0.0500066"/>
<feGaussianBlur stdDeviation="0.0500066"/>
<feComposite in2="hardAlpha" operator="arithmetic" k2="-1" k3="1"/>
<feColorMatrix type="matrix" values="0 0 0 0 0.7625 0 0 0 0 0.7625 0 0 0 0 0.7625 0 0 0 0.2 0"/>
<feBlend mode="normal" in2="shape" result="effect2_innerShadow_4289_1940"/>
</filter>
<filter id="filter2_f_4289_1940" x="-0.767034" y="7.28472" width="7.50282" height="15.5629" filterUnits="userSpaceOnUse" color-interpolation-filters="sRGB">
<feFlood flood-opacity="0" result="BackgroundImageFix"/>
<feBlend mode="normal" in="SourceGraphic" in2="BackgroundImageFix" result="shape"/>
<feGaussianBlur stdDeviation="0.900119" result="effect1_foregroundBlur_4289_1940"/>
</filter>
<filter id="filter3_f_4289_1940" x="20.4878" y="6.57379" width="7.82411" height="15.3954" filterUnits="userSpaceOnUse" color-interpolation-filters="sRGB">
<feFlood flood-opacity="0" result="BackgroundImageFix"/>
<feBlend mode="normal" in="SourceGraphic" in2="BackgroundImageFix" result="shape"/>
<feGaussianBlur stdDeviation="0.900119" result="effect1_foregroundBlur_4289_1940"/>
</filter>
<filter id="filter4_f_4289_1940" x="-1.3725" y="7.28472" width="7.50282" height="15.5629" filterUnits="userSpaceOnUse" color-interpolation-filters="sRGB">
<feFlood flood-opacity="0" result="BackgroundImageFix"/>
<feBlend mode="normal" in="SourceGraphic" in2="BackgroundImageFix" result="shape"/>
<feGaussianBlur stdDeviation="0.900119" result="effect1_foregroundBlur_4289_1940"/>
</filter>
<filter id="filter5_f_4289_1940" x="20.4878" y="6.57379" width="7.82411" height="15.3954" filterUnits="userSpaceOnUse" color-interpolation-filters="sRGB">
<feFlood flood-opacity="0" result="BackgroundImageFix"/>
<feBlend mode="normal" in="SourceGraphic" in2="BackgroundImageFix" result="shape"/>
<feGaussianBlur stdDeviation="0.900119" result="effect1_foregroundBlur_4289_1940"/>
</filter>
<filter id="filter6_f_4289_1940" x="20.4878" y="6.57379" width="7.82411" height="15.3954" filterUnits="userSpaceOnUse" color-interpolation-filters="sRGB">
<feFlood flood-opacity="0" result="BackgroundImageFix"/>
<feBlend mode="normal" in="SourceGraphic" in2="BackgroundImageFix" result="shape"/>
<feGaussianBlur stdDeviation="0.900119" result="effect1_foregroundBlur_4289_1940"/>
</filter>
<filter id="filter7_f_4289_1940" x="20.4878" y="6.57379" width="7.82411" height="15.3954" filterUnits="userSpaceOnUse" color-interpolation-filters="sRGB">
<feFlood flood-opacity="0" result="BackgroundImageFix"/>
<feBlend mode="normal" in="SourceGraphic" in2="BackgroundImageFix" result="shape"/>
<feGaussianBlur stdDeviation="0.900119" result="effect1_foregroundBlur_4289_1940"/>
</filter>
<filter id="filter8_f_4289_1940" x="9.25253" y="21.6402" width="4.83284" height="0.510573" filterUnits="userSpaceOnUse" color-interpolation-filters="sRGB">
<feFlood flood-opacity="0" result="BackgroundImageFix"/>
<feBlend mode="normal" in="SourceGraphic" in2="BackgroundImageFix" result="shape"/>
<feGaussianBlur stdDeviation="0.0500066" result="effect1_foregroundBlur_4289_1940"/>
</filter>
<radialGradient id="paint0_radial_4289_1940" cx="0" cy="0" r="1" gradientUnits="userSpaceOnUse" gradientTransform="translate(14 20.2384) rotate(90) scale(7.84523 11.9365)">
<stop stop-color="#D1CBC2"/>
<stop offset="0.434817" stop-color="#8C8680"/>
<stop offset="0.66745" stop-color="#69605B"/>
<stop offset="0.811229" stop-color="#A6A099"/>
<stop offset="0.914634" stop-color="#D1CEC6"/>
</radialGradient>
<linearGradient id="paint1_linear_4289_1940" x1="3.92677" y1="22.3267" x2="23.9772" y2="21.7928" gradientUnits="userSpaceOnUse">
<stop stop-color="#FDFCF1"/>
<stop offset="0.0388061" stop-color="#EBE8E3"/>
<stop offset="0.313873" stop-color="#E2E2E2"/>
<stop offset="0.451487" stop-color="#D3D3D3"/>
<stop offset="0.648311" stop-color="#CACACA"/>
<stop offset="0.816899" stop-color="#B1B1B1"/>
<stop offset="0.912219" stop-color="#878787"/>
<stop offset="0.975568" stop-color="#D8D8D8"/>
<stop offset="1" stop-color="#ECE9DC"/>
</linearGradient>
<linearGradient id="paint2_linear_4289_1940" x1="25.4837" y1="11.6485" x2="3.85969" y2="12.2804" gradientUnits="userSpaceOnUse">
<stop offset="0.034513" stop-color="#FFE766"/>
<stop offset="0.161109" stop-color="#FFF066"/>
<stop offset="0.320674" stop-color="#E29015"/>
<stop offset="0.396528" stop-color="#F1C83C"/>
<stop offset="0.509338" stop-color="#FFD363"/>
<stop offset="0.631666" stop-color="#F3D241"/>
<stop offset="0.6875" stop-color="#E4A21C"/>
<stop offset="0.718795" stop-color="#DC8707"/>
<stop offset="0.90049" stop-color="#FFE660"/>
<stop offset="0.986134" stop-color="#FFDC60"/>
</linearGradient>
<linearGradient id="paint3_linear_4289_1940" x1="25.4837" y1="11.6583" x2="3.85961" y2="12.2889" gradientUnits="userSpaceOnUse">
<stop offset="0.034513" stop-color="#F2F2F2"/>
<stop offset="0.161109" stop-color="#E7E7E7"/>
<stop offset="0.320674" stop-color="#E0E0E0"/>
<stop offset="0.396528" stop-color="#E0E0E0"/>
<stop offset="0.509338" stop-color="#DEDEDE"/>
<stop offset="0.631666" stop-color="#DADADA"/>
<stop offset="0.6875" stop-color="#C0BDB7"/>
<stop offset="0.765625" stop-color="#A09C94"/>
<stop offset="0.90049" stop-color="#E7E7E7"/>
<stop offset="0.986134" stop-color="#D9D7D2"/>
</linearGradient>
<radialGradient id="paint4_radial_4289_1940" cx="0" cy="0" r="1" gradientUnits="userSpaceOnUse" gradientTransform="translate(14.0007 9.22428) rotate(90) scale(19.3356 9.9259)">
<stop stop-color="#F7F7F7"/>
<stop offset="0.251515" stop-color="#E1E1E1" stop-opacity="0.679577"/>
<stop offset="1" stop-color="#D6D6D6" stop-opacity="0"/>
</radialGradient>
<radialGradient id="paint5_radial_4289_1940" cx="0" cy="0" r="1" gradientUnits="userSpaceOnUse" gradientTransform="translate(14.8898 16.8661) rotate(-179.402) scale(13.1914 35.7514)">
<stop stop-color="#DE8A1B"/>
<stop offset="0.150004" stop-color="#DE8A1B"/>
<stop offset="0.511589" stop-color="#DE8A1B" stop-opacity="0"/>
<stop offset="0.876419" stop-color="#DE8A1B"/>
<stop offset="1" stop-color="#DE8A1B"/>
</radialGradient>
</defs>
</svg>
