<svg width="30" height="30" viewBox="0 0 30 30" fill="none" xmlns="http://www.w3.org/2000/svg">
<mask id="path-1-outside-1_4289_2009" maskUnits="userSpaceOnUse" x="1.48047" y="5.00049" width="25" height="21" fill="black">
<rect fill="white" x="1.48047" y="5.00049" width="25" height="21"/>
<path fill-rule="evenodd" clip-rule="evenodd" d="M2.50473 10.1799C2.70072 13.7973 3.36485 16.461 4.016 18.1839C4.04278 18.2548 4.08267 18.3185 4.13279 18.3724C4.46131 19.1863 4.7787 19.7584 5.02217 20.0903C4.80186 20.0418 4.62661 19.9997 4.49841 19.9675C4.36917 19.935 4.24139 20.0326 4.24139 20.1659V22.7147L4.85211 22.708C4.45724 22.8717 4.24139 23.0489 4.24139 23.2339C4.24139 24.0645 8.59208 24.7378 13.9589 24.7378C19.3258 24.7378 23.6765 24.0645 23.6765 23.2339C23.6765 22.9731 23.2476 22.7278 22.493 22.514L23.6765 22.501V20.1518C23.6765 20.0229 23.5589 19.9262 23.4328 19.9529C23.2906 19.983 23.0882 20.0244 22.8309 20.073C23.1472 19.645 23.4285 19.1299 23.6782 18.5564C23.7411 18.499 23.7913 18.4278 23.8239 18.3462C24.8665 15.7373 25.3123 12.1121 25.4358 9.90129C25.4375 9.86994 25.4347 9.84027 25.428 9.81263L25.43 9.77588C25.4311 9.75675 25.4305 9.73826 25.4283 9.72047C25.4381 9.71778 25.4458 9.71349 25.4461 9.70835C25.4602 9.45741 25.1758 9.31044 24.9747 9.4611L20.7506 12.6247C20.6578 12.6942 20.5334 12.7041 20.4308 12.65L18.89 11.8377C18.8275 11.8048 18.7787 11.7508 18.752 11.6854L16.5905 6.37523C16.4985 6.14919 16.2787 6.00139 16.0347 6.00139H15.8925C15.8816 6.00079 15.8706 6.00049 15.8595 6.00049H11.9805C11.9695 6.00049 11.9585 6.00079 11.9475 6.00139H11.858C11.6139 6.00139 11.3942 6.14919 11.3022 6.37523L9.14329 11.6788C9.11504 11.7482 9.06186 11.8045 8.9942 11.8367L7.26519 12.6586C7.16218 12.7075 7.04032 12.6939 6.95073 12.6233L2.96101 9.48085C2.76093 9.32326 2.46898 9.47169 2.48082 9.7261C2.48795 9.87931 2.49593 10.0306 2.50473 10.1799Z"/>
</mask>
<path fill-rule="evenodd" clip-rule="evenodd" d="M2.50473 10.1799C2.70072 13.7973 3.36485 16.461 4.016 18.1839C4.04278 18.2548 4.08267 18.3185 4.13279 18.3724C4.46131 19.1863 4.7787 19.7584 5.02217 20.0903C4.80186 20.0418 4.62661 19.9997 4.49841 19.9675C4.36917 19.935 4.24139 20.0326 4.24139 20.1659V22.7147L4.85211 22.708C4.45724 22.8717 4.24139 23.0489 4.24139 23.2339C4.24139 24.0645 8.59208 24.7378 13.9589 24.7378C19.3258 24.7378 23.6765 24.0645 23.6765 23.2339C23.6765 22.9731 23.2476 22.7278 22.493 22.514L23.6765 22.501V20.1518C23.6765 20.0229 23.5589 19.9262 23.4328 19.9529C23.2906 19.983 23.0882 20.0244 22.8309 20.073C23.1472 19.645 23.4285 19.1299 23.6782 18.5564C23.7411 18.499 23.7913 18.4278 23.8239 18.3462C24.8665 15.7373 25.3123 12.1121 25.4358 9.90129C25.4375 9.86994 25.4347 9.84027 25.428 9.81263L25.43 9.77588C25.4311 9.75675 25.4305 9.73826 25.4283 9.72047C25.4381 9.71778 25.4458 9.71349 25.4461 9.70835C25.4602 9.45741 25.1758 9.31044 24.9747 9.4611L20.7506 12.6247C20.6578 12.6942 20.5334 12.7041 20.4308 12.65L18.89 11.8377C18.8275 11.8048 18.7787 11.7508 18.752 11.6854L16.5905 6.37523C16.4985 6.14919 16.2787 6.00139 16.0347 6.00139H15.8925C15.8816 6.00079 15.8706 6.00049 15.8595 6.00049H11.9805C11.9695 6.00049 11.9585 6.00079 11.9475 6.00139H11.858C11.6139 6.00139 11.3942 6.14919 11.3022 6.37523L9.14329 11.6788C9.11504 11.7482 9.06186 11.8045 8.9942 11.8367L7.26519 12.6586C7.16218 12.7075 7.04032 12.6939 6.95073 12.6233L2.96101 9.48085C2.76093 9.32326 2.46898 9.47169 2.48082 9.7261C2.48795 9.87931 2.49593 10.0306 2.50473 10.1799Z" fill="#523100"/>
<path d="M4.016 18.1839L4.36679 18.0513L4.36679 18.0513L4.016 18.1839ZM2.50473 10.1799L2.87918 10.1596L2.87908 10.1579L2.50473 10.1799ZM4.13279 18.3724L4.48054 18.232L4.4546 18.1677L4.40741 18.117L4.13279 18.3724ZM5.02217 20.0903L4.9415 20.4565L5.9129 20.6705L5.32453 19.8685L5.02217 20.0903ZM4.49841 19.9675L4.58982 19.6038L4.49841 19.9675ZM4.24139 22.7147H3.86639V23.0938L4.24551 23.0897L4.24139 22.7147ZM4.85211 22.708L4.99572 23.0544L4.84798 22.333L4.85211 22.708ZM22.493 22.514L22.4888 22.139L22.3907 22.8748L22.493 22.514ZM23.6765 22.501L23.6806 22.876L24.0515 22.8719V22.501H23.6765ZM23.4328 19.9529L23.5104 20.3198H23.5104L23.4328 19.9529ZM22.8309 20.073L22.5293 19.8502L21.9611 20.6194L22.9007 20.4415L22.8309 20.073ZM23.6782 18.5564L23.4256 18.2792L23.3663 18.3332L23.3344 18.4067L23.6782 18.5564ZM23.8239 18.3462L24.1721 18.4854V18.4854L23.8239 18.3462ZM25.4358 9.90129L25.0614 9.88038V9.88038L25.4358 9.90129ZM25.428 9.81263L25.0536 9.79149L25.0504 9.84719L25.0636 9.90139L25.428 9.81263ZM25.43 9.77588L25.8044 9.79701L25.8044 9.79679L25.43 9.77588ZM25.4283 9.72047L25.3292 9.35877L25.0163 9.44442L25.0561 9.76639L25.4283 9.72047ZM25.4461 9.70835L25.8205 9.72933L25.8205 9.7293L25.4461 9.70835ZM24.9747 9.4611L24.7499 9.16095V9.16095L24.9747 9.4611ZM20.7506 12.6247L20.5258 12.3246V12.3246L20.7506 12.6247ZM20.4308 12.65L20.2559 12.9817L20.4308 12.65ZM18.89 11.8377L19.0649 11.506L19.0649 11.506L18.89 11.8377ZM18.752 11.6854L18.4047 11.8268L18.4047 11.8268L18.752 11.6854ZM16.5905 6.37523L16.2431 6.51661V6.51661L16.5905 6.37523ZM15.8925 6.00139L15.872 6.37583L15.8823 6.37639H15.8925V6.00139ZM11.9475 6.00139V6.37639H11.9578L11.968 6.37583L11.9475 6.00139ZM11.3022 6.37523L10.9548 6.23385V6.23385L11.3022 6.37523ZM9.14329 11.6788L9.49061 11.8202L9.49061 11.8202L9.14329 11.6788ZM8.9942 11.8367L9.15519 12.1754L9.15519 12.1754L8.9942 11.8367ZM7.26519 12.6586L7.1042 12.3199L7.26519 12.6586ZM6.95073 12.6233L6.71869 12.9179L6.7187 12.9179L6.95073 12.6233ZM2.96101 9.48085L2.72898 9.77544H2.72898L2.96101 9.48085ZM2.48082 9.7261L2.85541 9.70867L2.48082 9.7261ZM4.36679 18.0513C3.73038 16.3675 3.07327 13.7419 2.87918 10.1596L2.13028 10.2002C2.32816 13.8526 2.99931 16.5545 3.66522 18.3165L4.36679 18.0513ZM4.40741 18.117C4.39011 18.0984 4.37622 18.0763 4.36679 18.0513L3.66522 18.3165C3.70934 18.4332 3.77524 18.5385 3.85818 18.6277L4.40741 18.117ZM5.32453 19.8685C5.10582 19.5704 4.80217 19.0289 4.48054 18.232L3.78505 18.5127C4.12044 19.3437 4.45159 19.9465 4.71981 20.3121L5.32453 19.8685ZM4.40701 20.3312C4.53867 20.3642 4.7175 20.4072 4.9415 20.4565L5.10284 19.7241C4.88622 19.6764 4.71454 19.6351 4.58982 19.6038L4.40701 20.3312ZM4.61639 20.1659C4.61639 20.2821 4.50934 20.3569 4.40701 20.3312L4.58982 19.6038C4.229 19.5131 3.86639 19.7831 3.86639 20.1659H4.61639ZM4.61639 22.7147V20.1659H3.86639V22.7147H4.61639ZM4.84798 22.333L4.23726 22.3397L4.24551 23.0897L4.85623 23.083L4.84798 22.333ZM4.61639 23.2339C4.61639 23.2986 4.57775 23.3029 4.64165 23.2486C4.70249 23.1968 4.81476 23.1294 4.99572 23.0544L4.70849 22.3616C4.49459 22.4503 4.3015 22.5533 4.1557 22.6773C4.01295 22.7987 3.86639 22.9842 3.86639 23.2339H4.61639ZM13.9589 24.3628C11.2886 24.3628 8.87926 24.1952 7.14494 23.9268C6.27485 23.7921 5.59147 23.6346 5.1339 23.4671C4.90293 23.3826 4.75162 23.3034 4.66502 23.2379C4.57003 23.1661 4.61639 23.1618 4.61639 23.2339H3.86639C3.86639 23.5136 4.0487 23.7121 4.21261 23.8361C4.38489 23.9664 4.61541 24.076 4.87618 24.1715C5.40207 24.3639 6.1418 24.5304 7.03023 24.6679C8.81297 24.9438 11.2624 25.1128 13.9589 25.1128V24.3628ZM23.3015 23.2339C23.3015 23.1618 23.3478 23.1661 23.2528 23.2379C23.1662 23.3034 23.0149 23.3826 22.7839 23.4671C22.3264 23.6346 21.643 23.7921 20.7729 23.9268C19.0386 24.1952 16.6293 24.3628 13.9589 24.3628V25.1128C16.6554 25.1128 19.1049 24.9438 20.8876 24.6679C21.776 24.5304 22.5158 24.3639 23.0417 24.1715C23.3024 24.076 23.533 23.9664 23.7052 23.8361C23.8691 23.7121 24.0515 23.5136 24.0515 23.2339H23.3015ZM22.3907 22.8748C22.7558 22.9783 23.0151 23.0823 23.1751 23.1781C23.3622 23.2901 23.3015 23.3197 23.3015 23.2339H24.0515C24.0515 22.8874 23.7763 22.6639 23.5603 22.5346C23.3172 22.3891 22.9847 22.2636 22.5952 22.1532L22.3907 22.8748ZM23.6723 22.126L22.4888 22.139L22.4971 22.889L23.6806 22.876L23.6723 22.126ZM23.3015 20.1518V22.501H24.0515V20.1518H23.3015ZM23.5104 20.3198C23.3998 20.3432 23.3015 20.2576 23.3015 20.1518H24.0515C24.0515 19.7882 23.718 19.5093 23.3551 19.5861L23.5104 20.3198ZM22.9007 20.4415C23.1607 20.3923 23.3657 20.3504 23.5104 20.3198L23.3551 19.5861C23.2154 19.6156 23.0156 19.6564 22.7612 19.7046L22.9007 20.4415ZM23.3344 18.4067C23.0924 18.9624 22.8242 19.4511 22.5293 19.8502L23.1325 20.2959C23.4701 19.839 23.7646 19.2973 24.022 18.7061L23.3344 18.4067ZM23.4757 18.2071C23.4645 18.2349 23.4474 18.2593 23.4256 18.2792L23.9308 18.8335C24.0347 18.7388 24.118 18.6207 24.1721 18.4854L23.4757 18.2071ZM25.0614 9.88038C24.9386 12.0792 24.4954 15.6555 23.4757 18.2071L24.1721 18.4854C25.2377 15.8191 25.6861 12.1451 25.8102 9.9222L25.0614 9.88038ZM25.0636 9.90139C25.0614 9.8925 25.0611 9.88519 25.0614 9.88038L25.8102 9.9222C25.814 9.85469 25.8079 9.78804 25.7923 9.72387L25.0636 9.90139ZM25.0556 9.75474L25.0536 9.79149L25.8024 9.83377L25.8044 9.79701L25.0556 9.75474ZM25.0561 9.76639C25.0555 9.76167 25.0555 9.75779 25.0556 9.75496L25.8044 9.79679C25.8067 9.75572 25.8054 9.71485 25.8004 9.67454L25.0561 9.76639ZM25.0717 9.68737C25.077 9.59346 25.1161 9.52294 25.1504 9.4795C25.1833 9.43789 25.2179 9.41273 25.2387 9.39941C25.2794 9.37337 25.3147 9.36274 25.3292 9.35877L25.5273 10.0822C25.5516 10.0755 25.5957 10.0614 25.6428 10.0312C25.6725 10.0123 25.8099 9.91971 25.8205 9.72933L25.0717 9.68737ZM25.1995 9.76125C25.1908 9.76775 25.1763 9.77402 25.159 9.77512C25.1433 9.77613 25.1292 9.77264 25.1177 9.76661C25.1061 9.76057 25.0939 9.75029 25.0845 9.73457C25.0743 9.71736 25.071 9.69952 25.0717 9.68741L25.8205 9.7293C25.8531 9.14706 25.1955 8.82721 24.7499 9.16095L25.1995 9.76125ZM20.9754 12.9249L25.1995 9.76125L24.7499 9.16095L20.5258 12.3246L20.9754 12.9249ZM20.2559 12.9817C20.4866 13.1033 20.7667 13.0812 20.9754 12.9249L20.5258 12.3246C20.549 12.3072 20.5801 12.3048 20.6057 12.3183L20.2559 12.9817ZM18.7151 12.1694L20.2559 12.9817L20.6057 12.3183L19.0649 11.506L18.7151 12.1694ZM18.4047 11.8268C18.4646 11.974 18.5745 12.0953 18.7151 12.1694L19.0649 11.506C19.0805 11.5142 19.0927 11.5277 19.0993 11.544L18.4047 11.8268ZM16.2431 6.51661L18.4047 11.8268L19.0993 11.544L16.9378 6.23385L16.2431 6.51661ZM16.0347 6.37639C16.1262 6.37639 16.2086 6.43183 16.2431 6.51661L16.9378 6.23385C16.7883 5.86655 16.4312 5.62639 16.0347 5.62639V6.37639ZM15.8925 6.37639H16.0347V5.62639H15.8925V6.37639ZM15.8595 6.37549C15.8637 6.37549 15.8679 6.3756 15.872 6.37583L15.913 5.62695C15.8953 5.62598 15.8774 5.62549 15.8595 5.62549V6.37549ZM11.9805 6.37549H15.8595V5.62549H11.9805V6.37549ZM11.968 6.37583C11.9722 6.3756 11.9763 6.37549 11.9805 6.37549V5.62549C11.9626 5.62549 11.9448 5.62598 11.927 5.62695L11.968 6.37583ZM11.858 6.37639H11.9475V5.62639H11.858V6.37639ZM11.6495 6.51661C11.684 6.43183 11.7664 6.37639 11.858 6.37639V5.62639C11.4614 5.62639 11.1043 5.86655 10.9548 6.23385L11.6495 6.51661ZM9.49061 11.8202L11.6495 6.51661L10.9548 6.23385L8.79596 11.5375L9.49061 11.8202ZM9.15519 12.1754C9.30742 12.103 9.42707 11.9763 9.49061 11.8202L8.79596 11.5375C8.80302 11.5201 8.8163 11.5061 8.83321 11.498L9.15519 12.1754ZM7.42618 12.9973L9.15519 12.1754L8.83321 11.498L7.1042 12.3199L7.42618 12.9973ZM6.7187 12.9179C6.92027 13.0767 7.19443 13.1074 7.42618 12.9973L7.1042 12.3199C7.12993 12.3077 7.16038 12.3111 7.18276 12.3287L6.7187 12.9179ZM2.72898 9.77544L6.71869 12.9179L7.18276 12.3287L3.19304 9.18625L2.72898 9.77544ZM2.85541 9.70867C2.85871 9.77947 2.77791 9.81398 2.72898 9.77544L3.19304 9.18625C2.74395 8.83254 2.07925 9.16391 2.10622 9.74353L2.85541 9.70867ZM2.87908 10.1579C2.87037 10.0101 2.86247 9.86034 2.85541 9.70867L2.10622 9.74353C2.11342 9.89827 2.12149 10.0511 2.13038 10.202L2.87908 10.1579Z" fill="#523100" mask="url(#path-1-outside-1_4289_2009)"/>
<path d="M2.5278 9.80163C2.80848 15.7065 4.33563 19.1305 5.09142 20.1273C11.9993 21.7303 19.7968 20.7952 22.832 20.1273C24.6261 17.7635 25.3135 12.6087 25.4717 9.77588C25.4862 9.51675 25.1856 9.37253 24.9873 9.53993L20.7831 13.0884C20.6925 13.1649 20.5653 13.1808 20.4586 13.1291L18.7794 12.3146C18.7102 12.2811 18.6565 12.2222 18.6295 12.1503L16.4629 6.38933C16.3749 6.1554 16.1512 6.00049 15.9012 6.00049H12.0222C11.7723 6.00049 11.5485 6.1554 11.4605 6.38933L9.2958 12.1454C9.26766 12.2203 9.21081 12.2808 9.13788 12.3135L7.30929 13.1347C7.20162 13.1831 7.07559 13.1638 6.98729 13.0855L3.02063 9.56728C2.82389 9.39278 2.51532 9.53895 2.5278 9.80163Z" fill="url(#paint0_radial_4289_2009)"/>
<g filter="url(#filter0_i_4289_2009)">
<path fill-rule="evenodd" clip-rule="evenodd" d="M4.53925 19.9667C4.41001 19.9342 4.28223 20.0319 4.28223 20.1651V23.1513H4.29637C4.28698 23.1784 4.28223 23.2057 4.28223 23.2332C4.28223 24.0638 8.63292 24.7371 13.9998 24.7371C19.3666 24.7371 23.7173 24.0638 23.7173 23.2332C23.7173 23.2057 23.7125 23.1784 23.7032 23.1513H23.7173V20.1511C23.7173 20.0222 23.5998 19.9255 23.4736 19.9522C22.4845 20.1616 18.5825 20.9137 13.5834 20.9137C8.69368 20.9137 5.44409 20.1941 4.53925 19.9667Z" fill="url(#paint1_linear_4289_2009)"/>
</g>
<mask id="mask0_4289_2009" style="mask-type:alpha" maskUnits="userSpaceOnUse" x="2" y="6" width="24" height="16">
<path fill-rule="evenodd" clip-rule="evenodd" d="M2.5189 9.7252C2.53239 10.0149 2.54892 10.2977 2.56825 10.5736C2.55452 10.3615 2.54241 10.146 2.532 9.92712C2.5314 9.91442 2.53154 9.902 2.53239 9.88988C2.824 15.7406 4.33969 19.1354 5.09171 20.1273C11.9996 21.7303 19.7971 20.7952 22.8323 20.1273C24.6264 17.7635 25.3138 12.6087 25.472 9.77588C25.4731 9.75609 25.4724 9.73698 25.47 9.71862C25.478 9.71587 25.484 9.71198 25.4842 9.70745C25.4983 9.4565 25.2139 9.30953 25.0128 9.4602L20.7887 12.6238C20.6959 12.6933 20.5714 12.7032 20.4689 12.6491L18.9281 11.8368C18.8656 11.8039 18.8167 11.7499 18.7901 11.6845L16.6286 6.37433C16.5366 6.14829 16.3168 6.00049 16.0728 6.00049H15.9015H12.0225H11.896C11.652 6.00049 11.4323 6.14829 11.3402 6.37433L9.18137 11.6779C9.15313 11.7473 9.09994 11.8036 9.03228 11.8358L7.30327 12.6577C7.20027 12.7066 7.07841 12.693 6.98881 12.6224L2.9991 9.47995C2.79902 9.32236 2.50706 9.47079 2.5189 9.7252Z" fill="url(#paint2_linear_4289_2009)"/>
</mask>
<g mask="url(#mask0_4289_2009)">
<g filter="url(#filter1_di_4289_2009)">
<path fill-rule="evenodd" clip-rule="evenodd" d="M2.56867 10.5795C2.54915 10.3017 2.53248 10.017 2.5189 9.7252C2.50706 9.47079 2.79902 9.32236 2.9991 9.47995L6.98881 12.6224C7.07841 12.693 7.20027 12.7066 7.30327 12.6577L9.03228 11.8358C9.09994 11.8036 9.15313 11.7473 9.18137 11.6779L11.3402 6.37433C11.4323 6.14829 11.652 6.00049 11.896 6.00049L16.0728 6.00049C16.3168 6.00049 16.5366 6.14829 16.6286 6.37433L18.7901 11.6845C18.8167 11.7499 18.8656 11.8039 18.9281 11.8368L20.4689 12.6491C20.5714 12.7032 20.6959 12.6933 20.7887 12.6238L25.0128 9.4602C25.2139 9.30953 25.4983 9.4565 25.4842 9.70745C25.4835 9.72082 25.433 9.72857 25.4253 9.7176C25.3332 9.58607 25.1354 9.54346 24.9915 9.66493L20.7873 13.2134C20.6967 13.2899 20.5695 13.3058 20.4628 13.2541L18.7836 12.4396C18.7144 12.4061 18.6607 12.3472 18.6337 12.2753L16.4671 6.51433C16.3791 6.2804 16.1554 6.12549 15.9054 6.12549L12.0264 6.12549C11.7765 6.12549 11.5527 6.2804 11.4647 6.51433L9.3 12.2704C9.27186 12.3453 9.21501 12.4058 9.14208 12.4385L7.31349 13.2597C7.20581 13.3081 7.07979 13.2888 6.99148 13.2105L3.02483 9.69228C2.82809 9.51778 2.51952 9.66395 2.532 9.92663C2.54251 10.1477 2.55477 10.3653 2.56867 10.5795Z" fill="url(#paint3_linear_4289_2009)"/>
<path fill-rule="evenodd" clip-rule="evenodd" d="M4.05408 18.1842C4.11569 18.3473 4.24671 18.4723 4.41198 18.5276C6.11154 19.096 8.9994 19.8483 13.8685 19.8483C17.9879 19.8483 21.2739 19.2023 23.4531 18.6941C23.638 18.651 23.7909 18.5228 23.8614 18.3465C24.9043 15.7375 25.3501 12.1119 25.4736 9.90088C25.4881 9.64175 25.1875 9.49753 24.9892 9.66493L20.785 13.2134C20.6943 13.2899 20.5672 13.3058 20.4605 13.2541L18.7812 12.4396C18.7121 12.4061 18.6584 12.3472 18.6313 12.2753L16.4648 6.51433C16.3768 6.2804 16.153 6.12549 15.9031 6.12549L12.0241 6.12549C11.7741 6.12549 11.5504 6.2804 11.4624 6.51433L9.29766 12.2704C9.26952 12.3453 9.21267 12.4058 9.13974 12.4385L7.31115 13.2597C7.20348 13.3081 7.07745 13.2888 6.98915 13.2105L3.02249 9.69228C2.82575 9.51778 2.51718 9.66395 2.52966 9.92663C2.70777 13.6735 3.38775 16.4215 4.05408 18.1842Z" fill="#DE611B"/>
<path fill-rule="evenodd" clip-rule="evenodd" d="M4.05408 18.1842C4.11569 18.3473 4.24671 18.4723 4.41198 18.5276C6.11154 19.096 8.9994 19.8483 13.8685 19.8483C17.9879 19.8483 21.2739 19.2023 23.4531 18.6941C23.638 18.651 23.7909 18.5228 23.8614 18.3465C24.9043 15.7375 25.3501 12.1119 25.4736 9.90088C25.4881 9.64175 25.1875 9.49753 24.9892 9.66493L20.785 13.2134C20.6943 13.2899 20.5672 13.3058 20.4605 13.2541L18.7812 12.4396C18.7121 12.4061 18.6584 12.3472 18.6313 12.2753L16.4648 6.51433C16.3768 6.2804 16.153 6.12549 15.9031 6.12549L12.0241 6.12549C11.7741 6.12549 11.5504 6.2804 11.4624 6.51433L9.29766 12.2704C9.26952 12.3453 9.21267 12.4058 9.13974 12.4385L7.31115 13.2597C7.20348 13.3081 7.07745 13.2888 6.98915 13.2105L3.02249 9.69228C2.82575 9.51778 2.51718 9.66395 2.52966 9.92663C2.70777 13.6735 3.38775 16.4215 4.05408 18.1842Z" fill="url(#paint4_radial_4289_2009)"/>
<mask id="mask1_4289_2009" style="mask-type:alpha" maskUnits="userSpaceOnUse" x="2" y="6" width="24" height="14">
<path fill-rule="evenodd" clip-rule="evenodd" d="M4.03592 18.1417C4.10726 18.3321 4.26089 18.4785 4.45382 18.5426C6.15904 19.1093 9.03903 19.8488 13.8666 19.8488C17.9552 19.8488 21.2228 19.2124 23.4021 18.706C23.6179 18.6559 23.7965 18.5064 23.878 18.3004C24.9076 15.695 25.3489 12.0993 25.4716 9.90136C25.4861 9.64224 25.1855 9.49802 24.9872 9.66541L20.783 13.2139C20.6924 13.2904 20.5652 13.3063 20.4585 13.2545L18.7793 12.4401C18.7101 12.4065 18.6564 12.3477 18.6294 12.2758L16.4628 6.51482C16.3748 6.28089 16.1511 6.12598 15.9011 6.12598L12.0221 6.12598C11.7722 6.12598 11.5484 6.28089 11.4605 6.51482L9.29571 12.2709C9.26757 12.3458 9.21072 12.4063 9.13779 12.439L7.3092 13.2602C7.20152 13.3085 7.0755 13.2893 6.98719 13.211L3.02054 9.69276C2.8238 9.51827 2.51523 9.66444 2.52771 9.92712C2.70437 13.6436 3.37481 16.3773 4.03592 18.1417Z" fill="url(#paint5_radial_4289_2009)"/>
</mask>
<g mask="url(#mask1_4289_2009)">
<g filter="url(#filter2_f_4289_2009)">
<path d="M4.93692 20.1276C3.76263 17.8055 3.8426 11.5625 4.02937 8.73128L1.82812 8.16504L1.03435 19.4559L4.93692 20.1276Z" fill="#FF8762"/>
</g>
<g filter="url(#filter3_f_4289_2009)">
<path d="M22.2889 7.45357C23.6755 9.57639 23.3858 16.4091 23.4698 19.2484L26.513 18.8457L26.2265 7.5153L22.2889 7.45357Z" fill="#FF8762"/>
</g>
<g filter="url(#filter4_f_4289_2009)">
<path d="M4.33145 20.1276C3.15716 17.8055 3.23713 11.5625 3.4239 8.73128L1.22266 8.16504L0.428886 19.4559L4.33145 20.1276Z" fill="#FF8762"/>
</g>
<g filter="url(#filter5_f_4289_2009)">
<path d="M22.2889 7.45357C23.6755 9.57639 23.3858 16.4091 23.4698 19.2484L26.513 18.8457L26.2265 7.5153L22.2889 7.45357Z" fill="#FF8762"/>
</g>
<g filter="url(#filter6_f_4289_2009)">
<path d="M22.2889 7.45357C23.6755 9.57639 23.3858 16.4091 23.4698 19.2484L26.513 18.8457L26.2265 7.5153L22.2889 7.45357Z" fill="#FF8762"/>
</g>
<g filter="url(#filter7_f_4289_2009)">
<path d="M22.2889 7.45357C23.6755 9.57639 23.3858 16.4091 23.4698 19.2484L26.513 18.8457L26.2265 7.5153L22.2889 7.45357Z" fill="#FF8762"/>
</g>
</g>
</g>
</g>
<g filter="url(#filter8_f_4289_2009)">
<path d="M9.35352 20.8198C10.193 20.9044 12.2949 21.0482 13.9868 20.9467C13.12 21.1099 10.98 21.3129 9.35352 20.8198Z" fill="white"/>
</g>
<path d="M12.3747 19.0541L12.307 19.0142H12.2284C12.1659 19.0142 12.1191 19.0341 12.096 19.0456C12.0708 19.0582 12.052 19.072 12.0407 19.081C12.0183 19.0987 12.0014 19.1169 11.9917 19.128C11.971 19.1514 11.951 19.1785 11.9335 19.2035C11.8975 19.255 11.852 19.3266 11.7983 19.4151C11.6789 19.6038 11.561 19.849 11.4432 20.1441C11.319 20.4473 11.2496 20.7372 11.2496 21.0094C11.2496 21.2506 11.3831 21.4414 11.5568 21.5821C11.7279 21.7207 11.9642 21.8342 12.2453 21.9312L12.2453 21.9312L12.249 21.9324C12.8164 22.1197 13.4392 22.2114 14.1145 22.2114C15.1814 22.2114 16.0465 21.9703 16.6674 21.4462L16.6674 21.4462L16.6693 21.4446C17.2872 20.9141 17.5958 20.2155 17.5958 19.3748C17.5958 18.8323 17.451 18.352 17.1501 17.9492C16.94 17.668 16.6614 17.4345 16.3222 17.2448C16.9847 16.6945 17.3246 15.9607 17.3246 15.0599C17.3246 14.4155 17.0591 13.8913 16.5393 13.516C16.029 13.1474 15.3452 12.9806 14.5213 12.9806C13.7123 12.9806 13.02 13.0748 12.4535 13.2733L12.4535 13.2732L12.4522 13.2737C12.1681 13.3748 11.9278 13.5104 11.7559 13.6939C11.5779 13.8839 11.4838 14.1151 11.4838 14.3748C11.4838 14.8157 11.7031 15.3768 12.0764 16.032L12.2022 16.2528L12.437 16.1559C12.8297 15.9939 13.2361 15.9133 13.6584 15.9133C13.9498 15.9133 14.1229 15.9547 14.2136 16.0042C14.2546 16.0266 14.2713 16.0466 14.279 16.0591C14.2862 16.0709 14.2945 16.091 14.2945 16.1296C14.2945 16.1693 14.279 16.2506 14.0816 16.3536C13.8761 16.457 13.6909 16.5022 13.5228 16.5022V16.5021L13.5131 16.5024L13.1556 16.5144L13.1553 16.5144C12.9456 16.5217 12.7683 16.6219 12.6589 16.8048C12.5621 16.9667 12.5317 17.1706 12.5317 17.3796C12.5317 17.6396 12.5793 17.9036 12.6705 18.1701L12.6702 18.1701L12.6746 18.1813C12.7245 18.3095 12.7837 18.4284 12.8583 18.5202C12.9315 18.6101 13.0536 18.7138 13.2269 18.7138H13.6621C14.0558 18.7376 14.3104 18.78 14.4496 18.8294L14.4496 18.8294L14.4533 18.8307C14.4945 18.8447 14.5082 18.8605 14.5154 18.8718C14.525 18.8869 14.541 18.9237 14.541 19.0022C14.541 19.1179 14.4977 19.2058 14.3686 19.2863L14.3686 19.2863L14.3641 19.2892C14.2288 19.3772 14.0266 19.4349 13.7324 19.4349C13.2605 19.4349 12.8094 19.3098 12.3747 19.0541Z" fill="white" stroke="#523100" stroke-width="0.576923"/>
<defs>
<filter id="filter0_i_4289_2009" x="4.28223" y="19.9478" width="19.4355" height="4.78955" filterUnits="userSpaceOnUse" color-interpolation-filters="sRGB">
<feFlood flood-opacity="0" result="BackgroundImageFix"/>
<feBlend mode="normal" in="SourceGraphic" in2="BackgroundImageFix" result="shape"/>
<feColorMatrix in="SourceAlpha" type="matrix" values="0 0 0 0 0 0 0 0 0 0 0 0 0 0 0 0 0 0 127 0" result="hardAlpha"/>
<feOffset/>
<feGaussianBlur stdDeviation="0.200026"/>
<feComposite in2="hardAlpha" operator="arithmetic" k2="-1" k3="1"/>
<feColorMatrix type="matrix" values="0 0 0 0 0.854167 0 0 0 0 0.4305 0 0 0 0 0.192188 0 0 0 1 0"/>
<feBlend mode="normal" in2="shape" result="effect1_innerShadow_4289_2009"/>
</filter>
<filter id="filter1_di_4289_2009" x="2.31853" y="5.90048" width="23.3659" height="14.2482" filterUnits="userSpaceOnUse" color-interpolation-filters="sRGB">
<feFlood flood-opacity="0" result="BackgroundImageFix"/>
<feColorMatrix in="SourceAlpha" type="matrix" values="0 0 0 0 0 0 0 0 0 0 0 0 0 0 0 0 0 0 127 0" result="hardAlpha"/>
<feOffset dy="0.100013"/>
<feGaussianBlur stdDeviation="0.100013"/>
<feComposite in2="hardAlpha" operator="out"/>
<feColorMatrix type="matrix" values="0 0 0 0 0.5 0 0 0 0 0.256333 0 0 0 0 0.00416666 0 0 0 0.4 0"/>
<feBlend mode="normal" in2="BackgroundImageFix" result="effect1_dropShadow_4289_2009"/>
<feBlend mode="normal" in="SourceGraphic" in2="effect1_dropShadow_4289_2009" result="shape"/>
<feColorMatrix in="SourceAlpha" type="matrix" values="0 0 0 0 0 0 0 0 0 0 0 0 0 0 0 0 0 0 127 0" result="hardAlpha"/>
<feOffset dy="-0.0500066"/>
<feGaussianBlur stdDeviation="0.0500066"/>
<feComposite in2="hardAlpha" operator="arithmetic" k2="-1" k3="1"/>
<feColorMatrix type="matrix" values="0 0 0 0 0.992157 0 0 0 0 0.968627 0 0 0 0 0.294118 0 0 0 0.2 0"/>
<feBlend mode="normal" in2="shape" result="effect2_innerShadow_4289_2009"/>
</filter>
<filter id="filter2_f_4289_2009" x="-0.766058" y="6.3648" width="7.50282" height="15.5629" filterUnits="userSpaceOnUse" color-interpolation-filters="sRGB">
<feFlood flood-opacity="0" result="BackgroundImageFix"/>
<feBlend mode="normal" in="SourceGraphic" in2="BackgroundImageFix" result="shape"/>
<feGaussianBlur stdDeviation="0.900119" result="effect1_foregroundBlur_4289_2009"/>
</filter>
<filter id="filter3_f_4289_2009" x="20.4888" y="5.65338" width="7.82411" height="15.3954" filterUnits="userSpaceOnUse" color-interpolation-filters="sRGB">
<feFlood flood-opacity="0" result="BackgroundImageFix"/>
<feBlend mode="normal" in="SourceGraphic" in2="BackgroundImageFix" result="shape"/>
<feGaussianBlur stdDeviation="0.900119" result="effect1_foregroundBlur_4289_2009"/>
</filter>
<filter id="filter4_f_4289_2009" x="-1.37153" y="6.3648" width="7.50282" height="15.5629" filterUnits="userSpaceOnUse" color-interpolation-filters="sRGB">
<feFlood flood-opacity="0" result="BackgroundImageFix"/>
<feBlend mode="normal" in="SourceGraphic" in2="BackgroundImageFix" result="shape"/>
<feGaussianBlur stdDeviation="0.900119" result="effect1_foregroundBlur_4289_2009"/>
</filter>
<filter id="filter5_f_4289_2009" x="20.4888" y="5.65338" width="7.82411" height="15.3954" filterUnits="userSpaceOnUse" color-interpolation-filters="sRGB">
<feFlood flood-opacity="0" result="BackgroundImageFix"/>
<feBlend mode="normal" in="SourceGraphic" in2="BackgroundImageFix" result="shape"/>
<feGaussianBlur stdDeviation="0.900119" result="effect1_foregroundBlur_4289_2009"/>
</filter>
<filter id="filter6_f_4289_2009" x="20.4888" y="5.65338" width="7.82411" height="15.3954" filterUnits="userSpaceOnUse" color-interpolation-filters="sRGB">
<feFlood flood-opacity="0" result="BackgroundImageFix"/>
<feBlend mode="normal" in="SourceGraphic" in2="BackgroundImageFix" result="shape"/>
<feGaussianBlur stdDeviation="0.900119" result="effect1_foregroundBlur_4289_2009"/>
</filter>
<filter id="filter7_f_4289_2009" x="20.4888" y="5.65338" width="7.82411" height="15.3954" filterUnits="userSpaceOnUse" color-interpolation-filters="sRGB">
<feFlood flood-opacity="0" result="BackgroundImageFix"/>
<feBlend mode="normal" in="SourceGraphic" in2="BackgroundImageFix" result="shape"/>
<feGaussianBlur stdDeviation="0.900119" result="effect1_foregroundBlur_4289_2009"/>
</filter>
<filter id="filter8_f_4289_2009" x="9.2535" y="20.7198" width="4.83284" height="0.510573" filterUnits="userSpaceOnUse" color-interpolation-filters="sRGB">
<feFlood flood-opacity="0" result="BackgroundImageFix"/>
<feBlend mode="normal" in="SourceGraphic" in2="BackgroundImageFix" result="shape"/>
<feGaussianBlur stdDeviation="0.0500066" result="effect1_foregroundBlur_4289_2009"/>
</filter>
<radialGradient id="paint0_radial_4289_2009" cx="0" cy="0" r="1" gradientUnits="userSpaceOnUse" gradientTransform="translate(14.001 19.318) rotate(90) scale(7.84523 11.9365)">
<stop stop-color="#E16F1D"/>
<stop offset="0.434817" stop-color="#CB5615"/>
<stop offset="0.66745" stop-color="#C05211"/>
<stop offset="0.811229" stop-color="#D97315"/>
<stop offset="0.914634" stop-color="#ED9819"/>
</radialGradient>
<linearGradient id="paint1_linear_4289_2009" x1="3.92775" y1="21.4058" x2="23.9782" y2="20.8719" gradientUnits="userSpaceOnUse">
<stop stop-color="#FFA858"/>
<stop offset="0.0388061" stop-color="#ED661A"/>
<stop offset="0.313873" stop-color="#F47A22"/>
<stop offset="0.451487" stop-color="#F69524"/>
<stop offset="0.648311" stop-color="#F3A023"/>
<stop offset="0.816899" stop-color="#E17D21"/>
<stop offset="0.912219" stop-color="#E25A20"/>
<stop offset="0.975568" stop-color="#E39130"/>
<stop offset="1" stop-color="#FFA05B"/>
</linearGradient>
<linearGradient id="paint2_linear_4289_2009" x1="25.4847" y1="10.7276" x2="3.86066" y2="11.3595" gradientUnits="userSpaceOnUse">
<stop offset="0.034513" stop-color="#FFE766"/>
<stop offset="0.161109" stop-color="#FFF066"/>
<stop offset="0.320674" stop-color="#E29015"/>
<stop offset="0.396528" stop-color="#F1C83C"/>
<stop offset="0.509338" stop-color="#FFD363"/>
<stop offset="0.631666" stop-color="#F3D241"/>
<stop offset="0.6875" stop-color="#E4A21C"/>
<stop offset="0.718795" stop-color="#DC8707"/>
<stop offset="0.90049" stop-color="#FFE660"/>
<stop offset="0.986134" stop-color="#FFDC60"/>
</linearGradient>
<linearGradient id="paint3_linear_4289_2009" x1="25.4847" y1="10.7374" x2="3.86059" y2="11.368" gradientUnits="userSpaceOnUse">
<stop offset="0.034513" stop-color="#FFAF66"/>
<stop offset="0.161109" stop-color="#FFC266"/>
<stop offset="0.320674" stop-color="#E25F15"/>
<stop offset="0.396528" stop-color="#F1883C"/>
<stop offset="0.509338" stop-color="#FFB763"/>
<stop offset="0.631666" stop-color="#F3AB41"/>
<stop offset="0.6875" stop-color="#E4A21C"/>
<stop offset="0.718795" stop-color="#DC6D07"/>
<stop offset="0.90049" stop-color="#FFAC60"/>
<stop offset="0.986134" stop-color="#FFAC60"/>
</linearGradient>
<radialGradient id="paint4_radial_4289_2009" cx="0" cy="0" r="1" gradientUnits="userSpaceOnUse" gradientTransform="translate(14.0017 8.30344) rotate(90) scale(19.3361 9.9259)">
<stop stop-color="#FFB84E"/>
<stop offset="0.251515" stop-color="#FEB447" stop-opacity="0.679577"/>
<stop offset="1" stop-color="#FBAD37" stop-opacity="0"/>
</radialGradient>
<radialGradient id="paint5_radial_4289_2009" cx="0" cy="0" r="1" gradientUnits="userSpaceOnUse" gradientTransform="translate(14.8907 15.946) rotate(-179.402) scale(13.1914 35.7523)">
<stop stop-color="#DE8A1B"/>
<stop offset="0.150004" stop-color="#DE8A1B"/>
<stop offset="0.511589" stop-color="#DE8A1B" stop-opacity="0"/>
<stop offset="0.876419" stop-color="#DE8A1B"/>
<stop offset="1" stop-color="#DE8A1B"/>
</radialGradient>
</defs>
</svg>
