<svg width="60" height="60" viewBox="0 0 60 60" fill="none" xmlns="http://www.w3.org/2000/svg">
<mask id="mask0_6534_4387" style="mask-type:alpha" maskUnits="userSpaceOnUse" x="0" y="0" width="60" height="60">
<rect width="60" height="60" fill="#D9D9D9"/>
</mask>
<g mask="url(#mask0_6534_4387)">
<path d="M10.6003 37.9873C4.03003 36.6832 3.80859 30.255 4.51916 27.204L12.4812 27.7056L10.6003 37.9873Z" fill="url(#paint0_linear_6534_4387)"/>
<path fill-rule="evenodd" clip-rule="evenodd" d="M11.5659 32.7102C8.65118 33.4112 6.10629 32.5452 4.37114 31.442C4.25529 30.6889 4.22488 29.9446 4.25242 29.2524L6.78476 28.4371L10.9009 27.6061L12.2051 27.6882L12.3379 28.4903L11.5659 32.7102Z" fill="url(#paint1_linear_6534_4387)"/>
<path d="M1.77108 18.7368L10.703 22.3185L9.60318 31.0362C1.436 30.397 1.7705 24.7776 1.77108 18.7368Z" fill="url(#paint2_linear_6534_4387)"/>
<path fill-rule="evenodd" clip-rule="evenodd" d="M1.77304 18.7375L10.7036 22.3186L10.354 25.0902C5.13226 24.9159 2.49361 20.9616 1.77304 18.7375Z" fill="url(#paint3_linear_6534_4387)"/>
<mask id="mask1_6534_4387" style="mask-type:alpha" maskUnits="userSpaceOnUse" x="4" y="27" width="9" height="11">
<path d="M10.6003 37.9873C4.03003 36.6832 3.80859 30.255 4.51916 27.204L12.4812 27.7056L10.6003 37.9873Z" fill="url(#paint4_linear_6534_4387)"/>
<path fill-rule="evenodd" clip-rule="evenodd" d="M11.5659 32.7102C8.65118 33.4112 6.10629 32.5452 4.37114 31.442C4.25529 30.6889 4.22488 29.9446 4.25242 29.2524L6.78476 28.4371L10.9009 27.6061L12.2051 27.6882L12.3379 28.4903L11.5659 32.7102Z" fill="url(#paint5_linear_6534_4387)"/>
</mask>
<g mask="url(#mask1_6534_4387)">
<g filter="url(#filter0_d_6534_4387)">
<path d="M1.77059 18.7368L10.7025 22.3185L9.60269 31.0362C1.43551 30.397 1.77002 24.7776 1.77059 18.7368Z" fill="url(#paint6_linear_6534_4387)"/>
</g>
</g>
<path d="M49.3997 37.9873C55.97 36.6832 56.1914 30.2551 55.4808 27.204L47.5188 27.7056L49.3997 37.9873Z" fill="url(#paint7_linear_6534_4387)"/>
<path fill-rule="evenodd" clip-rule="evenodd" d="M48.4336 32.7102C51.3483 33.4112 53.8932 32.5452 55.6284 31.442C55.7442 30.6889 55.7746 29.9446 55.7471 29.2524L53.2148 28.4371L49.0987 27.6061L47.7945 27.6883L47.6616 28.4904L48.4336 32.7102Z" fill="url(#paint8_linear_6534_4387)"/>
<path d="M58.2294 18.7368L49.2975 22.3185L50.3973 31.0362C58.5645 30.397 58.23 24.7776 58.2294 18.7368Z" fill="url(#paint9_linear_6534_4387)"/>
<path fill-rule="evenodd" clip-rule="evenodd" d="M58.2268 18.7379L49.2974 22.3186L49.647 25.0902C54.8677 24.9154 57.5061 20.962 58.2268 18.7379Z" fill="url(#paint10_linear_6534_4387)"/>
<mask id="mask2_6534_4387" style="mask-type:alpha" maskUnits="userSpaceOnUse" x="47" y="27" width="9" height="11">
<path d="M49.3997 37.9873C55.97 36.6832 56.1914 30.2551 55.4808 27.204L47.5188 27.7056L49.3997 37.9873Z" fill="url(#paint11_linear_6534_4387)"/>
<path fill-rule="evenodd" clip-rule="evenodd" d="M48.4336 32.7102C51.3483 33.4112 53.8932 32.5452 55.6284 31.442C55.7442 30.6889 55.7746 29.9446 55.7471 29.2524L53.2148 28.4371L49.0987 27.6061L47.7945 27.6883L47.6616 28.4904L48.4336 32.7102Z" fill="url(#paint12_linear_6534_4387)"/>
</mask>
<g mask="url(#mask2_6534_4387)">
<g filter="url(#filter1_d_6534_4387)">
<path d="M58.2299 18.7368L49.298 22.3185L50.3978 31.0362C58.565 30.397 58.2305 24.7776 58.2299 18.7368Z" fill="url(#paint13_linear_6534_4387)"/>
</g>
</g>
<path d="M33.0534 7.83795C31.1681 6.74964 28.8455 6.74964 26.9603 7.83795L12.3353 16.2806C10.4497 17.3691 9.28809 19.3809 9.28809 21.5581V38.4419C9.28809 40.6191 10.4497 42.6309 12.3353 43.7194L26.9603 52.162C28.8455 53.2504 31.1681 53.2504 33.0534 52.162L47.6784 43.7194C49.564 42.6309 50.7256 40.6191 50.7256 38.4419V21.5581C50.7256 19.3809 49.564 17.3691 47.6784 16.2806L33.0534 7.83795Z" fill="url(#paint14_linear_6534_4387)" stroke="url(#paint15_linear_6534_4387)" stroke-width="0.1875"/>
<path fill-rule="evenodd" clip-rule="evenodd" d="M30.0292 52.8843C28.986 52.8882 27.9419 52.6203 27.0071 52.0807L12.3821 43.638C10.5256 42.5663 9.38184 40.5854 9.38184 38.4417V21.5579C9.38184 20.6232 9.59924 19.7196 9.99835 18.9087L30.0292 30.4891V52.8843Z" fill="url(#paint16_linear_6534_4387)"/>
<path fill-rule="evenodd" clip-rule="evenodd" d="M49.7715 18.4621C50.3252 19.3814 50.632 20.4479 50.632 21.5582V38.442C50.632 40.5858 49.4883 42.5666 47.6317 43.6384L33.0067 52.081C32.0377 52.6404 30.9513 52.9077 29.8701 52.8831V30.2286L49.7715 18.4621Z" fill="url(#paint17_linear_6534_4387)"/>
<mask id="mask3_6534_4387" style="mask-type:alpha" maskUnits="userSpaceOnUse" x="1" y="18" width="58" height="20">
<path d="M10.6003 37.9873C4.03003 36.6832 3.80859 30.255 4.51916 27.204L12.4812 27.7056L10.6003 37.9873Z" fill="url(#paint18_linear_6534_4387)"/>
<path fill-rule="evenodd" clip-rule="evenodd" d="M11.5659 32.7102C8.65118 33.4112 6.10629 32.5452 4.37114 31.442C4.25529 30.6889 4.22488 29.9446 4.25242 29.2524L6.78476 28.4371L10.9009 27.6061L12.2051 27.6882L12.3379 28.4903L11.5659 32.7102Z" fill="url(#paint19_linear_6534_4387)"/>
<path d="M1.77108 18.7368L10.703 22.3185L9.60318 31.0362C1.436 30.397 1.7705 24.7776 1.77108 18.7368Z" fill="url(#paint20_linear_6534_4387)"/>
<path fill-rule="evenodd" clip-rule="evenodd" d="M1.77304 18.7375L10.7036 22.3186L10.354 25.0902C5.13226 24.9159 2.49361 20.9616 1.77304 18.7375Z" fill="url(#paint21_linear_6534_4387)"/>
<mask id="mask4_6534_4387" style="mask-type:alpha" maskUnits="userSpaceOnUse" x="4" y="27" width="9" height="11">
<path d="M10.6003 37.9873C4.03003 36.6832 3.80859 30.255 4.51916 27.204L12.4812 27.7056L10.6003 37.9873Z" fill="url(#paint22_linear_6534_4387)"/>
<path fill-rule="evenodd" clip-rule="evenodd" d="M11.5659 32.7102C8.65118 33.4112 6.10629 32.5452 4.37114 31.442C4.25529 30.6889 4.22488 29.9446 4.25242 29.2524L6.78476 28.4371L10.9009 27.6061L12.2051 27.6882L12.3379 28.4903L11.5659 32.7102Z" fill="url(#paint23_linear_6534_4387)"/>
</mask>
<g mask="url(#mask4_6534_4387)">
<path d="M1.77059 18.7368L10.7025 22.3185L9.60269 31.0362C1.43551 30.397 1.77002 24.7776 1.77059 18.7368Z" fill="url(#paint24_linear_6534_4387)"/>
</g>
<path d="M49.3997 37.9873C55.97 36.6832 56.1914 30.2551 55.4808 27.204L47.5188 27.7056L49.3997 37.9873Z" fill="url(#paint25_linear_6534_4387)"/>
<path fill-rule="evenodd" clip-rule="evenodd" d="M48.4336 32.7102C51.3483 33.4112 53.8932 32.5452 55.6284 31.442C55.7442 30.6889 55.7746 29.9446 55.7471 29.2524L53.2148 28.4371L49.0987 27.6061L47.7945 27.6883L47.6616 28.4904L48.4336 32.7102Z" fill="url(#paint26_linear_6534_4387)"/>
<path d="M58.2294 18.7368L49.2975 22.3185L50.3973 31.0362C58.5645 30.397 58.23 24.7776 58.2294 18.7368Z" fill="url(#paint27_linear_6534_4387)"/>
<path fill-rule="evenodd" clip-rule="evenodd" d="M58.2268 18.7379L49.2974 22.3186L49.647 25.0902C54.8677 24.9154 57.5061 20.962 58.2268 18.7379Z" fill="url(#paint28_linear_6534_4387)"/>
<mask id="mask5_6534_4387" style="mask-type:alpha" maskUnits="userSpaceOnUse" x="47" y="27" width="9" height="11">
<path d="M49.3997 37.9873C55.97 36.6832 56.1914 30.2551 55.4808 27.204L47.5188 27.7056L49.3997 37.9873Z" fill="url(#paint29_linear_6534_4387)"/>
<path fill-rule="evenodd" clip-rule="evenodd" d="M48.4336 32.7102C51.3483 33.4112 53.8932 32.5452 55.6284 31.442C55.7442 30.6889 55.7746 29.9446 55.7471 29.2524L53.2148 28.4371L49.0987 27.6061L47.7945 27.6883L47.6616 28.4904L48.4336 32.7102Z" fill="url(#paint30_linear_6534_4387)"/>
</mask>
<g mask="url(#mask5_6534_4387)">
<path d="M58.2299 18.7368L49.298 22.3185L50.3978 31.0362C58.565 30.397 58.2305 24.7776 58.2299 18.7368Z" fill="url(#paint31_linear_6534_4387)"/>
</g>
</mask>
<g mask="url(#mask3_6534_4387)">
<g filter="url(#filter2_d_6534_4387)">
<path d="M33.0534 7.83794C31.1681 6.74964 28.8455 6.74964 26.9603 7.83794L12.3353 16.2806C10.4497 17.3691 9.28809 19.3809 9.28809 21.5581V38.4419C9.28809 40.6191 10.4497 42.6309 12.3353 43.7194L26.9603 52.162C28.8455 53.2503 31.1681 53.2503 33.0534 52.162L47.6784 43.7194C49.564 42.6309 50.7256 40.6191 50.7256 38.4419V21.5581C50.7256 19.3809 49.564 17.3691 47.6784 16.2806L33.0534 7.83794Z" fill="url(#paint32_linear_6534_4387)" stroke="url(#paint33_linear_6534_4387)" stroke-width="0.1875"/>
<path fill-rule="evenodd" clip-rule="evenodd" d="M30.0292 52.8843C28.986 52.8882 27.9419 52.6203 27.0071 52.0806L12.3821 43.638C10.5256 42.5663 9.38184 40.5854 9.38184 38.4417V21.5579C9.38184 20.6232 9.59924 19.7196 9.99835 18.9087L30.0292 30.4891V52.8843Z" fill="url(#paint34_linear_6534_4387)"/>
<path fill-rule="evenodd" clip-rule="evenodd" d="M49.7715 18.4621C50.3252 19.3814 50.632 20.4479 50.632 21.5582V38.442C50.632 40.5857 49.4883 42.5666 47.6317 43.6384L33.0067 52.081C32.0377 52.6404 30.9513 52.9077 29.8701 52.8831V30.2286L49.7715 18.4621Z" fill="url(#paint35_linear_6534_4387)"/>
</g>
</g>
<g filter="url(#filter3_di_6534_4387)">
<circle cx="30.0068" cy="30" r="18.9375" fill="url(#paint36_linear_6534_4387)"/>
</g>
<g filter="url(#filter4_i_6534_4387)">
<circle cx="30.0073" cy="30" r="16.3125" fill="url(#paint37_linear_6534_4387)"/>
</g>
<g filter="url(#filter5_i_6534_4387)">
<circle cx="30.0068" cy="30" r="14.8125" fill="url(#paint38_linear_6534_4387)"/>
</g>
<circle cx="30.0066" cy="30" r="11.7927" fill="url(#paint39_linear_6534_4387)"/>
<g filter="url(#filter6_d_6534_4387)">
<path fill-rule="evenodd" clip-rule="evenodd" d="M30.0148 25.1151L30.0114 25.1163L22.534 22.5243L30.0088 29.9992L30.0148 25.1151Z" fill="#D9D9D9"/>
<path fill-rule="evenodd" clip-rule="evenodd" d="M25.1245 30.0049L25.1255 30.0021L22.5335 22.5246L30.0079 29.999L25.1245 30.0049Z" fill="#D9D9D9"/>
<path fill-rule="evenodd" clip-rule="evenodd" d="M30.0026 25.1162L30.0045 25.1169L37.483 22.5246L37.4829 22.5248L30.0085 29.9992L30.0026 25.1162Z" fill="#D9D9D9"/>
<path fill-rule="evenodd" clip-rule="evenodd" d="M25.1235 29.9953L25.1242 29.9973L22.5319 37.4758L22.5325 37.4756L30.0069 30.0012L25.1235 29.9953Z" fill="#D9D9D9"/>
<path fill-rule="evenodd" clip-rule="evenodd" d="M30.0139 25.1158L30.0123 25.1164L22.5338 22.5241L22.5343 22.5255L30.008 29.9992L30.0139 25.1158Z" fill="url(#paint40_linear_6534_4387)"/>
<path fill-rule="evenodd" clip-rule="evenodd" d="M25.1231 30.0068L25.124 30.0042L22.5317 22.5257L22.5324 22.526L30.0073 30.0008L25.1231 30.0068Z" fill="url(#paint41_linear_6534_4387)"/>
<path fill-rule="evenodd" clip-rule="evenodd" d="M34.8914 29.9933L34.8905 29.9959L37.4826 37.4738L30.008 29.9993L34.8914 29.9933Z" fill="url(#paint42_linear_6534_4387)"/>
<path fill-rule="evenodd" clip-rule="evenodd" d="M30.0012 34.8839L30.0027 34.8833L37.4812 37.4756L37.4811 37.4755L30.0072 30.0015L30.0012 34.8839Z" fill="url(#paint43_linear_6534_4387)"/>
<path fill-rule="evenodd" clip-rule="evenodd" d="M30.0026 25.1162L30.0045 25.1169L37.483 22.5246L37.4829 22.5248L30.0085 29.9992L30.0026 25.1162Z" fill="url(#paint44_linear_6534_4387)"/>
<path fill-rule="evenodd" clip-rule="evenodd" d="M25.1235 29.9953L25.1242 29.9973L22.5319 37.4758L22.5325 37.4756L30.0069 30.0012L25.1235 29.9953Z" fill="url(#paint45_linear_6534_4387)"/>
<path fill-rule="evenodd" clip-rule="evenodd" d="M34.8908 30.0058L34.89 30.0035L37.4817 22.5267L30.0085 29.9999L34.8908 30.0058Z" fill="url(#paint46_linear_6534_4387)"/>
<path fill-rule="evenodd" clip-rule="evenodd" d="M30.0127 34.8848L30.0099 34.8838L22.5324 37.4758L30.0068 30.0014L30.0127 34.8848Z" fill="url(#paint47_linear_6534_4387)"/>
</g>
<g filter="url(#filter7_d_6534_4387)">
<path fill-rule="evenodd" clip-rule="evenodd" d="M25.8387 25.82L25.8374 25.8226L17.2324 29.9976L17.2332 29.998H30.0066L25.8387 25.82Z" fill="#D9D9D9"/>
<path fill-rule="evenodd" clip-rule="evenodd" d="M25.8395 34.176L25.8384 34.1738L17.2334 29.9988L17.234 29.9985H30.0068L25.8395 34.176Z" fill="#D9D9D9"/>
<path fill-rule="evenodd" clip-rule="evenodd" d="M25.8301 25.8303L25.8324 25.8292L30.007 17.225L30.007 29.9971L25.8301 25.8303Z" fill="#D9D9D9"/>
<path fill-rule="evenodd" clip-rule="evenodd" d="M25.8306 34.1696L25.8323 34.1704L30.0071 42.775L30.0071 30.0032L25.8306 34.1696Z" fill="#D9D9D9"/>
<path fill-rule="evenodd" clip-rule="evenodd" d="M25.8397 25.8204L25.8384 25.823L17.2334 29.998L17.2343 29.9985H30.0076L25.8397 25.8204Z" fill="url(#paint48_linear_6534_4387)"/>
<path fill-rule="evenodd" clip-rule="evenodd" d="M25.8397 34.1794L25.8384 34.1768L17.2334 30.0018L17.2343 30.0014H30.0076L25.8397 34.1794Z" fill="url(#paint49_linear_6534_4387)"/>
<path fill-rule="evenodd" clip-rule="evenodd" d="M34.175 25.8206L34.1762 25.8229L42.7808 29.9977H30.008L34.175 25.8206Z" fill="url(#paint50_linear_6534_4387)"/>
<path fill-rule="evenodd" clip-rule="evenodd" d="M34.175 34.1793L34.1762 34.1769L42.7808 30.0021H30.008L34.175 34.1793Z" fill="url(#paint51_linear_6534_4387)"/>
<path fill-rule="evenodd" clip-rule="evenodd" d="M25.8301 25.8303L25.8324 25.8292L30.007 17.225L30.007 29.9971L25.8301 25.8303Z" fill="url(#paint52_linear_6534_4387)"/>
<path fill-rule="evenodd" clip-rule="evenodd" d="M25.8306 34.1696L25.8323 34.1704L30.0071 42.775L30.0071 30.0032L25.8306 34.1696Z" fill="url(#paint53_linear_6534_4387)"/>
<path fill-rule="evenodd" clip-rule="evenodd" d="M34.1846 25.8309L34.1818 25.8296L30.0069 17.2249L30.0069 29.9985L34.1846 25.8309Z" fill="url(#paint54_linear_6534_4387)"/>
<path fill-rule="evenodd" clip-rule="evenodd" d="M34.1851 34.169L34.1824 34.1703L30.0075 42.7749L30.0075 30.0016L34.1851 34.169Z" fill="url(#paint55_linear_6534_4387)"/>
</g>
<path fill-rule="evenodd" clip-rule="evenodd" d="M30.0066 29.9981L30.0061 29.9976L30.0061 22.7307L30.0059 22.7303L27.6317 27.6237L22.7379 29.9981H30.0066ZM30.0061 30.0007L30.0065 30.0004V30.0011L30.2523 30.2463L30.0068 30.0002H37.2752L37.2758 30.0005L32.3794 32.3761L30.0065 37.2668V37.2673L30.0059 37.2685L30.0058 37.2683L30.0055 37.2689L30.0051 37.2681V37.2668L27.6314 32.3744L22.7373 29.9999L22.7387 29.9992H30.005L30.0041 30.0002H30.0051V29.9997L30.0056 30.0002H30.0066L30.0061 30.0007L30.0061 30.0007ZM30.0051 30.0018V30.0016L29.9792 30.0276L30.0051 30.0018ZM30.0069 22.7309L30.0069 29.998L30.0063 29.9985H30.0069V29.9992L30.0075 29.9985H37.2751L32.3809 27.6239L30.0069 22.7309Z" fill="url(#paint56_linear_6534_4387)"/>
<path d="M30.0061 29.9976H29.9123V30.0364L29.9397 30.0638L30.0061 29.9976ZM30.0066 29.9981V30.0918H30.2326L30.0729 29.9319L30.0066 29.9981ZM30.0061 22.7307L30.0998 22.7307V22.709L30.0903 22.6895L30.0061 22.7307ZM30.0059 22.7303L30.0901 22.6891L30.0055 22.5163L29.9215 22.6894L30.0059 22.7303ZM27.6317 27.6237L27.6726 27.708L27.7019 27.6939L27.716 27.6646L27.6317 27.6237ZM22.7379 29.9981L22.697 29.9138L22.7379 30.0918V29.9981ZM30.0065 30.0004H30.1003V29.7744L29.9403 29.934L30.0065 30.0004ZM30.0061 30.0007L29.9399 30.067L30.0061 30.1332L30.0724 30.0671L30.0061 30.0007ZM30.0065 30.0011H29.9128V30.04L29.9403 30.0675L30.0065 30.0011ZM30.2523 30.2463L30.1861 30.3127L30.3187 30.1801L30.2523 30.2463ZM30.0068 30.0002V29.9065H29.7809L29.9404 30.0664L30.0068 30.0002ZM37.2752 30.0002L37.3162 29.9159L37.2968 29.9065H37.2752V30.0002ZM37.2758 30.0005L37.3167 30.0848L37.4905 30.0005L37.3167 29.9161L37.2758 30.0005ZM32.3794 32.3761L32.3385 32.2917L32.3093 32.3059L32.2951 32.3352L32.3794 32.3761ZM30.0065 37.2668L29.9222 37.2259L29.9128 37.2453V37.2668H30.0065ZM30.0065 37.2673L30.0908 37.3083L30.1003 37.2889V37.2673H30.0065ZM30.0059 37.2685L29.9216 37.3095L30.006 37.4829L30.0903 37.3095L30.0059 37.2685ZM30.0058 37.2683L30.0901 37.2273L30.0057 37.0537L29.9215 37.2273L30.0058 37.2683ZM30.0055 37.2689L29.9212 37.3099L30.0055 37.4836L30.0898 37.3099L30.0055 37.2689ZM30.0051 37.2681H29.9114V37.2897L29.9208 37.309L30.0051 37.2681ZM30.0051 37.2668H30.0989V37.2453L30.0895 37.2259L30.0051 37.2668ZM27.6314 32.3744L27.7157 32.3335L27.7016 32.3043L27.6723 32.2901L27.6314 32.3744ZM22.7373 29.9999L22.6964 29.9155L22.5225 29.9999L22.6964 30.0842L22.7373 29.9999ZM22.7387 29.9992V29.9055H22.7172L22.6978 29.9149L22.7387 29.9992ZM30.005 29.9992L30.0714 30.0654L30.231 29.9055H30.005V29.9992ZM30.0041 30.0002L29.9377 29.934L29.7781 30.0939H30.0041V30.0002ZM30.0051 30.0002V30.0939H30.0989V30.0002H30.0051ZM30.0051 29.9997L30.0713 29.9333L29.9114 29.7737V29.9997H30.0051ZM30.0056 30.0002L29.9394 30.0665L29.9668 30.0939H30.0056V30.0002ZM30.0066 30.0002L30.073 30.0664L30.2325 29.9064H30.0066V30.0002ZM30.0061 30.0007L29.9397 29.9345L29.8736 30.0008L29.9398 30.067L30.0061 30.0007ZM30.0051 30.0018L30.0713 30.0681L30.0989 30.0407V30.0018H30.0051ZM30.0051 30.0016H30.0989V29.7749L29.9387 29.9354L30.0051 30.0016ZM29.9792 30.0276L29.9128 29.9614L30.0454 30.094L29.9792 30.0276ZM30.0069 29.998L30.0732 30.0642L30.1006 30.0368V29.998H30.0069ZM30.0069 22.7309L30.0912 22.69L29.9131 22.7309L30.0069 22.7309ZM30.0063 29.9985L29.9399 29.9323L29.7804 30.0923H30.0063V29.9985ZM30.0069 29.9985H30.1006V29.9048H30.0069V29.9985ZM30.0069 29.9992H29.9131V30.2251L30.0731 30.0655L30.0069 29.9992ZM30.0075 29.9985V29.9048H29.9687L29.9413 29.9322L30.0075 29.9985ZM37.2751 29.9985V30.0923L37.3161 29.9142L37.2751 29.9985ZM32.3809 27.6239L32.2965 27.6648L32.3107 27.6941L32.34 27.7083L32.3809 27.6239ZM29.9397 30.0638L29.9402 30.0643L30.0729 29.9319L30.0724 29.9314L29.9397 30.0638ZM29.9123 22.7307L29.9123 29.9976H30.0998L30.0998 22.7307L29.9123 22.7307ZM29.9217 22.7715L29.9219 22.7719L30.0903 22.6895L30.0901 22.6891L29.9217 22.7715ZM27.716 27.6646L30.0902 22.7713L29.9215 22.6894L27.5474 27.5828L27.716 27.6646ZM22.7788 30.0824L27.6726 27.708L27.5908 27.5394L22.697 29.9138L22.7788 30.0824ZM30.0066 29.9043H22.7379V30.0918H30.0066V29.9043ZM29.9403 29.934L29.9399 29.9344L30.0724 30.0671L30.0727 30.0667L29.9403 29.934ZM30.1003 30.0011V30.0004H29.9128V30.0011H30.1003ZM29.9403 30.0675L30.1861 30.3127L30.3185 30.1799L30.0727 29.9347L29.9403 30.0675ZM29.9404 30.0664L30.186 30.3125L30.3187 30.1801L30.0732 29.934L29.9404 30.0664ZM37.2752 29.9065H30.0068V30.094H37.2752V29.9065ZM37.3167 29.9161L37.3162 29.9159L37.2343 30.0845L37.2348 30.0848L37.3167 29.9161ZM32.4204 32.4604L37.3167 30.0848L37.2348 29.9161L32.3385 32.2917L32.4204 32.4604ZM32.2951 32.3352L29.9222 37.2259L30.0909 37.3078L32.4638 32.417L32.2951 32.3352ZM30.1003 37.2673V37.2668H29.9128V37.2673H30.1003ZM30.0903 37.3095L30.0908 37.3083L29.9222 37.2263L29.9216 37.2275L30.0903 37.3095ZM29.9215 37.3093L29.9216 37.3095L30.0902 37.2275L30.0901 37.2273L29.9215 37.3093ZM29.9215 37.2273L29.9212 37.228L30.0898 37.3099L30.0902 37.3092L29.9215 37.2273ZM30.0898 37.228L30.0894 37.2272L29.9208 37.309L29.9212 37.3099L30.0898 37.228ZM30.0989 37.2681V37.2668H29.9114V37.2681H30.0989ZM27.547 32.4153L29.9208 37.3077L30.0895 37.2259L27.7157 32.3335L27.547 32.4153ZM22.6964 30.0842L27.5905 32.4588L27.6723 32.2901L22.7782 29.9155L22.6964 30.0842ZM22.6978 29.9149L22.6964 29.9155L22.7782 30.0842L22.7796 30.0835L22.6978 29.9149ZM30.005 29.9055H22.7387V30.093H30.005V29.9055ZM30.0705 30.0664L30.0714 30.0654L29.9387 29.933L29.9377 29.934L30.0705 30.0664ZM30.0051 29.9064H30.0041V30.0939H30.0051V29.9064ZM30.0989 30.0002V29.9997H29.9114V30.0002H30.0989ZM29.9389 30.0661L29.9394 30.0665L30.0718 29.9338L30.0713 29.9333L29.9389 30.0661ZM30.0066 29.9064H30.0056V30.0939H30.0066V29.9064ZM30.0725 30.0669L30.073 30.0664L29.9402 29.934L29.9397 29.9345L30.0725 30.0669ZM29.9398 30.067L29.9399 30.067L30.0724 29.9344L30.0724 29.9344L29.9398 30.067ZM30.0989 30.0018V30.0016H29.9114V30.0018H30.0989ZM30.0456 30.0938L30.0715 30.0679L29.9387 29.9354L29.9128 29.9614L30.0456 30.0938ZM29.9389 29.9354L29.913 29.9613L30.0454 30.094L30.0713 30.0681L29.9389 29.9354ZM30.1006 29.998L30.1006 22.7309L29.9131 22.7309L29.9131 29.998H30.1006ZM30.0727 30.0647L30.0732 30.0642L29.9405 29.9318L29.9399 29.9323L30.0727 30.0647ZM30.0069 29.9048H30.0063V30.0923H30.0069V29.9048ZM30.1006 29.9992V29.9985H29.9131V29.9992H30.1006ZM29.9413 29.9322L29.9407 29.9328L30.0731 30.0655L30.0737 30.0649L29.9413 29.9322ZM37.2751 29.9048H30.0075V30.0923H37.2751V29.9048ZM32.34 27.7083L37.2342 30.0829L37.3161 29.9142L32.4218 27.5396L32.34 27.7083ZM29.9225 22.7718L32.2965 27.6648L32.4652 27.583L30.0912 22.69L29.9225 22.7718Z" fill="#123478"/>
<path fill-rule="evenodd" clip-rule="evenodd" d="M27.6355 27.6204L27.6344 27.6228L22.7388 29.9981H30.0074L27.6355 27.6204Z" fill="#D9D9D9"/>
<path fill-rule="evenodd" clip-rule="evenodd" d="M27.6352 32.3761L27.6352 32.3759L22.7388 30.0003L22.7404 29.9995H30.006L27.6352 32.3761Z" fill="#D9D9D9"/>
<path fill-rule="evenodd" clip-rule="evenodd" d="M27.6299 27.6271L27.6307 27.6267L30.0064 22.7303L30.0066 22.7307L30.0066 29.998L27.6299 27.6271Z" fill="#D9D9D9"/>
<path fill-rule="evenodd" clip-rule="evenodd" d="M27.6294 32.3713L27.6306 32.3719L30.0057 37.2673L30.0057 30.0007L27.6294 32.3713Z" fill="#D9D9D9"/>
<path fill-rule="evenodd" clip-rule="evenodd" d="M27.636 27.6217L27.6355 27.6229L22.7397 29.9982H30.0068L27.636 27.6217Z" fill="url(#paint57_linear_6534_4387)"/>
<path fill-rule="evenodd" clip-rule="evenodd" d="M27.6357 32.3779L27.6347 32.3758L22.7383 30.0001L22.7384 30.0001H30.0077L27.6357 32.3779Z" fill="url(#paint58_linear_6534_4387)"/>
<path fill-rule="evenodd" clip-rule="evenodd" d="M32.3781 27.6208L32.3793 27.6233L37.2749 29.9986H30.0061L32.3781 27.6208Z" fill="url(#paint59_linear_6534_4387)"/>
<path fill-rule="evenodd" clip-rule="evenodd" d="M32.3797 32.3778L32.3805 32.3762L37.2769 30.0005L37.2763 30.0003H30.0079L32.3797 32.3778Z" fill="url(#paint60_linear_6534_4387)"/>
<path fill-rule="evenodd" clip-rule="evenodd" d="M27.6299 27.6271L27.6307 27.6267L30.0064 22.7303L30.0066 22.7307L30.0066 29.998L27.6299 27.6271Z" fill="url(#paint61_linear_6534_4387)"/>
<path fill-rule="evenodd" clip-rule="evenodd" d="M27.6294 32.3713L27.6306 32.3719L30.0057 37.2673L30.0057 30.0007L27.6294 32.3713Z" fill="url(#paint62_linear_6534_4387)"/>
<path fill-rule="evenodd" clip-rule="evenodd" d="M32.3843 27.6278L32.3825 27.6269L30.0071 22.7312L30.0071 29.9992L32.3843 27.6278Z" fill="url(#paint63_linear_6534_4387)"/>
<path fill-rule="evenodd" clip-rule="evenodd" d="M32.3843 32.3719L32.3829 32.3725L30.0072 37.2689L30.0068 37.2681L30.0068 30.0001L32.3843 32.3719Z" fill="url(#paint64_linear_6534_4387)"/>
</g>
<defs>
<filter id="filter0_d_6534_4387" x="0.268555" y="18.7368" width="11.9341" height="15.2994" filterUnits="userSpaceOnUse" color-interpolation-filters="sRGB">
<feFlood flood-opacity="0" result="BackgroundImageFix"/>
<feColorMatrix in="SourceAlpha" type="matrix" values="0 0 0 0 0 0 0 0 0 0 0 0 0 0 0 0 0 0 127 0" result="hardAlpha"/>
<feOffset dy="1.5"/>
<feGaussianBlur stdDeviation="0.75"/>
<feComposite in2="hardAlpha" operator="out"/>
<feColorMatrix type="matrix" values="0 0 0 0 0 0 0 0 0 0 0 0 0 0 0 0 0 0 0.25 0"/>
<feBlend mode="normal" in2="BackgroundImageFix" result="effect1_dropShadow_6534_4387"/>
<feBlend mode="normal" in="SourceGraphic" in2="effect1_dropShadow_6534_4387" result="shape"/>
</filter>
<filter id="filter1_d_6534_4387" x="47.7974" y="18.7368" width="11.9346" height="15.2994" filterUnits="userSpaceOnUse" color-interpolation-filters="sRGB">
<feFlood flood-opacity="0" result="BackgroundImageFix"/>
<feColorMatrix in="SourceAlpha" type="matrix" values="0 0 0 0 0 0 0 0 0 0 0 0 0 0 0 0 0 0 127 0" result="hardAlpha"/>
<feOffset dy="1.5"/>
<feGaussianBlur stdDeviation="0.75"/>
<feComposite in2="hardAlpha" operator="out"/>
<feColorMatrix type="matrix" values="0 0 0 0 0 0 0 0 0 0 0 0 0 0 0 0 0 0 0.25 0"/>
<feBlend mode="normal" in2="BackgroundImageFix" result="effect1_dropShadow_6534_4387"/>
<feBlend mode="normal" in="SourceGraphic" in2="effect1_dropShadow_6534_4387" result="shape"/>
</filter>
<filter id="filter2_d_6534_4387" x="7.69434" y="6.92796" width="44.625" height="49.1441" filterUnits="userSpaceOnUse" color-interpolation-filters="sRGB">
<feFlood flood-opacity="0" result="BackgroundImageFix"/>
<feColorMatrix in="SourceAlpha" type="matrix" values="0 0 0 0 0 0 0 0 0 0 0 0 0 0 0 0 0 0 127 0" result="hardAlpha"/>
<feOffset dy="1.5"/>
<feGaussianBlur stdDeviation="0.75"/>
<feComposite in2="hardAlpha" operator="out"/>
<feColorMatrix type="matrix" values="0 0 0 0 0 0 0 0 0 0 0 0 0 0 0 0 0 0 0.25 0"/>
<feBlend mode="normal" in2="BackgroundImageFix" result="effect1_dropShadow_6534_4387"/>
<feBlend mode="normal" in="SourceGraphic" in2="effect1_dropShadow_6534_4387" result="shape"/>
</filter>
<filter id="filter3_di_6534_4387" x="8.81934" y="8.8125" width="42.375" height="42.375" filterUnits="userSpaceOnUse" color-interpolation-filters="sRGB">
<feFlood flood-opacity="0" result="BackgroundImageFix"/>
<feColorMatrix in="SourceAlpha" type="matrix" values="0 0 0 0 0 0 0 0 0 0 0 0 0 0 0 0 0 0 127 0" result="hardAlpha"/>
<feOffset/>
<feGaussianBlur stdDeviation="1.125"/>
<feComposite in2="hardAlpha" operator="out"/>
<feColorMatrix type="matrix" values="0 0 0 0 0.503111 0 0 0 0 0.671107 0 0 0 0 0.78125 0 0 0 1 0"/>
<feBlend mode="multiply" in2="BackgroundImageFix" result="effect1_dropShadow_6534_4387"/>
<feBlend mode="normal" in="SourceGraphic" in2="effect1_dropShadow_6534_4387" result="shape"/>
<feColorMatrix in="SourceAlpha" type="matrix" values="0 0 0 0 0 0 0 0 0 0 0 0 0 0 0 0 0 0 127 0" result="hardAlpha"/>
<feOffset dy="-0.1125"/>
<feComposite in2="hardAlpha" operator="arithmetic" k2="-1" k3="1"/>
<feColorMatrix type="matrix" values="0 0 0 0 0.724846 0 0 0 0 0.790741 0 0 0 0 0.889583 0 0 0 1 0"/>
<feBlend mode="normal" in2="shape" result="effect2_innerShadow_6534_4387"/>
</filter>
<filter id="filter4_i_6534_4387" x="13.6948" y="13.6875" width="32.625" height="32.625" filterUnits="userSpaceOnUse" color-interpolation-filters="sRGB">
<feFlood flood-opacity="0" result="BackgroundImageFix"/>
<feBlend mode="normal" in="SourceGraphic" in2="BackgroundImageFix" result="shape"/>
<feColorMatrix in="SourceAlpha" type="matrix" values="0 0 0 0 0 0 0 0 0 0 0 0 0 0 0 0 0 0 127 0" result="hardAlpha"/>
<feOffset dx="-0.075" dy="0.1125"/>
<feComposite in2="hardAlpha" operator="arithmetic" k2="-1" k3="1"/>
<feColorMatrix type="matrix" values="0 0 0 0 1 0 0 0 0 1 0 0 0 0 1 0 0 0 0.95 0"/>
<feBlend mode="normal" in2="shape" result="effect1_innerShadow_6534_4387"/>
</filter>
<filter id="filter5_i_6534_4387" x="15.1943" y="15.1875" width="29.625" height="29.625" filterUnits="userSpaceOnUse" color-interpolation-filters="sRGB">
<feFlood flood-opacity="0" result="BackgroundImageFix"/>
<feBlend mode="normal" in="SourceGraphic" in2="BackgroundImageFix" result="shape"/>
<feColorMatrix in="SourceAlpha" type="matrix" values="0 0 0 0 0 0 0 0 0 0 0 0 0 0 0 0 0 0 127 0" result="hardAlpha"/>
<feOffset/>
<feGaussianBlur stdDeviation="0.75"/>
<feComposite in2="hardAlpha" operator="arithmetic" k2="-1" k3="1"/>
<feColorMatrix type="matrix" values="0 0 0 0 0 0 0 0 0 0 0 0 0 0 0 0 0 0 0.25 0"/>
<feBlend mode="normal" in2="shape" result="effect1_innerShadow_6534_4387"/>
</filter>
<filter id="filter6_d_6534_4387" x="21.4067" y="21.7741" width="17.2012" height="17.2017" filterUnits="userSpaceOnUse" color-interpolation-filters="sRGB">
<feFlood flood-opacity="0" result="BackgroundImageFix"/>
<feColorMatrix in="SourceAlpha" type="matrix" values="0 0 0 0 0 0 0 0 0 0 0 0 0 0 0 0 0 0 127 0" result="hardAlpha"/>
<feOffset dy="0.375"/>
<feGaussianBlur stdDeviation="0.5625"/>
<feComposite in2="hardAlpha" operator="out"/>
<feColorMatrix type="matrix" values="0 0 0 0 0.670294 0 0 0 0 0.708808 0 0 0 0 0.760417 0 0 0 1 0"/>
<feBlend mode="multiply" in2="BackgroundImageFix" result="effect1_dropShadow_6534_4387"/>
<feBlend mode="normal" in="SourceGraphic" in2="effect1_dropShadow_6534_4387" result="shape"/>
</filter>
<filter id="filter7_d_6534_4387" x="14.9824" y="15.3499" width="30.0483" height="30.0501" filterUnits="userSpaceOnUse" color-interpolation-filters="sRGB">
<feFlood flood-opacity="0" result="BackgroundImageFix"/>
<feColorMatrix in="SourceAlpha" type="matrix" values="0 0 0 0 0 0 0 0 0 0 0 0 0 0 0 0 0 0 127 0" result="hardAlpha"/>
<feOffset dy="0.375"/>
<feGaussianBlur stdDeviation="1.125"/>
<feComposite in2="hardAlpha" operator="out"/>
<feColorMatrix type="matrix" values="0 0 0 0 0.500545 0 0 0 0 0.63983 0 0 0 0 0.797917 0 0 0 1 0"/>
<feBlend mode="multiply" in2="BackgroundImageFix" result="effect1_dropShadow_6534_4387"/>
<feBlend mode="normal" in="SourceGraphic" in2="effect1_dropShadow_6534_4387" result="shape"/>
</filter>
<linearGradient id="paint0_linear_6534_4387" x1="2.10544" y1="35.47" x2="13.3419" y2="32.2016" gradientUnits="userSpaceOnUse">
<stop stop-color="#E7EFFF"/>
<stop offset="1" stop-color="#5F799B"/>
</linearGradient>
<linearGradient id="paint1_linear_6534_4387" x1="4.75427" y1="29.068" x2="9.80839" y2="31.6716" gradientUnits="userSpaceOnUse">
<stop stop-color="#6C84A8"/>
<stop offset="1" stop-color="#7B91AF" stop-opacity="0"/>
</linearGradient>
<linearGradient id="paint2_linear_6534_4387" x1="3.42693" y1="28.2481" x2="11.7607" y2="24.8864" gradientUnits="userSpaceOnUse">
<stop stop-color="#E7EFFF"/>
<stop offset="1" stop-color="#5F799B"/>
</linearGradient>
<linearGradient id="paint3_linear_6534_4387" x1="4.23012" y1="20.1016" x2="10.1348" y2="25.0903" gradientUnits="userSpaceOnUse">
<stop stop-color="#7E92B1"/>
<stop offset="1" stop-color="#7B91AF"/>
</linearGradient>
<linearGradient id="paint4_linear_6534_4387" x1="2.10544" y1="35.47" x2="13.3419" y2="32.2016" gradientUnits="userSpaceOnUse">
<stop stop-color="#E7EFFF"/>
<stop offset="1" stop-color="#5F799B"/>
</linearGradient>
<linearGradient id="paint5_linear_6534_4387" x1="4.75427" y1="29.068" x2="9.80839" y2="31.6716" gradientUnits="userSpaceOnUse">
<stop stop-color="#6C84A8"/>
<stop offset="1" stop-color="#7B91AF" stop-opacity="0"/>
</linearGradient>
<linearGradient id="paint6_linear_6534_4387" x1="3.42644" y1="28.2481" x2="11.7602" y2="24.8864" gradientUnits="userSpaceOnUse">
<stop stop-color="#E7EFFF"/>
<stop offset="1" stop-color="#5F799B"/>
</linearGradient>
<linearGradient id="paint7_linear_6534_4387" x1="57.8946" y1="35.47" x2="46.6581" y2="32.2016" gradientUnits="userSpaceOnUse">
<stop stop-color="#E7EFFF"/>
<stop offset="1" stop-color="#5F799B"/>
</linearGradient>
<linearGradient id="paint8_linear_6534_4387" x1="55.2452" y1="29.0681" x2="50.1911" y2="31.6717" gradientUnits="userSpaceOnUse">
<stop stop-color="#6C84A8"/>
<stop offset="1" stop-color="#7B91AF" stop-opacity="0"/>
</linearGradient>
<linearGradient id="paint9_linear_6534_4387" x1="56.5736" y1="28.2481" x2="48.2398" y2="24.8864" gradientUnits="userSpaceOnUse">
<stop stop-color="#E7EFFF"/>
<stop offset="1" stop-color="#5F799B"/>
</linearGradient>
<linearGradient id="paint10_linear_6534_4387" x1="55.77" y1="20.1019" x2="49.8659" y2="25.0899" gradientUnits="userSpaceOnUse">
<stop stop-color="#7E92B1"/>
<stop offset="1" stop-color="#7B91AF"/>
</linearGradient>
<linearGradient id="paint11_linear_6534_4387" x1="57.8946" y1="35.47" x2="46.6581" y2="32.2016" gradientUnits="userSpaceOnUse">
<stop stop-color="#E7EFFF"/>
<stop offset="1" stop-color="#5F799B"/>
</linearGradient>
<linearGradient id="paint12_linear_6534_4387" x1="55.2452" y1="29.0681" x2="50.1911" y2="31.6717" gradientUnits="userSpaceOnUse">
<stop stop-color="#6C84A8"/>
<stop offset="1" stop-color="#7B91AF" stop-opacity="0"/>
</linearGradient>
<linearGradient id="paint13_linear_6534_4387" x1="56.574" y1="28.2481" x2="48.2403" y2="24.8864" gradientUnits="userSpaceOnUse">
<stop stop-color="#E7EFFF"/>
<stop offset="1" stop-color="#5F799B"/>
</linearGradient>
<linearGradient id="paint14_linear_6534_4387" x1="43.2384" y1="15.8172" x2="9.38183" y2="37.2979" gradientUnits="userSpaceOnUse">
<stop stop-color="#DAE7FF"/>
<stop offset="0.335645" stop-color="#B6C2E2"/>
<stop offset="1" stop-color="#ADC2DA"/>
</linearGradient>
<linearGradient id="paint15_linear_6534_4387" x1="30.0068" y1="6.1875" x2="30.0068" y2="53.8125" gradientUnits="userSpaceOnUse">
<stop stop-color="#E3EAFD"/>
<stop offset="0.512731" stop-color="#B4CCF0"/>
<stop offset="1" stop-color="#BCC8D6"/>
</linearGradient>
<linearGradient id="paint16_linear_6534_4387" x1="19.7055" y1="18.9087" x2="19.7055" y2="52.8843" gradientUnits="userSpaceOnUse">
<stop stop-color="#99B3D2"/>
<stop offset="1" stop-color="#6B7E96"/>
</linearGradient>
<linearGradient id="paint17_linear_6534_4387" x1="40.2511" y1="18.4621" x2="40.2511" y2="52.8847" gradientUnits="userSpaceOnUse">
<stop stop-color="#C8D8F6"/>
<stop offset="1" stop-color="#7388A3"/>
</linearGradient>
<linearGradient id="paint18_linear_6534_4387" x1="2.10544" y1="35.47" x2="13.3419" y2="32.2016" gradientUnits="userSpaceOnUse">
<stop stop-color="#E7EFFF"/>
<stop offset="1" stop-color="#5F799B"/>
</linearGradient>
<linearGradient id="paint19_linear_6534_4387" x1="4.75427" y1="29.068" x2="9.80839" y2="31.6716" gradientUnits="userSpaceOnUse">
<stop stop-color="#6C84A8"/>
<stop offset="1" stop-color="#7B91AF" stop-opacity="0"/>
</linearGradient>
<linearGradient id="paint20_linear_6534_4387" x1="3.42693" y1="28.2481" x2="11.7607" y2="24.8864" gradientUnits="userSpaceOnUse">
<stop stop-color="#E7EFFF"/>
<stop offset="1" stop-color="#5F799B"/>
</linearGradient>
<linearGradient id="paint21_linear_6534_4387" x1="4.23012" y1="20.1016" x2="10.1348" y2="25.0903" gradientUnits="userSpaceOnUse">
<stop stop-color="#7E92B1"/>
<stop offset="1" stop-color="#7B91AF"/>
</linearGradient>
<linearGradient id="paint22_linear_6534_4387" x1="2.10544" y1="35.47" x2="13.3419" y2="32.2016" gradientUnits="userSpaceOnUse">
<stop stop-color="#E7EFFF"/>
<stop offset="1" stop-color="#5F799B"/>
</linearGradient>
<linearGradient id="paint23_linear_6534_4387" x1="4.75427" y1="29.068" x2="9.80839" y2="31.6716" gradientUnits="userSpaceOnUse">
<stop stop-color="#6C84A8"/>
<stop offset="1" stop-color="#7B91AF" stop-opacity="0"/>
</linearGradient>
<linearGradient id="paint24_linear_6534_4387" x1="3.42644" y1="28.2481" x2="11.7602" y2="24.8864" gradientUnits="userSpaceOnUse">
<stop stop-color="#E7EFFF"/>
<stop offset="1" stop-color="#5F799B"/>
</linearGradient>
<linearGradient id="paint25_linear_6534_4387" x1="57.8946" y1="35.47" x2="46.6581" y2="32.2016" gradientUnits="userSpaceOnUse">
<stop stop-color="#E7EFFF"/>
<stop offset="1" stop-color="#5F799B"/>
</linearGradient>
<linearGradient id="paint26_linear_6534_4387" x1="55.2452" y1="29.0681" x2="50.1911" y2="31.6717" gradientUnits="userSpaceOnUse">
<stop stop-color="#6C84A8"/>
<stop offset="1" stop-color="#7B91AF" stop-opacity="0"/>
</linearGradient>
<linearGradient id="paint27_linear_6534_4387" x1="56.5736" y1="28.2481" x2="48.2398" y2="24.8864" gradientUnits="userSpaceOnUse">
<stop stop-color="#E7EFFF"/>
<stop offset="1" stop-color="#5F799B"/>
</linearGradient>
<linearGradient id="paint28_linear_6534_4387" x1="55.77" y1="20.1019" x2="49.8659" y2="25.0899" gradientUnits="userSpaceOnUse">
<stop stop-color="#7E92B1"/>
<stop offset="1" stop-color="#7B91AF"/>
</linearGradient>
<linearGradient id="paint29_linear_6534_4387" x1="57.8946" y1="35.47" x2="46.6581" y2="32.2016" gradientUnits="userSpaceOnUse">
<stop stop-color="#E7EFFF"/>
<stop offset="1" stop-color="#5F799B"/>
</linearGradient>
<linearGradient id="paint30_linear_6534_4387" x1="55.2452" y1="29.0681" x2="50.1911" y2="31.6717" gradientUnits="userSpaceOnUse">
<stop stop-color="#6C84A8"/>
<stop offset="1" stop-color="#7B91AF" stop-opacity="0"/>
</linearGradient>
<linearGradient id="paint31_linear_6534_4387" x1="56.574" y1="28.2481" x2="48.2403" y2="24.8864" gradientUnits="userSpaceOnUse">
<stop stop-color="#E7EFFF"/>
<stop offset="1" stop-color="#5F799B"/>
</linearGradient>
<linearGradient id="paint32_linear_6534_4387" x1="43.2384" y1="15.8172" x2="9.38183" y2="37.2979" gradientUnits="userSpaceOnUse">
<stop stop-color="#DAE7FF"/>
<stop offset="0.335645" stop-color="#B6C2E2"/>
<stop offset="1" stop-color="#ADC2DA"/>
</linearGradient>
<linearGradient id="paint33_linear_6534_4387" x1="30.0068" y1="6.18749" x2="30.0068" y2="53.8125" gradientUnits="userSpaceOnUse">
<stop stop-color="#E3EAFD"/>
<stop offset="0.512731" stop-color="#B4CCF0"/>
<stop offset="1" stop-color="#BCC8D6"/>
</linearGradient>
<linearGradient id="paint34_linear_6534_4387" x1="19.7055" y1="18.9087" x2="19.7055" y2="52.8843" gradientUnits="userSpaceOnUse">
<stop stop-color="#99B3D2"/>
<stop offset="1" stop-color="#6B7E96"/>
</linearGradient>
<linearGradient id="paint35_linear_6534_4387" x1="40.2511" y1="18.4621" x2="40.2511" y2="52.8846" gradientUnits="userSpaceOnUse">
<stop stop-color="#C8D8F6"/>
<stop offset="1" stop-color="#7388A3"/>
</linearGradient>
<linearGradient id="paint36_linear_6534_4387" x1="31.8059" y1="11.0625" x2="30.0068" y2="48.9375" gradientUnits="userSpaceOnUse">
<stop stop-color="#C9D1E4"/>
<stop offset="0.25231" stop-color="#CBD5E6"/>
<stop offset="0.489052" stop-color="white"/>
<stop offset="0.736694" stop-color="#B8C3DC"/>
<stop offset="1" stop-color="#8D9EBF"/>
</linearGradient>
<linearGradient id="paint37_linear_6534_4387" x1="17.4551" y1="19.4779" x2="34.3423" y2="45.3872" gradientUnits="userSpaceOnUse">
<stop offset="0.274289" stop-color="#6E80A4"/>
<stop offset="1" stop-color="#F2F7FF"/>
</linearGradient>
<linearGradient id="paint38_linear_6534_4387" x1="30.0068" y1="15.1875" x2="30.0068" y2="44.8125" gradientUnits="userSpaceOnUse">
<stop stop-color="#0E236A"/>
<stop offset="0.372104" stop-color="#206DAC"/>
<stop offset="1" stop-color="#31B3EB"/>
</linearGradient>
<linearGradient id="paint39_linear_6534_4387" x1="30.0066" y1="18.2073" x2="30.0066" y2="41.7927" gradientUnits="userSpaceOnUse">
<stop stop-color="#0C256A"/>
<stop offset="0.684609" stop-color="#2269A9"/>
<stop offset="0.980796" stop-color="#2597D0"/>
</linearGradient>
<linearGradient id="paint40_linear_6534_4387" x1="29.5257" y1="24.6275" x2="26.6247" y2="27.9613" gradientUnits="userSpaceOnUse">
<stop stop-color="#B8BECF"/>
<stop offset="1" stop-color="#E9EDF8"/>
</linearGradient>
<linearGradient id="paint41_linear_6534_4387" x1="25.6136" y1="25.6076" x2="25.3103" y2="30.1937" gradientUnits="userSpaceOnUse">
<stop stop-color="#BABFD1"/>
<stop offset="1" stop-color="#E5E9F4"/>
</linearGradient>
<linearGradient id="paint42_linear_6534_4387" x1="32.9632" y1="30.5099" x2="34.7386" y2="37.4128" gradientUnits="userSpaceOnUse">
<stop stop-color="#ADB6CC"/>
<stop offset="1" stop-color="#D6DDEC"/>
</linearGradient>
<linearGradient id="paint43_linear_6534_4387" x1="30.0711" y1="32.5095" x2="35.1506" y2="35.1444" gradientUnits="userSpaceOnUse">
<stop stop-color="#ABB5CB"/>
<stop offset="1" stop-color="#E5E9F5"/>
</linearGradient>
<linearGradient id="paint44_linear_6534_4387" x1="35.1911" y1="22.3721" x2="30.0087" y2="29.9992" gradientUnits="userSpaceOnUse">
<stop stop-color="#B8BECF"/>
<stop offset="1" stop-color="#F7F9FF"/>
</linearGradient>
<linearGradient id="paint45_linear_6534_4387" x1="22.7636" y1="34.7998" x2="27.9422" y2="30.1897" gradientUnits="userSpaceOnUse">
<stop stop-color="#C1C9DC"/>
<stop offset="1" stop-color="#F9FBFF"/>
</linearGradient>
<linearGradient id="paint46_linear_6534_4387" x1="33.2611" y1="26.7475" x2="35.6419" y2="30.7983" gradientUnits="userSpaceOnUse">
<stop stop-color="#B5BCCD"/>
<stop offset="1" stop-color="#EEF3FE"/>
</linearGradient>
<linearGradient id="paint47_linear_6534_4387" x1="25.6141" y1="34.3943" x2="30.1997" y2="34.6976" gradientUnits="userSpaceOnUse">
<stop stop-color="#B8BDCF"/>
<stop offset="1" stop-color="#F2F6FF"/>
</linearGradient>
<linearGradient id="paint48_linear_6534_4387" x1="19.944" y1="28.9443" x2="26.8581" y2="27.9093" gradientUnits="userSpaceOnUse">
<stop stop-color="#B8BECF"/>
<stop offset="1" stop-color="white"/>
</linearGradient>
<linearGradient id="paint49_linear_6534_4387" x1="22.4999" y1="30.0017" x2="26.159" y2="34.1793" gradientUnits="userSpaceOnUse">
<stop stop-color="#8B95B6"/>
<stop offset="1" stop-color="#E5E9F4"/>
</linearGradient>
<linearGradient id="paint50_linear_6534_4387" x1="32.9693" y1="27.9092" x2="40.3838" y2="32.2904" gradientUnits="userSpaceOnUse">
<stop stop-color="#ADB6CC"/>
<stop offset="1" stop-color="#D6DDEC"/>
</linearGradient>
<linearGradient id="paint51_linear_6534_4387" x1="32.2056" y1="32.0906" x2="38.7974" y2="30.0018" gradientUnits="userSpaceOnUse">
<stop stop-color="#ABB5CB"/>
<stop offset="1" stop-color="#E5E9F5"/>
</linearGradient>
<linearGradient id="paint52_linear_6534_4387" x1="25.3591" y1="15.7642" x2="30.0077" y2="29.9971" gradientUnits="userSpaceOnUse">
<stop stop-color="#B8BECF"/>
<stop offset="1" stop-color="#F7F9FF"/>
</linearGradient>
<linearGradient id="paint53_linear_6534_4387" x1="27.9188" y1="40.2909" x2="28.4046" y2="31.9282" gradientUnits="userSpaceOnUse">
<stop stop-color="#F9FBFF"/>
<stop offset="1" stop-color="#A4B4D8"/>
</linearGradient>
<linearGradient id="paint54_linear_6534_4387" x1="30.0071" y1="24.4393" x2="35.5039" y2="25.8665" gradientUnits="userSpaceOnUse">
<stop stop-color="#95A4C8"/>
<stop offset="1" stop-color="white"/>
</linearGradient>
<linearGradient id="paint55_linear_6534_4387" x1="30.0077" y1="37.5087" x2="34.185" y2="33.8498" gradientUnits="userSpaceOnUse">
<stop stop-color="#9EA7C6"/>
<stop offset="1" stop-color="#F2F6FF"/>
</linearGradient>
<linearGradient id="paint56_linear_6534_4387" x1="30.4808" y1="35.0903" x2="32.9036" y2="29.3919" gradientUnits="userSpaceOnUse">
<stop stop-color="#095BB0"/>
<stop offset="1" stop-color="#1CEBF9"/>
</linearGradient>
<linearGradient id="paint57_linear_6534_4387" x1="27.2497" y1="25.4242" x2="27.3714" y2="30.6523" gradientUnits="userSpaceOnUse">
<stop stop-color="#3B98D1"/>
<stop offset="1" stop-color="#7FEAFC"/>
</linearGradient>
<linearGradient id="paint58_linear_6534_4387" x1="27.9054" y1="29.9999" x2="28.0424" y2="32.7576" gradientUnits="userSpaceOnUse">
<stop stop-color="#0A5CB1"/>
<stop offset="1" stop-color="#51D7FA"/>
</linearGradient>
<linearGradient id="paint59_linear_6534_4387" x1="31.7828" y1="27.473" x2="35.3664" y2="29.9979" gradientUnits="userSpaceOnUse">
<stop stop-color="#0358B1"/>
<stop offset="1" stop-color="#46E5FF"/>
</linearGradient>
<linearGradient id="paint60_linear_6534_4387" x1="31.2585" y1="31.1889" x2="37.277" y2="29.37" gradientUnits="userSpaceOnUse">
<stop stop-color="#0052A7"/>
<stop offset="1" stop-color="#18C9E8"/>
</linearGradient>
<linearGradient id="paint61_linear_6534_4387" x1="28.8183" y1="19.2305" x2="30.0069" y2="29.998" gradientUnits="userSpaceOnUse">
<stop stop-color="#49D3FF"/>
<stop offset="1" stop-color="#93F2FF"/>
</linearGradient>
<linearGradient id="paint62_linear_6534_4387" x1="31.0213" y1="35.0538" x2="28.8173" y2="31.8433" gradientUnits="userSpaceOnUse">
<stop stop-color="#7EE9FB"/>
<stop offset="1" stop-color="#0A5CB1"/>
</linearGradient>
<linearGradient id="paint63_linear_6534_4387" x1="30.0072" y1="26.836" x2="32.3843" y2="26.3651" gradientUnits="userSpaceOnUse">
<stop stop-color="#0B5DB2"/>
<stop offset="1" stop-color="#59E3FF"/>
</linearGradient>
<linearGradient id="paint64_linear_6534_4387" x1="30.4814" y1="35.0903" x2="32.9042" y2="29.3918" gradientUnits="userSpaceOnUse">
<stop stop-color="#095BB0"/>
<stop offset="1" stop-color="#1CEBF9"/>
</linearGradient>
</defs>
</svg>
