<svg xmlns="http://www.w3.org/2000/svg" width="84" height="84" viewBox="0 0 84 84" fill="none">
  <mask id="mask0_4153_2459" style="mask-type:alpha" maskUnits="userSpaceOnUse" x="0" y="0" width="84" height="84">
    <rect width="84" height="84" fill="#D9D9D9"/>
  </mask>
  <g mask="url(#mask0_4153_2459)">
    <mask id="path-2-outside-1_4153_2459" maskUnits="userSpaceOnUse" x="10.4551" y="8.93765" width="63" height="66" fill="black">
      <rect fill="white" x="10.4551" y="8.93765" width="63" height="66"/>
      <path fill-rule="evenodd" clip-rule="evenodd" d="M12.948 45.4267C12.6243 43.6881 12.4551 41.8951 12.4551 40.0627C12.4551 23.9774 25.4948 10.9377 41.5801 10.9377C55.9307 10.9377 67.8572 21.3165 70.2627 34.9773L70.9878 38.4634L70.9863 38.4637C71.3531 40.3094 71.5454 42.218 71.5454 44.1715C71.5454 60.2568 58.5057 73.2965 42.4204 73.2965C28.1582 73.2965 16.2904 63.0452 13.7834 49.5091L13.1142 46.2528C13.0715 46.0552 13.0307 45.8568 12.992 45.6577L12.9446 45.4274L12.948 45.4267Z"/>
    </mask>
    <path fill-rule="evenodd" clip-rule="evenodd" d="M12.948 45.4267C12.6243 43.6881 12.4551 41.8951 12.4551 40.0627C12.4551 23.9774 25.4948 10.9377 41.5801 10.9377C55.9307 10.9377 67.8572 21.3165 70.2627 34.9773L70.9878 38.4634L70.9863 38.4637C71.3531 40.3094 71.5454 42.218 71.5454 44.1715C71.5454 60.2568 58.5057 73.2965 42.4204 73.2965C28.1582 73.2965 16.2904 63.0452 13.7834 49.5091L13.1142 46.2528C13.0715 46.0552 13.0307 45.8568 12.992 45.6577L12.9446 45.4274L12.948 45.4267Z" fill="url(#paint0_linear_4153_2459)"/>
    <path d="M12.948 45.4267L13.1389 46.4592L14.1727 46.2681L13.9803 45.2345L12.948 45.4267ZM70.2627 34.9773L69.2286 35.1594L69.2314 35.1753L69.2347 35.1912L70.2627 34.9773ZM70.9878 38.4634L71.2025 39.4912L72.2295 39.2767L72.0158 38.2495L70.9878 38.4634ZM70.9863 38.4637L70.7716 37.4359L69.7538 37.6485L69.9565 38.6683L70.9863 38.4637ZM13.7834 49.5091L14.8158 49.3179L14.8139 49.3078L14.8119 49.2978L13.7834 49.5091ZM13.1142 46.2528L14.1428 46.0414L14.1405 46.0307L13.1142 46.2528ZM12.992 45.6577L14.0227 45.4572L14.0205 45.4464L12.992 45.6577ZM12.9446 45.4274L12.7537 44.3949L11.7006 44.5896L11.9161 45.6387L12.9446 45.4274ZM11.4051 40.0627C11.4051 41.9599 11.5803 43.8172 11.9157 45.6189L13.9803 45.2345C13.6683 43.559 13.5051 41.8304 13.5051 40.0627H11.4051ZM41.5801 9.88765C24.9149 9.88765 11.4051 23.3975 11.4051 40.0627H13.5051C13.5051 24.5573 26.0747 11.9877 41.5801 11.9877V9.88765ZM71.2968 34.7952C68.8044 20.6412 56.4491 9.88765 41.5801 9.88765V11.9877C55.4122 11.9877 66.9099 21.9918 69.2286 35.1594L71.2968 34.7952ZM72.0158 38.2495L71.2907 34.7635L69.2347 35.1912L69.9598 38.6772L72.0158 38.2495ZM71.201 39.4915L71.2025 39.4912L70.7732 37.4356L70.7716 37.4359L71.201 39.4915ZM72.5954 44.1715C72.5954 42.1489 72.3962 40.1718 72.0162 38.2591L69.9565 38.6683C70.3099 40.447 70.4954 42.2871 70.4954 44.1715H72.5954ZM42.4204 74.3465C59.0856 74.3465 72.5954 60.8367 72.5954 44.1715H70.4954C70.4954 59.6769 57.9258 72.2465 42.4204 72.2465V74.3465ZM12.7509 49.7003C15.3485 63.7251 27.6429 74.3465 42.4204 74.3465V72.2465C28.6736 72.2465 17.2324 62.3654 14.8158 49.3179L12.7509 49.7003ZM12.0857 46.4641L12.7549 49.7204L14.8119 49.2978L14.1428 46.0414L12.0857 46.4641ZM11.9613 45.8583C12.0014 46.0646 12.0437 46.2701 12.088 46.4749L14.1405 46.0307C14.0993 45.8402 14.06 45.649 14.0226 45.4572L11.9613 45.8583ZM11.9161 45.6387L11.9635 45.8691L14.0205 45.4464L13.9731 45.216L11.9161 45.6387ZM12.7571 44.3942L12.7537 44.3949L13.1356 46.4598L13.1389 46.4592L12.7571 44.3942Z" fill="#80190F" mask="url(#path-2-outside-1_4153_2459)"/>
    <path fill-rule="evenodd" clip-rule="evenodd" d="M42.4201 73.2965C58.5054 73.2965 71.5451 60.2568 71.5451 44.1715C71.5451 42.218 71.3528 40.3094 70.986 38.4637L70.9875 38.4634L70.236 34.8503L70.0341 34.8876C66.1582 23.3544 55.2593 15.0465 42.4201 15.0465C26.3348 15.0465 13.2951 28.0862 13.2951 44.1715C13.2951 44.569 13.303 44.9646 13.3188 45.3582L12.9443 45.4274L13.7831 49.5091C16.2901 63.0452 28.1579 73.2965 42.4201 73.2965Z" fill="url(#paint1_linear_4153_2459)"/>
    <circle cx="41.5801" cy="40.0627" r="29.125" fill="url(#paint2_linear_4153_2459)"/>
    <circle cx="41.5801" cy="40.0627" r="29.125" fill="url(#paint3_linear_4153_2459)"/>
    <g filter="url(#filter0_f_4153_2459)">
      <circle cx="41.5804" cy="40.0627" r="26.2913" fill="url(#paint4_linear_4153_2459)"/>
    </g>
    <g filter="url(#filter1_d_4153_2459)">
      <path d="M35.538 26.2548C35.6771 25.4095 36.6845 25.0383 37.3387 25.5913L44.1813 31.3746C44.4246 31.5802 44.7447 31.6706 45.0596 31.6227L53.9167 30.274C54.7636 30.145 55.4279 30.9884 55.1042 31.7815L51.7184 40.0764C51.5981 40.3712 51.611 40.7037 51.7539 40.9883L55.7736 48.9951C56.1579 49.7607 55.5611 50.6531 54.7067 50.5903L45.7716 49.9335C45.454 49.9102 45.1418 50.0252 44.9153 50.249L38.5425 56.5463C37.9332 57.1484 36.9 56.8565 36.6957 56.0246L34.5593 47.3238C34.4833 47.0146 34.2774 46.7532 33.9946 46.6069L26.0363 42.492C25.2753 42.0985 25.2336 41.0257 25.9617 40.5744L33.5764 35.8538C33.8471 35.686 34.032 35.4094 34.0837 35.0952L35.538 26.2548Z" fill="#F6A120"/>
      <g filter="url(#filter2_i_4153_2459)">
        <path d="M35.1572 25.405C35.2962 24.5597 36.3036 24.1886 36.9579 24.7415L43.8005 30.5248C44.0437 30.7304 44.3639 30.8208 44.6787 30.7729L53.5358 29.4242C54.3827 29.2952 55.0471 30.1386 54.7233 30.9318L51.3375 39.2266C51.2172 39.5214 51.2301 39.8539 51.373 40.1385L55.3927 48.1453C55.7771 48.9109 55.1802 49.8034 54.3259 49.7406L45.3908 49.0838C45.0732 49.0604 44.761 49.1754 44.5345 49.3993L38.1617 55.6965C37.5523 56.2986 36.5191 56.0068 36.3148 55.1748L34.1784 46.4741C34.1025 46.1648 33.8966 45.9034 33.6137 45.7572L25.6554 41.6422C24.8944 41.2488 24.8527 40.1759 25.5808 39.7246L33.1955 35.004C33.4662 34.8362 33.6512 34.5597 33.7029 34.2454L35.1572 25.405Z" fill="url(#paint5_linear_4153_2459)"/>
      </g>
    </g>
  </g>
  <defs>
    <filter id="filter0_f_4153_2459" x="14.7375" y="13.2198" width="53.6862" height="53.6859" filterUnits="userSpaceOnUse" color-interpolation-filters="sRGB">
      <feFlood flood-opacity="0" result="BackgroundImageFix"/>
      <feBlend mode="normal" in="SourceGraphic" in2="BackgroundImageFix" result="shape"/>
      <feGaussianBlur stdDeviation="0.275805" result="effect1_foregroundBlur_4153_2459"/>
    </filter>
    <filter id="filter1_d_4153_2459" x="23.9554" y="24.4798" width="33.0404" height="34.5922" filterUnits="userSpaceOnUse" color-interpolation-filters="sRGB">
      <feFlood flood-opacity="0" result="BackgroundImageFix"/>
      <feColorMatrix in="SourceAlpha" type="matrix" values="0 0 0 0 0 0 0 0 0 0 0 0 0 0 0 0 0 0 127 0" result="hardAlpha"/>
      <feOffset dy="1.10322"/>
      <feGaussianBlur stdDeviation="0.55161"/>
      <feComposite in2="hardAlpha" operator="out"/>
      <feColorMatrix type="matrix" values="0 0 0 0 0.905882 0 0 0 0 0.180392 0 0 0 0 0.054902 0 0 0 1 0"/>
      <feBlend mode="normal" in2="BackgroundImageFix" result="effect1_dropShadow_4153_2459"/>
      <feBlend mode="normal" in="SourceGraphic" in2="effect1_dropShadow_4153_2459" result="shape"/>
    </filter>
    <filter id="filter2_i_4153_2459" x="25.0586" y="24.4798" width="30.4531" height="31.536" filterUnits="userSpaceOnUse" color-interpolation-filters="sRGB">
      <feFlood flood-opacity="0" result="BackgroundImageFix"/>
      <feBlend mode="normal" in="SourceGraphic" in2="BackgroundImageFix" result="shape"/>
      <feColorMatrix in="SourceAlpha" type="matrix" values="0 0 0 0 0 0 0 0 0 0 0 0 0 0 0 0 0 0 127 0" result="hardAlpha"/>
      <feOffset dy="0.55161"/>
      <feComposite in2="hardAlpha" operator="arithmetic" k2="-1" k3="1"/>
      <feColorMatrix type="matrix" values="0 0 0 0 1 0 0 0 0 1 0 0 0 0 1 0 0 0 1 0"/>
      <feBlend mode="normal" in2="shape" result="effect1_innerShadow_4153_2459"/>
    </filter>
    <linearGradient id="paint0_linear_4153_2459" x1="41.58" y1="22.9385" x2="37.9705" y2="56.9913" gradientUnits="userSpaceOnUse">
      <stop stop-color="#FFFDBF"/>
      <stop offset="1" stop-color="#FFE745"/>
    </linearGradient>
    <linearGradient id="paint1_linear_4153_2459" x1="12.9443" y1="54.6372" x2="71.5449" y2="44.1716" gradientUnits="userSpaceOnUse">
      <stop stop-color="#B30B22"/>
      <stop offset="0.25036" stop-color="#E02B36"/>
      <stop offset="0.579699" stop-color="#EE353C"/>
      <stop offset="0.836781" stop-color="#E22C37"/>
      <stop offset="1" stop-color="#B60E24"/>
    </linearGradient>
    <linearGradient id="paint2_linear_4153_2459" x1="24.6688" y1="14.6957" x2="52.8543" y2="69.1877" gradientUnits="userSpaceOnUse">
      <stop stop-color="#FFC979"/>
      <stop offset="1" stop-color="#FC532D"/>
    </linearGradient>
    <linearGradient id="paint3_linear_4153_2459" x1="41.5801" y1="10.9377" x2="52.8543" y2="69.1877" gradientUnits="userSpaceOnUse">
      <stop stop-color="#FFD494"/>
      <stop offset="1" stop-color="#FC532D"/>
    </linearGradient>
    <linearGradient id="paint4_linear_4153_2459" x1="26.3145" y1="17.1638" x2="51.7577" y2="66.3541" gradientUnits="userSpaceOnUse">
      <stop stop-color="#FE8332"/>
      <stop offset="1" stop-color="#F32E2D"/>
    </linearGradient>
    <linearGradient id="paint5_linear_4153_2459" x1="41.5806" y1="22.9383" x2="37.9711" y2="56.991" gradientUnits="userSpaceOnUse">
      <stop stop-color="#FFFDBF"/>
      <stop offset="1" stop-color="#FFE745"/>
    </linearGradient>
  </defs>
</svg>