<svg width="30" height="30" viewBox="0 0 30 30" fill="none" xmlns="http://www.w3.org/2000/svg">
<mask id="mask0_6596_15367" style="mask-type:alpha" maskUnits="userSpaceOnUse" x="0" y="0" width="30" height="30">
<rect width="30" height="30" fill="#D9D9D9"/>
</mask>
<g mask="url(#mask0_6596_15367)">
<path fill-rule="evenodd" clip-rule="evenodd" d="M8.71785 6.27227L9.4883 5.24388C10.186 4.31263 11.3513 3.85743 12.4954 4.06922L13.8193 4.31427C14.3528 2.80123 16.9503 0.567068 19.6862 1.65467C19.7728 1.68912 19.8552 1.73061 19.9332 1.77839C20.5153 2.00092 21.0742 2.43048 21.3709 3.08223C21.6445 3.68319 21.7727 4.60928 21.8238 5.3123L23.192 5.53894C23.9228 5.66001 24.419 6.26467 24.4693 6.93724L24.5058 6.93875L25.2505 11.7347L19.3089 26.141C18.841 27.2755 17.6056 27.8885 16.4192 27.575L5.7234 24.7484C4.41247 24.402 3.56028 23.2791 3.45385 22.0466C3.29164 21.8018 3.21844 21.5013 3.26007 21.2014C2.82701 20.8552 2.66151 20.2354 2.92794 19.6991L8.97783 7.52203L8.70464 6.28771L8.83743 6.29318L8.71785 6.27227Z" fill="#9FBAE5"/>
<path d="M9.4883 5.24388L9.33824 5.13145L9.33824 5.13145L9.4883 5.24388ZM8.71785 6.27227L8.56779 6.15985C8.52871 6.21202 8.51953 6.28075 8.54355 6.34135C8.56756 6.40196 8.62134 6.44574 8.68555 6.45697L8.71785 6.27227ZM12.4954 4.06922L12.5296 3.88485L12.4954 4.06922ZM13.8193 4.31427L13.7852 4.49864C13.876 4.51544 13.9654 4.46368 13.9961 4.37662L13.8193 4.31427ZM19.6862 1.65467L19.7554 1.48043L19.7554 1.48043L19.6862 1.65467ZM19.9332 1.77839L19.8352 1.93828C19.8451 1.94431 19.8555 1.94941 19.8662 1.95353L19.9332 1.77839ZM21.3709 3.08223L21.5416 3.00455L21.5416 3.00455L21.3709 3.08223ZM21.8238 5.3123L21.6368 5.32591C21.6431 5.41229 21.7078 5.48312 21.7932 5.49727L21.8238 5.3123ZM23.192 5.53894L23.2226 5.35396L23.192 5.53894ZM24.4693 6.93724L24.2824 6.95125C24.2895 7.04615 24.3665 7.12067 24.4616 7.12459L24.4693 6.93724ZM24.5058 6.93875L24.6911 6.90998C24.6774 6.82151 24.603 6.75509 24.5135 6.75141L24.5058 6.93875ZM25.2505 11.7347L25.4238 11.8062C25.4369 11.7745 25.441 11.7398 25.4358 11.7059L25.2505 11.7347ZM19.3089 26.141L19.1355 26.0695L19.3089 26.141ZM16.4192 27.575L16.3713 27.7563L16.4192 27.575ZM5.7234 24.7484L5.67549 24.9297L5.7234 24.7484ZM3.45385 22.0466L3.64065 22.0305C3.63796 21.9993 3.62747 21.9692 3.61015 21.9431L3.45385 22.0466ZM3.26007 21.2014L3.44579 21.2271C3.45488 21.1616 3.4288 21.0962 3.37714 21.0549L3.26007 21.2014ZM2.92794 19.6991L2.76002 19.6157L2.76002 19.6157L2.92794 19.6991ZM8.97783 7.52203L9.14575 7.60545C9.16482 7.56708 9.17016 7.52334 9.1609 7.48151L8.97783 7.52203ZM8.70464 6.28771L8.71236 6.10037C8.65421 6.09797 8.59824 6.12272 8.56088 6.16734C8.52352 6.21196 8.50899 6.2714 8.52157 6.32823L8.70464 6.28771ZM8.83743 6.29318L8.82971 6.48052C8.92838 6.48459 9.01329 6.41142 9.02385 6.31324C9.03442 6.21505 8.96701 6.1255 8.86973 6.10848L8.83743 6.29318ZM9.33824 5.13145L8.56779 6.15985L8.86791 6.38469L9.63836 5.3563L9.33824 5.13145ZM12.5296 3.88485C11.3153 3.66009 10.0786 4.14317 9.33824 5.13145L9.63836 5.3563C10.2933 4.48209 11.3872 4.05477 12.4613 4.25359L12.5296 3.88485ZM13.8534 4.12991L12.5296 3.88485L12.4613 4.25359L13.7852 4.49864L13.8534 4.12991ZM19.7554 1.48043C18.3214 0.910353 16.9274 1.21413 15.833 1.84691C14.7448 2.47606 13.9271 3.4448 13.6425 4.25193L13.9961 4.37662C14.245 3.6707 14.9928 2.76584 16.0207 2.17155C17.0423 1.58089 18.3151 1.31138 19.6169 1.82891L19.7554 1.48043ZM20.0311 1.61851C19.9442 1.56525 19.8523 1.51892 19.7554 1.48043L19.6169 1.82891C19.6934 1.85931 19.7662 1.89597 19.8352 1.93828L20.0311 1.61851ZM21.5416 3.00455C21.2203 2.29871 20.6178 1.83939 20.0001 1.60325L19.8662 1.95353C20.4127 2.16245 20.9282 2.56224 21.2003 3.15992L21.5416 3.00455ZM22.0109 5.29869C21.9596 4.59393 21.8301 3.63842 21.5416 3.00455L21.2003 3.15992C21.4588 3.72795 21.5858 4.62464 21.6368 5.32591L22.0109 5.29869ZM23.2226 5.35396L21.8545 5.12732L21.7932 5.49727L23.1613 5.72392L23.2226 5.35396ZM24.6563 6.92324C24.5999 6.16956 24.0436 5.48998 23.2226 5.35396L23.1613 5.72392C23.8019 5.83004 24.2381 6.35979 24.2824 6.95125L24.6563 6.92324ZM24.5135 6.75141L24.4771 6.7499L24.4616 7.12459L24.4981 7.12609L24.5135 6.75141ZM25.4358 11.7059L24.6911 6.90998L24.3205 6.96752L25.0652 11.7635L25.4358 11.7059ZM19.4822 26.2125L25.4238 11.8062L25.0772 11.6632L19.1355 26.0695L19.4822 26.2125ZM16.3713 27.7563C17.6486 28.0938 18.9785 27.4339 19.4822 26.2125L19.1355 26.0695C18.7035 27.1172 17.5627 27.6833 16.4671 27.3937L16.3713 27.7563ZM5.67549 24.9297L16.3713 27.7563L16.4671 27.3937L5.7713 24.5671L5.67549 24.9297ZM3.26704 22.0628C3.3799 23.3696 4.28374 24.5619 5.67549 24.9297L5.7713 24.5671C4.5412 24.2421 3.74067 23.1887 3.64065 22.0305L3.26704 22.0628ZM3.07435 21.1756C3.02624 21.5222 3.11089 21.8685 3.29755 22.1502L3.61015 21.9431C3.47239 21.7351 3.41063 21.4805 3.44579 21.2271L3.07435 21.1756ZM2.76002 19.6157C2.45253 20.2346 2.64419 20.9491 3.14301 21.3478L3.37714 21.0549C3.00982 20.7613 2.87049 20.2361 3.09585 19.7825L2.76002 19.6157ZM8.80992 7.4386L2.76002 19.6157L3.09585 19.7825L9.14575 7.60545L8.80992 7.4386ZM8.52157 6.32823L8.79476 7.56255L9.1609 7.48151L8.88771 6.24719L8.52157 6.32823ZM8.84515 6.10584L8.71236 6.10037L8.69692 6.47505L8.82971 6.48052L8.84515 6.10584ZM8.68555 6.45697L8.80513 6.47788L8.86973 6.10848L8.75015 6.08757L8.68555 6.45697Z" fill="#00321D"/>
<path d="M25.251 11.7349L24.5064 6.93894L8.70519 6.28791L9.04817 7.8375L10.7767 7.56911L3.81877 20.3229C2.86734 22.0669 3.80329 24.241 5.72395 24.7486L16.4197 27.5752C17.6062 27.8887 18.8415 27.2757 19.3094 26.1412L25.251 11.7349Z" fill="#0C6F6C"/>
<path d="M21.3724 3.08243C20.7829 1.78741 19.1581 1.36964 18.3734 1.71012L19.413 5.59124L21.8516 6.16862C21.8702 5.70141 21.7933 4.00706 21.3724 3.08243Z" fill="#036B55"/>
<path d="M9.48787 5.24395L8.71743 6.27234L23.725 8.89699L24.3086 7.73706C24.7726 6.81513 24.2097 5.70769 23.1915 5.53902L20.6202 5.11304C21.2616 3.95385 20.8837 2.13095 19.6858 1.65474C16.9498 0.567143 14.3524 2.8013 13.8189 4.31435L12.495 4.06929C11.3508 3.85751 10.1855 4.3127 9.48787 5.24395Z" fill="#00B98A"/>
<path d="M16.1409 26.3623L4.27522 23.2447C3.71582 23.0977 3.42992 22.4764 3.68217 21.956L10.2561 8.39134L24.6782 11.3796L18.2775 25.3508C17.9057 26.1624 17.0042 26.5891 16.1409 26.3623Z" fill="#00BB82"/>
<path d="M3.37771 20.824L9.72332 8.05171L23.8924 11.1552L17.4891 24.407C17.1097 25.192 16.2307 25.6022 15.3853 25.3886L4.17436 22.556C3.41732 22.3647 3.03029 21.5233 3.37771 20.824Z" fill="#4167BD"/>
<path d="M23.8882 11.1763L23.6438 9.60259L22.1824 11.2325L23.8882 11.1763Z" fill="#4167BD"/>
<path d="M2.92849 19.6994L9.2741 6.92709L23.6471 9.59957L17.0397 23.2819C16.6604 24.0672 15.7813 24.4776 14.9358 24.2639L3.72514 21.4314C2.9681 21.2401 2.58107 20.3987 2.92849 19.6994Z" fill="#D7ECFF"/>
<path d="M21.1918 11.0997L14.9818 9.84131L14.5021 10.8699L20.712 12.2202L21.1918 11.0997Z" fill="#9FBAE5"/>
<path d="M18.6854 17.1073L7.40698 14.4547L6.96163 15.4986L18.1465 18.2157L18.6854 17.1073Z" fill="#9FBAE5"/>
<path d="M17.2303 20.2451L5.96619 17.5323L5.51527 18.5738L16.6855 21.3506L17.2303 20.2451Z" fill="#9FBAE5"/>
<path d="M8.11251 12.2777L9.95794 8.56326L13.7357 9.26568L12.038 13.1179L8.11251 12.2777Z" fill="#9FBAE5"/>
<g filter="url(#filter0_d_6596_15367)">
<mask id="path-15-outside-1_6596_15367" maskUnits="userSpaceOnUse" x="4.62137" y="7.01218" width="15.459" height="15.8434" fill="black">
<rect fill="white" x="4.62137" y="7.01218" width="15.459" height="15.8434"/>
<path fill-rule="evenodd" clip-rule="evenodd" d="M8.18165 17.3842L8.66422 18.0463C8.68915 18.0864 8.71511 18.1262 8.74211 18.1655C9.92326 19.8835 12.6328 20.0291 14.7939 18.4908C16.2766 17.4354 17.116 15.8617 17.1155 14.4228C17.1155 13.8996 17.0044 13.3943 16.7729 12.9381L16.3829 12.0877L16.3816 12.0885C16.3149 11.9497 16.2373 11.8154 16.1485 11.6862C15.5323 10.79 14.5002 10.3217 13.3471 10.2971C12.2308 10.2172 10.974 10.567 9.8599 11.36C8.3677 12.4222 7.52177 14.0018 7.52535 15.4369C7.52688 16.0804 7.69921 16.6948 8.06066 17.2206C8.09934 17.2768 8.13969 17.3313 8.18165 17.3842Z"/>
</mask>
<path fill-rule="evenodd" clip-rule="evenodd" d="M8.18165 17.3842L8.66422 18.0463C8.68915 18.0864 8.71511 18.1262 8.74211 18.1655C9.92326 19.8835 12.6328 20.0291 14.7939 18.4908C16.2766 17.4354 17.116 15.8617 17.1155 14.4228C17.1155 13.8996 17.0044 13.3943 16.7729 12.9381L16.3829 12.0877L16.3816 12.0885C16.3149 11.9497 16.2373 11.8154 16.1485 11.6862C15.5323 10.79 14.5002 10.3217 13.3471 10.2971C12.2308 10.2172 10.974 10.567 9.8599 11.36C8.3677 12.4222 7.52177 14.0018 7.52535 15.4369C7.52688 16.0804 7.69921 16.6948 8.06066 17.2206C8.09934 17.2768 8.13969 17.3313 8.18165 17.3842Z" fill="white"/>
<path d="M8.66422 18.0463L8.78888 17.9689L8.78244 17.9601L8.66422 18.0463ZM8.18165 17.3842L8.29998 17.2979L8.29619 17.2931L8.18165 17.3842ZM8.74211 18.1655L8.62156 18.2483L8.62156 18.2483L8.74211 18.1655ZM14.7939 18.4908L14.7091 18.3716L14.7939 18.4908ZM17.1155 14.4228L16.9692 14.4228L16.9692 14.4228L17.1155 14.4228ZM16.7729 12.9381L16.6398 12.9992L16.6424 13.0043L16.7729 12.9381ZM16.3829 12.0877L16.5159 12.0267L16.4468 11.8761L16.3059 11.9633L16.3829 12.0877ZM16.3816 12.0885L16.2498 12.1519L16.3203 12.2984L16.4586 12.2128L16.3816 12.0885ZM16.1485 11.6862L16.269 11.6033L16.269 11.6033L16.1485 11.6862ZM13.3471 10.2971L13.3366 10.4431L13.344 10.4433L13.3471 10.2971ZM9.8599 11.36L9.94473 11.4792L9.8599 11.36ZM7.52535 15.4369L7.67163 15.4365L7.67163 15.4365L7.52535 15.4369ZM8.06066 17.2206L7.94012 17.3034L7.94012 17.3034L8.06066 17.2206ZM8.78244 17.9601L8.29987 17.298L8.06344 17.4703L8.546 18.1324L8.78244 17.9601ZM8.86265 18.0826C8.83696 18.0452 8.81226 18.0074 8.78853 17.9691L8.53991 18.1234C8.56605 18.1655 8.59327 18.2072 8.62156 18.2483L8.86265 18.0826ZM14.7091 18.3716C12.5855 19.8832 9.97959 19.7072 8.86265 18.0826L8.62156 18.2483C9.86694 20.0598 12.68 20.175 14.8787 18.61L14.7091 18.3716ZM16.9692 14.4228C16.9697 15.807 16.1596 17.3391 14.7091 18.3716L14.8787 18.61C16.3935 17.5317 17.2623 15.9163 17.2618 14.4227L16.9692 14.4228ZM16.6424 13.0043C16.8626 13.4381 16.9692 13.9204 16.9692 14.4228L17.2618 14.4228C17.2617 13.8788 17.1462 13.3504 16.9033 12.8719L16.6424 13.0043ZM16.2499 12.1486L16.6399 12.9991L16.9058 12.8772L16.5159 12.0267L16.2499 12.1486ZM16.4586 12.2128L16.4599 12.2121L16.3059 11.9633L16.3046 11.9641L16.4586 12.2128ZM16.0279 11.7691C16.1124 11.892 16.1863 12.0199 16.2498 12.1519L16.5134 12.025C16.4435 11.8796 16.3621 11.7387 16.269 11.6033L16.0279 11.7691ZM13.344 10.4433C14.46 10.4671 15.4436 10.9192 16.0279 11.7691L16.269 11.6033C15.621 10.6608 14.5404 10.1762 13.3502 10.1508L13.344 10.4433ZM9.94473 11.4792C11.0338 10.704 12.2575 10.3658 13.3366 10.443L13.3575 10.1511C12.2041 10.0687 10.9141 10.4301 9.77507 11.2409L9.94473 11.4792ZM7.67163 15.4365C7.6682 14.0568 8.48427 12.5188 9.94473 11.4792L9.77507 11.2409C8.25113 12.3256 7.37535 13.9468 7.37906 15.4372L7.67163 15.4365ZM8.18121 17.1377C7.83819 16.6388 7.6731 16.0538 7.67163 15.4365L7.37906 15.4372C7.38066 16.107 7.56023 16.7509 7.94012 17.3034L8.18121 17.1377ZM8.29619 17.2931C8.25632 17.243 8.21797 17.1912 8.18121 17.1377L7.94012 17.3034C7.98071 17.3625 8.02307 17.4197 8.06712 17.4752L8.29619 17.2931Z" fill="#834300" mask="url(#path-15-outside-1_6596_15367)"/>
<path fill-rule="evenodd" clip-rule="evenodd" d="M8.16674 17.3666C8.1298 17.3193 8.09413 17.2707 8.05979 17.2208C6.89231 15.5227 7.69786 12.899 9.85902 11.3607C10.9747 10.5665 12.2335 10.2169 13.3509 10.298C14.5022 10.3238 15.5323 10.7921 16.1476 11.6871C16.2366 11.8166 16.3145 11.9514 16.3813 12.0905L16.382 12.0901L16.7811 12.9603C16.8104 13.0191 16.8377 13.0787 16.863 13.1391L16.8645 13.1423L16.8644 13.1423C17.5734 14.8357 16.7351 17.1092 14.7921 18.4923C12.6309 20.0306 9.92141 19.885 8.74025 18.1669C8.71158 18.1252 8.68407 18.083 8.65771 18.0402L8.16674 17.3666Z" fill="white"/>
<path fill-rule="evenodd" clip-rule="evenodd" d="M10.0382 16.2679C9.68691 15.3286 10.1583 14.096 11.2208 13.3397C12.2812 12.5849 13.5777 12.5555 14.3251 13.2093C14.277 13.0808 14.2136 12.9578 14.1342 12.8423C13.4741 11.8822 11.9599 11.8008 10.7521 12.6605C9.54426 13.5202 9.10027 14.9955 9.76038 15.9556C9.84096 16.0729 9.93428 16.177 10.0382 16.2679Z" fill="url(#paint0_radial_6596_15367)"/>
<path fill-rule="evenodd" clip-rule="evenodd" d="M14.0861 12.7759C13.3678 11.9922 11.9756 11.9757 10.8496 12.7772C9.64182 13.6369 9.19783 15.1122 9.85793 16.0723C9.87345 16.0949 9.88944 16.117 9.90589 16.1386C9.85367 16.0816 9.80501 16.0206 9.76028 15.9555C9.10017 14.9954 9.54416 13.5201 10.752 12.6604C11.9314 11.8209 13.403 11.8787 14.0861 12.7759Z" fill="url(#paint1_radial_6596_15367)"/>
<path fill-rule="evenodd" clip-rule="evenodd" d="M8.74051 18.1657C8.71186 18.124 8.68437 18.0818 8.65803 18.0391L8.0694 17.2314L8.27753 17.1027C7.9098 15.4861 8.76363 13.5161 10.515 12.2695C12.4893 10.8642 14.9212 10.8642 16.2275 12.1846L16.3823 12.0889L16.7812 12.9589C16.8106 13.0178 16.838 13.0775 16.8633 13.138L16.8647 13.141L16.8646 13.1411C17.5737 14.8345 16.7354 17.1079 14.7923 18.491C12.6312 20.0294 9.92167 19.8837 8.74051 18.1657ZM10.7541 12.6605C9.54627 13.5203 9.10228 14.9956 9.76238 15.9557C10.4225 16.9158 11.9367 16.9972 13.1445 16.1375C14.3523 15.2778 14.7963 13.8025 14.1362 12.8424C13.4761 11.8822 11.9619 11.8008 10.7541 12.6605Z" fill="url(#paint2_radial_6596_15367)"/>
<path fill-rule="evenodd" clip-rule="evenodd" d="M10.096 11.3615C7.93486 12.8998 7.14041 15.5396 8.32156 17.2576C9.50272 18.9756 12.2122 19.1213 14.3734 17.583C16.5345 16.0446 17.329 13.4048 16.1478 11.6868C14.9667 9.96877 12.2572 9.82311 10.096 11.3615ZM10.7521 12.6615C9.54431 13.5212 9.10032 14.9965 9.76043 15.9566C10.4205 16.9168 11.9348 16.9982 13.1426 16.1385C14.3504 15.2787 14.7944 13.8034 14.1342 12.8433C13.4741 11.8832 11.9599 11.8018 10.7521 12.6615Z" fill="url(#paint3_radial_6596_15367)"/>
<ellipse cx="4.80324" cy="3.73128" rx="4.80324" ry="3.73128" transform="matrix(-0.814686 0.579902 -0.566534 -0.824038 18 14.7244)" fill="url(#paint4_linear_6596_15367)"/>
<g filter="url(#filter1_di_6596_15367)">
<path d="M13.9103 12.4584C14.0953 12.3985 14.2012 12.538 14.0973 12.7045L13.3576 13.8888C13.3183 13.9518 13.3069 14.0174 13.3265 14.0677L13.6954 15.0134C13.7473 15.1464 13.5826 15.3441 13.405 15.3623L12.1409 15.4916C12.0737 15.4984 12.0013 15.5335 11.9435 15.5872L10.8558 16.5975C10.7029 16.7396 10.4952 16.7223 10.4894 16.567L10.4478 15.4626C10.4456 15.4039 10.4122 15.36 10.3569 15.3429L9.31576 15.0215C9.1694 14.9764 9.20568 14.7679 9.37976 14.6538L10.6181 13.842C10.684 13.7988 10.7358 13.7366 10.7594 13.6723L11.2036 12.4634C11.266 12.2934 11.4961 12.1819 11.6096 12.2666L12.4165 12.8693C12.4594 12.9014 12.5247 12.9068 12.5947 12.8842L13.9103 12.4584Z" fill="#834200"/>
</g>
</g>
</g>
<defs>
<filter id="filter0_d_6596_15367" x="7.37891" y="10.1396" width="10.0864" height="10.4299" filterUnits="userSpaceOnUse" color-interpolation-filters="sRGB">
<feFlood flood-opacity="0" result="BackgroundImageFix"/>
<feColorMatrix in="SourceAlpha" type="matrix" values="0 0 0 0 0 0 0 0 0 0 0 0 0 0 0 0 0 0 127 0" result="hardAlpha"/>
<feOffset dx="0.203571" dy="0.867857"/>
<feComposite in2="hardAlpha" operator="out"/>
<feColorMatrix type="matrix" values="0 0 0 0 0 0 0 0 0 0 0 0 0 0 0 0 0 0 0.25 0"/>
<feBlend mode="normal" in2="BackgroundImageFix" result="effect1_dropShadow_6596_15367"/>
<feBlend mode="normal" in="SourceGraphic" in2="effect1_dropShadow_6596_15367" result="shape"/>
</filter>
<filter id="filter1_di_6596_15367" x="9.22461" y="12.2376" width="4.91309" height="4.54046" filterUnits="userSpaceOnUse" color-interpolation-filters="sRGB">
<feFlood flood-opacity="0" result="BackgroundImageFix"/>
<feColorMatrix in="SourceAlpha" type="matrix" values="0 0 0 0 0 0 0 0 0 0 0 0 0 0 0 0 0 0 127 0" result="hardAlpha"/>
<feOffset dy="0.0836316"/>
<feComposite in2="hardAlpha" operator="out"/>
<feColorMatrix type="matrix" values="0 0 0 0 1 0 0 0 0 0.988235 0 0 0 0 0.721569 0 0 0 1 0"/>
<feBlend mode="normal" in2="BackgroundImageFix" result="effect1_dropShadow_6596_15367"/>
<feBlend mode="normal" in="SourceGraphic" in2="effect1_dropShadow_6596_15367" result="shape"/>
<feColorMatrix in="SourceAlpha" type="matrix" values="0 0 0 0 0 0 0 0 0 0 0 0 0 0 0 0 0 0 127 0" result="hardAlpha"/>
<feOffset dy="0.167263"/>
<feComposite in2="hardAlpha" operator="arithmetic" k2="-1" k3="1"/>
<feColorMatrix type="matrix" values="0 0 0 0 0 0 0 0 0 0 0 0 0 0 0 0 0 0 0.25 0"/>
<feBlend mode="normal" in2="shape" result="effect2_innerShadow_6596_15367"/>
</filter>
<radialGradient id="paint0_radial_6596_15367" cx="0" cy="0" r="1" gradientUnits="userSpaceOnUse" gradientTransform="translate(11.103 13.4979) rotate(-123.022) scale(2.91722 2.87814)">
<stop stop-color="#FFA115"/>
<stop offset="0.81184" stop-color="#DD7203"/>
</radialGradient>
<radialGradient id="paint1_radial_6596_15367" cx="0" cy="0" r="1" gradientUnits="userSpaceOnUse" gradientTransform="translate(11.3594 13.7568) rotate(-130.951) scale(4.37963 2.10577)">
<stop stop-color="#FFF4CB"/>
<stop offset="0.316474" stop-color="#FFC935"/>
<stop offset="1" stop-color="#FFA82B"/>
</radialGradient>
<radialGradient id="paint2_radial_6596_15367" cx="0" cy="0" r="1" gradientUnits="userSpaceOnUse" gradientTransform="translate(17.2604 14.5739) rotate(178.942) scale(9.50877 7.58943)">
<stop stop-color="#F19802"/>
<stop offset="0.463188" stop-color="#E67500"/>
<stop offset="0.683307" stop-color="#DE750C"/>
<stop offset="1" stop-color="#CF5C16"/>
</radialGradient>
<radialGradient id="paint3_radial_6596_15367" cx="0" cy="0" r="1" gradientUnits="userSpaceOnUse" gradientTransform="translate(16.6773 14.0581) rotate(-173.935) scale(10.4248 6.68579)">
<stop stop-color="#FFF4CB"/>
<stop offset="0.316474" stop-color="#FFC935"/>
<stop offset="1" stop-color="#FFA82B"/>
</radialGradient>
<linearGradient id="paint4_linear_6596_15367" x1="0.365067" y1="4.03016" x2="9.45757" y2="2.6188" gradientUnits="userSpaceOnUse">
<stop stop-color="#FFB324"/>
<stop offset="1" stop-color="#FD9400"/>
</linearGradient>
</defs>
</svg>
