<svg xmlns="http://www.w3.org/2000/svg" width="24" height="24" viewBox="0 0 24 24" fill="none">
  <mask id="mask0_5395_8428" style="mask-type:alpha" maskUnits="userSpaceOnUse" x="0" y="0" width="24" height="24">
    <rect width="24" height="24" fill="#D9D9D9"/>
  </mask>
  <g mask="url(#mask0_5395_8428)">
    <mask id="path-2-outside-1_5395_8428" maskUnits="userSpaceOnUse" x="1.45361" y="1.2226" width="20" height="22" fill="black">
      <rect fill="white" x="1.45361" y="1.2226" width="20" height="22"/>
      <path fill-rule="evenodd" clip-rule="evenodd" d="M6.70922 20.8358C6.58262 20.7847 6.45713 20.7292 6.33288 20.6691C2.50415 18.8189 1.30638 13.3748 3.6576 8.50945C4.86742 6.00597 6.78117 4.14352 8.87571 3.17733C9.55017 2.82465 10.2483 2.56455 10.952 2.40568C12.4535 2.0667 13.9807 2.18842 15.3594 2.8547C15.6507 2.99547 15.9271 3.15653 16.1881 3.33612L16.1881 3.3361L16.1883 3.33623L16.1884 3.33614L16.1941 3.34023C16.2532 3.38099 16.3115 3.42269 16.369 3.46533L17.77 4.46726C21.0566 6.64213 21.9872 11.7051 19.7918 16.2482C18.3222 19.289 15.8 21.3772 13.1693 22.0587C13.0377 22.0928 12.9059 22.1234 12.774 22.1504C11.3223 22.4472 9.85216 22.3117 8.52056 21.6682C8.42905 21.624 8.339 21.5778 8.25045 21.5296L6.70922 20.8358Z"/>
    </mask>
    <path fill-rule="evenodd" clip-rule="evenodd" d="M6.70922 20.8358C6.58262 20.7847 6.45713 20.7292 6.33288 20.6691C2.50415 18.8189 1.30638 13.3748 3.6576 8.50945C4.86742 6.00597 6.78117 4.14352 8.87571 3.17733C9.55017 2.82465 10.2483 2.56455 10.952 2.40568C12.4535 2.0667 13.9807 2.18842 15.3594 2.8547C15.6507 2.99547 15.9271 3.15653 16.1881 3.33612L16.1881 3.3361L16.1883 3.33623L16.1884 3.33614L16.1941 3.34023C16.2532 3.38099 16.3115 3.42269 16.369 3.46533L17.77 4.46726C21.0566 6.64213 21.9872 11.7051 19.7918 16.2482C18.3222 19.289 15.8 21.3772 13.1693 22.0587C13.0377 22.0928 12.9059 22.1234 12.774 22.1504C11.3223 22.4472 9.85216 22.3117 8.52056 21.6682C8.42905 21.624 8.339 21.5778 8.25045 21.5296L6.70922 20.8358Z" fill="white"/>
    <path d="M6.33288 20.6691L6.19035 20.9641H6.19035L6.33288 20.6691ZM6.70922 20.8358L6.8438 20.5368L6.83175 20.532L6.70922 20.8358ZM3.6576 8.50945L3.36265 8.36692L3.6576 8.50945ZM8.87571 3.17733L9.01293 3.47478L9.02031 3.47138L9.02751 3.46761L8.87571 3.17733ZM10.952 2.40568L11.0242 2.72522L11.0242 2.72521L10.952 2.40568ZM15.3594 2.8547L15.2169 3.14964L15.3594 2.8547ZM16.1881 3.33612L16.0025 3.606L16.2986 3.80975L16.4741 3.49599L16.1881 3.33612ZM16.1881 3.3361L16.3786 3.06955L16.0808 2.85684L15.9022 3.17623L16.1881 3.3361ZM16.1883 3.33623L15.9979 3.60278L16.2946 3.81472L16.4737 3.49711L16.1883 3.33623ZM16.1884 3.33614L16.3789 3.06969L16.0822 2.85748L15.903 3.17525L16.1884 3.33614ZM16.1941 3.34023L16.0035 3.60672L16.0081 3.6099L16.1941 3.34023ZM16.369 3.46533L16.1739 3.72853L16.1785 3.73178L16.369 3.46533ZM17.77 4.46726L17.5793 4.73389L17.5892 4.74044L17.77 4.46726ZM19.7918 16.2482L20.0867 16.3907L19.7918 16.2482ZM13.1693 22.0587L13.0871 21.7416H13.0871L13.1693 22.0587ZM12.774 22.1504L12.7083 21.8294L12.7083 21.8294L12.774 22.1504ZM8.52056 21.6682L8.37803 21.9632H8.37803L8.52056 21.6682ZM8.25045 21.5296L8.40699 21.2418L8.39616 21.2359L8.38492 21.2309L8.25045 21.5296ZM6.19035 20.9641C6.32117 21.0273 6.45333 21.0858 6.58669 21.1395L6.83175 20.532C6.71191 20.4836 6.59308 20.431 6.47541 20.3742L6.19035 20.9641ZM3.36265 8.36692C0.966431 13.3254 2.13679 19.0052 6.19035 20.9641L6.47541 20.3742C2.87151 18.6326 1.64633 13.4242 3.95254 8.65198L3.36265 8.36692ZM8.7385 2.87987C6.56949 3.88041 4.60277 5.80076 3.36265 8.36692L3.95254 8.65198C5.13208 6.21118 6.99285 4.40663 9.01293 3.47478L8.7385 2.87987ZM10.8799 2.08614C10.1467 2.25167 9.42192 2.52205 8.72392 2.88704L9.02751 3.46761C9.67842 3.12724 10.3498 2.87744 11.0242 2.72522L10.8799 2.08614ZM15.502 2.55975C14.0492 1.85767 12.4452 1.73275 10.8799 2.08614L11.0242 2.72521C12.4617 2.40065 13.9123 2.51917 15.2169 3.14964L15.502 2.55975ZM16.3738 3.06624C16.0991 2.87728 15.8084 2.70782 15.502 2.55975L15.2169 3.14964C15.4931 3.28311 15.7551 3.43579 16.0025 3.606L16.3738 3.06624ZM15.9022 3.17623L15.9022 3.17625L16.4741 3.49599L16.4741 3.49597L15.9022 3.17623ZM16.3787 3.06968L16.3786 3.06955L15.9977 3.60265L15.9979 3.60278L16.3787 3.06968ZM15.903 3.17525L15.903 3.17534L16.4737 3.49711L16.4737 3.49702L15.903 3.17525ZM16.3847 3.07378L16.3789 3.06969L15.9978 3.60259L16.0035 3.60668L16.3847 3.07378ZM16.5641 3.20217C16.5036 3.15732 16.4423 3.11345 16.3801 3.07057L16.0081 3.6099C16.0641 3.64853 16.1194 3.68807 16.1739 3.72849L16.5641 3.20217ZM17.9605 4.20081L16.5596 3.19888L16.1785 3.73178L17.5794 4.73371L17.9605 4.20081ZM20.0867 16.3907C22.3284 11.752 21.4173 6.488 17.9507 4.19408L17.5892 4.74044C20.6959 6.79626 21.646 11.6582 19.4968 16.1056L20.0867 16.3907ZM13.2514 22.3758C15.9868 21.6672 18.5808 19.5069 20.0867 16.3907L19.4968 16.1056C18.0637 19.0711 15.6132 21.0872 13.0871 21.7416L13.2514 22.3758ZM12.8396 22.4713C12.9772 22.4432 13.1145 22.4113 13.2514 22.3758L13.0871 21.7416C12.961 21.7743 12.8347 21.8036 12.7083 21.8294L12.8396 22.4713ZM8.37803 21.9632C9.78106 22.6412 11.3253 22.781 12.8396 22.4713L12.7083 21.8294C11.3193 22.1135 9.92327 21.9823 8.6631 21.3733L8.37803 21.9632ZM8.0939 21.8173C8.18707 21.868 8.28178 21.9166 8.37803 21.9632L8.6631 21.3733C8.57631 21.3313 8.49094 21.2875 8.40699 21.2418L8.0939 21.8173ZM6.57475 21.1345L8.11598 21.8283L8.38492 21.2309L6.84369 20.537L6.57475 21.1345Z" fill="#834300" mask="url(#path-2-outside-1_5395_8428)"/>
    <path fill-rule="evenodd" clip-rule="evenodd" d="M6.70794 20.8352C6.58177 20.7843 6.45671 20.729 6.33288 20.6691C2.50415 18.8189 1.30638 13.3748 3.6576 8.50946C4.86727 6.0063 6.78068 4.144 8.87492 3.17771C10.9884 2.07228 13.3341 1.87602 15.3593 2.8547C15.6506 2.99547 15.9269 3.15653 16.188 3.33612L16.188 3.3361L16.1891 3.33692C16.2515 3.37983 16.3129 3.4238 16.3735 3.4688L17.7675 4.46572C21.056 6.63973 21.9876 11.704 19.7916 16.2482C17.4404 21.1135 12.3942 23.5401 8.52056 21.6682C8.42946 21.6241 8.33982 21.5781 8.25166 21.5302L6.70794 20.8352Z" fill="white"/>
    <path fill-rule="evenodd" clip-rule="evenodd" d="M8.95035 17.0218C7.36332 15.7072 6.96784 13.0562 8.12424 10.6632C9.27735 8.27712 11.5903 6.94057 13.6025 7.35603C13.3862 7.17686 13.1477 7.02251 12.8881 6.89703C10.7232 5.85086 7.90309 7.20701 6.58908 9.92607C5.27507 12.6451 5.96479 15.6975 8.12961 16.7436C8.39469 16.8717 8.66959 16.9638 8.95035 17.0218Z" fill="url(#paint0_radial_5395_8428)"/>
    <path fill-rule="evenodd" clip-rule="evenodd" d="M12.7469 6.83286C10.6528 6.14681 8.11088 7.4975 6.88337 10.0376C5.56936 12.7566 6.25908 15.8089 8.4239 16.8551C8.47053 16.8777 8.51747 16.8991 8.56469 16.9194C8.41712 16.871 8.27178 16.8126 8.12927 16.7437C5.96445 15.6976 5.27474 12.6452 6.58874 9.92618C7.87445 7.26569 10.6021 5.91003 12.7469 6.83286Z" fill="url(#paint1_radial_5395_8428)"/>
    <path fill-rule="evenodd" clip-rule="evenodd" d="M8.52034 21.6682C8.42859 21.6239 8.33831 21.5775 8.24954 21.5292L6.36065 20.6789L6.60718 20.2438C4.30751 17.7455 3.85865 13.4116 5.76381 9.4693C7.91156 5.02499 12.3081 2.61558 16.0054 3.65869L16.1882 3.33617L17.7725 4.46925C21.0568 6.64517 21.9862 11.7065 19.7914 16.2482C17.4402 21.1136 12.3939 23.5402 8.52034 21.6682ZM6.58909 9.92615C5.27509 12.6452 5.9648 15.6975 8.12962 16.7437C10.2944 17.7899 13.1146 16.4337 14.4286 13.7147C15.7426 10.9956 15.0529 7.94327 12.8881 6.89711C10.7232 5.85094 7.9031 7.20709 6.58909 9.92615Z" fill="url(#paint2_radial_5395_8428)"/>
    <path fill-rule="evenodd" clip-rule="evenodd" d="M4.08803 8.27472C1.73682 13.1401 2.97096 18.6017 6.84456 20.4737C10.7182 22.3456 15.7644 19.919 18.1156 15.0537C20.4668 10.1883 19.2327 4.72667 15.3591 2.85472C11.4855 0.982767 6.43924 3.40939 4.08803 8.27472ZM6.58966 9.92634C5.27566 12.6454 5.96537 15.6977 8.13019 16.7439C10.295 17.7901 13.1152 16.4339 14.4292 13.7148C15.7432 10.9958 15.0535 7.94346 12.8886 6.8973C10.7238 5.85113 7.90367 7.20728 6.58966 9.92634Z" fill="url(#paint3_radial_5395_8428)"/>
    <ellipse cx="10.59" cy="11.8597" rx="9.78422" ry="7.6996" transform="rotate(115.793 10.59 11.8597)" fill="url(#paint4_linear_5395_8428)"/>
    <g filter="url(#filter0_di_5395_8428)">
      <path d="M12.0957 6.43873C12.3696 6.14949 12.7023 6.29158 12.6827 6.68941L12.5435 9.51936C12.5361 9.66983 12.5818 9.79729 12.6682 9.8669L14.292 11.1761C14.5203 11.3601 14.4226 11.8734 14.1197 12.0817L11.9651 13.563C11.8505 13.6418 11.7551 13.7756 11.7048 13.9281L10.7604 16.7947C10.6277 17.1977 10.2346 17.3728 10.067 17.1037L8.87456 15.1893C8.81116 15.0875 8.70647 15.0428 8.58909 15.0673L6.38159 15.5298C6.07126 15.5949 5.92597 15.1898 6.12527 14.8152L7.54298 12.1507C7.61836 12.009 7.64908 11.8475 7.62675 11.7103L7.20685 9.12949C7.14783 8.76669 7.4511 8.3412 7.7419 8.37883L9.81051 8.64652C9.9205 8.66075 10.0442 8.60564 10.1478 8.49624L12.0957 6.43873Z" fill="#834200"/>
    </g>
  </g>
  <defs>
    <filter id="filter0_di_5395_8428" x="6.03369" y="6.28583" width="8.38379" height="11.1342" filterUnits="userSpaceOnUse" color-interpolation-filters="sRGB">
      <feFlood flood-opacity="0" result="BackgroundImageFix"/>
      <feColorMatrix in="SourceAlpha" type="matrix" values="0 0 0 0 0 0 0 0 0 0 0 0 0 0 0 0 0 0 127 0" result="hardAlpha"/>
      <feOffset dy="0.187276"/>
      <feComposite in2="hardAlpha" operator="out"/>
      <feColorMatrix type="matrix" values="0 0 0 0 1 0 0 0 0 0.988235 0 0 0 0 0.721569 0 0 0 1 0"/>
      <feBlend mode="normal" in2="BackgroundImageFix" result="effect1_dropShadow_5395_8428"/>
      <feBlend mode="normal" in="SourceGraphic" in2="effect1_dropShadow_5395_8428" result="shape"/>
      <feColorMatrix in="SourceAlpha" type="matrix" values="0 0 0 0 0 0 0 0 0 0 0 0 0 0 0 0 0 0 127 0" result="hardAlpha"/>
      <feOffset dy="0.374551"/>
      <feComposite in2="hardAlpha" operator="arithmetic" k2="-1" k3="1"/>
      <feColorMatrix type="matrix" values="0 0 0 0 0 0 0 0 0 0 0 0 0 0 0 0 0 0 0.25 0"/>
      <feBlend mode="normal" in2="shape" result="effect2_innerShadow_5395_8428"/>
    </filter>
    <radialGradient id="paint0_radial_5395_8428" cx="0" cy="0" r="1" gradientUnits="userSpaceOnUse" gradientTransform="translate(8.07024 11.0617) rotate(-152.731) scale(6.01651 5.86602)">
      <stop stop-color="#FFA115"/>
      <stop offset="0.81184" stop-color="#DD7203"/>
    </radialGradient>
    <radialGradient id="paint1_radial_5395_8428" cx="0" cy="0" r="1" gradientUnits="userSpaceOnUse" gradientTransform="translate(8.80099 11.2628) rotate(-160.606) scale(9.06298 4.28237)">
      <stop stop-color="#FFF4CB"/>
      <stop offset="0.316474" stop-color="#FFC935"/>
      <stop offset="1" stop-color="#FFA82B"/>
    </radialGradient>
    <radialGradient id="paint2_radial_5395_8428" cx="0" cy="0" r="1" gradientUnits="userSpaceOnUse" gradientTransform="translate(20.291 6.8665) rotate(150.231) scale(19.598 15.4804)">
      <stop stop-color="#F19802"/>
      <stop offset="0.463188" stop-color="#E67500"/>
      <stop offset="0.683307" stop-color="#DE750C"/>
      <stop offset="1" stop-color="#CF5C16"/>
    </radialGradient>
    <radialGradient id="paint3_radial_5395_8428" cx="0" cy="0" r="1" gradientUnits="userSpaceOnUse" gradientTransform="translate(18.7153 6.52914) rotate(157.266) scale(21.53 13.6093)">
      <stop stop-color="#FFF4CB"/>
      <stop offset="0.316474" stop-color="#FFC935"/>
      <stop offset="1" stop-color="#FFA82B"/>
    </radialGradient>
    <linearGradient id="paint4_linear_5395_8428" x1="1.54943" y1="12.4764" x2="20.082" y2="9.63671" gradientUnits="userSpaceOnUse">
      <stop stop-color="#FFB324"/>
      <stop offset="1" stop-color="#FD9400"/>
    </linearGradient>
  </defs>
</svg>