<svg width="84" height="84" viewBox="0 0 84 84" fill="none" xmlns="http://www.w3.org/2000/svg">
<mask id="mask0_6596_11799" style="mask-type:alpha" maskUnits="userSpaceOnUse" x="0" y="0" width="84" height="84">
<rect width="84" height="84" fill="#D9D9D9"/>
</mask>
<g mask="url(#mask0_6596_11799)">
<mask id="path-2-outside-1_6596_11799" maskUnits="userSpaceOnUse" x="-2.24639" y="1.50933" width="76.8374" height="87.1493" fill="black">
<rect fill="white" x="-2.24639" y="1.50933" width="76.8374" height="87.1493"/>
<path fill-rule="evenodd" clip-rule="evenodd" d="M52.6398 31.6738C58.4341 25.7281 60.2094 15.5939 60.4469 10.194L60.4495 10.1775C61.8429 1.04223 39.6592 5.91271 37.2068 11.9926C33.2077 11.9655 26.8009 14.119 28.4146 17.3222C28.3896 17.4283 28.3837 17.5343 28.3978 17.64C28.866 21.1576 33.1135 27.4538 35.1787 30.1622C34.9898 30.1721 34.8022 30.1853 34.616 30.2017C34.367 30.0739 34.1114 29.9534 33.846 29.843C33.7315 30.0079 33.6437 30.1694 33.5803 30.3273C18.8763 32.6068 12.907 54.9496 13.23 57.376C13.4313 58.889 11.5524 60.4471 9.8059 61.8953C8.65198 62.8521 7.55589 63.761 7.15587 64.5773C6.1504 66.6289 12.7663 68.3054 15.9906 68.5155C17.2722 68.599 18.6262 69.9857 20.421 71.8239C21.1291 72.5491 21.9057 73.3445 22.7737 74.1579C25.2407 76.47 28.4449 78.9272 32.9055 80.3281L35.571 73.7564L35.5711 73.7564L32.9056 80.3282C35.251 81.0648 37.8612 81.415 40.5142 81.5071C49.1811 81.808 58.307 79.3545 60.1667 78.6175C60.7101 78.4021 61.4988 78.3461 62.415 78.372C63.3805 78.3994 64.4875 78.5178 65.5983 78.6365L65.5985 78.6366L65.5986 78.6366L65.5987 78.6366L65.5988 78.6366C66.5538 78.7387 67.5116 78.8411 68.3848 78.8863C69.8402 78.9616 71.0604 78.878 71.6405 78.3689C73.3577 76.8617 72.3115 73.8046 70.47 69.5748C69.5081 67.3655 69.2662 64.0139 68.9626 59.8062C68.6849 55.9583 68.3555 51.3943 67.3765 46.3334C66.5962 42.2995 64.1786 39.0917 61.403 36.6913C59.0756 34.6785 56.4964 33.2334 54.4199 32.345C54.1217 32.2175 53.8339 32.1014 53.5587 31.9968C53.6069 31.869 53.6386 31.7385 53.6528 31.6053C53.446 31.6749 53.242 31.7425 53.0407 31.8079C52.903 31.76 52.7692 31.7153 52.6398 31.6738ZM45.8543 48.4032L45.8544 48.4032L51.8526 33.6146L45.8543 48.4032Z"/>
</mask>
<path fill-rule="evenodd" clip-rule="evenodd" d="M52.6398 31.6738C58.4341 25.7281 60.2094 15.5939 60.4469 10.194L60.4495 10.1775C61.8429 1.04223 39.6592 5.91271 37.2068 11.9926C33.2077 11.9655 26.8009 14.119 28.4146 17.3222C28.3896 17.4283 28.3837 17.5343 28.3978 17.64C28.866 21.1576 33.1135 27.4538 35.1787 30.1622C34.9898 30.1721 34.8022 30.1853 34.616 30.2017C34.367 30.0739 34.1114 29.9534 33.846 29.843C33.7315 30.0079 33.6437 30.1694 33.5803 30.3273C18.8763 32.6068 12.907 54.9496 13.23 57.376C13.4313 58.889 11.5524 60.4471 9.8059 61.8953C8.65198 62.8521 7.55589 63.761 7.15587 64.5773C6.1504 66.6289 12.7663 68.3054 15.9906 68.5155C17.2722 68.599 18.6262 69.9857 20.421 71.8239C21.1291 72.5491 21.9057 73.3445 22.7737 74.1579C25.2407 76.47 28.4449 78.9272 32.9055 80.3281L35.571 73.7564L35.5711 73.7564L32.9056 80.3282C35.251 81.0648 37.8612 81.415 40.5142 81.5071C49.1811 81.808 58.307 79.3545 60.1667 78.6175C60.7101 78.4021 61.4988 78.3461 62.415 78.372C63.3805 78.3994 64.4875 78.5178 65.5983 78.6365L65.5985 78.6366L65.5986 78.6366L65.5987 78.6366L65.5988 78.6366C66.5538 78.7387 67.5116 78.8411 68.3848 78.8863C69.8402 78.9616 71.0604 78.878 71.6405 78.3689C73.3577 76.8617 72.3115 73.8046 70.47 69.5748C69.5081 67.3655 69.2662 64.0139 68.9626 59.8062C68.6849 55.9583 68.3555 51.3943 67.3765 46.3334C66.5962 42.2995 64.1786 39.0917 61.403 36.6913C59.0756 34.6785 56.4964 33.2334 54.4199 32.345C54.1217 32.2175 53.8339 32.1014 53.5587 31.9968C53.6069 31.869 53.6386 31.7385 53.6528 31.6053C53.446 31.6749 53.242 31.7425 53.0407 31.8079C52.903 31.76 52.7692 31.7153 52.6398 31.6738ZM45.8543 48.4032L45.8544 48.4032L51.8526 33.6146L45.8543 48.4032Z" fill="#CCC7AE"/>
<path d="M60.4469 10.194L59.1943 10.0012L59.1838 10.0694L59.1808 10.1383L60.4469 10.194ZM52.6398 31.6738L51.7322 30.7893L50.3029 32.2559L52.2531 32.8807L52.6398 31.6738ZM60.4495 10.1775L61.7021 10.3704L61.7023 10.3686L60.4495 10.1775ZM37.2068 11.9926L37.1982 13.2599L38.0599 13.2658L38.3822 12.4667L37.2068 11.9926ZM28.4146 17.3222L29.6482 17.613L29.754 17.1639L29.5465 16.7519L28.4146 17.3222ZM35.1787 30.1622L35.2452 31.4278L37.6415 31.3019L36.1865 29.3937L35.1787 30.1622ZM34.616 30.2017L34.0371 31.3292L34.3626 31.4962L34.727 31.4642L34.616 30.2017ZM33.846 29.843L34.3329 28.6729L33.3884 28.2798L32.8049 29.1202L33.846 29.843ZM33.5803 30.3273L33.7745 31.5797L34.4877 31.4691L34.7565 30.7993L33.5803 30.3273ZM9.8059 61.8953L10.6149 62.8709L10.6149 62.8709L9.8059 61.8953ZM7.15587 64.5773L6.01782 64.0195L6.01782 64.0195L7.15587 64.5773ZM15.9906 68.5155L15.9082 69.7802L15.9082 69.7802L15.9906 68.5155ZM20.421 71.8239L19.5142 72.7093L19.5142 72.7093L20.421 71.8239ZM22.7737 74.1579L21.907 75.0826L21.907 75.0826L22.7737 74.1579ZM32.9055 80.3281L32.5257 81.5373L33.6407 81.8874L34.0799 80.8045L32.9055 80.3281ZM35.571 73.7564L35.5609 72.4891L34.7146 72.4959L34.3965 73.2801L35.571 73.7564ZM35.5711 73.7564L36.7455 74.2328L37.4589 72.474L35.561 72.4891L35.5711 73.7564ZM32.9056 80.3282L31.7312 79.8518L31.2146 81.1255L32.5259 81.5373L32.9056 80.3282ZM40.5142 81.5071L40.5582 80.2405L40.5582 80.2405L40.5142 81.5071ZM60.1667 78.6175L60.6336 79.7957L60.6336 79.7957L60.1667 78.6175ZM62.415 78.372L62.4509 77.1052L62.4509 77.1052L62.415 78.372ZM65.5983 78.6365L65.7605 77.3796L65.7468 77.3778L65.7331 77.3764L65.5983 78.6365ZM65.5985 78.6366L65.4364 79.8935L65.4872 79.9001L65.5383 79.9025L65.5985 78.6366ZM65.5986 78.6366L65.7411 77.3772L65.7001 77.3726L65.6589 77.3706L65.5986 78.6366ZM65.5987 78.6366L66.1743 77.5075L65.9696 77.4031L65.7412 77.3772L65.5987 78.6366ZM65.5988 78.6366L65.0233 79.7658L65.2316 79.872L65.4641 79.8968L65.5988 78.6366ZM68.3848 78.8863L68.4503 77.6206L68.4503 77.6206L68.3848 78.8863ZM71.6405 78.3689L72.4765 79.3214L72.4765 79.3214L71.6405 78.3689ZM70.47 69.5748L69.308 70.0807L70.47 69.5748ZM68.9626 59.8062L67.6985 59.8975L68.9626 59.8062ZM67.3765 46.3334L66.1322 46.5741L67.3765 46.3334ZM61.403 36.6913L60.5739 37.6499L60.5739 37.6499L61.403 36.6913ZM54.4199 32.345L53.9214 33.5102L53.9214 33.5102L54.4199 32.345ZM53.5587 31.9968L52.3729 31.5495L51.9268 32.7322L53.1083 33.1814L53.5587 31.9968ZM53.6528 31.6053L54.913 31.7394L55.1222 29.7733L53.2484 30.4042L53.6528 31.6053ZM53.0407 31.8079L52.6239 33.0048L53.0269 33.1452L53.4327 33.0132L53.0407 31.8079ZM45.8544 48.4032L44.8315 49.1516L46.1742 50.9866L47.0288 48.8796L45.8544 48.4032ZM45.8543 48.4032L44.6799 47.9268L44.4144 48.5815L44.8315 49.1516L45.8543 48.4032ZM59.1808 10.1383C59.066 12.7491 58.5769 16.5259 57.4143 20.3616C56.2483 24.2083 54.4344 28.0164 51.7322 30.7893L53.5475 32.5583C56.6395 29.3855 58.6104 25.1537 59.8401 21.0969C61.073 17.029 61.5904 13.0389 61.7131 10.2497L59.1808 10.1383ZM59.1969 9.98467L59.1943 10.0012L61.6995 10.3869L61.7021 10.3704L59.1969 9.98467ZM38.3822 12.4667C38.5813 11.973 39.0272 11.3922 39.777 10.7689C40.5165 10.1541 41.4856 9.55256 42.6234 8.99907C44.9006 7.89133 47.7339 7.03368 50.4548 6.63323C53.2098 6.22777 55.6745 6.31687 57.2989 6.93637C58.0926 7.23906 58.6013 7.6355 58.8915 8.07813C59.1692 8.50189 59.3322 9.09714 59.1966 9.98643L61.7023 10.3686C61.9151 8.97409 61.6896 7.7232 61.0113 6.68851C60.3454 5.67269 59.3305 4.99838 58.2021 4.56802C55.9823 3.72143 53.009 3.69527 50.0858 4.1255C47.1284 4.56075 44.0431 5.48974 41.5146 6.71971C40.2496 7.33506 39.0942 8.04016 38.1565 8.81978C37.2292 9.5908 36.4454 10.4923 36.0315 11.5185L38.3822 12.4667ZM29.5465 16.7519C29.363 16.3877 29.3983 16.1384 29.5986 15.8391C29.8564 15.4537 30.4034 15.0076 31.2657 14.5831C32.9726 13.7427 35.3768 13.2476 37.1982 13.2599L37.2154 10.7253C35.0377 10.7105 32.2389 11.2786 30.1461 12.309C29.1086 12.8198 28.1065 13.511 27.4919 14.4295C26.8198 15.434 26.6595 16.6551 27.2828 17.8924L29.5465 16.7519ZM29.654 17.4728C29.6612 17.5268 29.6569 17.5761 29.6482 17.613L27.1811 17.0313C27.1223 17.2805 27.1061 17.5418 27.1415 17.8072L29.654 17.4728ZM36.1865 29.3937C35.1794 28.073 33.6311 25.8646 32.2828 23.5638C30.9017 21.2071 29.8509 18.9515 29.654 17.4728L27.1415 17.8072C27.4128 19.8462 28.7199 22.4974 30.0959 24.8454C31.5046 27.2492 33.1127 29.543 34.1709 30.9307L36.1865 29.3937ZM34.727 31.4642C34.8984 31.4491 35.0711 31.437 35.2452 31.4278L35.1122 28.8966C34.9084 28.9073 34.706 28.9215 34.505 28.9392L34.727 31.4642ZM33.3591 31.0131C33.5891 31.1088 33.8139 31.2145 34.0371 31.3292L35.1948 29.0742C34.9201 28.9332 34.6338 28.798 34.3329 28.6729L33.3591 31.0131ZM34.7565 30.7993C34.7803 30.74 34.8203 30.662 34.8871 30.5657L32.8049 29.1202C32.6428 29.3539 32.5071 29.5988 32.4041 29.8553L34.7565 30.7993ZM14.4862 57.2088C14.4876 57.2193 14.4838 57.1934 14.4853 57.1168C14.4867 57.0448 14.4925 56.9475 14.5049 56.8228C14.5297 56.5729 14.5779 56.246 14.6537 55.8472C14.805 55.0508 15.0575 54.0136 15.4193 52.8119C16.1429 50.4079 17.2884 47.3954 18.8885 44.3926C22.1261 38.3169 27.0334 32.6247 33.7745 31.5797L33.3862 29.0749C25.4232 30.3093 19.9938 36.9284 16.6515 43.2005C14.9617 46.3717 13.7564 49.5423 12.9921 52.0813C12.6099 53.351 12.3342 54.4752 12.1635 55.3741C12.005 56.2084 11.9029 57.0114 11.9737 57.5433L14.4862 57.2088ZM10.6149 62.8709C11.4665 62.1647 12.4598 61.3453 13.2033 60.4932C13.9127 59.6802 14.6635 58.5407 14.4862 57.2088L11.9737 57.5433C11.9978 57.7244 11.9097 58.1204 11.2934 58.8267C10.7112 59.4939 9.8918 60.1776 8.99692 60.9197L10.6149 62.8709ZM8.29392 65.135C8.39198 64.9349 8.63082 64.6299 9.07518 64.2039C9.50406 63.7928 10.0287 63.3569 10.6149 62.8709L8.99692 60.9197C8.42914 61.3905 7.82881 61.8875 7.32116 62.3741C6.829 62.8458 6.31979 63.4034 6.01782 64.0195L8.29392 65.135ZM16.073 67.2508C14.5756 67.1533 12.2339 66.705 10.4199 66.0458C9.49673 65.7103 8.83372 65.3634 8.47858 65.0622C8.30416 64.9142 8.2882 64.8471 8.30124 64.8819C8.33239 64.965 8.32226 65.0772 8.29392 65.135L6.01782 64.0195C5.73811 64.5903 5.71479 65.2036 5.92788 65.7719C6.12287 66.2919 6.484 66.6941 6.83881 66.9951C7.54213 67.5917 8.54608 68.0618 9.5542 68.4281C11.6029 69.1726 14.1813 69.6677 15.9082 69.7802L16.073 67.2508ZM21.3278 70.9385C20.4477 70.0372 19.6044 69.1708 18.812 68.5277C18.0388 67.9001 17.1212 67.3191 16.073 67.2508L15.9082 69.7802C16.1416 69.7954 16.5418 69.9496 17.2146 70.4957C17.8684 71.0264 18.5994 71.7724 19.5142 72.7093L21.3278 70.9385ZM23.6403 73.2331C22.7958 72.4416 22.0376 71.6655 21.3278 70.9385L19.5142 72.7093C20.2205 73.4326 21.0157 74.2473 21.907 75.0826L23.6403 73.2331ZM33.2852 79.119C29.074 77.7964 26.0319 75.4745 23.6403 73.2331L21.907 75.0826C24.4496 77.4655 27.8157 80.0581 32.5257 81.5373L33.2852 79.119ZM34.3965 73.2801L31.731 79.8518L34.0799 80.8045L36.7454 74.2328L34.3965 73.2801ZM35.561 72.4891L35.5609 72.4891L35.5811 75.0238L35.5812 75.0238L35.561 72.4891ZM34.08 80.8046L36.7455 74.2328L34.3967 73.2801L31.7312 79.8518L34.08 80.8046ZM40.5582 80.2405C37.9806 80.151 35.4905 79.8116 33.2853 79.119L32.5259 81.5373C35.0116 82.318 37.7417 82.679 40.4702 82.7737L40.5582 80.2405ZM59.6998 77.4393C58.8788 77.7646 56.2227 78.5443 52.6618 79.2054C49.1188 79.8632 44.7685 80.3867 40.5582 80.2405L40.4702 82.7737C44.9268 82.9284 49.4729 82.3756 53.1245 81.6976C56.7581 81.0229 59.5949 80.2074 60.6336 79.7957L59.6998 77.4393ZM62.4509 77.1052C61.5169 77.0787 60.5019 77.1214 59.6998 77.4393L60.6336 79.7957C60.9184 79.6829 61.4808 79.6135 62.3792 79.6389L62.4509 77.1052ZM65.7331 77.3764C64.6356 77.259 63.4758 77.1342 62.4509 77.1052L62.3791 79.6389C63.2851 79.6646 64.3393 79.7765 65.4636 79.8967L65.7331 77.3764ZM65.7606 77.3796L65.7605 77.3796L65.4362 79.8935L65.4364 79.8935L65.7606 77.3796ZM65.6589 77.3706L65.6587 77.3706L65.5383 79.9025L65.5384 79.9025L65.6589 77.3706ZM65.7412 77.3772L65.7411 77.3772L65.4562 79.8959L65.4563 79.8959L65.7412 77.3772ZM66.1744 77.5075L66.1743 77.5075L65.0231 79.7657L65.0233 79.7658L66.1744 77.5075ZM68.4503 77.6206C67.6184 77.5776 66.6967 77.4794 65.7336 77.3765L65.4641 79.8968C66.4109 79.9981 67.4049 80.1047 68.3193 80.152L68.4503 77.6206ZM70.8045 77.4163C70.8104 77.4111 70.7776 77.4414 70.6648 77.4818C70.5528 77.5219 70.3921 77.5611 70.1722 77.5906C69.7267 77.6504 69.1479 77.6567 68.4503 77.6206L68.3193 80.152C69.077 80.1912 69.836 80.1933 70.5096 80.1028C71.1509 80.0167 71.9036 79.8242 72.4765 79.3214L70.8045 77.4163ZM69.308 70.0807C70.2341 72.208 70.897 73.9054 71.144 75.2259C71.3916 76.5494 71.1562 77.1076 70.8045 77.4163L72.4765 79.3214C73.842 78.123 73.9422 76.3991 73.6356 74.7598C73.3284 73.1176 72.5474 71.1714 71.632 69.0689L69.308 70.0807ZM67.6985 59.8975C67.8495 61.9901 67.9884 63.9215 68.2132 65.6074C68.437 67.2862 68.7566 68.8143 69.308 70.0807L71.632 69.0689C71.2215 68.126 70.9392 66.8736 70.7257 65.2724C70.5132 63.6782 70.3793 61.83 70.2267 59.715L67.6985 59.8975ZM66.1322 46.5741C67.0952 51.5521 67.4206 56.0468 67.6985 59.8975L70.2267 59.715C69.9492 55.8697 69.6158 51.2366 68.6208 46.0927L66.1322 46.5741ZM60.5739 37.6499C63.2133 39.9325 65.4228 42.9068 66.1322 46.5741L68.6208 46.0927C67.7696 41.6922 65.1438 38.2509 62.232 35.7327L60.5739 37.6499ZM53.9214 33.5102C55.9009 34.3571 58.3628 35.7377 60.5739 37.6499L62.232 35.7327C59.7883 33.6194 57.092 32.1097 54.9184 31.1798L53.9214 33.5102ZM53.1083 33.1814C53.3669 33.2797 53.6387 33.3893 53.9214 33.5102L54.9184 31.1798C54.6048 31.0456 54.3009 30.9231 54.0091 30.8121L53.1083 33.1814ZM52.3925 31.4712C52.3903 31.4921 52.3849 31.5176 52.3729 31.5495L54.7445 32.4441C54.8289 32.2205 54.8869 31.9849 54.913 31.7394L52.3925 31.4712ZM53.4327 33.0132C53.6382 32.9463 53.8464 32.8774 54.0572 32.8065L53.2484 30.4042C53.0457 30.4725 52.8458 30.5386 52.6487 30.6027L53.4327 33.0132ZM52.2531 32.8807C52.3721 32.9189 52.4958 32.9602 52.6239 33.0048L53.4575 30.6111C53.3101 30.5598 53.1663 30.5117 53.0265 30.4669L52.2531 32.8807ZM46.8772 47.6549L46.8771 47.6548L44.8315 49.1516L44.8315 49.1516L46.8772 47.6549ZM50.6782 33.1383L44.6799 47.9269L47.0288 48.8796L53.027 34.091L50.6782 33.1383ZM47.0288 48.8796L53.027 34.091L50.6782 33.1383L44.6799 47.9268L47.0288 48.8796Z" fill="#834200" mask="url(#path-2-outside-1_6596_11799)"/>
<path d="M52.6395 31.6737C58.939 25.2096 60.4882 13.7948 60.4754 8.89545C49.5877 10.3446 27.9294 14.1224 28.3976 17.64C28.8658 21.1576 33.1133 27.4538 35.1785 30.1622C19.3077 30.9961 12.8954 54.8634 13.2298 57.376C13.5642 59.8886 8.16119 62.5256 7.15572 64.5772C6.15025 66.6289 12.7661 68.3054 15.9905 68.5155C19.2148 68.7256 22.8979 77.1852 32.9053 80.3281C42.9128 83.471 57.7374 79.58 60.1664 78.6174C62.5954 77.6548 69.923 79.8759 71.6402 78.3688C73.3575 76.8617 72.3113 73.8045 70.4697 69.5747C68.6282 65.3449 69.4257 56.9282 67.3762 46.3334C65.7367 37.8575 56.8686 33.0286 52.6395 31.6737Z" fill="#F6EAC6"/>
<path fill-rule="evenodd" clip-rule="evenodd" d="M33.3783 31.0412C31.5904 36.8196 32.7969 46.8448 51.9268 40.7186C61.7259 37.4965 64.2757 61.4495 55.6056 68.357C48.2449 74.2212 34.0041 76.8544 22.7736 74.1579C25.2407 76.4701 28.4448 78.9273 32.9055 80.3282C42.913 83.4711 57.7376 79.5801 60.1666 78.6176C61.2828 78.1752 63.4335 78.4052 65.5988 78.6367C68.1454 78.909 70.7123 79.1834 71.6404 78.3689C73.3577 76.8618 72.3115 73.8047 70.4699 69.5749C69.508 67.3655 69.2662 64.0139 68.9625 59.8063C68.6848 55.9583 68.3554 51.3944 67.3764 46.3335C65.7369 37.8576 56.8688 33.0288 52.6397 31.6739C58.9392 25.2098 60.4884 13.795 60.4755 8.89558C60.0701 8.94954 59.6498 9.00673 59.2162 9.06702L52.0572 17.6874C52.5174 19.5439 52.9855 23.7008 51.1761 25.4759C48.9143 27.6948 44.9353 31.4208 44.4337 27.6519C43.932 23.883 41.085 21.7049 40.7913 24.3011C40.6553 25.5037 41.2649 27.1559 41.7547 28.483C42.3222 30.0208 42.7286 31.1222 41.6274 30.5825C41.1932 30.3697 40.4945 30.1062 39.6393 29.7837C37.699 29.0519 34.9531 28.0163 32.6629 26.5798C33.5959 28.009 34.5038 29.2772 35.1787 30.1623C34.4423 30.201 33.7262 30.2893 33.0303 30.4227C33.15 30.6356 33.2664 30.8424 33.3783 31.0412Z" fill="#CCC7AE"/>
<path d="M52.4432 33.2336C52.5193 33.1273 52.5223 32.9853 52.4509 32.8758C52.3794 32.7664 52.2481 32.7121 52.1202 32.7391C46.1614 33.9955 42.2791 33.7737 39.6201 33.1243C37.6507 32.6433 36.363 31.9376 35.346 31.3801C34.9801 31.1796 34.6493 30.9983 34.3344 30.8535C34.2567 30.8178 34.1678 30.815 34.088 30.8458C34.0082 30.8766 33.9442 30.9384 33.9107 31.017C33.2498 32.5649 33.66 33.9197 34.5261 34.9646C35.38 35.9946 36.6803 36.7347 37.8623 37.1298C44.048 39.1976 50.0729 36.5432 52.4432 33.2336Z" fill="url(#paint0_linear_6596_11799)" stroke="#82682B" stroke-width="0.633685" stroke-linejoin="round"/>
<path d="M53.9674 31.6389C53.9789 31.5315 53.9348 31.4258 53.8506 31.3582C53.7664 31.2907 53.6536 31.2706 53.5513 31.3051C46.7184 33.6056 42.9357 33.6011 40.3364 32.8371C39.0335 32.4542 38.01 31.8756 37.0269 31.2683C36.8682 31.1703 36.71 31.0711 36.5514 30.9717C35.7351 30.4599 34.9104 29.9429 33.9674 29.5505C33.8296 29.4931 33.6705 29.5397 33.5854 29.6623C33.1077 30.3504 33.0242 31.0259 33.2661 31.651C33.4986 32.2517 34.0137 32.7584 34.6309 33.1792C35.8684 34.0231 37.6657 34.6216 39.077 34.9586C42.1254 35.6866 45.7231 35.6303 48.601 35.0353C50.0397 34.7379 51.3172 34.302 52.2627 33.7487C53.1956 33.2026 53.876 32.4985 53.9674 31.6389Z" fill="url(#paint1_linear_6596_11799)" stroke="#82682B" stroke-width="0.633685" stroke-linejoin="round"/>
<path d="M29.6262 18.755C24.922 14.7784 32.6363 11.9616 37.2064 11.9926C39.6587 5.9127 61.8424 1.04223 60.449 10.1775C59.0556 19.3128 35.5065 23.7258 29.6262 18.755Z" fill="#DAD5BA"/>
<mask id="path-9-outside-2_6596_11799" maskUnits="userSpaceOnUse" x="17.3446" y="39.0759" width="34.2237" height="37.6609" fill="black">
<rect fill="white" x="17.3446" y="39.0759" width="34.2237" height="37.6609"/>
<path fill-rule="evenodd" clip-rule="evenodd" d="M31.5236 73.1232C25.9691 71.6023 21.4563 66.3463 20.558 59.5971C19.4036 50.9242 24.6548 43.0699 32.287 42.0541C34.2016 41.7992 36.0841 41.9989 37.8485 42.5781C43.403 44.0989 47.9158 49.355 48.8142 56.1042C49.9686 64.7771 44.7173 72.6314 37.0852 73.6472C35.1706 73.9021 33.288 73.7023 31.5236 73.1232Z"/>
</mask>
<path fill-rule="evenodd" clip-rule="evenodd" d="M31.5236 73.1232C25.9691 71.6023 21.4563 66.3463 20.558 59.5971C19.4036 50.9242 24.6548 43.0699 32.287 42.0541C34.2016 41.7992 36.0841 41.9989 37.8485 42.5781C43.403 44.0989 47.9158 49.355 48.8142 56.1042C49.9686 64.7771 44.7173 72.6314 37.0852 73.6472C35.1706 73.9021 33.288 73.7023 31.5236 73.1232Z" fill="url(#paint2_linear_6596_11799)"/>
<path d="M31.5236 73.1232L31.6028 72.882L31.5906 72.8787L31.5236 73.1232ZM37.8485 42.5781L37.7693 42.8193L37.7815 42.8226L37.8485 42.5781ZM31.5906 72.8787C26.1453 71.3878 21.6957 66.2236 20.8092 59.5636L20.3067 59.6305C21.2169 66.469 25.793 71.8169 31.4567 73.3676L31.5906 72.8787ZM20.8092 59.5636C19.6692 50.9984 24.8563 43.2988 32.3204 42.3053L32.2535 41.8028C24.4534 42.841 19.138 50.85 20.3067 59.6305L20.8092 59.5636ZM32.3204 42.3053C34.1957 42.0557 36.0398 42.2512 37.7694 42.819L37.9275 42.3373C36.1285 41.7467 34.2075 41.5427 32.2535 41.8028L32.3204 42.3053ZM37.7815 42.8226C43.2268 44.3135 47.6765 49.4777 48.5629 56.1377L49.0654 56.0708C48.1552 49.2323 43.5792 43.8844 37.9154 42.3336L37.7815 42.8226ZM48.5629 56.1377C49.703 64.7029 44.5159 72.4025 37.0517 73.396L37.1186 73.8985C44.9187 72.8603 50.2342 64.8513 49.0654 56.0708L48.5629 56.1377ZM37.0517 73.396C35.1765 73.6456 33.3323 73.4501 31.6027 72.8823L31.4446 73.364C33.2437 73.9546 35.1647 74.1586 37.1186 73.8985L37.0517 73.396Z" fill="#6E541E" mask="url(#path-9-outside-2_6596_11799)"/>
<ellipse cx="34.9953" cy="57.9446" rx="13.9411" ry="15.8421" transform="rotate(-7.58165 34.9953 57.9446)" fill="#6E541E"/>
<ellipse cx="34.3781" cy="57.7587" rx="13.9411" ry="15.8421" transform="rotate(-7.58165 34.3781 57.7587)" fill="url(#paint3_linear_6596_11799)"/>
<g filter="url(#filter0_di_6596_11799)">
<path d="M31.3054 65.7955C30.5735 65.5615 29.8848 65.2486 29.2391 64.857C28.6104 64.4526 28.0773 64.0096 27.6398 63.5281L28.0163 61.3138L30.3094 61.7037L30.061 63.1647C30.3828 63.4543 30.7988 63.7129 31.3091 63.9406C31.8195 64.1683 32.3486 64.3287 32.8967 64.4219C33.762 64.569 34.4506 64.4903 34.9623 64.1859C35.4767 63.8662 35.7947 63.3487 35.9163 62.6334C36.0017 62.1312 35.9502 61.6919 35.762 61.3154C35.5882 60.9413 35.3056 60.5958 34.9144 60.2787C34.5231 59.9616 33.9724 59.5783 33.2624 59.1288C32.2702 58.506 31.4832 57.9416 30.9015 57.4355C30.3198 56.9295 29.8939 56.3795 29.6239 55.7856C29.371 55.1788 29.3104 54.4874 29.4424 53.7112C29.6287 52.6155 30.1223 51.8068 30.9233 51.2853C31.7268 50.7486 32.7184 50.5023 33.898 50.5462L34.3249 48.0351L36.445 48.3956L36.0258 50.861C36.7628 51.0646 37.4326 51.3586 38.035 51.7428C38.64 52.1119 39.154 52.536 39.5771 53.015L39.22 55.1152L36.9269 54.7253L37.1637 53.3328C36.5964 52.8292 35.7863 52.488 34.7335 52.309C33.897 52.1667 33.2111 52.2302 32.6756 52.4993C32.1402 52.7684 31.8091 53.2758 31.6823 54.0216C31.5943 54.539 31.672 54.9985 31.9153 55.4C32.1587 55.8015 32.4583 56.1343 32.814 56.3984C33.1698 56.6624 33.7289 57.0394 34.4915 57.5292C35.5099 58.1721 36.2851 58.7188 36.8169 59.1694C37.3487 59.6199 37.741 60.1486 37.994 60.7553C38.2496 61.3468 38.3049 62.0687 38.16 62.921C37.9789 63.9863 37.4729 64.8241 36.642 65.4345C35.8137 66.0296 34.7402 66.2777 33.4216 66.1788L33.0024 68.6442L30.8823 68.2838L31.3054 65.7955Z" fill="#834200"/>
</g>
<path d="M41.9758 18.7076C41.853 14.9449 43.9952 5.64385 54.6463 6.81751C65.2974 7.99117 52.298 18.8162 41.9758 18.7076Z" fill="#A9A58F"/>
<path d="M29.737 16.5309C29.7241 14.6641 35.2559 13.2007 38.2783 13.0274C39.7386 12.5583 43.982 10.5443 41.9735 13.2536C41.1993 14.2979 41.5179 17.3411 41.3415 18.9674C37.8429 18.8835 29.7499 18.3976 29.737 16.5309Z" fill="#CCC7AE"/>
</g>
<defs>
<filter id="filter0_di_6596_11799" x="27.6396" y="48.0352" width="11.9375" height="20.8983" filterUnits="userSpaceOnUse" color-interpolation-filters="sRGB">
<feFlood flood-opacity="0" result="BackgroundImageFix"/>
<feColorMatrix in="SourceAlpha" type="matrix" values="0 0 0 0 0 0 0 0 0 0 0 0 0 0 0 0 0 0 127 0" result="hardAlpha"/>
<feOffset dy="0.289167"/>
<feComposite in2="hardAlpha" operator="out"/>
<feColorMatrix type="matrix" values="0 0 0 0 1 0 0 0 0 0.988235 0 0 0 0 0.721569 0 0 0 1 0"/>
<feBlend mode="normal" in2="BackgroundImageFix" result="effect1_dropShadow_6596_11799"/>
<feBlend mode="normal" in="SourceGraphic" in2="effect1_dropShadow_6596_11799" result="shape"/>
<feColorMatrix in="SourceAlpha" type="matrix" values="0 0 0 0 0 0 0 0 0 0 0 0 0 0 0 0 0 0 127 0" result="hardAlpha"/>
<feOffset dy="0.578335"/>
<feComposite in2="hardAlpha" operator="arithmetic" k2="-1" k3="1"/>
<feColorMatrix type="matrix" values="0 0 0 0 0 0 0 0 0 0 0 0 0 0 0 0 0 0 0.25 0"/>
<feBlend mode="normal" in2="shape" result="effect2_innerShadow_6596_11799"/>
</filter>
<linearGradient id="paint0_linear_6596_11799" x1="34.7804" y1="32.2486" x2="52.4406" y2="33.031" gradientUnits="userSpaceOnUse">
<stop offset="0.00870902" stop-color="#997934"/>
<stop offset="0.547734" stop-color="#B18D42"/>
<stop offset="0.815152" stop-color="#AB873D"/>
<stop offset="1" stop-color="#82682B"/>
</linearGradient>
<linearGradient id="paint1_linear_6596_11799" x1="34.4634" y1="30.8338" x2="53.7596" y2="32.4127" gradientUnits="userSpaceOnUse">
<stop offset="0.00870902" stop-color="#997934"/>
<stop offset="0.247454" stop-color="#E2C262"/>
<stop offset="0.547734" stop-color="#B18D42"/>
<stop offset="0.815152" stop-color="#AB873D"/>
<stop offset="1" stop-color="#82682B"/>
</linearGradient>
<linearGradient id="paint2_linear_6596_11799" x1="32.287" y1="42.0541" x2="41.3289" y2="69.8819" gradientUnits="userSpaceOnUse">
<stop stop-color="#FEFCA6"/>
<stop offset="1" stop-color="#F7D362"/>
</linearGradient>
<linearGradient id="paint3_linear_6596_11799" x1="34.3781" y1="41.9165" x2="39.6695" y2="70.6941" gradientUnits="userSpaceOnUse">
<stop stop-color="#FEFCA6"/>
<stop offset="1" stop-color="#F7D362"/>
</linearGradient>
</defs>
</svg>
