<svg width="48" height="48" viewBox="0 0 48 48" fill="none" xmlns="http://www.w3.org/2000/svg">
<circle cx="24" cy="24" r="23.5" fill="#7733FF" stroke="black"/>
<path d="M18.4681 18.5919C18.4857 18.657 18.5286 18.7124 18.5874 18.7461C18.6461 18.7797 18.716 18.7888 18.7815 18.7714L30.5199 15.6486C30.5782 15.6333 30.6292 15.5981 30.6639 15.5492C30.6986 15.5003 30.7148 15.4407 30.7096 15.3811C30.7044 15.3215 30.6782 15.2656 30.6355 15.2233C30.5929 15.181 30.5366 15.155 30.4765 15.1499L17.5842 14.001C17.5432 13.9974 17.502 14.0036 17.464 14.0192C17.426 14.0347 17.3923 14.0591 17.3659 14.0904C17.3394 14.1216 17.3209 14.1586 17.3119 14.1985C17.3029 14.2383 17.3037 14.2797 17.3142 14.3191L18.4681 18.5919Z" fill="white"/>
<path d="M19.6379 26.2265L17.9253 19.8819L17.7022 19.0581L16.7902 15.679C16.7751 15.6253 16.7428 15.5779 16.698 15.5442C16.6533 15.5104 16.5987 15.4922 16.5425 15.4922C16.4863 15.4922 16.4317 15.5104 16.3869 15.5442C16.3422 15.5779 16.3099 15.6253 16.2948 15.679L13.0081 27.8601C12.9969 27.903 12.9973 27.9481 13.0092 27.9908C13.021 28.0335 13.0439 28.0724 13.0756 28.1036C13.1073 28.1348 13.1467 28.1573 13.1898 28.1687C13.2329 28.1802 13.2783 28.1802 13.3215 28.1689L19.4548 26.5376C19.4876 26.5295 19.5185 26.5149 19.5455 26.4948C19.5726 26.4746 19.5953 26.4493 19.6124 26.4203C19.6295 26.3913 19.6405 26.3593 19.6449 26.326C19.6493 26.2927 19.6469 26.2588 19.6379 26.2265Z" fill="white"/>
<path d="M33.9025 16.2833C33.8088 16.1225 33.6643 15.9968 33.4914 15.9256C33.3185 15.8544 33.1268 15.8417 32.9459 15.8895L19.003 19.5948C18.9375 19.6123 18.8816 19.6549 18.8477 19.7132C18.8138 19.7716 18.8046 19.8409 18.8222 19.906L20.4656 26.0058C20.4832 26.0709 20.5261 26.1263 20.5849 26.16C20.6436 26.1936 20.7135 26.2027 20.779 26.1853L36.8101 21.9218C36.848 21.9117 36.8831 21.8932 36.9126 21.8676C36.9421 21.842 36.9653 21.81 36.9804 21.7741C36.9955 21.7382 37.0021 21.6993 36.9996 21.6604C36.9972 21.6216 36.9858 21.5838 36.9663 21.5501L33.9025 16.2833Z" fill="white"/>
<path d="M19.9931 27.5417C19.9755 27.4766 19.9326 27.4212 19.8738 27.3876C19.8151 27.3539 19.7452 27.3448 19.6797 27.3622L13.5417 28.9935C13.4983 29.0048 13.4586 29.0272 13.4266 29.0586C13.3947 29.0899 13.3716 29.129 13.3597 29.172C13.3478 29.215 13.3475 29.2603 13.3589 29.3034C13.3702 29.3465 13.3928 29.3859 13.4243 29.4177L22.4359 38.4341C22.4755 38.4742 22.5275 38.5002 22.5836 38.5079C22.6397 38.5156 22.6969 38.5046 22.746 38.4766C22.7951 38.4486 22.8335 38.4052 22.8552 38.3532C22.8768 38.3012 22.8804 38.2436 22.8655 38.1894L19.9931 27.5417Z" fill="white"/>
<path d="M36.292 22.9441L21.0039 27.0107C20.9715 27.0192 20.9411 27.034 20.9145 27.0542C20.8879 27.0744 20.8655 27.0996 20.8487 27.1284C20.8319 27.1572 20.821 27.189 20.8166 27.222C20.8123 27.2549 20.8145 27.2885 20.8232 27.3206L23.8658 38.5893C23.8781 38.6347 23.9029 38.6758 23.9373 38.708C23.9717 38.7402 24.0145 38.7623 24.0609 38.7719C24.1072 38.7814 24.1553 38.778 24.1998 38.762C24.2443 38.7461 24.2835 38.7181 24.313 38.6814L36.5632 23.3472C36.5974 23.3051 36.6171 23.2533 36.6196 23.1992C36.622 23.1452 36.607 23.0918 36.5768 23.0468C36.5465 23.0018 36.5026 22.9676 36.4514 22.9491C36.4001 22.9306 36.3443 22.9289 36.292 22.9441Z" fill="white"/>
</svg>
