<svg width="120" height="120" viewBox="0 0 120 120" fill="none" xmlns="http://www.w3.org/2000/svg">
<mask id="mask0_3883_2123" style="mask-type:alpha" maskUnits="userSpaceOnUse" x="0" y="0" width="120" height="120">
<rect width="120" height="120" fill="#D9D9D9"/>
</mask>
<g mask="url(#mask0_3883_2123)">
<path d="M61.4928 10C83.6189 10 101.206 21.1907 107.589 41.0224H84.7536C80.2149 32.6648 71.9885 28.2735 61.4928 28.2735C43.7636 28.2735 31.4241 40.8808 31.4241 60.5708C31.4241 80.6858 43.9054 93.1515 62.3438 93.1515C77.6619 93.1515 87.4484 84.3689 90.4269 70.345H56.3868V55.1879H110V72.4698C106.029 92.5849 88.0158 111 61.6347 111C32.8424 111 11 90.1767 11 60.5708C11 30.9649 32.8424 10 61.4928 10Z" fill="white"/>
</g>
</svg>
