<svg width="400" height="400" viewBox="0 0 400 400" fill="none" xmlns="http://www.w3.org/2000/svg">
<g clip-path="url(#clip0_3978_2137)">
<path d="M200 400C310.457 400 400 310.457 400 200C400 89.5431 310.457 0 200 0C89.5431 0 0 89.5431 0 200C0 310.457 89.5431 400 200 400Z" fill="black"/>
<path fill-rule="evenodd" clip-rule="evenodd" d="M156.027 107.801H115.365V286.524H120.094V286.525H290.306V245.863H156.027V107.801Z" fill="white"/>
<path d="M285.58 143.735C305.426 143.735 321.514 127.647 321.514 107.801C321.514 87.9553 305.426 71.8672 285.58 71.8672C265.735 71.8672 249.646 87.9553 249.646 107.801C249.646 127.647 265.735 143.735 285.58 143.735Z" fill="white"/>
</g>
<defs>
<clipPath id="clip0_3978_2137">
<rect width="400" height="400" fill="white"/>
</clipPath>
</defs>
</svg>
