<svg width="32" height="32" viewBox="0 0 32 32" fill="none" xmlns="http://www.w3.org/2000/svg">
<path fill-rule="evenodd" clip-rule="evenodd" d="M7.43913 27.4739C3.94783 24.8652 1.68261 20.6957 1.68261 16C1.68261 8.09565 8.09565 1.68261 16 1.68261C22.5261 1.68261 29.6522 5.58261 31.3739 11.5565C29.4478 4.88261 23.2957 0 16 0C7.16522 0 0 7.16522 0 16C0 24.8348 7.16522 32 16 32C24.8348 32 32 24.8348 32 16V15.1565H31.1217C31.0957 15.1565 31.0565 15.1565 31.0043 15.1565C30.9 15.1565 30.7522 15.1522 30.5609 15.1435C30.1826 15.1304 29.6609 15.1043 29.0739 15.0522C27.8739 14.9478 26.5043 14.7435 25.5739 14.3696C24.0739 13.7696 23.2261 12.9783 22.2609 12.0478L22.2043 11.9957C21.2348 11.0652 20.1478 10.0174 18.2565 9.13043C16.3957 8.25652 14.3391 8.39565 12.8304 8.7087C12.0652 8.86522 11.4043 9.07391 10.9391 9.24348C10.7043 9.32609 10.5174 9.40435 10.387 9.45652C9.62609 9.77826 8.88696 10.1565 8.14348 10.5087C8.14348 10.5087 9.6087 10.9087 10.3304 11.1348C10.3565 11.1435 10.3957 11.1565 10.4522 11.1739C10.5609 11.2087 10.7174 11.2652 10.9043 11.3435C11.287 11.5 11.787 11.7304 12.2826 12.0522C13.0652 12.5522 13.713 13.187 13.9783 13.9609C12.3217 14.1783 10.7652 14.9087 9.6 15.5913C8.89565 16.0043 8.3087 16.4217 7.89565 16.7304C7.6913 16.887 7.52609 17.0174 7.41304 17.1087C7.31739 17.187 5.82174 18.5043 5.82174 18.5043C5.82174 18.5043 7.75217 18.7087 8.70435 18.9C9.33913 19.0261 10.1913 19.2348 11.087 19.5435C11.9826 19.8565 12.887 20.2652 13.6391 20.7913C14.3913 21.3174 14.9435 21.9217 15.213 22.6174C16.0043 24.6435 15.2261 26.613 13.6652 27.7217C12.1217 28.8174 9.77826 29.0783 7.43478 27.4696L7.43913 27.4739ZM12.9 29.9783C13.5304 29.7739 14.1174 29.4739 14.6478 29.1C16.7696 27.5913 17.887 24.8261 16.787 22.0087C16.3522 20.9 15.5261 20.0565 14.6087 19.413C13.687 18.7696 12.6304 18.3 11.6478 17.9565C11.0043 17.7304 10.3783 17.5565 9.83478 17.4261C10.0304 17.3 10.2348 17.1696 10.4565 17.0391C11.7522 16.2783 13.387 15.5783 14.9522 15.5783C17.313 15.5783 19.0696 16.3043 20.7478 17.0783C20.9 17.1478 21.0522 17.2217 21.2087 17.2913C22.7087 17.9957 24.2826 18.7348 26.113 18.7348C27.9435 18.7348 29.2696 18.2348 30.2217 17.713C29.3739 24.8087 23.3348 30.313 16.0087 30.313C14.9435 30.313 13.9043 30.1957 12.9087 29.9783H12.9ZM28.3957 16.6826C27.7652 16.8957 27 17.0522 26.1087 17.0522C24.6739 17.0522 23.4391 16.4783 21.8739 15.7478C21.7348 15.6826 21.5957 15.6174 21.4522 15.5522C19.8826 14.8261 18.0696 14.0565 15.7087 13.9174C15.3913 12.3565 14.2087 11.287 13.1913 10.6348C13.0783 10.5609 12.9652 10.4913 12.8522 10.4261C12.9522 10.4043 13.0565 10.3783 13.1652 10.3565C14.5304 10.0739 16.1565 10.0043 17.5348 10.6565C19.1696 11.4261 20.0957 12.313 21.0565 13.2348L21.0913 13.2652C22.0783 14.213 23.1261 15.2087 24.9478 15.9391C25.9609 16.3435 27.2739 16.5609 28.3957 16.6826Z" fill="url(#paint0_linear_362_1273)"/>
<defs>
<linearGradient id="paint0_linear_362_1273" x1="-0.286957" y1="16.2957" x2="32.287" y2="15.7" gradientUnits="userSpaceOnUse">
<stop stop-color="#29CCB9"/>
<stop offset="0.49" stop-color="#0091FF"/>
<stop offset="1" stop-color="#FF66B7"/>
</linearGradient>
</defs>
</svg>
