<svg width="40" height="40" viewBox="0 0 40 40" fill="none" xmlns="http://www.w3.org/2000/svg">
<path d="M36.3787 32.1401C36.0787 30.9401 34.9787 29.7401 33.0787 29.7401C33.0787 22.1401 33.0787 14.6401 33.0787 6.94011C33.0787 5.84011 32.6787 4.94011 31.8787 4.14011C31.1787 3.44011 30.2787 3.04011 29.1787 3.04011C21.6787 3.14011 14.3787 3.04011 6.87874 3.04011C3.57874 2.54011 1.67874 6.84011 4.07874 8.94011C4.97874 9.84011 6.07874 9.94011 7.27874 9.94011C8.07874 9.94011 8.87874 9.84011 9.67874 9.94011V32.5401C9.57874 35.4401 11.9787 37.0401 14.7787 36.6401H33.7787C35.8787 36.1401 36.9787 33.8401 36.3787 32.1401ZM4.57874 8.94011C3.37874 8.04011 2.97874 6.64011 3.47874 5.24011C4.47874 2.64011 7.97874 2.84011 9.07874 5.04011C8.47874 5.04011 7.07874 5.04011 6.77874 5.04011H6.67874C6.07874 5.04011 5.57874 5.04011 5.07874 5.44011C4.57874 5.64011 4.27874 6.54011 4.87874 6.84011C5.77874 7.24011 6.87874 6.94011 7.77874 7.04011C7.57874 8.64011 6.17874 9.24011 4.57874 8.94011ZM9.57874 8.94011V9.64011C8.17874 9.54011 6.57874 9.84011 5.17874 9.34011C6.67874 9.34011 7.87874 8.54011 8.07874 7.04011C8.07874 6.94011 8.07874 6.84011 8.07874 6.64011C8.07874 6.04011 7.67874 5.64011 7.37874 5.34011H9.17874C9.87874 6.44011 9.57874 7.84011 9.57874 8.94011ZM14.6787 36.3401C11.9787 36.6401 9.87874 35.2401 9.87874 32.5401C9.87874 26.9401 9.87874 21.3401 9.87874 15.9401C9.87874 13.5401 9.87874 11.0401 9.87874 8.64011C9.87874 6.44011 9.97874 4.54011 7.67874 3.44011C14.9787 3.34011 21.8787 3.44011 29.1787 3.44011C30.0787 3.44011 30.9787 3.84011 31.6787 4.54011C32.3787 5.24011 32.7787 6.14011 32.7787 7.14011C32.6787 14.8401 32.7787 22.2401 32.7787 29.8401C25.8787 29.8401 20.1787 29.8401 14.7787 29.8401C11.7787 29.2401 9.87874 33.4401 12.4787 35.3401C13.1787 36.1401 14.2787 36.0401 15.2787 36.0401C15.0787 36.0401 14.7787 36.1401 14.6787 36.3401ZM15.9787 31.5401C15.2787 31.5401 14.9787 31.5401 14.6787 31.5401C12.9787 31.1401 11.9787 33.1401 13.4787 33.0401H15.2787C15.2787 34.4401 14.0787 35.1401 12.6787 34.9401L12.5787 34.8401C10.2787 33.0401 11.7787 29.3401 14.7787 29.8401C14.8787 30.2401 15.2787 30.2401 15.5787 30.4401C15.8787 30.7401 16.1787 31.0401 16.4787 31.4401C16.3787 31.5401 16.1787 31.5401 15.9787 31.5401ZM16.4787 31.8401C17.1787 32.9401 16.7787 34.6401 15.6787 35.5401C14.8787 35.4401 13.8787 35.6401 13.1787 35.3401C14.9787 35.3401 16.1787 33.3401 15.1787 31.9401L15.0787 31.8401H16.4787ZM34.6787 35.9401C34.3787 36.1401 34.0787 36.2401 33.7787 36.3401H15.0787C17.7787 35.3401 17.9787 31.1401 15.2787 30.0401H33.0787C36.4787 30.1401 37.3787 34.2401 34.6787 35.9401Z" fill="#2B2129"/>
<path d="M7.77908 7.03984C7.57908 8.63984 6.17908 9.13984 4.57908 8.93984C3.37908 8.03984 2.97908 6.63984 3.47908 5.23984C4.47908 2.63984 7.97908 2.83984 9.07908 5.03984C8.47908 5.03984 7.07908 5.03984 6.77908 5.03984H6.67908C6.07908 5.03984 5.57908 5.03984 5.07908 5.43984C4.57908 5.63984 4.27908 6.53984 4.87908 6.83984C5.77908 7.33984 6.77908 6.93984 7.77908 7.03984Z" fill="#CBA68D"/>
<path d="M9.57871 8.93984V9.63984C8.17871 9.53984 6.57871 9.83984 5.17871 9.33984C6.67871 9.33984 7.87871 8.53984 8.07871 7.03984C8.07871 6.93984 8.07871 6.83984 8.07871 6.63984C8.07871 6.03984 7.67871 5.63984 7.37871 5.33984H9.17871C9.87871 6.43984 9.57871 7.83984 9.57871 8.93984Z" fill="#BB9168"/>
<path d="M15.6787 35.5398C14.8787 35.4398 13.8787 35.6398 13.1787 35.3398C14.9787 35.3398 16.1787 33.3398 15.1787 31.9398L15.0787 31.8398H16.4787C17.1787 32.9398 16.8787 34.6398 15.6787 35.5398Z" fill="#BB9168"/>
<path d="M13.4786 33.1401H15.2786C15.2786 34.5401 14.0786 35.2401 12.6786 35.0401L12.5786 34.9401C10.2786 33.1401 11.7786 29.4401 14.7786 29.9401C14.8786 30.3401 15.2786 30.3401 15.5786 30.5401C15.8786 30.8401 16.1786 31.1401 16.4786 31.5401C16.3786 31.5401 16.1786 31.5401 15.9786 31.5401C15.2786 31.5401 14.9786 31.5401 14.6786 31.5401C12.8786 31.1401 11.8786 33.2401 13.4786 33.1401Z" fill="#CBA58C"/>
<path d="M32.7787 6.94023C32.7787 5.94023 32.3787 5.04023 31.6787 4.34023C30.9787 3.64023 30.0787 3.24023 29.1787 3.24023C21.8787 3.34023 14.9787 3.24023 7.67871 3.24023C9.97871 4.34023 9.97871 6.34023 9.87871 8.44023V15.7402V32.3402C9.87871 35.0402 11.8787 36.4402 14.5787 36.2402C14.7787 36.0402 14.9787 35.9402 15.1787 35.8402C14.1787 35.8402 13.0787 35.9402 12.3787 35.1402C9.77871 33.1402 11.6787 28.9402 14.6787 29.6402H32.6787C32.7787 22.1402 32.7787 14.6402 32.7787 6.94023ZM13.1787 18.2402C13.0787 17.7402 13.6787 17.6402 13.9787 17.7402H29.8787C30.2787 17.7402 30.7787 17.8402 30.6787 18.3402C30.6787 18.5402 30.6787 18.6402 30.4787 18.7402C24.9787 19.0402 19.4787 18.7402 13.9787 18.8402C13.5787 18.8402 13.0787 18.7402 13.1787 18.2402ZM29.7787 21.8402C24.4787 21.8402 19.2787 21.8402 13.8787 21.8402C13.4787 21.8402 12.9787 21.7402 13.0787 21.3402C13.0787 20.9402 13.1787 20.7402 13.8787 20.7402H29.8787C30.5787 20.7402 30.6787 20.9402 30.6787 21.3402C30.6787 21.8402 30.1787 21.9402 29.7787 21.8402ZM13.1787 24.4402C13.1787 24.0402 13.2787 23.8402 13.9787 23.8402H29.9787C30.6787 23.8402 30.7787 24.0402 30.7787 24.4402C30.8787 24.9402 30.2787 25.0402 29.9787 24.9402C24.6787 24.9402 19.3787 24.9402 14.0787 24.9402C13.5787 25.0402 13.0787 24.8402 13.1787 24.4402ZM30.4787 27.9402C24.9787 28.2402 19.4787 27.9402 13.9787 28.0402C13.5787 28.0402 13.0787 27.9402 13.1787 27.5402C13.1787 27.1402 13.2787 26.9402 13.9787 26.9402H29.8787C30.7787 26.8402 30.7787 27.6402 30.4787 27.9402ZM30.4787 15.6402C24.9787 15.9402 19.4787 15.6402 13.9787 15.7402C13.5787 15.7402 13.0787 15.6402 13.1787 15.2402C13.1787 14.8402 13.2787 14.6402 13.9787 14.6402H29.8787C30.7787 14.5402 30.7787 15.3402 30.4787 15.6402ZM30.4787 12.5402C24.9787 12.8402 19.4787 12.5402 13.9787 12.6402C13.5787 12.6402 13.0787 12.5402 13.1787 12.1402C13.1787 11.7402 13.2787 11.5402 13.9787 11.5402H29.8787C30.7787 11.4402 30.7787 12.2402 30.4787 12.5402ZM30.4787 9.44023C24.9787 9.74023 19.4787 9.44023 13.9787 9.54023C13.5787 9.54023 13.0787 9.44023 13.1787 9.04023C13.1787 8.64023 13.2787 8.44023 13.9787 8.44023H29.8787C30.7787 8.44023 30.7787 9.24023 30.4787 9.44023Z" fill="#E5D1B8"/>
<path d="M34.6791 35.94C34.3791 36.14 34.0791 36.24 33.7791 36.34H15.0791C17.7791 35.34 17.9791 31.14 15.2791 30.04H33.0791C36.4791 30.14 37.3791 34.24 34.6791 35.94Z" fill="#D7AF94"/>
<path d="M30.679 18.2398C30.679 18.4398 30.679 18.5398 30.479 18.6398C24.979 18.9398 19.479 18.6398 13.979 18.7398C13.579 18.7398 13.079 18.6398 13.179 18.1398C13.079 17.6398 13.679 17.5398 13.979 17.6398H29.879C30.179 17.6398 30.679 17.8398 30.679 18.2398Z" fill="#C2956D"/>
<path d="M24.6785 18.9401C23.3785 18.9401 22.0785 18.9401 20.8785 18.9401C18.5785 18.9401 16.2785 18.9401 13.9785 18.9401C13.6785 18.9401 13.3785 18.9401 13.1785 18.7401C13.0785 18.6401 12.9785 18.4401 13.0785 18.2401C13.0785 18.0401 13.0785 17.9401 13.1785 17.8401C13.3785 17.6401 13.8785 17.6401 13.9785 17.6401H29.8785C30.0785 17.6401 30.4785 17.6401 30.6785 17.8401C30.7785 17.9401 30.8785 18.1401 30.7785 18.2401C30.7785 18.4401 30.6785 18.6401 30.5785 18.7401C28.5785 18.9401 26.5785 18.9401 24.6785 18.9401ZM16.9785 18.6401H20.7785C23.8785 18.6401 27.1785 18.7401 30.3785 18.5401C30.4785 18.4401 30.4785 18.3401 30.4785 18.2401C30.4785 18.1401 30.4785 18.0401 30.3785 17.9401C30.2785 17.8401 29.9785 17.7401 29.7785 17.7401C24.6785 17.7401 19.5785 17.7401 13.8785 17.7401C13.6785 17.7401 13.3785 17.7401 13.1785 17.9401C13.0785 18.0401 13.0785 18.1401 13.0785 18.2401C13.0785 18.3401 13.0785 18.4401 13.1785 18.5401C13.2785 18.7401 13.5785 18.7401 13.7785 18.7401C14.9785 18.6401 15.9785 18.6401 16.9785 18.6401Z" fill="black"/>
<path d="M29.7793 24.9398C24.4793 24.9398 19.1793 24.9398 13.8793 24.9398C13.4793 24.9398 12.9793 24.8398 13.0793 24.4398C13.0793 24.0398 13.1793 23.8398 13.8793 23.8398H29.8793C30.5793 23.8398 30.6793 24.0398 30.6793 24.4398C30.6793 24.8398 30.1793 25.0398 29.7793 24.9398Z" fill="#C2956D"/>
<path d="M13.7785 25.0402C13.5785 25.0402 13.2785 24.9402 13.1785 24.8402C13.0785 24.7402 12.9785 24.5402 13.0785 24.4402C13.0785 23.9402 13.2785 23.7402 13.9785 23.7402H29.9785C30.5785 23.7402 30.8785 23.9402 30.8785 24.4402C30.8785 24.6402 30.8785 24.7402 30.7785 24.8402C30.5785 25.0402 30.2785 25.0402 29.9785 25.0402C24.3785 25.0402 19.1785 25.0402 14.0785 25.0402C13.8785 25.0402 13.8785 25.0402 13.7785 25.0402ZM21.7785 24.8402H29.7785C29.9785 24.8402 30.2785 24.8402 30.3785 24.6402C30.4785 24.5402 30.4785 24.4402 30.4785 24.3402C30.4785 24.0402 30.4785 23.8402 29.7785 23.8402C24.5785 23.8402 19.1785 23.8402 13.7785 23.8402C13.1785 23.8402 13.0785 24.0402 13.0785 24.3402C13.0785 24.4402 13.0785 24.5402 13.1785 24.6402C13.2785 24.7402 13.5785 24.8402 13.7785 24.8402H21.7785Z" fill="black"/>
<path d="M29.7793 21.8402C24.4793 21.8402 19.2793 21.8402 13.8793 21.8402C13.4793 21.8402 12.9793 21.7402 13.0793 21.3402C13.0793 20.9402 13.1793 20.7402 13.8793 20.7402H29.8793C30.5793 20.7402 30.6793 20.9402 30.6793 21.3402C30.6793 21.8402 30.1793 21.9402 29.7793 21.8402Z" fill="#C2956D"/>
<path d="M13.7789 22.0402C13.5789 22.0402 13.2789 21.9402 13.0789 21.8402C12.9789 21.7402 12.8789 21.5402 12.9789 21.4402C12.9789 20.9402 13.1789 20.7402 13.8789 20.7402H29.8789C30.4789 20.7402 30.7789 20.9402 30.7789 21.4402C30.7789 21.6402 30.7789 21.7402 30.6789 21.8402C30.4789 22.0402 30.0789 22.0402 29.8789 22.0402C24.2789 22.0402 19.0789 22.0402 13.9789 22.0402C13.8789 22.0402 13.8789 22.0402 13.7789 22.0402ZM13.8789 20.8402C13.2789 20.8402 13.1789 21.0402 13.1789 21.3402C13.1789 21.4402 13.1789 21.5402 13.2789 21.6402C13.3789 21.7402 13.6789 21.8402 13.8789 21.8402H29.7789C29.9789 21.8402 30.2789 21.8402 30.3789 21.6402C30.4789 21.5402 30.4789 21.4402 30.4789 21.3402C30.4789 21.0402 30.4789 20.8402 29.7789 20.8402C24.5789 20.9402 19.2789 20.9402 13.8789 20.8402Z" fill="black"/>
<path d="M30.479 27.9402C24.979 28.2402 19.479 27.9402 13.979 28.0402C13.579 28.0402 13.079 27.9402 13.179 27.5402C13.179 27.1402 13.279 26.9402 13.979 26.9402H29.879C30.779 26.8402 30.779 27.6402 30.479 27.9402Z" fill="#C2956D"/>
<path d="M24.6789 28.1402C23.3789 28.1402 22.0789 28.1402 20.7789 28.1402C18.5789 28.1402 16.1789 28.0402 13.8789 28.1402C13.5789 28.1402 13.2789 28.1402 13.0789 27.9402C12.9789 27.8402 12.8789 27.6402 12.9789 27.5402C12.9789 27.0402 13.1789 26.8402 13.8789 26.8402H29.7789C30.3789 26.7402 30.5789 27.0402 30.6789 27.2402C30.7789 27.5402 30.6789 27.8402 30.4789 28.0402C28.5789 28.1402 26.5789 28.1402 24.6789 28.1402ZM16.9789 27.9402H20.8789C24.0789 27.9402 27.2789 28.0402 30.4789 27.8402C30.5789 27.7402 30.6789 27.5402 30.5789 27.3402C30.4789 27.1402 30.1789 27.0402 29.8789 27.0402C24.8789 27.0402 19.4789 27.0402 13.8789 27.0402C13.2789 27.0402 13.1789 27.2402 13.1789 27.5402C13.1789 27.6402 13.1789 27.7402 13.2789 27.8402C13.3789 27.9402 13.6789 28.0402 13.8789 28.0402C14.9789 27.9402 15.9789 27.9402 16.9789 27.9402Z" fill="black"/>
<path d="M30.479 15.6399C24.979 15.9399 19.479 15.6399 13.979 15.7399C13.579 15.7399 13.079 15.6399 13.179 15.2399C13.179 14.8399 13.279 14.6399 13.979 14.6399H29.879C30.779 14.5399 30.779 15.3399 30.479 15.6399Z" fill="#C2956D"/>
<path d="M24.6789 15.8399C23.3789 15.8399 22.0789 15.8399 20.7789 15.8399C18.5789 15.8399 16.1789 15.7399 13.8789 15.8399C13.5789 15.8399 13.2789 15.8399 13.0789 15.6399C12.9789 15.5399 12.8789 15.3399 12.9789 15.2399C12.9789 14.7399 13.1789 14.5399 13.8789 14.5399H29.7789C30.3789 14.4399 30.5789 14.7399 30.6789 14.9399C30.7789 15.2399 30.6789 15.5399 30.4789 15.7399C28.5789 15.8399 26.5789 15.8399 24.6789 15.8399ZM16.9789 15.6399H20.8789C24.0789 15.6399 27.2789 15.7399 30.4789 15.5399C30.5789 15.4399 30.6789 15.2399 30.5789 15.0399C30.4789 14.8399 30.2789 14.7399 29.8789 14.7399C24.5789 14.7399 19.1789 14.7399 13.8789 14.7399C13.2789 14.7399 13.1789 14.9399 13.1789 15.2399C13.1789 15.3399 13.1789 15.4399 13.2789 15.5399C13.3789 15.6399 13.6789 15.7399 13.8789 15.7399C14.9789 15.6399 15.9789 15.6399 16.9789 15.6399Z" fill="black"/>
<path d="M30.479 12.5398C24.979 12.8398 19.479 12.5398 13.979 12.6398C13.579 12.6398 13.079 12.5398 13.179 12.1398C13.179 11.7398 13.279 11.5398 13.979 11.5398H29.879C30.779 11.4398 30.779 12.2398 30.479 12.5398Z" fill="#C2956D"/>
<path d="M24.6789 12.8399C23.3789 12.8399 22.0789 12.8399 20.7789 12.8399C18.5789 12.8399 16.1789 12.7399 13.8789 12.8399C13.5789 12.8399 13.2789 12.8399 13.0789 12.6399C12.9789 12.5399 12.8789 12.3399 12.9789 12.2399C12.9789 11.7399 13.1789 11.5399 13.8789 11.5399H29.7789C30.3789 11.4399 30.5789 11.7399 30.6789 11.9399C30.7789 12.2399 30.6789 12.5399 30.4789 12.7399C28.5789 12.7399 26.5789 12.8399 24.6789 12.8399ZM16.9789 12.5399H20.8789C24.0789 12.5399 27.2789 12.6399 30.4789 12.4399C30.5789 12.3399 30.6789 12.1399 30.5789 11.9399C30.4789 11.7399 30.2789 11.6399 29.8789 11.6399C24.5789 11.6399 19.1789 11.6399 13.8789 11.6399C13.2789 11.6399 13.1789 11.8399 13.1789 12.1399C13.1789 12.2399 13.1789 12.3399 13.2789 12.4399C13.3789 12.5399 13.6789 12.6399 13.8789 12.6399C14.9789 12.5399 15.9789 12.5399 16.9789 12.5399Z" fill="black"/>
<path d="M30.479 9.43994C24.979 9.73994 19.479 9.43994 13.979 9.53994C13.579 9.53994 13.079 9.43994 13.179 9.03994C13.179 8.63994 13.279 8.43994 13.979 8.43994H29.879C30.779 8.43994 30.779 9.23994 30.479 9.43994Z" fill="#C2956D"/>
<path d="M24.6789 9.74027C23.3789 9.74027 22.0789 9.74027 20.7789 9.74027C18.5789 9.74027 16.1789 9.64027 13.8789 9.74027C13.5789 9.74027 13.2789 9.74027 13.0789 9.54027C12.9789 9.44027 12.8789 9.24027 12.9789 9.14027C12.9789 8.64027 13.1789 8.44027 13.8789 8.44027H29.7789C30.3789 8.34027 30.5789 8.64027 30.6789 8.84027C30.7789 9.14027 30.6789 9.44027 30.4789 9.64027C28.5789 9.64027 26.5789 9.74027 24.6789 9.74027ZM16.9789 9.44027H20.8789C24.0789 9.44027 27.2789 9.54027 30.4789 9.34027C30.5789 9.24027 30.6789 9.04027 30.5789 8.84027C30.4789 8.64027 30.2789 8.54027 29.8789 8.54027C24.8789 8.54027 19.4789 8.54027 13.8789 8.54027C13.2789 8.54027 13.1789 8.74027 13.1789 9.04027C13.1789 9.14027 13.1789 9.24027 13.2789 9.34027C13.3789 9.44027 13.6789 9.54027 13.8789 9.54027C14.9789 9.44027 15.9789 9.44027 16.9789 9.44027Z" fill="black"/>
</svg>
